<svg width="33" height="21" viewBox="0 0 33 21" fill="none" xmlns="http://www.w3.org/2000/svg">
<path d="M23.0527 15.7943C22.2647 15.5133 20.9787 15.4943 20.4087 15.2813C19.9699 15.1672 19.5554 14.974 19.1857 14.7113C19.0304 14.0566 18.9631 13.3839 18.9857 12.7113C19.2787 12.4302 19.5162 12.0964 19.6857 11.7273C19.8558 11.0941 19.9686 10.4468 20.0227 9.79335C20.0227 9.79335 20.4867 9.99335 20.6697 9.06235C20.8247 8.26235 21.1197 7.83935 21.0427 7.24835C20.9657 6.65735 20.6347 6.79835 20.6347 6.79835C20.9937 5.97109 21.1342 5.06549 21.0427 4.16835C21.0373 3.59095 20.9131 3.02086 20.6778 2.49354C20.4425 1.96622 20.1013 1.49296 19.6752 1.10322C19.2492 0.713476 18.7475 0.415585 18.2014 0.228086C17.6552 0.0405863 17.0763 -0.0325094 16.5007 0.0133477C15.9251 -0.0325378 15.3461 0.0401732 14.7996 0.226984C14.2531 0.413794 13.7508 0.710732 13.3237 1.09943C12.8965 1.48813 12.5537 1.96033 12.3163 2.48682C12.079 3.0133 11.9522 3.58289 11.9437 4.16035C11.8532 5.05672 11.9908 5.96143 12.3437 6.79035C12.3437 6.79035 12.0137 6.64935 11.9357 7.24035C11.8577 7.83135 12.1477 8.26035 12.3067 9.06035C12.4897 9.99535 12.9537 9.79135 12.9537 9.79135C13.0085 10.4447 13.1212 11.092 13.2907 11.7253C13.4603 12.0944 13.6978 12.4282 13.9907 12.7093C14.0134 13.3819 13.9461 14.0546 13.7907 14.7093C13.4221 14.9723 13.0072 15.1633 12.5677 15.2723C12.0057 15.4903 10.7187 15.5183 9.92375 15.7993C8.9652 16.1586 8.14121 16.8055 7.56474 17.6514C6.98827 18.4973 6.68753 19.5008 6.70375 20.5243H26.2657C26.285 19.5005 25.9863 18.4958 25.4109 17.6487C24.8355 16.8017 24.0116 16.1538 23.0527 15.7943Z" fill="white"/>
<path d="M8.34875 12.3684C9.17483 12.3573 9.98387 12.132 10.6968 11.7144C9.60675 10.0624 10.1968 8.13543 9.97275 6.33543C9.96173 5.92588 9.86598 5.52306 9.69154 5.15236C9.5171 4.78165 9.26775 4.45111 8.95921 4.18156C8.65068 3.91201 8.28964 3.70931 7.89887 3.58623C7.5081 3.46315 7.09607 3.42236 6.68875 3.46643H6.66075C6.25583 3.42797 5.84733 3.47291 5.46046 3.59849C5.0736 3.72407 4.71658 3.92762 4.41146 4.19658C4.10633 4.46553 3.85958 4.79417 3.68643 5.16222C3.51328 5.53026 3.41741 5.92989 3.40475 6.33643C3.17975 8.12943 3.80475 10.2744 2.68775 11.7154C3.40284 12.1261 4.21863 12.3284 5.04275 12.2994C5.08543 12.6942 5.06177 13.0934 4.97275 13.4804C4.73074 13.682 4.43944 13.8156 4.12875 13.8674C3.51248 14.0008 2.90446 14.1697 2.30775 14.3734C1.82965 14.6233 1.42893 14.999 1.14888 15.4601C0.868823 15.9212 0.72009 16.45 0.71875 16.9894H6.36575C6.87903 16.0724 7.66555 15.3383 8.61575 14.8894C9.16641 14.6587 9.75582 14.5345 10.3527 14.5234C10.3527 14.5234 10.6198 14.1014 9.74075 13.9394C9.27357 13.8369 8.82035 13.6787 8.39075 13.4684C8.25675 13.3184 8.34875 12.3684 8.34875 12.3684Z" fill="white"/>
<path d="M24.6605 12.3684C23.8344 12.3573 23.0254 12.132 22.3125 11.7144C23.4025 10.0624 22.8125 8.13543 23.0365 6.33543C23.0475 5.92588 23.1433 5.52306 23.3177 5.15236C23.4921 4.78165 23.7415 4.45111 24.05 4.18156C24.3586 3.91201 24.7196 3.70931 25.1104 3.58623C25.5011 3.46315 25.9132 3.42236 26.3205 3.46643H26.3485C26.7534 3.42797 27.1619 3.47291 27.5488 3.59849C27.9357 3.72407 28.2927 3.92762 28.5978 4.19658C28.9029 4.46553 29.1497 4.79417 29.3228 5.16222C29.496 5.53026 29.5918 5.92989 29.6045 6.33643C29.8295 8.12943 29.2045 10.2744 30.3215 11.7154C29.6064 12.1261 28.7906 12.3284 27.9665 12.2994C27.9238 12.6942 27.9475 13.0934 28.0365 13.4804C28.2785 13.682 28.5698 13.8156 28.8805 13.8674C29.4968 14.0008 30.1048 14.1697 30.7015 14.3734C31.1796 14.6233 31.5803 14.999 31.8604 15.4601C32.1404 15.9212 32.2892 16.45 32.2905 16.9894H26.6435C26.1302 16.0724 25.3437 15.3383 24.3935 14.8894C23.8428 14.6587 23.2534 14.5345 22.6565 14.5234C22.6565 14.5234 22.3895 14.1014 23.2685 13.9394C23.7357 13.8369 24.1889 13.6787 24.6185 13.4684C24.7525 13.3184 24.6605 12.3684 24.6605 12.3684Z" fill="white"/>
</svg>
