<svg width="29" height="30" viewBox="0 0 29 30" fill="none" xmlns="http://www.w3.org/2000/svg">
<path d="M12.6254 10.3797L12.1884 12.8797L14.4774 11.6997L16.7664 12.8797L16.3294 10.3797L18.1814 8.61066L15.6224 8.24566L14.4734 5.97266L13.3284 8.24566L10.7734 8.61066L12.6254 10.3797Z" fill="white"/>
<path d="M23.577 2.96497C23.5803 2.6063 23.5803 2.25364 23.577 1.90697V0.792969H5.31395V1.90697C5.31395 2.25364 5.31395 2.6063 5.31395 2.96497H0.245951V4.07897C0.179892 6.71835 0.985043 9.30601 2.53695 11.442C3.7944 13.035 5.28008 14.4337 6.94595 15.593C7.75671 16.1689 8.51832 16.8111 9.22295 17.513C10.3647 19.0155 11.7555 20.3112 13.335 21.344V23.183H12.778C11.4493 23.1843 10.1755 23.7125 9.23574 24.6516C8.296 25.5908 7.76707 26.8644 7.76495 28.193V29.307H21.131V28.193C21.1296 26.8638 20.601 25.5895 19.6612 24.6497C18.7214 23.7099 17.4471 23.1813 16.118 23.18H15.561V21.344C17.1376 20.313 18.5262 19.0201 19.667 17.521C20.384 16.8098 21.1601 16.1609 21.9869 15.581C23.6686 14.4263 25.171 13.0303 26.446 11.438C28.0143 9.31036 28.8302 6.72137 28.7649 4.07897V2.96497H23.577ZM2.52195 5.19297H5.38095C5.46134 7.48647 5.8227 9.76145 6.45695 11.967C6.51195 12.148 6.56995 12.328 6.62895 12.506C5.46793 11.645 4.50189 10.5485 3.79413 9.28826C3.08636 8.028 2.65284 6.63243 2.52195 5.19297ZM16.122 25.41C16.6637 25.4106 17.1935 25.5689 17.6466 25.8657C18.0998 26.1624 18.4568 26.5847 18.674 27.081H10.225C10.4421 26.5847 10.7991 26.1624 11.2523 25.8657C11.7055 25.5689 12.2353 25.4106 12.777 25.41H16.122ZM18.012 16.036C17.8015 16.2637 17.6074 16.506 17.431 16.761C16.564 17.7785 15.5593 18.6701 14.446 19.41C13.3332 18.6713 12.3289 17.781 11.462 16.765C11.283 16.5065 11.0862 16.2609 10.873 16.03C8.09495 12.242 7.60695 7.49297 7.54595 3.02097H21.346C21.289 7.50197 20.8 12.25 18.009 16.036H18.012ZM22.246 12.557C22.312 12.362 22.375 12.166 22.436 11.967C23.0713 9.76159 23.4336 7.4866 23.5149 5.19297H26.485C26.344 6.65162 25.8928 8.06328 25.1617 9.33333C24.4306 10.6034 23.4365 11.7025 22.246 12.557Z" fill="white"/>
</svg>
