<svg width="40" height="41" viewBox="0 0 40 41" fill="none" xmlns="http://www.w3.org/2000/svg">
<path d="M31.9998 0.371094H23.9999C23.4468 0.371094 22.9999 0.744452 22.9999 1.20445V4.5378H16.9999V1.20445C16.9999 0.744452 16.5529 0.371094 16 0.371094H8.00003C7.447 0.371094 7 0.744452 7 1.20445V5.37108C7 5.59194 7.105 5.80444 7.29297 5.96022L9.99998 8.21608V12.0377C9.99998 12.4977 10.447 12.8711 11 12.8711H13V14.5377H11.9999C11.4469 14.5377 10.9999 14.9111 10.9999 15.3711C10.9999 15.8311 11.4469 16.2044 11.9999 16.2044H13V17.8711C13 18.3311 13.447 18.7044 14 18.7044C14.553 18.7044 15 18.3311 15 17.8711V16.2044H25V17.8711C25 18.3311 25.447 18.7044 26 18.7044C26.553 18.7044 27 18.3311 27 17.8711V16.2044H28.0001C28.5531 16.2044 29.0001 15.8311 29.0001 15.3711C29.0001 14.9111 28.5531 14.5377 28.0001 14.5377H27V12.8711H29C29.553 12.8711 30 12.4977 30 12.0377V8.21608L32.707 5.96022C32.8 5.88293 32.8737 5.7911 32.924 5.69C32.9743 5.5889 33.0001 5.48052 33 5.37108V1.20445C32.9998 0.744452 32.5528 0.371094 31.9998 0.371094ZM30.9999 5.02608L28.2929 7.28194C28.1999 7.35923 28.1261 7.45107 28.0759 7.55217C28.0256 7.65327 27.9998 7.76164 27.9999 7.87108V11.2044H25.9999C25.4469 11.2044 24.9999 11.5778 24.9999 12.0378V14.5378H14.9999V12.8711H21.9999C22.5529 12.8711 22.9999 12.4977 22.9999 12.0377C22.9999 11.5777 22.5529 11.2044 21.9999 11.2044H12V7.87108C12 7.65022 11.895 7.43772 11.7071 7.28194L9.00005 5.02608V2.03773H15V5.37108C15 5.83108 15.447 6.20444 16 6.20444H24C24.553 6.20444 25 5.83108 25 5.37108V2.03773H31V5.02608H30.9999Z" fill="url(#paint0_linear_3052_707)"/>
<path d="M23.9999 7.87109H16C15.4469 7.87109 14.9999 8.24445 14.9999 8.70445C14.9999 9.16445 15.4469 9.53781 16 9.53781H23.9999C24.5529 9.53781 24.9999 9.16445 24.9999 8.70445C24.9999 8.24445 24.5529 7.87109 23.9999 7.87109ZM35.9998 38.7044H33.9999V35.371C33.9999 33.9927 32.6539 32.871 30.9999 32.871H29.9998V30.3711C29.9998 29.9111 29.5529 29.5377 28.9998 29.5377H26.9999V24.5377C26.9999 24.0777 26.5529 23.7043 25.9998 23.7043C25.4468 23.7043 24.9998 24.0777 24.9998 24.5377V29.5377H14.9999V24.5377C14.9999 24.0777 14.5529 23.7043 13.9999 23.7043C13.4469 23.7043 12.9999 24.0777 12.9999 24.5377V29.5377H10.9999C10.4469 29.5377 9.9999 29.9111 9.9999 30.3711V32.871H8.99987C7.34585 32.871 5.99989 33.9927 5.99989 35.371V38.7044H4.00003C3.447 38.7044 3 39.0778 3 39.5378C3 39.9978 3.447 40.3711 4.00003 40.3711H35.9998C36.5528 40.3711 36.9998 39.9978 36.9998 39.5378C36.9998 39.0777 36.5528 38.7044 35.9998 38.7044ZM31.9998 38.7044H7.99994V35.371C7.99994 34.9119 8.44797 34.5377 8.99997 34.5377H10.9999C11.553 34.5377 11.9999 34.1643 11.9999 33.7043V31.2043H27.9999V32.871H14.9999C14.4469 32.871 13.9999 33.2444 13.9999 33.7044C13.9999 34.1644 14.4469 34.5378 14.9999 34.5378H30.9998C31.5518 34.5378 31.9998 34.9119 31.9998 35.3711V38.7044Z" fill="url(#paint1_linear_3052_707)"/>
<path d="M39.9229 13.3861C39.8728 13.2849 39.7993 13.193 39.7064 13.1157C39.6136 13.0383 39.5033 12.977 39.3819 12.9352C39.2608 12.8934 39.131 12.8716 38.9999 12.8711H31.9999C31.4469 12.8711 30.9999 13.2445 30.9999 13.7045C30.9999 14.1645 31.4469 14.5378 31.9999 14.5378H36.5858L29.586 20.3711H7.00019C6.86885 20.3709 6.73876 20.3924 6.61743 20.4343C6.4961 20.4762 6.38591 20.5377 6.29322 20.6152L0.293254 25.6152C0.200293 25.6925 0.126542 25.7844 0.0762215 25.8855C0.0259013 25.9866 0 26.0949 0 26.2044C0 26.3138 0.0259013 26.4222 0.0762215 26.5233C0.126542 26.6244 0.200293 26.7162 0.293254 26.7936C0.488253 26.9561 0.744283 27.0377 1.00022 27.0377C1.25615 27.0377 1.51218 26.9561 1.70718 26.7936L7.41418 22.0377H30C30.1314 22.0379 30.2614 22.0164 30.3828 21.9745C30.5041 21.9326 30.6143 21.8711 30.707 21.7936L38 15.7161V19.5377C38 19.9977 38.4469 20.3711 39 20.3711C39.553 20.3711 40 19.9977 40 19.5377V13.7044C39.9998 13.5951 39.9736 13.4869 39.9229 13.3861Z" fill="url(#paint2_linear_3052_707)"/>
<defs>
<linearGradient id="paint0_linear_3052_707" x1="7" y1="9.53776" x2="33" y2="9.53776" gradientUnits="userSpaceOnUse">
<stop stop-color="#004D6E"/>
<stop offset="1" stop-color="#00ACCC"/>
</linearGradient>
<linearGradient id="paint1_linear_3052_707" x1="3" y1="24.1211" x2="36.9998" y2="24.1211" gradientUnits="userSpaceOnUse">
<stop stop-color="#004D6E"/>
<stop offset="1" stop-color="#00ACCC"/>
</linearGradient>
<linearGradient id="paint2_linear_3052_707" x1="0" y1="19.9544" x2="40" y2="19.9544" gradientUnits="userSpaceOnUse">
<stop stop-color="#004D6E"/>
<stop offset="1" stop-color="#00ACCC"/>
</linearGradient>
</defs>
</svg>
