<svg width="83" height="54" viewBox="0 0 83 54" fill="none" xmlns="http://www.w3.org/2000/svg">
<path d="M58.6788 41.0466C56.6342 40.3176 53.2975 40.2683 51.8186 39.7156C50.6799 39.4194 49.6046 38.9182 48.6454 38.2367C48.2422 36.5377 48.0677 34.7926 48.1265 33.0474C48.8867 32.3179 49.5028 31.4518 49.9427 30.4943C50.384 28.8513 50.6766 27.1718 50.8171 25.4764C50.8171 25.4764 52.021 25.9953 52.4958 23.5797C52.898 21.504 53.6634 20.4065 53.4636 18.8731C53.2638 17.3397 52.405 17.7055 52.405 17.7055C53.3364 15.5591 53.7009 13.2094 53.4636 10.8817C53.4495 9.38354 53.1271 7.90436 52.5167 6.53617C51.9063 5.16799 51.0208 3.94007 49.9154 2.92883C48.81 1.9176 47.5083 1.14469 46.0913 0.6582C44.6743 0.171712 43.1723 -0.0179431 41.6789 0.101038C40.1852 -0.0180167 38.6829 0.17064 37.265 0.655341C35.8472 1.14004 34.5438 1.91048 33.4356 2.91901C32.3273 3.92753 31.4378 5.1527 30.822 6.51873C30.2061 7.88477 29.8771 9.36262 29.8552 10.8609C29.6203 13.1866 29.9773 15.534 30.8931 17.6847C30.8931 17.6847 30.0368 17.3189 29.8344 18.8523C29.6321 20.3857 30.3845 21.4988 30.7971 23.5745C31.2719 26.0005 32.4758 25.4712 32.4758 25.4712C32.6177 27.1665 32.9103 28.8458 33.3502 30.4892C33.7901 31.4466 34.4062 32.3127 35.1664 33.0423C35.2251 34.7874 35.0506 36.5325 34.6475 38.2315C33.691 38.9136 32.6144 39.4092 31.4742 39.6922C30.0161 40.2579 26.6768 40.3305 24.6141 41.0596C22.127 41.9917 19.9891 43.6702 18.4934 45.865C16.9977 48.0598 16.2174 50.6635 16.2594 53.3192H67.0153C67.0652 50.6626 66.2903 48.0559 64.7973 45.8581C63.3044 43.6602 61.1667 41.9792 58.6788 41.0466V41.0466Z" fill="white"/>
<path d="M20.5313 32.1614C22.6746 32.1326 24.7738 31.5479 26.6234 30.4646C23.7953 26.1783 25.3261 21.1784 24.7449 16.5081C24.7163 15.4455 24.4679 14.4004 24.0153 13.4385C23.5627 12.4767 22.9157 11.619 22.1152 10.9197C21.3147 10.2203 20.3779 9.69437 19.364 9.37502C18.3501 9.05567 17.2811 8.94984 16.2242 9.06419H16.1516C15.101 8.96439 14.0411 9.081 13.0373 9.40684C12.0335 9.73267 11.1072 10.2608 10.3155 10.9586C9.52384 11.6565 8.88361 12.5092 8.43435 13.4641C7.9851 14.419 7.73637 15.4559 7.70351 16.5107C7.11972 21.1629 8.74135 26.7283 5.84317 30.4672C7.69856 31.5327 9.8152 32.0576 11.9535 31.9824V31.9824C12.0642 33.0068 12.0028 34.0425 11.7719 35.0467C11.1439 35.5697 10.3881 35.9163 9.58201 36.0508C7.98303 36.3967 6.40545 36.8351 4.85722 37.3636C3.61674 38.0119 2.57702 38.9869 1.85039 40.1831C1.12376 41.3794 0.737852 42.7515 0.734375 44.1512H15.3862C16.7179 41.7718 18.7586 39.8672 21.224 38.7025C22.6528 38.1038 24.1821 37.7816 25.7309 37.7528C25.7309 37.7528 26.4236 36.6579 24.143 36.2376C22.9308 35.9714 21.7549 35.5612 20.6403 35.0155C20.2926 34.6263 20.5313 32.1614 20.5313 32.1614Z" fill="white"/>
<path d="M62.8578 32.1614C60.7144 32.1326 58.6153 31.5479 56.7656 30.4646C59.5938 26.1783 58.0629 21.1784 58.6441 16.5081C58.6727 15.4455 58.9211 14.4004 59.3738 13.4385C59.8264 12.4767 60.4733 11.619 61.2739 10.9197C62.0744 10.2203 63.0111 9.69437 64.025 9.37502C65.0389 9.05567 66.108 8.94984 67.1648 9.06419H67.2375C68.2881 8.96439 69.348 9.081 70.3518 9.40684C71.3555 9.73267 72.2819 10.2608 73.0735 10.9586C73.8652 11.6565 74.5054 12.5092 74.9547 13.4641C75.404 14.419 75.6527 15.4559 75.6855 16.5107C76.2693 21.1629 74.6477 26.7283 77.5459 30.4672C75.6905 31.5327 73.5739 32.0576 71.4356 31.9824V31.9824C71.3248 33.0068 71.3862 34.0425 71.6172 35.0467C72.2451 35.5697 73.0009 35.9163 73.807 36.0508C75.406 36.3967 76.9836 36.8351 78.5318 37.3636C79.7723 38.0119 80.812 38.9869 81.5387 40.1831C82.2653 41.3794 82.6512 42.7515 82.6547 44.1512H68.0029C66.6711 41.7718 64.6304 39.8672 62.165 38.7025C60.7363 38.1038 59.207 37.7816 57.6582 37.7528C57.6582 37.7528 56.9654 36.6579 59.2461 36.2376C60.4582 35.9714 61.6342 35.5612 62.7488 35.0155C63.0965 34.6263 62.8578 32.1614 62.8578 32.1614Z" fill="white"/>
</svg>
