<svg width="40" height="41" viewBox="0 0 40 41" fill="none" xmlns="http://www.w3.org/2000/svg">
<path d="M20 7.87109C13.1075 7.87109 7.5 13.4786 7.5 20.3711C7.5 23.9161 9.0125 27.3036 11.6516 29.6661C13.95 31.7327 16.915 32.8711 20 32.8711C23.085 32.8711 26.05 31.7327 28.3475 29.667C30.9866 27.3045 32.5 23.9161 32.5 20.3711C32.5 13.4786 26.8925 7.87109 20 7.87109ZM25 29.9686V27.8711C25.0001 27.7616 24.9786 27.6532 24.9368 27.5521C24.8949 27.4509 24.8335 27.359 24.7561 27.2816C24.6787 27.2042 24.5868 27.1428 24.4857 27.101C24.3845 27.0591 24.2761 27.0376 24.1666 27.0377C24.0572 27.0376 23.9488 27.0591 23.8476 27.101C23.7465 27.1428 23.6545 27.2042 23.5771 27.2816C23.4997 27.359 23.4384 27.4509 23.3965 27.5521C23.3547 27.6532 23.3332 27.7616 23.3333 27.8711V30.6661C22.2649 31.0136 21.1433 31.2045 19.9999 31.2045C18.8566 31.2045 17.7349 31.0136 16.6666 30.6661V27.8711C16.6667 27.7616 16.6452 27.6532 16.6033 27.5521C16.5615 27.4509 16.5001 27.359 16.4227 27.2816C16.3453 27.2042 16.2534 27.1428 16.1522 27.101C16.0511 27.0591 15.9427 27.0376 15.8332 27.0377C15.7237 27.0376 15.6153 27.0591 15.5142 27.101C15.413 27.1428 15.3211 27.2042 15.2437 27.2816C15.1663 27.359 15.1049 27.4509 15.0631 27.5521C15.0212 27.6532 14.9997 27.7616 14.9998 27.8711V29.9686C14.4001 29.6549 13.8312 29.2855 13.3007 28.8652C13.3116 28.8111 13.3332 28.7611 13.3332 28.7044V26.2044C13.3332 24.826 14.4548 23.7044 15.8332 23.7044H17.1548L19.4107 25.9602C19.488 26.0377 19.5799 26.0992 19.681 26.1411C19.7821 26.183 19.8904 26.2046 19.9999 26.2046C20.1093 26.2046 20.2177 26.183 20.3188 26.1411C20.4199 26.0992 20.5117 26.0377 20.5891 25.9602L22.8449 23.7044H24.1666C25.5449 23.7044 26.6666 24.826 26.6666 26.2044V28.7044C26.6666 28.761 26.6882 28.811 26.6991 28.8652C26.1686 29.2855 25.5997 29.6549 25 29.9686ZM28.3334 27.2636V26.2045C28.3334 23.907 26.4642 22.0378 24.1667 22.0378H22.5C22.3906 22.0376 22.2821 22.0591 22.181 22.101C22.0799 22.1429 21.9881 22.2044 21.9109 22.282L20 24.1927L18.0891 22.2819C18.0119 22.2043 17.9201 22.1428 17.819 22.1009C17.7179 22.059 17.6094 22.0376 17.5 22.0377H15.8334C13.5359 22.0377 11.6667 23.9069 11.6667 26.2044V27.2644C10.0709 25.3385 9.16672 22.9052 9.16672 20.371C9.16672 14.3977 14.0267 9.53766 20.0001 9.53766C25.9734 9.53766 30.8334 14.3977 30.8334 20.3711C30.8334 22.9052 29.93 25.337 28.3334 27.2636Z" fill="url(#paint0_linear_3052_702)"/>
<path d="M20.0026 12.0391C17.7051 12.0391 15.8359 13.9082 15.8359 16.2057C15.8359 18.5033 17.7051 20.3724 20.0026 20.3724C22.3001 20.3724 24.1692 18.5033 24.1692 16.2058C24.1692 13.9083 22.3001 12.0391 20.0026 12.0391ZM20.0026 18.7058C18.6242 18.7058 17.5026 17.5841 17.5026 16.2058C17.5026 14.8274 18.6242 13.7058 20.0026 13.7058C21.3809 13.7058 22.5026 14.8274 22.5026 16.2058C22.5026 17.5841 21.3809 18.7058 20.0026 18.7058Z" fill="url(#paint1_linear_3052_702)"/>
<path d="M39.1666 19.5377H37.4575C37.0316 10.5544 29.8166 3.33937 20.8334 2.91359V1.20445C20.8334 0.744453 20.4609 0.371094 20 0.371094C19.5391 0.371094 19.1666 0.744453 19.1666 1.20445V2.91359C10.1834 3.33945 2.96836 10.5545 2.5425 19.5377H0.833359C0.3725 19.5377 0 19.9111 0 20.3711C0 20.8311 0.3725 21.2045 0.833359 21.2045H2.5425C2.96836 30.1878 10.1834 37.4028 19.1666 37.8286V39.5377C19.1665 39.6472 19.188 39.7556 19.2299 39.8568C19.2717 39.9579 19.3331 40.0498 19.4105 40.1272C19.4879 40.2046 19.5798 40.266 19.681 40.3079C19.7821 40.3497 19.8905 40.3712 20 40.3711C20.1095 40.3712 20.2179 40.3497 20.319 40.3079C20.4202 40.266 20.5121 40.2046 20.5895 40.1272C20.6669 40.0498 20.7283 39.9579 20.7701 39.8568C20.812 39.7556 20.8335 39.6472 20.8334 39.5377V37.8286C29.8167 37.4027 37.0317 30.1877 37.4575 21.2045H39.1666C39.6275 21.2045 40 20.8311 40 20.3711C40 19.9111 39.6275 19.5377 39.1666 19.5377ZM35 21.2045H35.7909C35.3684 29.2686 28.8975 35.7395 20.8334 36.162V35.3711C20.8335 35.2616 20.812 35.1532 20.7701 35.0521C20.7283 34.9509 20.6669 34.859 20.5895 34.7816C20.5121 34.7042 20.4202 34.6428 20.319 34.601C20.2179 34.5591 20.1095 34.5376 20 34.5377C19.8905 34.5376 19.7821 34.5591 19.681 34.601C19.5798 34.6428 19.4879 34.7042 19.4105 34.7816C19.3331 34.859 19.2717 34.9509 19.2299 35.0521C19.188 35.1532 19.1665 35.2616 19.1666 35.3711V36.162C11.1025 35.7395 4.63164 29.2686 4.20914 21.2045H5C5.46086 21.2045 5.83336 20.8311 5.83336 20.3711C5.83336 19.9111 5.46086 19.5377 5 19.5377H4.20914C4.63164 11.4736 11.1025 5.00273 19.1666 4.58023V5.37109C19.1666 5.83109 19.5391 6.20445 20 6.20445C20.4609 6.20445 20.8334 5.83109 20.8334 5.37109V4.58023C28.8975 5.00273 35.3684 11.4736 35.7909 19.5377H35C34.5391 19.5377 34.1666 19.9111 34.1666 20.3711C34.1666 20.8311 34.5391 21.2045 35 21.2045Z" fill="url(#paint2_linear_3052_702)"/>
<path d="M13.3308 17.8711H12.4974C12.0366 17.8711 11.6641 18.2445 11.6641 18.7045C11.6641 19.1645 12.0366 19.5378 12.4974 19.5378H13.3308C13.7916 19.5378 14.1641 19.1645 14.1641 18.7045C14.1641 18.2445 13.7916 17.8711 13.3308 17.8711ZM27.4974 17.8711H26.6641C26.2032 17.8711 25.8307 18.2445 25.8307 18.7045C25.8307 19.1645 26.2032 19.5378 26.6641 19.5378H27.4974C27.9583 19.5378 28.3308 19.1645 28.3308 18.7045C28.3308 18.2445 27.9583 17.8711 27.4974 17.8711Z" fill="url(#paint3_linear_3052_702)"/>
<defs>
<linearGradient id="paint0_linear_3052_702" x1="7.5" y1="20.3711" x2="32.5" y2="20.3711" gradientUnits="userSpaceOnUse">
<stop stop-color="#004D6E"/>
<stop offset="1" stop-color="#00ACCC"/>
</linearGradient>
<linearGradient id="paint1_linear_3052_702" x1="15.8359" y1="16.2057" x2="24.1692" y2="16.2057" gradientUnits="userSpaceOnUse">
<stop stop-color="#004D6E"/>
<stop offset="1" stop-color="#00ACCC"/>
</linearGradient>
<linearGradient id="paint2_linear_3052_702" x1="0" y1="20.3711" x2="40" y2="20.3711" gradientUnits="userSpaceOnUse">
<stop stop-color="#004D6E"/>
<stop offset="1" stop-color="#00ACCC"/>
</linearGradient>
<linearGradient id="paint3_linear_3052_702" x1="11.6641" y1="18.7045" x2="28.3308" y2="18.7045" gradientUnits="userSpaceOnUse">
<stop stop-color="#004D6E"/>
<stop offset="1" stop-color="#00ACCC"/>
</linearGradient>
</defs>
</svg>
