<svg width="40" height="40" viewBox="0 0 40 40" fill="none" xmlns="http://www.w3.org/2000/svg">
<path d="M30.6356 7.29375L28.7106 8.405C28.4342 8.10435 28.1455 7.81535 27.845 7.53875L28.9563 5.61438C28.9975 5.54336 29.0244 5.46488 29.0352 5.38346C29.0461 5.30203 29.0407 5.21927 29.0194 5.13992C28.9982 5.06058 28.9614 4.98622 28.9113 4.92113C28.8612 4.85603 28.7988 4.80148 28.7275 4.76063L24.3975 2.26063C24.3264 2.21951 24.248 2.1928 24.1666 2.18205C24.0852 2.17129 24.0025 2.17669 23.9232 2.19794C23.8439 2.21918 23.7696 2.25586 23.7044 2.30587C23.6393 2.35588 23.5847 2.41824 23.5437 2.48937L22.435 4.41C22.0447 4.28795 21.6494 4.18285 21.25 4.095V1.875C21.25 1.70924 21.1842 1.55027 21.0669 1.43306C20.9497 1.31585 20.7908 1.25 20.625 1.25H15.625C15.4592 1.25 15.3003 1.31585 15.1831 1.43306C15.0658 1.55027 15 1.70924 15 1.875V4.095C14.5988 4.18375 14.2031 4.28938 13.815 4.41062L12.7063 2.49C12.6231 2.34671 12.4866 2.24218 12.3266 2.19931C12.1666 2.15644 11.9961 2.17871 11.8525 2.26125L7.5225 4.76125C7.45124 4.80211 7.38876 4.85666 7.33866 4.92175C7.28856 4.98685 7.25182 5.0612 7.23056 5.14055C7.2093 5.21989 7.20394 5.30266 7.21478 5.38408C7.22563 5.46551 7.25246 5.54399 7.29375 5.615L8.405 7.53937C8.105 7.815 7.81562 8.10437 7.53937 8.405L5.61438 7.29437C5.54332 7.25326 5.46485 7.22655 5.38346 7.2158C5.30207 7.20504 5.21936 7.21044 5.14006 7.23169C5.06076 7.25293 4.98643 7.28961 4.92132 7.33962C4.85621 7.38963 4.8016 7.45199 4.76063 7.52312L2.26063 11.8531C2.17813 11.9963 2.15562 12.1675 2.19813 12.3275C2.24062 12.4875 2.34563 12.6244 2.48937 12.7069L4.41062 13.8156C4.28845 14.2057 4.18314 14.6009 4.095 15H1.875C1.70924 15 1.55027 15.0658 1.43306 15.1831C1.31585 15.3003 1.25 15.4592 1.25 15.625V20.625C1.25 20.7908 1.31585 20.9497 1.43306 21.0669C1.55027 21.1842 1.70924 21.25 1.875 21.25H4.095C4.18375 21.6513 4.28938 22.0469 4.41062 22.435L2.48937 23.5437C2.41811 23.5846 2.35564 23.6392 2.30553 23.7043C2.25543 23.7693 2.21869 23.8437 2.19743 23.923C2.17617 24.0024 2.17081 24.0852 2.18166 24.1666C2.1925 24.248 2.21934 24.3265 2.26063 24.3975L4.76063 28.7275C4.84351 28.871 4.98002 28.9758 5.14013 29.0187C5.30023 29.0616 5.47083 29.0391 5.61438 28.9563L7.53937 27.845C7.81562 28.1456 8.105 28.435 8.405 28.7113L7.29375 30.6356C7.25246 30.7066 7.22563 30.7851 7.21478 30.8665C7.20394 30.948 7.2093 31.0307 7.23056 31.1101C7.25182 31.1894 7.28856 31.2638 7.33866 31.3289C7.38876 31.394 7.45124 31.4485 7.5225 31.4894L11.8525 33.9894C11.9961 34.0721 12.1666 34.0944 12.3267 34.0516C12.4867 34.0087 12.6232 33.904 12.7063 33.7606L13.815 31.84C14.2025 31.9613 14.5988 32.0669 15 32.1556V34.375C15 34.5408 15.0658 34.6997 15.1831 34.8169C15.3003 34.9342 15.4592 35 15.625 35H18.125V33.75H16.25V31.6444C16.2499 31.4983 16.1987 31.3568 16.1052 31.2446C16.0117 31.1324 15.8818 31.0564 15.7381 31.03C15.0584 30.9053 14.3896 30.7268 13.7381 30.4963C13.6004 30.4473 13.45 30.4481 13.3128 30.4986C13.1757 30.549 13.0606 30.646 12.9875 30.7725L11.9356 32.5938L8.68813 30.7188L9.74187 28.8937C9.8925 28.6331 9.83563 28.3019 9.60688 28.1056C9.08143 27.6567 8.59201 27.1673 8.14313 26.6419C8.04806 26.5313 7.91741 26.4573 7.77367 26.4327C7.62993 26.408 7.4821 26.4343 7.35563 26.5069L5.53062 27.5606L3.65562 24.3138L5.47687 23.2619C5.60341 23.1888 5.70033 23.0737 5.7508 22.9365C5.80127 22.7994 5.80209 22.6489 5.75313 22.5113C5.52256 21.86 5.34429 21.1914 5.22 20.5119C5.19381 20.3682 5.11803 20.2383 5.00587 20.1447C4.89372 20.0512 4.75229 20 4.60625 20H2.5V16.25H4.60625C4.75234 16.2499 4.89378 16.1987 5.00602 16.1052C5.11825 16.0117 5.19418 15.8818 5.22062 15.7381C5.3453 15.0584 5.52357 14.3897 5.75375 13.7381C5.80255 13.6005 5.80164 13.4502 5.75118 13.3132C5.70072 13.1762 5.60389 13.0612 5.4775 12.9881L3.65625 11.9362L5.53125 8.68937L7.35625 9.74312C7.6175 9.8925 7.94812 9.83687 8.14375 9.6075C8.59259 9.08241 9.08179 8.59321 9.60688 8.14437C9.71803 8.04957 9.79246 7.91882 9.81724 7.77484C9.84201 7.63087 9.81557 7.48276 9.7425 7.35625L8.68875 5.53125L11.9362 3.65625L12.9875 5.4775C13.0606 5.60403 13.1757 5.70095 13.3128 5.75142C13.45 5.80189 13.6004 5.80271 13.7381 5.75375C14.3898 5.52377 15.0585 5.3453 15.7381 5.22C15.8819 5.19379 16.0119 5.11792 16.1055 5.00563C16.199 4.89335 16.2502 4.75178 16.25 4.60562V2.5H20V4.60562C20.0001 4.75171 20.0513 4.89316 20.1448 5.00539C20.2383 5.11762 20.3682 5.19356 20.5119 5.22C21.1969 5.34625 21.87 5.52563 22.5119 5.75375C22.7944 5.85375 23.1112 5.73875 23.2625 5.4775L24.3144 3.65625L27.5619 5.53125L26.5081 7.35625C26.3575 7.61688 26.4144 7.94812 26.6431 8.14437C27.1686 8.59326 27.658 9.08268 28.1069 9.60812C28.3025 9.83687 28.6337 9.89312 28.8944 9.74312L30.7194 8.68937L32.5944 11.9362L30.7731 12.9881C30.6466 13.0612 30.5497 13.1763 30.4992 13.3135C30.4487 13.4506 30.4479 13.6011 30.4969 13.7388C30.725 14.3806 30.9044 15.0538 31.03 15.7381C31.0837 16.0344 31.3425 16.25 31.6438 16.25H33.75V18.125H35V15.625C35 15.4592 34.9342 15.3003 34.8169 15.1831C34.6997 15.0658 34.5408 15 34.375 15H32.155C32.0666 14.6007 31.9613 14.2053 31.8394 13.815L33.76 12.7063C33.8313 12.6654 33.8937 12.6108 33.9438 12.5457C33.9939 12.4807 34.0307 12.4063 34.0519 12.327C34.0732 12.2476 34.0786 12.1648 34.0677 12.0834C34.0569 12.002 34.03 11.9235 33.9888 11.8525L31.4888 7.5225C31.4478 7.45138 31.3933 7.38904 31.3282 7.33904C31.2632 7.28904 31.1889 7.25236 31.1096 7.23111C31.0304 7.20986 30.9477 7.20446 30.8664 7.21521C30.7851 7.22596 30.7066 7.25265 30.6356 7.29375Z" fill="url(#paint0_linear_2946_3666)"/>
<path d="M18.125 8.75C22.625 8.75 26.4981 11.9531 27.3356 16.3669L28.5637 16.1337C27.6144 11.1312 23.2244 7.5 18.125 7.5C12.2663 7.5 7.5 12.2663 7.5 18.125C7.5 23.225 11.1312 27.615 16.1337 28.5631L16.3663 27.335C11.9531 26.4981 8.75 22.625 8.75 18.125C8.75 12.9556 12.9556 8.75 18.125 8.75Z" fill="url(#paint1_linear_2946_3666)"/>
<path d="M28.125 17.5C22.2663 17.5 17.5 22.2663 17.5 28.125C17.5 33.9837 22.2663 38.75 28.125 38.75C33.9837 38.75 38.75 33.9837 38.75 28.125C38.75 22.2663 33.9837 17.5 28.125 17.5ZM28.125 37.5C22.9556 37.5 18.75 33.2944 18.75 28.125C18.75 22.9556 22.9556 18.75 28.125 18.75C33.2944 18.75 37.5 22.9556 37.5 28.125C37.5 33.2944 33.2944 37.5 28.125 37.5Z" fill="url(#paint2_linear_2946_3666)"/>
<path d="M28.75 23.125H27.5V28.125C27.5 28.222 27.5226 28.3177 27.566 28.4045C27.6094 28.4913 27.6724 28.5668 27.75 28.625L30.25 30.5L31 29.5L28.75 27.8125V23.125Z" fill="url(#paint3_linear_2946_3666)"/>
<path d="M28.125 20C23.645 20 20 23.645 20 28.125C20 32.605 23.645 36.25 28.125 36.25C32.605 36.25 36.25 32.605 36.25 28.125C36.25 23.645 32.605 20 28.125 20ZM28.125 35C24.3344 35 21.25 31.9156 21.25 28.125C21.25 24.3344 24.3344 21.25 28.125 21.25C31.9156 21.25 35 24.3344 35 28.125C35 31.9156 31.9156 35 28.125 35Z" fill="url(#paint4_linear_2946_3666)"/>
<defs>
<linearGradient id="paint0_linear_2946_3666" x1="1.25" y1="18.125" x2="35" y2="18.125" gradientUnits="userSpaceOnUse">
<stop stop-color="#004D6E"/>
<stop offset="1" stop-color="#00ACCC"/>
</linearGradient>
<linearGradient id="paint1_linear_2946_3666" x1="7.5" y1="18.0316" x2="28.5637" y2="18.0316" gradientUnits="userSpaceOnUse">
<stop stop-color="#004D6E"/>
<stop offset="1" stop-color="#00ACCC"/>
</linearGradient>
<linearGradient id="paint2_linear_2946_3666" x1="17.5" y1="28.125" x2="38.75" y2="28.125" gradientUnits="userSpaceOnUse">
<stop stop-color="#004D6E"/>
<stop offset="1" stop-color="#00ACCC"/>
</linearGradient>
<linearGradient id="paint3_linear_2946_3666" x1="27.5" y1="26.8125" x2="31" y2="26.8125" gradientUnits="userSpaceOnUse">
<stop stop-color="#004D6E"/>
<stop offset="1" stop-color="#00ACCC"/>
</linearGradient>
<linearGradient id="paint4_linear_2946_3666" x1="20" y1="28.125" x2="36.25" y2="28.125" gradientUnits="userSpaceOnUse">
<stop stop-color="#004D6E"/>
<stop offset="1" stop-color="#00ACCC"/>
</linearGradient>
</defs>
</svg>
