<svg width="60" height="61" viewBox="0 0 60 61" fill="none" xmlns="http://www.w3.org/2000/svg">
<path d="M22.5 49.1211V57.5586C22.5 57.8072 22.5988 58.0457 22.7746 58.2215C22.9504 58.3973 23.1889 58.4961 23.4375 58.4961H36.5625C36.8111 58.4961 37.0496 58.3973 37.2254 58.2215C37.4012 58.0457 37.5 57.8072 37.5 57.5586V49.1211C37.5027 48.1358 37.31 47.1597 36.9329 46.2494C36.5559 45.339 36.002 44.5125 35.3034 43.8177C34.7214 43.2383 34.0485 42.7582 33.3113 42.3964C34.5422 41.4973 35.4084 40.1267 35.5856 38.5189C35.6138 38.3061 35.625 38.0933 35.625 37.8711C35.625 37.6873 35.6147 37.513 35.5978 37.3555C35.3334 34.4905 32.8753 32.2461 30 32.2461C27.1247 32.2461 24.6666 34.4905 24.4041 37.3386C24.3848 37.5154 24.3751 37.6932 24.375 37.8711C24.375 38.0933 24.3863 38.3061 24.4116 38.4964C24.5906 40.1192 25.4597 41.4973 26.6944 42.3983C24.2147 43.6236 22.5 46.1727 22.5 49.1211ZM30 34.1211C31.2038 34.1211 32.2969 34.7127 32.9878 35.6295C32.0231 35.2546 30.9975 35.0611 29.9625 35.0586C28.95 35.0586 27.9703 35.2395 27.0497 35.5798C27.3985 35.1288 27.8455 34.763 28.3566 34.5103C28.8678 34.2575 29.4298 34.1244 30 34.1211ZM26.2725 38.2705C26.2659 38.218 26.2669 38.1627 26.2631 38.1102C27.3455 37.3461 28.6376 36.9352 29.9625 36.9336C31.3406 36.9336 32.6288 37.3686 33.7322 38.1589C33.7284 38.2039 33.7303 38.2442 33.7238 38.292C33.5156 40.1895 31.9144 41.6211 30 41.6211C28.0856 41.6211 26.4844 40.1895 26.2725 38.2705ZM30.8813 49.9498L30 51.7123L29.1188 49.9498L30 46.4239L30.8813 49.9498ZM28.7644 43.6377L27.2156 49.8317C27.1609 50.0488 27.1859 50.2783 27.2859 50.4786L29.1609 54.2286C29.2393 54.384 29.3592 54.5146 29.5074 54.6058C29.6556 54.697 29.8263 54.7452 30.0003 54.7451C30.1743 54.745 30.3449 54.6966 30.493 54.6052C30.6411 54.5139 30.7609 54.3831 30.8391 54.2277L32.7141 50.4777C32.8141 50.2774 32.8391 50.0479 32.7844 49.8308L31.2356 43.6358C32.2745 43.8665 33.2259 44.3892 33.9778 45.1423C34.5017 45.6638 34.917 46.2839 35.1997 46.9668C35.4825 47.6497 35.627 48.382 35.625 49.1211V56.6211H24.375V49.1211C24.375 46.4445 26.2556 44.202 28.7644 43.6377ZM55.9284 40.0677C55.3464 39.4883 54.6735 39.0082 53.9363 38.6464C55.1672 37.7473 56.0334 36.3767 56.2106 34.7689C56.2388 34.5561 56.25 34.3433 56.25 34.1211C56.25 33.9373 56.2397 33.763 56.2228 33.6055C55.9584 30.7405 53.5003 28.4961 50.625 28.4961C47.7497 28.4961 45.2916 30.7405 45.0291 33.5886C45.0098 33.7654 45.0001 33.9432 45 34.1211C45 34.3433 45.0113 34.5561 45.0366 34.7464C45.2156 36.3692 46.0847 37.7473 47.3194 38.6483C44.8397 39.8736 43.125 42.4227 43.125 45.3711V53.8086C43.125 54.0572 43.2238 54.2957 43.3996 54.4715C43.5754 54.6473 43.8139 54.7461 44.0625 54.7461H57.1875C57.4361 54.7461 57.6746 54.6473 57.8504 54.4715C58.0262 54.2957 58.125 54.0572 58.125 53.8086V45.3711C58.1277 44.3858 57.935 43.4097 57.5579 42.4994C57.1809 41.589 56.627 40.7625 55.9284 40.0677ZM50.625 30.3711C51.8288 30.3711 52.9219 30.9627 53.6128 31.8795C52.6481 31.5046 51.6225 31.3111 50.5875 31.3086C49.575 31.3086 48.5953 31.4895 47.6747 31.8298C48.0235 31.3788 48.4705 31.013 48.9816 30.7603C49.4928 30.5075 50.0548 30.3744 50.625 30.3711ZM46.8975 34.5205C46.8909 34.468 46.8919 34.4127 46.8881 34.3602C47.9705 33.5961 49.2626 33.1852 50.5875 33.1836C51.9656 33.1836 53.2538 33.6186 54.3572 34.4089C54.3534 34.4539 54.3553 34.4942 54.3488 34.542C54.1406 36.4395 52.5394 37.8711 50.625 37.8711C48.7106 37.8711 47.1094 36.4395 46.8975 34.5205ZM51.5063 46.1998L50.625 47.9623L49.7438 46.1998L50.625 42.6739L51.5063 46.1998ZM56.25 52.8711H45V45.3711C45 42.6945 46.8806 40.452 49.3894 39.8877L47.8406 46.0817C47.7859 46.2988 47.8109 46.5283 47.9109 46.7286L49.7859 50.4786C49.8643 50.634 49.9842 50.7646 50.1324 50.8558C50.2806 50.947 50.4513 50.9952 50.6253 50.9951C50.7993 50.995 50.9699 50.9466 51.118 50.8552C51.2661 50.7639 51.3859 50.6331 51.4641 50.4777L53.3391 46.7277C53.4391 46.5274 53.4641 46.2979 53.4094 46.0808L51.8606 39.8858C52.8995 40.1165 53.8509 40.6392 54.6028 41.3923C55.1267 41.9138 55.542 42.5339 55.8247 43.2168C56.1075 43.8997 56.252 44.632 56.25 45.3711V52.8711ZM2.8125 54.7461H15.9375C16.1861 54.7461 16.4246 54.6473 16.6004 54.4715C16.7762 54.2957 16.875 54.0572 16.875 53.8086V45.3711C16.8777 44.3858 16.685 43.4097 16.3079 42.4994C15.9309 41.589 15.377 40.7625 14.6784 40.0677C14.0964 39.4883 13.4235 39.0082 12.6863 38.6464C13.9172 37.7473 14.7834 36.3767 14.9606 34.7689C14.9888 34.5561 15 34.3433 15 34.1211C15 33.9373 14.9897 33.763 14.9728 33.6055C14.7084 30.7405 12.2503 28.4961 9.375 28.4961C6.49969 28.4961 4.04156 30.7405 3.77906 33.5886C3.75978 33.7654 3.75008 33.9432 3.75 34.1211C3.75 34.3433 3.76125 34.5561 3.78656 34.7464C3.96563 36.3692 4.83469 37.7473 6.06938 38.6483C3.58969 39.8736 1.875 42.4227 1.875 45.3711V53.8086C1.875 54.0572 1.97377 54.2957 2.14959 54.4715C2.3254 54.6473 2.56386 54.7461 2.8125 54.7461ZM9.375 30.3711C10.5788 30.3711 11.6719 30.9627 12.3628 31.8795C11.3981 31.5046 10.3725 31.3111 9.3375 31.3086C8.325 31.3086 7.34531 31.4895 6.42469 31.8298C6.77353 31.3788 7.22047 31.013 7.73163 30.7603C8.24279 30.5075 8.80478 30.3744 9.375 30.3711ZM5.6475 34.5205C5.64094 34.468 5.64188 34.4127 5.63813 34.3602C6.72054 33.5961 8.01259 33.1852 9.3375 33.1836C10.7156 33.1836 12.0038 33.6186 13.1072 34.4089C13.1034 34.4539 13.1053 34.4942 13.0988 34.542C12.8906 36.4395 11.2894 37.8711 9.375 37.8711C7.46063 37.8711 5.85938 36.4395 5.6475 34.5205ZM10.2563 46.1998L9.375 47.9623L8.49375 46.1998L9.375 42.6739L10.2563 46.1998ZM3.75 45.3711C3.75 42.6945 5.63063 40.452 8.13938 39.8877L6.59063 46.0808C6.53591 46.2979 6.56086 46.5274 6.66094 46.7277L8.53594 50.4777C8.61394 50.6334 8.73374 50.7643 8.88192 50.8558C9.03011 50.9473 9.20084 50.9958 9.375 50.9958C9.54917 50.9958 9.71989 50.9473 9.86808 50.8558C10.0163 50.7643 10.1361 50.6334 10.2141 50.4777L12.0891 46.7277C12.1891 46.5274 12.2141 46.2979 12.1594 46.0808L10.6106 39.8858C11.6495 40.1165 12.6009 40.6392 13.3528 41.3923C13.8767 41.9138 14.292 42.5339 14.5747 43.2168C14.8575 43.8997 15.002 44.632 15 45.3711V52.8711H3.75V45.3711ZM43.125 20.0586C43.3736 20.0586 43.6121 19.9598 43.7879 19.784C43.9637 19.6082 44.0625 19.3697 44.0625 19.1211V13.4961C44.0625 13.2475 43.9637 13.009 43.7879 12.8332C43.6121 12.6574 43.3736 12.5586 43.125 12.5586H40.6003C40.4681 12.1836 40.3172 11.817 40.1494 11.4636L41.9325 9.67953C42.0196 9.59254 42.0888 9.48923 42.1359 9.37549C42.1831 9.26176 42.2074 9.13984 42.2074 9.01672C42.2074 8.89359 42.1831 8.77168 42.1359 8.65794C42.0888 8.54421 42.0196 8.4409 41.9325 8.35391L37.9556 4.37609C37.7764 4.20692 37.5393 4.11269 37.2928 4.11269C37.0464 4.11269 36.8092 4.20692 36.63 4.37609L34.8459 6.16016C34.4906 5.99141 34.125 5.84047 33.75 5.70828V3.18359C33.75 2.93495 33.6512 2.6965 33.4754 2.52068C33.2996 2.34487 33.0611 2.24609 32.8125 2.24609H27.1875C26.9389 2.24609 26.7004 2.34487 26.5246 2.52068C26.3488 2.6965 26.25 2.93495 26.25 3.18359V5.70828C25.875 5.84047 25.5094 5.99141 25.155 6.15922L23.3709 4.37516C23.1917 4.20599 22.9546 4.11175 22.7081 4.11175C22.4617 4.11175 22.2245 4.20599 22.0453 4.37516L18.0684 8.35297C17.9813 8.43996 17.9122 8.54327 17.865 8.65701C17.8178 8.77074 17.7936 8.89266 17.7936 9.01578C17.7936 9.13891 17.8178 9.26082 17.865 9.37456C17.9122 9.48829 17.9813 9.59161 18.0684 9.67859L19.8516 11.4627C19.6828 11.817 19.5319 12.1827 19.4006 12.5577H16.875C16.6264 12.5577 16.3879 12.6564 16.2121 12.8322C16.0363 13.0081 15.9375 13.2465 15.9375 13.4952V19.1202C15.9375 19.3688 16.0363 19.6073 16.2121 19.7831C16.3879 19.9589 16.6264 20.0577 16.875 20.0577H19.3997C19.5319 20.4327 19.6828 20.7992 19.8506 21.1527L18.0675 22.9367C17.9804 23.0237 17.9112 23.127 17.8641 23.2408C17.8169 23.3545 17.7926 23.4764 17.7926 23.5995C17.7926 23.7227 17.8169 23.8446 17.8641 23.9583C17.9112 24.072 17.9804 24.1754 18.0675 24.2623L22.0444 28.2402C22.2236 28.4093 22.4607 28.5036 22.7072 28.5036C22.9536 28.5036 23.1908 28.4093 23.37 28.2402L25.1541 26.4561C25.5084 26.6248 25.8741 26.7758 26.2491 26.907V29.4336C26.2491 29.6822 26.3478 29.9207 26.5237 30.0965C26.6995 30.2723 26.9379 30.3711 27.1866 30.3711H32.8116C33.0602 30.3711 33.2987 30.2723 33.4745 30.0965C33.6503 29.9207 33.7491 29.6822 33.7491 29.4336V26.9089C34.1241 26.7767 34.4897 26.6258 34.8441 26.458L36.6281 28.242C36.8074 28.4112 37.0445 28.5054 37.2909 28.5054C37.5374 28.5054 37.7745 28.4112 37.9538 28.242L41.9306 24.2642C42.0178 24.1772 42.0869 24.0739 42.1341 23.9602C42.1812 23.8464 42.2055 23.7245 42.2055 23.6014C42.2055 23.4783 42.1812 23.3564 42.1341 23.2426C42.0869 23.1289 42.0178 23.0256 41.9306 22.9386L40.1475 21.1545C40.3163 20.8002 40.4672 20.4345 40.5984 20.0595L43.125 20.0586ZM38.3391 21.9955L39.9441 23.6005L37.2928 26.2527L35.6878 24.6477C35.5432 24.5037 35.3558 24.4106 35.1537 24.3826C34.9516 24.3545 34.7458 24.3929 34.5675 24.492C33.9321 24.8456 33.2575 25.1237 32.5575 25.3208C32.3611 25.3763 32.1881 25.4944 32.0649 25.6572C31.9418 25.82 31.8751 26.0185 31.875 26.2227V28.4961H28.125V26.2227C28.1249 26.0185 28.0583 25.82 27.9351 25.6572C27.8119 25.4944 27.6389 25.3763 27.4425 25.3208C26.7425 25.1237 26.0679 24.8456 25.4325 24.492C25.2542 24.3928 25.0484 24.3543 24.8463 24.3823C24.6442 24.4104 24.4567 24.5035 24.3122 24.6477L22.7072 26.2527L20.0559 23.6005L21.6609 21.9955C21.9572 21.6992 22.0209 21.2408 21.8166 20.8752C21.4627 20.2397 21.1842 19.5652 20.9869 18.8652C20.9315 18.6689 20.8135 18.4961 20.6509 18.3731C20.4882 18.25 20.2899 18.1835 20.0859 18.1836H17.8125V14.4336H20.0859C20.29 14.4336 20.4884 14.367 20.6512 14.244C20.8139 14.121 20.9321 13.9483 20.9878 13.752C21.1852 13.052 21.4636 12.3774 21.8175 11.742C21.9171 11.5638 21.9558 11.358 21.9277 11.1558C21.8996 10.9536 21.8063 10.766 21.6619 10.6217L20.0569 9.01672L22.7081 6.36453L24.3131 7.96953C24.4575 8.11391 24.645 8.20724 24.8472 8.23532C25.0494 8.26341 25.2552 8.22473 25.4334 8.12516C26.0689 7.77158 26.7435 7.49345 27.4434 7.29641C27.6397 7.24071 27.8124 7.12251 27.9354 6.95975C28.0584 6.79699 28.125 6.59854 28.125 6.39453V4.12109H31.875V6.39453C31.8751 6.59867 31.9418 6.7972 32.0649 6.95998C32.1881 7.12276 32.3611 7.24088 32.5575 7.29641C33.2575 7.49345 33.9321 7.77158 34.5675 8.12516C34.7456 8.22504 34.9516 8.2639 35.1538 8.2358C35.3561 8.2077 35.5437 8.11418 35.6878 7.96953L37.2928 6.36453L39.9441 9.01672L38.3391 10.6217C38.1948 10.7661 38.1016 10.9536 38.0735 11.1558C38.0454 11.358 38.084 11.5638 38.1834 11.742C38.5322 12.3655 38.8116 13.0414 39.0131 13.752C39.1266 14.1552 39.495 14.4336 39.9141 14.4336H42.1875V18.1836H39.9141C39.7101 18.1836 39.5116 18.2501 39.3488 18.3731C39.1861 18.4962 39.0679 18.6689 39.0122 18.8652C38.8148 19.5652 38.5364 20.2397 38.1825 20.8752C37.9791 21.2417 38.0419 21.6992 38.3391 21.9955Z" fill="url(#paint0_linear_3055_1987)"/>
<path d="M30 8.80859C25.8647 8.80859 22.5 12.1733 22.5 16.3086C22.5 20.4439 25.8647 23.8086 30 23.8086C34.1353 23.8086 37.5 20.4439 37.5 16.3086C37.5 12.1733 34.1353 8.80859 30 8.80859ZM30 21.9336C26.8978 21.9336 24.375 19.4108 24.375 16.3086C24.375 13.2064 26.8978 10.6836 30 10.6836C33.1022 10.6836 35.625 13.2064 35.625 16.3086C35.625 19.4108 33.1022 21.9336 30 21.9336ZM8.4375 16.3086V26.6211H10.3125V17.2461H14.0625V15.3711H9.375C9.12636 15.3711 8.8879 15.4699 8.71209 15.6457C8.53627 15.8215 8.4375 16.06 8.4375 16.3086ZM51.5625 26.6211V16.3086C51.5625 16.06 51.4637 15.8215 51.2879 15.6457C51.1121 15.4699 50.8736 15.3711 50.625 15.3711H45.9375V17.2461H49.6875V26.6211H51.5625Z" fill="url(#paint1_linear_3055_1987)"/>
<defs>
<linearGradient id="paint0_linear_3055_1987" x1="1.875" y1="30.3711" x2="58.125" y2="30.3711" gradientUnits="userSpaceOnUse">
<stop stop-color="#004D6E"/>
<stop offset="1" stop-color="#00ACCC"/>
</linearGradient>
<linearGradient id="paint1_linear_3055_1987" x1="8.4375" y1="17.7148" x2="51.5625" y2="17.7148" gradientUnits="userSpaceOnUse">
<stop stop-color="#004D6E"/>
<stop offset="1" stop-color="#00ACCC"/>
</linearGradient>
</defs>
</svg>
