<svg width="60" height="61" viewBox="0 0 60 61" fill="none" xmlns="http://www.w3.org/2000/svg">
<path d="M7.75721 48.898C7.88714 49.0844 8.03919 49.2544 8.21002 49.4042L11.9235 52.6536C12.1953 52.8917 12.5094 53.1383 12.8394 53.3961C13.9831 54.2895 15.2788 55.302 15.2 56.398C15.155 57.0233 15.0875 57.6467 15.02 58.2692L15.006 58.3967L16.8697 58.5983L16.8838 58.4717C16.9541 57.8258 17.0235 57.1798 17.0694 56.532C17.2203 54.4405 15.4316 53.0417 13.9953 51.9186C13.6944 51.6842 13.4066 51.4592 13.1581 51.2427L9.44659 47.9952C9.38942 47.9448 9.33843 47.8879 9.29471 47.8255L3.90127 40.1202C3.83721 40.0296 3.79207 39.927 3.76856 39.8186C3.74504 39.7102 3.74362 39.5982 3.7644 39.4892C3.78435 39.38 3.8262 39.2759 3.88742 39.1833C3.94864 39.0906 4.02798 39.0113 4.12065 38.9502C4.29043 38.8377 4.49537 38.791 4.6971 38.8188C4.89883 38.8466 5.08352 38.947 5.21659 39.1011L9.50565 44.1055C9.81315 44.4655 10.2097 44.743 10.686 44.9211L13.2088 45.763L13.2238 45.792L13.2528 45.777L17.4866 47.1898L17.6863 47.5348C17.7689 47.6773 17.8125 47.8389 17.8128 48.0036V49.1211H19.6878V48.0027C19.6878 47.5095 19.5566 47.023 19.311 46.5955L17.3291 43.1717C17.2659 43.0471 17.236 42.9082 17.2423 42.7686C17.2485 42.629 17.2907 42.4934 17.3647 42.3748C17.4359 42.2599 17.5345 42.1644 17.6516 42.0968C17.7687 42.0292 17.9007 41.9916 18.0359 41.9875C18.171 41.9833 18.3051 42.0126 18.4262 42.0728C18.5473 42.1331 18.6515 42.2223 18.7297 42.3327L22.1272 47.1345C23.7463 49.4127 23.6206 52.1745 23.4866 55.0995C23.4341 56.2339 23.3816 57.4067 23.4388 58.5448L25.3119 58.4492C25.2575 57.4011 25.3072 56.3239 25.3597 55.1839C25.5013 52.0714 25.6485 48.852 23.6713 46.0705L20.2588 41.248C20.0096 40.8968 19.68 40.6103 19.2976 40.4125C18.9151 40.2147 18.4909 40.1112 18.0603 40.1108C17.6011 40.1091 17.1491 40.2257 16.748 40.4493C16.3468 40.6729 16.01 40.9961 15.77 41.3877C15.275 42.1873 15.231 43.167 15.6772 44.0586L16.071 44.7392L14.5391 44.2283L12.1344 39.4189L11.4931 36.8548C11.3654 36.3416 11.0696 35.886 10.6528 35.5604C10.2361 35.2349 9.72231 35.0582 9.19346 35.0586C8.84888 35.0582 8.50835 35.133 8.19563 35.2777C7.88291 35.4224 7.60553 35.6336 7.38283 35.8966C7.16014 36.1595 6.99748 36.4679 6.90621 36.8002C6.81495 37.1325 6.79726 37.4807 6.8544 37.8205L6.91815 38.2039L6.63971 37.8795C6.20842 37.3778 5.60859 37.051 4.95315 36.9607C4.29771 36.8704 3.63187 37.0228 3.08096 37.3892C2.46971 37.797 2.05721 38.4195 1.92221 39.1423C1.78721 39.8652 1.94377 40.5936 2.36565 41.1955L7.75721 48.898ZM8.81377 37.1089C8.87329 37.0397 8.9506 36.9882 9.03733 36.9599C9.12405 36.9315 9.21689 36.9275 9.30576 36.9481C9.39463 36.9688 9.47614 37.0134 9.54146 37.0771C9.60677 37.1408 9.6534 37.2212 9.67627 37.3095L10.3419 39.973C10.3588 40.0395 10.3822 40.1042 10.4122 40.1652L12.0238 43.3892L11.3122 43.152C11.1646 43.0965 11.0334 43.0046 10.9306 42.8848L9.27784 40.9564L8.70409 37.512C8.69175 37.4409 8.69518 37.3679 8.71413 37.2983C8.73308 37.2286 8.7671 37.164 8.81377 37.1089ZM56.9197 37.3883C56.3688 37.0219 55.703 36.8695 55.0475 36.9598C54.3921 37.0501 53.7923 37.3769 53.361 37.8786L53.0825 38.203L53.1463 37.8186C53.2421 37.2164 53.1022 36.6004 52.7557 36.0985C52.4093 35.5967 51.8829 35.2476 51.2858 35.1237C50.6887 34.9998 50.0668 35.1106 49.5493 35.4331C49.0318 35.7557 48.6583 36.2652 48.5066 36.8558L47.8653 39.4189L45.4607 44.2283L43.9269 44.7402L44.3497 44.0089C44.5565 43.5987 44.6542 43.1421 44.6333 42.6832C44.6124 42.2242 44.4738 41.7784 44.2306 41.3886C43.9906 40.997 43.6538 40.6739 43.2527 40.4502C42.8516 40.2266 42.3996 40.11 41.9403 40.1117C41.0675 40.1117 40.2463 40.5373 39.741 41.2489C38.6078 42.848 37.4759 44.448 36.3453 46.0489C34.3531 48.853 34.4994 52.0714 34.6419 55.1839C34.6944 56.3239 34.7431 57.4011 34.6897 58.4492L36.5628 58.5448C36.621 57.4067 36.5675 56.2339 36.515 55.0995C36.381 52.1745 36.2563 49.4127 37.8763 47.1317L41.271 42.3327C41.3469 42.2258 41.4472 42.1387 41.5637 42.0785C41.6801 42.0183 41.8093 41.9869 41.9403 41.9867C42.3519 41.9867 42.5647 42.2586 42.6369 42.3748C42.7081 42.492 42.8563 42.8033 42.6988 43.1211L40.6897 46.5955C40.4432 47.0235 40.3133 47.5087 40.3128 48.0027V49.1211H42.1878V48.0027C42.1878 47.8386 42.2319 47.6755 42.3144 47.5339L42.5131 47.1889L46.7469 45.7761L46.7769 45.7911L46.7919 45.7611L49.3466 44.908C49.7906 44.7414 50.1853 44.4654 50.4941 44.1055L54.7841 39.1011C54.8866 38.9824 55.0204 38.895 55.1702 38.8489C55.3201 38.8027 55.4799 38.7996 55.6314 38.84C55.7829 38.8804 55.92 38.9626 56.0269 39.0773C56.1339 39.1919 56.2065 39.3343 56.2363 39.4883C56.2573 39.5974 56.256 39.7096 56.2325 39.8182C56.209 39.9268 56.1637 40.0295 56.0994 40.1202L50.705 47.8273C50.662 47.8883 50.6119 47.944 50.556 47.9933L46.8425 51.2427C46.5941 51.4592 46.3072 51.6833 46.0053 51.9186C44.5691 53.0417 42.7803 54.4395 42.9313 56.5311C42.9772 57.1789 43.0466 57.8248 43.1169 58.4708L43.131 58.5973L44.9947 58.3958L44.9806 58.2683C44.9131 57.6448 44.8447 57.0214 44.8006 56.3961C44.7219 55.3011 46.0175 54.2877 47.1613 53.3942C47.4913 53.1364 47.8053 52.8898 48.0772 52.6517L51.7925 49.4014C51.965 49.2505 52.1169 49.0808 52.2425 48.8989L57.636 41.1945C58.0569 40.5927 58.2144 39.8633 58.0794 39.1414C57.9444 38.4195 57.531 37.7961 56.9197 37.3883ZM50.7228 40.9564L49.0691 42.8848C48.975 42.9966 48.8553 43.084 48.7203 43.1398L47.9769 43.3883L49.5885 40.1652C49.6189 40.1039 49.6425 40.0394 49.6588 39.973L50.3244 37.3105C50.347 37.2221 50.3934 37.1415 50.4586 37.0777C50.5237 37.0138 50.6052 36.9691 50.694 36.9483C50.7829 36.9275 50.8757 36.9315 50.9625 36.9598C51.0492 36.9881 51.1265 37.0397 51.186 37.1089C51.2413 37.1745 51.3294 37.3142 51.2966 37.512L50.7228 40.9564ZM41.1838 16.6573L43.0588 11.9698C43.1158 11.8275 43.1371 11.6734 43.1207 11.521C43.1043 11.3685 43.0508 11.2224 42.9648 11.0955C42.8789 10.9685 42.7631 10.8646 42.6276 10.7928C42.4922 10.721 42.3412 10.6835 42.1878 10.6836H37.5003C37.3347 10.684 37.172 10.7283 37.029 10.8119C36.886 10.8956 36.7677 11.0156 36.6861 11.1597C36.6044 11.3039 36.5624 11.4672 36.5644 11.6328C36.5663 11.7985 36.612 11.9607 36.6969 12.103L37.5641 13.5486C32.0506 16.9489 24.051 19.1211 16.8753 19.1211V20.9961C24.4841 20.9961 32.6731 18.7714 38.5288 15.1583L39.5085 16.7914C39.5987 16.9408 39.7287 17.0621 39.884 17.1417C40.0392 17.2214 40.2136 17.2562 40.3876 17.2423C40.5615 17.2283 40.7281 17.1662 40.8688 17.0629C41.0094 16.9596 41.1185 16.8192 41.1838 16.6573ZM40.1441 14.2058L39.1569 12.5586H40.8041L40.1441 14.2058ZM47.7144 19.1614L49.5781 18.9617C49.508 18.3111 49.4038 17.6646 49.266 17.0248L47.4332 17.4205C47.5578 17.9952 47.6516 18.5811 47.7144 19.1614ZM49.6878 20.9961V20.923L47.8128 20.9961C47.8128 21.5811 47.7819 22.1745 47.721 22.7605L49.5866 22.9527C49.654 22.3026 49.6878 21.6496 49.6878 20.9961ZM45.5253 12.5042L47.1444 11.5583C46.8163 10.9958 46.4544 10.4445 46.0691 9.91766L44.5569 11.0277C44.9028 11.502 45.2291 11.998 45.5253 12.5042ZM27.381 4.49609L26.9853 2.66328C26.345 2.80109 25.7085 2.97359 25.0916 3.17516L25.6756 4.95641C26.2359 4.77414 26.8051 4.62051 27.381 4.49609ZM34.7769 2.63984C34.1363 2.50648 33.4892 2.40696 32.8382 2.34172L32.6516 4.20734C33.2338 4.26547 33.8206 4.35641 34.3963 4.47547L34.7769 2.63984ZM44.8269 8.39984C44.3863 7.91516 43.9175 7.45016 43.4356 7.01797L42.185 8.41578C42.621 8.80484 43.0419 9.22297 43.4394 9.66078L44.8269 8.39984ZM41.9075 5.78797C41.3769 5.40499 40.8268 5.04982 40.2594 4.72391L39.3256 6.34953C39.8366 6.64355 40.3322 6.96333 40.8106 7.30766L41.9075 5.78797ZM38.5091 3.83797C37.9101 3.57353 37.2977 3.34071 36.6744 3.14047L36.1016 4.92547C36.6594 5.10359 37.2144 5.31547 37.7516 5.55266L38.5091 3.83797ZM30.8853 4.12109L30.8797 2.24609C30.2263 2.24797 29.5681 2.28453 28.9222 2.35297L29.1219 4.21672C29.7041 4.15578 30.2966 4.12297 30.8853 4.12109ZM21.5825 37.2486L22.52 35.6248C22.0096 35.3305 21.5149 35.0098 21.0378 34.6639L19.9372 36.1817C20.465 36.5642 21.0181 36.9233 21.5825 37.2486ZM32.9141 39.6439L32.7181 37.7792C32.1388 37.8392 31.5453 37.8711 30.9557 37.8711L30.9575 39.7461C31.6128 39.7461 32.271 39.7105 32.9141 39.6439ZM25.7413 37.0555C25.181 36.8748 24.6308 36.6642 24.0931 36.4245L23.3319 38.1383C23.9281 38.4027 24.545 38.6389 25.1647 38.8395L25.7413 37.0555ZM49.2819 24.8905L47.4472 24.5042C47.3252 25.0798 47.1734 25.6487 46.9925 26.2086L48.7757 26.787C48.9781 26.1655 49.1488 25.527 49.2819 24.8905ZM34.8519 39.3364C35.4919 39.2002 36.1243 39.0306 36.7466 38.8283L36.1663 37.0461C35.6085 37.228 35.0356 37.3817 34.4619 37.5036L34.8519 39.3364ZM40.325 37.2298L39.3857 35.608C38.8794 35.9014 38.3506 36.1723 37.8135 36.4114L38.5785 38.1233C39.1759 37.8563 39.7589 37.5581 40.325 37.2298ZM15.53 27.8877C15.2896 27.3495 15.0768 26.7994 14.8925 26.2395L13.1113 26.8245C13.3156 27.4461 13.5538 28.0611 13.8181 28.6536L15.53 27.8877ZM27.0603 39.3448C27.6969 39.4789 28.3485 39.5802 28.9981 39.6467L29.1903 37.782C28.6048 37.7218 28.0227 37.631 27.4466 37.5102L27.0603 39.3448ZM46.1113 32.0127L44.5953 30.9092C44.2513 31.3817 43.8763 31.8439 43.4825 32.2827L44.8775 33.5352C45.3144 33.0495 45.7288 32.5377 46.1113 32.0127ZM43.491 34.9245L42.2366 33.5314C41.7997 33.9252 41.3375 34.2992 40.8641 34.6452L41.9685 36.1602C42.4935 35.7767 43.0063 35.3605 43.491 34.9245ZM48.0725 28.6198L46.3588 27.8577C46.1216 28.392 45.8516 28.9217 45.5582 29.4298L47.18 30.3692C47.5081 29.803 47.8072 29.2152 48.0725 28.6198ZM19.6644 33.553C19.2266 33.1592 18.8095 32.743 18.4147 32.3061L17.0235 33.5633C17.4623 34.0482 17.9257 34.5104 18.4119 34.948L19.6644 33.553ZM12.2919 22.9911C12.3603 23.6427 12.4644 24.2952 12.6003 24.9289L14.4332 24.5361C14.3107 23.9606 14.2181 23.3792 14.1556 22.7942L12.2919 22.9911ZM17.3 30.9364C16.9531 30.4611 16.6314 29.9679 16.3363 29.4589L14.7144 30.3983C15.0378 30.957 15.3978 31.5102 15.7869 32.0417L17.3 30.9364ZM46.9728 15.718L48.7522 15.1302C48.5473 14.5087 48.3097 13.8985 48.0406 13.302L46.3325 14.0727C46.5716 14.6033 46.7863 15.1564 46.9728 15.718ZM16.3016 12.5923L14.676 11.6586C14.3495 12.2256 14.0535 12.8095 13.7891 13.408L15.5028 14.1683C15.7391 13.633 16.0072 13.1033 16.3016 12.5923ZM14.15 19.2655L12.2844 19.078C12.2198 19.7153 12.1876 20.3555 12.1878 20.9961V21.0327L14.0628 20.9961C14.0628 20.4195 14.0919 19.8373 14.15 19.2655ZM24.0303 5.59484L23.2635 3.88391C22.6719 4.14922 22.0841 4.45109 21.5188 4.78109L22.4619 6.40203C22.9701 6.10541 23.4936 5.83597 24.0303 5.59484ZM14.8719 15.8164L13.0869 15.2417C12.8881 15.8595 12.7185 16.498 12.5853 17.1392L14.42 17.5227C14.541 16.9461 14.6928 16.3714 14.8719 15.8164ZM20.9844 7.36766L19.8763 5.85547C19.3513 6.23984 18.8394 6.65703 18.3566 7.09297L19.6147 8.48328C20.0497 8.09047 20.511 7.71453 20.9844 7.36766ZM18.3697 9.73484L16.9728 8.48422C16.537 8.97128 16.1265 9.48039 15.7428 10.0095L17.2606 11.1102C17.6038 10.6367 17.9769 10.1736 18.3697 9.73484ZM25.3128 30.3711V25.6836C25.3128 25.435 25.2141 25.1965 25.0382 25.0207C24.8624 24.8449 24.624 24.7461 24.3753 24.7461H20.6253C20.3767 24.7461 20.1382 24.8449 19.9624 25.0207C19.7866 25.1965 19.6878 25.435 19.6878 25.6836V30.3711C19.6878 30.6197 19.7866 30.8582 19.9624 31.034C20.1382 31.2098 20.3767 31.3086 20.6253 31.3086H24.3753C24.624 31.3086 24.8624 31.2098 25.0382 31.034C25.2141 30.8582 25.3128 30.6197 25.3128 30.3711ZM23.4378 29.4336H21.5628V26.6211H23.4378V29.4336ZM32.8128 30.3711V23.8086C32.8128 23.56 32.7141 23.3215 32.5382 23.1457C32.3624 22.9699 32.124 22.8711 31.8753 22.8711H28.1253C27.8767 22.8711 27.6382 22.9699 27.4624 23.1457C27.2866 23.3215 27.1878 23.56 27.1878 23.8086V30.3711C27.1878 30.6197 27.2866 30.8582 27.4624 31.034C27.6382 31.2098 27.8767 31.3086 28.1253 31.3086H31.8753C32.124 31.3086 32.3624 31.2098 32.5382 31.034C32.7141 30.8582 32.8128 30.6197 32.8128 30.3711ZM30.9378 29.4336H29.0628V24.7461H30.9378V29.4336ZM40.3128 30.3711V20.0586C40.3128 19.81 40.2141 19.5715 40.0382 19.3957C39.8624 19.2199 39.624 19.1211 39.3753 19.1211H35.6253C35.3767 19.1211 35.1382 19.2199 34.9624 19.3957C34.7866 19.5715 34.6878 19.81 34.6878 20.0586V30.3711C34.6878 30.6197 34.7866 30.8582 34.9624 31.034C35.1382 31.2098 35.3767 31.3086 35.6253 31.3086H39.3753C39.624 31.3086 39.8624 31.2098 40.0382 31.034C40.2141 30.8582 40.3128 30.6197 40.3128 30.3711ZM38.4378 29.4336H36.5628V20.9961H38.4378V29.4336Z" fill="url(#paint0_linear_3055_1984)"/>
<defs>
<linearGradient id="paint0_linear_3055_1984" x1="1.875" y1="30.4222" x2="58.1265" y2="30.4222" gradientUnits="userSpaceOnUse">
<stop stop-color="#004D6E"/>
<stop offset="1" stop-color="#00ACCC"/>
</linearGradient>
</defs>
</svg>
