<svg width="60" height="61" viewBox="0 0 60 61" fill="none" xmlns="http://www.w3.org/2000/svg">
<path d="M15 30.3711C15 38.6417 21.7294 45.3711 30 45.3711C38.2706 45.3711 45 38.6417 45 30.3711C45 22.1005 38.2706 15.3711 30 15.3711C21.7294 15.3711 15 22.1005 15 30.3711ZM22.9547 19.3152L24.4734 22.3527C24.5644 22.5336 24.7116 22.6817 24.8925 22.7717L27.7369 24.1939L25.7194 27.5586H22.5C22.3032 27.5585 22.1113 27.6205 21.9516 27.7355C21.7919 27.8506 21.6725 28.0131 21.6103 28.1998L20.8866 30.3711H16.875C16.875 25.7277 19.3059 21.6486 22.9547 19.3152ZM30 40.6836V43.4961C25.4006 43.4961 21.3534 41.1139 19.0097 37.5233L23.2687 36.1039L26.625 38.6211C26.9672 38.877 27.4397 38.8705 27.7734 38.6033L31.8056 35.3773L33.75 37.3217V39.0139L30.7097 39.7742C30.507 39.825 30.327 39.9421 30.1984 40.1068C30.0698 40.2716 30 40.4746 30 40.6836ZM43.125 30.3711C43.125 32.4392 42.6309 34.3902 41.775 36.133L39.6441 34.002L41.0925 31.8289C41.165 31.7203 41.214 31.5977 41.2363 31.469C41.2586 31.3403 41.2537 31.2084 41.2219 31.0817L40.2844 27.3317C40.253 27.2063 40.1961 27.0888 40.1172 26.9865C40.0383 26.8841 39.939 26.7992 39.8257 26.7371C39.7124 26.6749 39.5875 26.6369 39.4588 26.6253C39.3301 26.6137 39.2004 26.6289 39.0778 26.6698L36.9066 27.3936L34.7672 24.5417L35.4197 21.9336H40.0397C42.0334 24.2928 43.1265 27.2823 43.125 30.3711ZM34.6875 20.0586C34.4785 20.0586 34.2755 20.1284 34.1107 20.257C33.946 20.3856 33.8289 20.5655 33.7781 20.7683L32.8406 24.5183C32.7722 24.792 32.8313 25.0827 33 25.3086L35.8125 29.0586C35.9305 29.216 36.095 29.3323 36.2828 29.391C36.4706 29.4498 36.6721 29.4479 36.8588 29.3858L38.7113 28.768L39.3019 31.1333L37.6575 33.6008C37.5372 33.7811 37.4832 33.9976 37.5046 34.2133C37.5259 34.429 37.6214 34.6306 37.7747 34.7839L40.8009 37.8102C39.7743 39.2976 38.4516 40.557 36.9157 41.5096C35.3798 42.4622 33.6637 43.0874 31.875 43.3461V41.4148L34.9153 40.6545C35.1181 40.6042 35.2982 40.4874 35.4269 40.3227C35.5555 40.1581 35.6253 39.955 35.625 39.7461V36.9336C35.6251 36.8105 35.6009 36.6885 35.5538 36.5748C35.5066 36.461 35.4375 36.3577 35.3503 36.2708L32.5378 33.4583C32.3748 33.2949 32.1572 33.1974 31.9267 33.1846C31.6962 33.1718 31.4692 33.2446 31.2891 33.3889L27.1687 36.6852L24 34.3086C23.8787 34.2175 23.7371 34.1572 23.5874 34.1329C23.4376 34.1085 23.2842 34.1209 23.1403 34.1689L18.09 35.8527C17.5622 34.7083 17.2031 33.4935 17.0241 32.2461H21.5625C21.7593 32.2461 21.9512 32.1842 22.1109 32.0691C22.2706 31.954 22.39 31.7916 22.4522 31.6048L23.1759 29.4336H26.25C26.4118 29.4336 26.5708 29.3918 26.7116 29.3121C26.8524 29.2324 26.9702 29.1176 27.0534 28.9789L29.8659 24.2914C29.9328 24.1808 29.9761 24.0574 29.9929 23.9292C30.0097 23.801 29.9997 23.6707 29.9636 23.5466C29.9275 23.4224 29.866 23.3071 29.783 23.208C29.7 23.1088 29.5974 23.0279 29.4816 22.9705L26.0109 21.2352L24.6037 18.4198C26.298 17.6476 28.1381 17.2473 30 17.2461C33.0534 17.2461 35.8603 18.3036 38.0925 20.0586H34.6875ZM55.3125 27.5586C54.7327 27.5604 54.1678 27.7417 53.6951 28.0774C53.2224 28.4131 52.8652 28.8868 52.6725 29.4336H46.875V31.3086H52.6725C52.8652 31.8554 53.2224 32.3291 53.6951 32.6648C54.1678 33.0005 54.7327 33.1817 55.3125 33.1836C56.8631 33.1836 58.125 31.9217 58.125 30.3711C58.125 28.8205 56.8631 27.5586 55.3125 27.5586ZM55.3125 31.3086C54.7959 31.3086 54.375 30.8877 54.375 30.3711C54.375 29.8545 54.7959 29.4336 55.3125 29.4336C55.8291 29.4336 56.25 29.8545 56.25 30.3711C56.25 30.8877 55.8291 31.3086 55.3125 31.3086ZM55.3125 46.3086C55.3125 44.758 54.0506 43.4961 52.5 43.4961C51.9202 43.4979 51.3553 43.6792 50.8826 44.0149C50.4099 44.3506 50.0527 44.8243 49.86 45.3711H48.4472L46.8075 41.2723C46.7379 41.0985 46.6178 40.9496 46.4627 40.8447C46.3076 40.7397 46.1247 40.6836 45.9375 40.6836H43.125V42.5586H45.3028L46.9425 46.6573C47.0121 46.8311 47.1322 46.9801 47.2873 47.085C47.4424 47.1899 47.6253 47.246 47.8125 47.2461H49.86C50.0527 47.7929 50.4099 48.2666 50.8826 48.6023C51.3553 48.938 51.9202 49.1192 52.5 49.1211C54.0506 49.1211 55.3125 47.8592 55.3125 46.3086ZM51.5625 46.3086C51.5625 45.792 51.9834 45.3711 52.5 45.3711C53.0166 45.3711 53.4375 45.792 53.4375 46.3086C53.4375 46.8251 53.0166 47.2461 52.5 47.2461C51.9834 47.2461 51.5625 46.8251 51.5625 46.3086ZM45 57.5586C46.5506 57.5586 47.8125 56.2967 47.8125 54.7461C47.8125 53.1955 46.5506 51.9336 45 51.9336C44.4202 51.9354 43.8553 52.1167 43.3826 52.4524C42.9099 52.7881 42.5527 53.2618 42.36 53.8086H40.0819L38.4009 47.9258C38.3449 47.73 38.2267 47.5578 38.0642 47.4352C37.9017 47.3126 37.7036 47.2462 37.5 47.2461H32.8125V49.1211H36.7931L38.4741 55.0039C38.5301 55.1997 38.6483 55.3719 38.8108 55.4945C38.9733 55.6171 39.1714 55.6835 39.375 55.6836H42.36C42.5527 56.2304 42.9099 56.7041 43.3826 57.0398C43.8553 57.3755 44.4202 57.5567 45 57.5586ZM45 53.8086C45.5166 53.8086 45.9375 54.2295 45.9375 54.7461C45.9375 55.2626 45.5166 55.6836 45 55.6836C44.4834 55.6836 44.0625 55.2626 44.0625 54.7461C44.0625 54.2295 44.4834 53.8086 45 53.8086ZM37.4016 12.9777L39.9544 7.87109H42.3488C42.5682 8.48693 42.9947 9.00744 43.5554 9.34362C44.1161 9.67981 44.7762 9.81081 45.4228 9.71421C46.1653 9.60078 46.8197 9.20609 47.265 8.60046C47.7103 7.99484 47.8931 7.25234 47.7806 6.51078C47.6669 5.77403 47.266 5.11229 46.6657 4.67028C46.0654 4.22826 45.3145 4.04193 44.5772 4.15203C44.2117 4.20662 43.8607 4.33317 43.5445 4.52434C43.2283 4.71552 42.9531 4.96753 42.735 5.26578C42.5755 5.48978 42.4495 5.7358 42.3609 5.99609H39.375C39.0197 5.99609 38.6953 6.19671 38.5359 6.51453L35.9831 11.6211H32.8125V13.4961H36.5625C36.9178 13.4961 37.2422 13.2955 37.4016 12.9777ZM44.2444 6.37765C44.3313 6.25897 44.4451 6.16254 44.5764 6.09622C44.7077 6.02991 44.8529 5.9956 45 5.99609C45.1732 5.99663 45.3429 6.04505 45.4903 6.13598C45.6377 6.22691 45.7571 6.35683 45.8352 6.51136C45.9134 6.6659 45.9474 6.83905 45.9333 7.01167C45.9193 7.18429 45.8578 7.34967 45.7556 7.48953C45.6828 7.58888 45.5911 7.67284 45.4857 7.73656C45.3803 7.80028 45.2634 7.8425 45.1416 7.86078C44.9585 7.88764 44.7715 7.85988 44.6041 7.78096C44.4367 7.70204 44.2963 7.57548 44.2005 7.41713C44.1047 7.25877 44.0578 7.07567 44.0656 6.89077C44.0734 6.70586 44.1356 6.52737 44.2444 6.37765ZM50.7975 16.3086C50.9902 16.8554 51.3474 17.3291 51.8201 17.6648C52.2928 18.0005 52.8577 18.1817 53.4375 18.1836C54.9881 18.1836 56.25 16.9217 56.25 15.3711C56.25 13.8205 54.9881 12.5586 53.4375 12.5586C52.8577 12.5604 52.2928 12.7417 51.8201 13.0774C51.3474 13.4131 50.9902 13.8868 50.7975 14.4336H46.875C46.5619 14.4336 46.2694 14.5902 46.095 14.8508L44.4984 17.2461H42.1875V19.1211H45C45.3131 19.1211 45.6056 18.9645 45.78 18.7039L47.3766 16.3086H50.7975ZM53.4375 14.4336C53.9541 14.4336 54.375 14.8545 54.375 15.3711C54.375 15.8877 53.9541 16.3086 53.4375 16.3086C52.9209 16.3086 52.5 15.8877 52.5 15.3711C52.5 14.8545 52.9209 14.4336 53.4375 14.4336Z" fill="url(#paint0_linear_3055_1959)"/>
<path d="M2.8125 25.6836C2.56386 25.6836 2.3254 25.7824 2.14959 25.9582C1.97377 26.134 1.875 26.3725 1.875 26.6211V34.1211C1.875 34.3697 1.97377 34.6082 2.14959 34.784C2.3254 34.9598 2.56386 35.0586 2.8125 35.0586H5.1225C5.35911 36.3123 5.69069 37.5461 6.11437 38.7495L4.11094 39.9055C3.89562 40.0298 3.73851 40.2346 3.67416 40.4747C3.60981 40.7149 3.6435 40.9708 3.76781 41.1861L7.51781 47.6811C7.64214 47.8964 7.8469 48.0535 8.08706 48.1179C8.32723 48.1822 8.58311 48.1485 8.79844 48.0242L10.8056 46.8655C11.6368 47.8312 12.539 48.7334 13.5047 49.5645L12.3459 51.5717C12.2216 51.787 12.1879 52.0429 12.2523 52.2831C12.3166 52.5233 12.4737 52.728 12.6891 52.8523L19.1841 56.6023C19.3996 56.7259 19.6552 56.7592 19.8951 56.6949C20.1351 56.6306 20.3398 56.474 20.4647 56.2592L21.6206 54.2558C22.83 54.6814 24.0656 55.0133 25.3116 55.2477V57.5586C25.3116 57.8072 25.4103 58.0457 25.5861 58.2215C25.762 58.3973 26.0004 58.4961 26.2491 58.4961H29.9991C30.2477 58.4961 30.4862 58.3973 30.662 58.2215C30.8378 58.0457 30.9366 57.8072 30.9366 57.5586V48.1836C30.9366 47.935 30.8378 47.6965 30.662 47.5207C30.4862 47.3449 30.2477 47.2461 29.9991 47.2461C20.6944 47.2461 13.1241 39.6758 13.1241 30.3711C13.1241 21.0664 20.6944 13.4961 29.9991 13.4961C30.2477 13.4961 30.4862 13.3973 30.662 13.2215C30.8378 13.0457 30.9366 12.8072 30.9366 12.5586V3.18359C30.9366 2.93495 30.8378 2.6965 30.662 2.52068C30.4862 2.34487 30.2477 2.24609 29.9991 2.24609H26.2491C26.0004 2.24609 25.762 2.34487 25.5861 2.52068C25.4103 2.6965 25.3116 2.93495 25.3116 3.18359V5.49359C24.0579 5.73021 22.824 6.06179 21.6206 6.48547L20.4656 4.48203C20.3413 4.26671 20.1365 4.1096 19.8964 4.04525C19.6562 3.9809 19.4003 4.01459 19.185 4.13891L12.69 7.88891C12.4747 8.01323 12.3176 8.218 12.2532 8.45816C12.1889 8.69832 12.2226 8.95421 12.3469 9.16953L13.5056 11.1767C12.5399 12.0079 11.6377 12.9101 10.8066 13.8758L8.79844 12.718C8.58311 12.5937 8.32723 12.56 8.08706 12.6243C7.8469 12.6887 7.64214 12.8458 7.51781 13.0611L3.76781 19.5561C3.6435 19.7714 3.60981 20.0273 3.67416 20.2675C3.73851 20.5076 3.89562 20.7124 4.11094 20.8367L6.11437 21.9927C5.69069 23.1961 5.35911 24.4299 5.1225 25.6836H2.8125ZM6.83906 26.7645C7.0975 25.1061 7.53441 23.4804 8.14219 21.9158C8.22315 21.707 8.22672 21.4762 8.15227 21.265C8.07781 21.0539 7.93024 20.8763 7.73625 20.7645L5.86125 19.6817L8.67375 14.8105L10.5525 15.8952C10.9528 16.1258 11.4609 16.0302 11.7506 15.672C12.8046 14.3659 13.9948 13.1757 15.3009 12.1217C15.4748 11.9814 15.5928 11.7835 15.6337 11.5639C15.6747 11.3442 15.6358 11.1171 15.5241 10.9236L14.4394 9.04484L19.3106 6.23234L20.3934 8.10734C20.625 8.50766 21.1125 8.67828 21.5437 8.51328C23.1084 7.90562 24.734 7.46871 26.3925 7.21016C26.6138 7.17613 26.8156 7.06403 26.9614 6.89414C27.1072 6.72425 27.1874 6.50779 27.1875 6.28391V4.12109H29.0625V11.6445C19.1578 12.1339 11.25 20.3464 11.25 30.3711C11.25 40.3958 19.1578 48.6083 29.0625 49.0977V56.6211H27.1875V54.4583C27.1874 54.2345 27.1074 54.0182 26.9618 53.8483C26.8161 53.6784 26.6145 53.5663 26.3934 53.532C24.735 53.2736 23.1093 52.8367 21.5447 52.2289C21.1134 52.063 20.6259 52.2336 20.3934 52.6348L19.3106 54.5098L14.4394 51.6973L15.5241 49.8186C15.6358 49.6251 15.6747 49.398 15.6337 49.1783C15.5928 48.9587 15.4748 48.7608 15.3009 48.6205C13.9948 47.5665 12.8046 46.3763 11.7506 45.0702C11.6105 44.896 11.4126 44.7777 11.1929 44.7368C10.9731 44.6958 10.7459 44.735 10.5525 44.847L8.67375 45.9317L5.86125 41.0605L7.73625 39.9777C7.93003 39.8659 8.07745 39.6885 8.15189 39.4776C8.22634 39.2666 8.22289 39.036 8.14219 38.8273C7.53452 37.2627 7.09761 35.637 6.83906 33.9786C6.80503 33.7573 6.69293 33.5555 6.52305 33.4097C6.35316 33.2639 6.1367 33.1837 5.91281 33.1836H3.75V27.5586H5.91281C6.13656 27.5585 6.35291 27.4785 6.52278 27.3328C6.69264 27.1872 6.80483 26.9856 6.83906 26.7645Z" fill="url(#paint1_linear_3055_1959)"/>
<defs>
<linearGradient id="paint0_linear_3055_1959" x1="15" y1="30.8398" x2="58.125" y2="30.8398" gradientUnits="userSpaceOnUse">
<stop stop-color="#004D6E"/>
<stop offset="1" stop-color="#00ACCC"/>
</linearGradient>
<linearGradient id="paint1_linear_3055_1959" x1="1.875" y1="30.3711" x2="30.9366" y2="30.3711" gradientUnits="userSpaceOnUse">
<stop stop-color="#004D6E"/>
<stop offset="1" stop-color="#00ACCC"/>
</linearGradient>
</defs>
</svg>
