<svg width="60" height="61" viewBox="0 0 60 61" fill="none" xmlns="http://www.w3.org/2000/svg">
<path d="M59.0099 50.4946C59.5586 50.4946 60 50.9322 60 51.4669C60 53.8449 59.0553 56.081 57.3432 57.7622C55.6312 59.4434 53.354 60.3711 50.9323 60.3711H9.06766C6.64604 60.3711 4.36881 59.4434 2.65677 57.7622C0.944719 56.081 0 53.8449 0 51.4669C0 51.2076 0.103135 50.9605 0.288779 50.7782C0.474422 50.5959 0.726073 50.4946 0.990099 50.4946H3.0033V19.9903C3.0033 18.8398 3.95627 17.904 5.12789 17.904H19.1378V15.5585L14.9422 11.4385C14.7566 11.2562 14.6535 11.0091 14.6535 10.7499V7.02696C13.2261 6.6097 12.1823 5.30932 12.1823 3.76992C12.1823 1.89429 13.7335 0.371094 15.6436 0.371094C17.5536 0.371094 19.1048 1.89429 19.1048 3.76992C19.1048 5.30526 18.0611 6.60565 16.6337 7.02696V10.3488L20.8292 14.4647C21.0149 14.647 21.1221 14.8981 21.1221 15.1574V17.904H29.0099V7.06342C27.5825 6.64211 26.5388 5.34172 26.5388 3.80638C26.5388 1.93075 28.0899 0.407553 30 0.407553C31.9101 0.407553 33.4612 1.93075 33.4612 3.80638C33.4612 5.34172 32.4175 6.64211 30.9901 7.06342V17.9081H38.882V15.1615C38.882 14.9022 38.9893 14.651 39.1749 14.4687L43.3663 10.3488V7.02696C41.9389 6.6097 40.8952 5.30932 40.8952 3.76992C40.8952 1.89429 42.4464 0.371094 44.3564 0.371094C46.2665 0.371094 47.8177 1.89429 47.8177 3.76992C47.8177 5.30526 46.7739 6.60565 45.3465 7.02696V10.7499C45.3465 11.0091 45.2434 11.2562 45.0578 11.4385L40.8622 15.5585V17.904H54.8721C56.0437 17.904 56.9967 18.8398 56.9967 19.9903V50.4946H59.0099ZM57.9497 52.4391H37.4299L36.7781 54.7361C36.6584 55.1574 36.2706 55.445 35.8251 55.445H24.1749C23.7294 55.445 23.3416 55.1534 23.222 54.7361L22.5701 52.4391H2.05033C2.533 55.8177 5.49505 58.4266 9.06766 58.4266H50.9282C52.8218 58.4266 54.5998 57.7015 55.9406 56.3889C57.0462 55.3073 57.7393 53.9299 57.9497 52.4391ZM55.0165 50.4946V19.9903C55.0165 19.9133 54.9505 19.8485 54.8721 19.8485H5.12789C5.04951 19.8485 4.9835 19.9133 4.9835 19.9903V50.4946H23.321C23.7665 50.4946 24.1543 50.7863 24.2739 51.2076L24.9257 53.5046H35.0743L35.7261 51.2076C35.8457 50.7863 36.2335 50.4946 36.679 50.4946H55.0165ZM45.8375 3.77397C45.8375 2.97186 45.1733 2.31965 44.3564 2.31965C43.5396 2.31965 42.8754 2.97186 42.8754 3.77397C42.8754 4.57608 43.5396 5.22829 44.3564 5.22829C45.1733 5.22829 45.8375 4.57608 45.8375 3.77397ZM31.481 3.80638C31.481 3.00427 30.8168 2.35205 30 2.35205C29.1832 2.35205 28.519 3.00427 28.519 3.80638C28.519 4.60848 29.1832 5.2607 30 5.2607C30.8168 5.2607 31.481 4.60848 31.481 3.80638ZM17.1246 3.77397C17.1246 2.97186 16.4604 2.31965 15.6436 2.31965C14.8267 2.31965 14.1625 2.97186 14.1625 3.77397C14.1625 4.57608 14.8267 5.22829 15.6436 5.22829C16.4604 5.22829 17.1246 4.57608 17.1246 3.77397Z" fill="white"/>
<path d="M49.9015 23.9961C50.4501 23.9961 50.8916 24.4336 50.8916 24.9683C50.8916 25.5071 50.446 25.9406 49.9015 25.9406H28.6185C28.0698 25.9406 27.6284 25.5071 27.6284 24.9683C27.6284 24.4296 28.0698 23.9961 28.6185 23.9961H49.9015ZM49.9015 29.1045C50.4501 29.1045 50.8916 29.5379 50.8916 30.0767C50.8916 30.6155 50.446 31.049 49.9015 31.049H28.6185C28.0698 31.049 27.6284 30.6114 27.6284 30.0767C27.6284 29.5379 28.0698 29.1045 28.6185 29.1045H49.9015ZM49.9015 34.2088C50.4501 34.2088 50.8916 34.6463 50.8916 35.181C50.8916 35.7198 50.446 36.1533 49.9015 36.1533H28.6185C28.0698 36.1533 27.6284 35.7198 27.6284 35.181C27.6284 34.6422 28.0698 34.2088 28.6185 34.2088H49.9015ZM49.9015 39.3171C50.4501 39.3171 50.8916 39.7506 50.8916 40.2894C50.8916 40.8282 50.446 41.2616 49.9015 41.2616H10.0995C9.55492 41.2616 9.10938 40.8241 9.10938 40.2894C9.10938 39.7506 9.55492 39.3171 10.0995 39.3171H49.9015ZM49.9015 44.4255C50.4501 44.4255 50.8916 44.863 50.8916 45.3978C50.8916 45.9325 50.446 46.37 49.9015 46.37H10.0995C9.55492 46.37 9.10938 45.9325 9.10938 45.3978C9.10938 44.863 9.55492 44.4255 10.0995 44.4255H49.9015ZM21.1102 24.9683V35.1851C21.1102 35.7239 20.6647 36.1573 20.1201 36.1573H10.0995C9.55492 36.1573 9.10938 35.7239 9.10938 35.1851V24.9683C9.10938 24.4296 9.55492 23.9961 10.0995 23.9961H20.1201C20.6647 23.9961 21.1102 24.4296 21.1102 24.9683ZM19.13 34.2088V25.9406H11.0896V34.2128L19.13 34.2088Z" fill="white"/>
</svg>
