<svg width="60" height="61" viewBox="0 0 60 61" fill="none" xmlns="http://www.w3.org/2000/svg">
<path d="M29.8397 21.4133C29.713 21.2232 29.5212 21.0859 29.3004 21.0272C29.0796 20.9685 28.845 20.9924 28.6406 21.0945L23.0156 23.907L23.8547 25.5842L28.7391 23.142L30.1556 25.2664C30.287 25.4642 30.4886 25.6045 30.7197 25.659C30.9507 25.7135 31.1938 25.6781 31.3997 25.5598L36.6066 22.5842L37.6303 24.2905C37.72 24.4405 37.8498 24.5625 38.0051 24.6426C38.1604 24.7228 38.3351 24.7579 38.5093 24.7441C38.6835 24.7302 38.8504 24.6679 38.9911 24.5643C39.1319 24.4606 39.2408 24.3196 39.3056 24.1573L41.1806 19.4698C41.2377 19.3275 41.2589 19.1734 41.2425 19.021C41.2262 18.8685 41.1727 18.7224 41.0867 18.5955C41.0007 18.4685 40.8849 18.3646 40.7495 18.2928C40.614 18.221 40.463 18.1835 40.3097 18.1836H35.6222C35.4565 18.184 35.2939 18.2283 35.1509 18.3119C35.0078 18.3956 34.8895 18.5156 34.8079 18.6597C34.7263 18.8039 34.6843 18.9672 34.6862 19.1328C34.6881 19.2985 34.7338 19.4607 34.8188 19.603L35.6428 20.9755L31.23 23.4964L29.8397 21.4133ZM38.925 20.0586L38.2659 21.7058L37.2787 20.0586H38.925Z" fill="white"/>
<path d="M57.1875 22.8711H53.8575C53.725 22.2721 53.567 21.6791 53.3841 21.0936L56.265 19.4305C56.3719 19.3692 56.4656 19.2874 56.5408 19.1897C56.6159 19.0921 56.671 18.9805 56.7029 18.8615C56.7348 18.7425 56.7428 18.6184 56.7266 18.4962C56.7103 18.3741 56.6701 18.2564 56.6081 18.1498L52.8581 11.6548C52.7338 11.4395 52.529 11.2824 52.2889 11.2181C52.0487 11.1537 51.7928 11.1874 51.5775 11.3117L48.6909 12.9786C48.2765 12.5275 47.843 12.0942 47.3916 11.6802L49.0584 8.79266C49.1828 8.57733 49.2164 8.32144 49.1521 8.08128C49.0877 7.84112 48.9306 7.63636 48.7153 7.51203L42.2203 3.76203C42.1138 3.70023 41.996 3.66007 41.8739 3.64387C41.7518 3.62767 41.6277 3.63574 41.5087 3.66762C41.3898 3.6995 41.2782 3.75456 41.1806 3.82965C41.0829 3.90473 41.0011 3.99836 40.9397 4.10516L39.2766 6.98609C38.6914 6.80334 38.0987 6.6457 37.5 6.51359V3.18359C37.5 2.93495 37.4012 2.6965 37.2254 2.52068C37.0496 2.34487 36.8111 2.24609 36.5625 2.24609H29.0625C28.8139 2.24609 28.5754 2.34487 28.3996 2.52068C28.2238 2.6965 28.125 2.93495 28.125 3.18359V6.51359C27.5231 6.64672 26.9297 6.80516 26.3475 6.98703L24.6844 4.10516C24.5595 3.89039 24.3551 3.73344 24.1153 3.66828C23.9964 3.63605 23.8723 3.62773 23.7501 3.64383C23.628 3.65992 23.5103 3.7001 23.4038 3.76203L16.9087 7.51203C16.802 7.5735 16.7085 7.65541 16.6335 7.75307C16.5585 7.85074 16.5035 7.96223 16.4716 8.08118C16.4397 8.20013 16.4316 8.3242 16.4478 8.44628C16.4639 8.56837 16.5039 8.68607 16.5656 8.79266L18.2325 11.6802C17.7816 12.0945 17.3475 12.5286 16.9331 12.9786L14.0466 11.3117C13.94 11.25 13.8223 11.21 13.7002 11.1939C13.5781 11.1777 13.454 11.1858 13.3351 11.2177C13.2161 11.2496 13.1046 11.3046 13.007 11.3796C12.9093 11.4546 12.8274 11.5481 12.7659 11.6548L9.01594 18.1498C8.89162 18.3652 8.85793 18.6211 8.92228 18.8612C8.98663 19.1014 9.14374 19.3061 9.35906 19.4305L12.24 21.0936C12.0581 21.6748 11.8997 22.2692 11.7666 22.8711H8.4375C8.18886 22.8711 7.9504 22.9699 7.77459 23.1457C7.59877 23.3215 7.5 23.56 7.5 23.8086V30.3711H9.375V24.7461H12.5334C12.7526 24.746 12.9647 24.6691 13.1331 24.5289C13.3014 24.3886 13.4153 24.1938 13.455 23.9783C13.6444 22.9508 13.9134 21.9411 14.2556 20.9783C14.3291 20.7718 14.3278 20.546 14.2521 20.3403C14.1764 20.1346 14.031 19.962 13.8412 19.8523L11.1094 18.2745L13.9219 13.4042L16.6594 14.9848C16.8491 15.0944 17.0713 15.1341 17.2873 15.0969C17.5032 15.0598 17.6994 14.9481 17.8416 14.7814C18.5149 13.9932 19.249 13.2591 20.0372 12.5858C20.3794 12.2923 20.4647 11.7964 20.2397 11.4045L18.6591 8.66703L23.5294 5.85453L25.1072 8.58641C25.2168 8.7762 25.3895 8.92159 25.5952 8.99729C25.8009 9.07299 26.0266 9.07423 26.2331 9.00078C27.21 8.65493 28.2128 8.38752 29.2322 8.20109C29.4477 8.1618 29.6426 8.04814 29.7829 7.8799C29.9232 7.71167 30 7.49953 30 7.28047V4.12109H35.625V7.28047C35.6251 7.4996 35.702 7.71176 35.8422 7.88012C35.9825 8.04847 36.1773 8.16237 36.3928 8.20203C37.4203 8.39047 38.4291 8.65953 39.3919 9.00172C39.5984 9.07516 39.8241 9.07393 40.0298 8.99823C40.2355 8.92252 40.4082 8.77714 40.5178 8.58734L42.0956 5.85547L46.9659 8.66797L45.3853 11.4055C45.1603 11.7964 45.2456 12.2933 45.5878 12.5867C46.376 13.26 47.1101 13.9942 47.7834 14.7823C47.9256 14.9491 48.1218 15.0607 48.3377 15.0979C48.5537 15.1351 48.7759 15.0954 48.9656 14.9858L51.7031 13.4052L54.5156 18.2755L51.7837 19.8533C51.5938 19.9628 51.4483 20.1354 51.3726 20.3412C51.2969 20.5469 51.2957 20.7727 51.3694 20.9792C51.7106 21.942 51.9797 22.9517 52.17 23.9792C52.2506 24.4227 52.6388 24.7461 53.0916 24.7461H56.25V30.3711H53.0916C52.8724 30.3712 52.6603 30.4481 52.4919 30.5883C52.3236 30.7286 52.2097 30.9234 52.17 31.1389C51.9829 32.1585 51.7152 33.1617 51.3694 34.1389C51.2959 34.3454 51.2972 34.5711 51.3729 34.7768C51.4486 34.9825 51.594 35.1552 51.7837 35.2648L54.5156 36.8427L51.7031 41.713L48.9656 40.1323C48.7759 40.0227 48.5537 39.9831 48.3377 40.0202C48.1218 40.0574 47.9256 40.1691 47.7834 40.3358C47.1101 41.124 46.376 41.8581 45.5878 42.5314C45.4218 42.6739 45.3107 42.8699 45.2737 43.0855C45.2367 43.3012 45.2762 43.523 45.3853 43.7127L46.9659 46.4502L42.0956 49.2627L40.5178 46.5308C40.4084 46.3407 40.2358 46.1951 40.03 46.1194C39.8242 46.0436 39.5984 46.0426 39.3919 46.1164C38.415 46.4623 37.4122 46.7297 36.3928 46.9161C36.1773 46.9554 35.9824 47.069 35.8421 47.2373C35.7018 47.4055 35.625 47.6177 35.625 47.8367V50.9961H31.875V52.8711H36.5625C36.8111 52.8711 37.0496 52.7723 37.2254 52.5965C37.4012 52.4207 37.5 52.1822 37.5 51.9336V48.6036C38.0989 48.4711 38.692 48.3131 39.2775 48.1302L40.9406 51.0111C41.0655 51.2258 41.2702 51.3825 41.5102 51.4468C41.7501 51.511 42.0058 51.4778 42.2212 51.3542L48.7163 47.6042C48.823 47.5427 48.9165 47.4608 48.9915 47.3632C49.0665 47.2655 49.1215 47.154 49.1534 47.0351C49.1853 46.9161 49.1934 46.792 49.1772 46.67C49.1611 46.5479 49.1211 46.4302 49.0594 46.3236L47.3925 43.4361C47.8434 43.0217 48.2775 42.5877 48.6919 42.1377L51.5784 43.8045C52.0256 44.0623 52.6003 43.9095 52.8591 43.4614L56.6091 36.9664C56.7334 36.7511 56.7671 36.4952 56.7027 36.255C56.6384 36.0149 56.4813 35.8101 56.2659 35.6858L53.385 34.0227C53.5669 33.4414 53.7253 32.847 53.8584 32.2452H57.1875C57.4361 32.2452 57.6746 32.1464 57.8504 31.9706C58.0262 31.7948 58.125 31.5563 58.125 31.3077V23.8077C58.1248 23.5592 58.0259 23.321 57.8501 23.1453C57.6743 22.9697 57.436 22.8711 57.1875 22.8711Z" fill="white"/>
<path d="M48.7509 27.5586C48.7509 18.7705 41.6016 11.6211 32.8134 11.6211C25.1634 11.6211 18.5784 17.068 17.1562 24.5717L18.9984 24.9205C20.2538 18.3008 26.0634 13.4961 32.8134 13.4961C40.5675 13.4961 46.8759 19.8045 46.8759 27.5586C46.8759 34.3086 42.0712 40.1183 35.4506 41.3745L35.8003 43.2167C43.3041 41.7927 48.7509 35.2077 48.7509 27.5586Z" fill="white"/>
<path d="M6.56269 40.6836C6.56269 42.2183 6.81956 43.7117 7.28925 45.1273L4.13831 48.2783C3.96256 48.4541 3.86383 48.6925 3.86383 48.9411C3.86383 49.1897 3.96256 49.4281 4.13831 49.6039L4.80113 50.2667L2.14988 52.918C2.06274 53.005 1.99361 53.1083 1.94644 53.222C1.89928 53.3357 1.875 53.4577 1.875 53.5808C1.875 53.7039 1.89928 53.8258 1.94644 53.9396C1.99361 54.0533 2.06274 54.1566 2.14988 54.2436L6.12675 58.2214C6.21361 58.3088 6.31689 58.3781 6.43064 58.4254C6.54439 58.4727 6.66637 58.4971 6.78956 58.4971C6.91276 58.4971 7.03474 58.4727 7.14849 58.4254C7.26224 58.3781 7.36551 58.3088 7.45238 58.2214L10.1046 55.5702L10.7674 56.233C10.8542 56.3203 10.9575 56.3897 11.0713 56.437C11.185 56.4843 11.307 56.5086 11.4302 56.5086C11.5534 56.5086 11.6754 56.4843 11.7891 56.437C11.9029 56.3897 12.0061 56.3203 12.093 56.233L14.8352 53.4908C16.6536 54.3174 18.6277 54.7454 20.6252 54.7461C24.3818 54.7461 27.9124 53.2827 30.5683 50.6267C33.2243 47.9708 34.6877 44.4402 34.6877 40.6836C34.6877 36.927 33.2243 33.3964 30.5683 30.7405C27.9124 28.0845 24.3818 26.6211 20.6252 26.6211C16.8686 26.6211 13.338 28.0845 10.6821 30.7405C8.02613 33.3964 6.56269 36.927 6.56269 40.6836ZM6.78956 56.233L4.13831 53.5808L6.12675 51.5914L8.77894 54.2436L6.78956 56.233ZM11.4302 54.2445L6.12675 48.9411L8.06738 47.0005C8.7399 48.3407 9.62228 49.5649 10.6811 50.6267C11.4181 51.3588 12.2333 52.0077 13.1121 52.5617L11.4302 54.2445ZM20.6252 28.4961C23.8811 28.4961 26.9411 29.7645 29.2427 32.0661C31.5443 34.3677 32.8127 37.4286 32.8127 40.6836C32.8127 43.9386 31.5443 46.9995 29.2427 49.3011C26.9411 51.6027 23.8811 52.8711 20.6252 52.8711C17.3693 52.8711 14.3093 51.6027 12.0077 49.3011C9.70613 46.9995 8.43769 43.9386 8.43769 40.6836C8.43769 37.4286 9.70613 34.3677 12.0077 32.0661C14.3093 29.7645 17.3693 28.4961 20.6252 28.4961Z" fill="white"/>
<path d="M20.625 50.9961C26.3109 50.9961 30.9375 46.3695 30.9375 40.6836C30.9375 34.9977 26.3109 30.3711 20.625 30.3711C14.9391 30.3711 10.3125 34.9977 10.3125 40.6836C10.3125 46.3695 14.9391 50.9961 20.625 50.9961ZM20.625 32.2461C25.2778 32.2461 29.0625 36.0317 29.0625 40.6836C29.0625 45.3355 25.2778 49.1211 20.625 49.1211C15.9722 49.1211 12.1875 45.3355 12.1875 40.6836C12.1875 36.0317 15.9722 32.2461 20.625 32.2461Z" fill="white"/>
<path d="M20.625 35.9961C21.1472 35.9961 21.6516 36.1011 22.125 36.3083L22.875 34.5898C22.1657 34.279 21.3994 34.1194 20.625 34.1211C19.7513 34.1178 18.889 34.3196 18.1074 34.7102C17.3259 35.1008 16.6469 35.6694 16.125 36.3702L17.625 37.4961C17.9727 37.0286 18.4253 36.6493 18.9463 36.3888C19.4674 36.1283 20.0424 35.9937 20.625 35.9961ZM39.375 25.6836H41.25V34.1211H39.375V25.6836ZM35.625 27.5586H37.5V34.1211H35.625V27.5586Z" fill="white"/>
</svg>
