<svg width="60" height="61" viewBox="0 0 60 61" fill="none" xmlns="http://www.w3.org/2000/svg">
<path d="M48.75 58.4961C48.9986 58.4961 49.2371 58.3973 49.4129 58.2215C49.5887 58.0457 49.6875 57.8072 49.6875 57.5586V46.3086C49.6875 46.06 49.5887 45.8215 49.4129 45.6457C49.2371 45.4699 48.9986 45.3711 48.75 45.3711H44.0625C43.8139 45.3711 43.5754 45.4699 43.3996 45.6457C43.2238 45.8215 43.125 46.06 43.125 46.3086V57.5586C43.125 57.8072 43.2238 58.0457 43.3996 58.2215C43.5754 58.3973 43.8139 58.4961 44.0625 58.4961H48.75ZM45 47.2461H47.8125V56.6211H45V47.2461ZM41.25 57.5586V50.0586C41.25 49.81 41.1512 49.5715 40.9754 49.3957C40.7996 49.2199 40.5611 49.1211 40.3125 49.1211H35.625C35.3764 49.1211 35.1379 49.2199 34.9621 49.3957C34.7863 49.5715 34.6875 49.81 34.6875 50.0586V57.5586C34.6875 57.8072 34.7863 58.0457 34.9621 58.2215C35.1379 58.3973 35.3764 58.4961 35.625 58.4961H40.3125C40.5611 58.4961 40.7996 58.3973 40.9754 58.2215C41.1512 58.0457 41.25 57.8072 41.25 57.5586ZM39.375 56.6211H36.5625V50.9961H39.375V56.6211ZM57.1875 40.6836H52.5C52.2514 40.6836 52.0129 40.7824 51.8371 40.9582C51.6613 41.134 51.5625 41.3725 51.5625 41.6211V57.5586C51.5625 57.8072 51.6613 58.0457 51.8371 58.2215C52.0129 58.3973 52.2514 58.4961 52.5 58.4961H57.1875C57.4361 58.4961 57.6746 58.3973 57.8504 58.2215C58.0262 58.0457 58.125 57.8072 58.125 57.5586V41.6211C58.125 41.3725 58.0262 41.134 57.8504 40.9582C57.6746 40.7824 57.4361 40.6836 57.1875 40.6836ZM56.25 56.6211H53.4375V42.5586H56.25V56.6211ZM23.4375 20.9961C22.9209 20.9961 22.5 20.5761 22.5 20.0586H20.625C20.625 21.2792 21.4116 22.3105 22.5 22.6986V23.8086H24.375V22.6986C24.9218 22.5059 25.3955 22.1487 25.7312 21.676C26.0669 21.2033 26.2481 20.6383 26.25 20.0586C26.25 18.508 24.9881 17.2461 23.4375 17.2461C23.1961 17.2353 22.9682 17.1318 22.8012 16.9572C22.6342 16.7825 22.541 16.5502 22.541 16.3086C22.541 16.067 22.6342 15.8346 22.8012 15.66C22.9682 15.4854 23.1961 15.3819 23.4375 15.3711C23.9541 15.3711 24.375 15.7911 24.375 16.3086H26.25C26.2481 15.7288 26.0669 15.1639 25.7312 14.6912C25.3955 14.2185 24.9218 13.8613 24.375 13.6686V12.5586H22.5V13.6686C21.9532 13.8613 21.4795 14.2185 21.1438 14.6912C20.8081 15.1639 20.6269 15.7288 20.625 16.3086C20.625 17.8592 21.8869 19.1211 23.4375 19.1211C23.6789 19.1319 23.9068 19.2354 24.0738 19.41C24.2408 19.5846 24.334 19.817 24.334 20.0586C24.334 20.3002 24.2408 20.5325 24.0738 20.7072C23.9068 20.8818 23.6789 20.9853 23.4375 20.9961ZM22.5 2.24609H24.375V6.93359H22.5V2.24609ZM40.3125 20.9961H45V22.8711H40.3125V20.9961ZM1.875 20.9961H6.5625V22.8711H1.875V20.9961ZM7.27969 8.53484L8.60531 7.20922L11.9194 10.5233L10.5938 11.8489L7.27969 8.53484Z" fill="white"/>
<path d="M28.1259 50.9939H28.2468C28.9604 50.9932 29.6446 50.7093 30.1492 50.2047C30.6538 49.7001 30.9376 49.016 30.9384 48.3023V48.0605C30.9384 47.5955 30.809 47.1642 30.6 46.7817C30.9913 46.527 31.3129 46.1786 31.5357 45.7682C31.7585 45.3578 31.8754 44.8984 31.8759 44.4314C31.8759 43.6036 31.5093 42.8658 30.9384 42.3502V38.3189C30.9384 37.4077 31.3612 36.5667 32.069 36.0689C34.0346 34.6839 35.6389 32.8473 36.7473 30.7134C37.8556 28.5796 38.4356 26.2109 38.4384 23.8064C38.4384 19.6683 36.7903 15.8152 33.7959 12.9567C30.8034 10.0992 26.865 8.63391 22.7287 8.82328C15.0281 9.17953 8.75714 15.4927 8.45058 23.1961C8.34554 25.7066 8.87462 28.2032 9.98896 30.4553C11.1033 32.7074 12.767 34.6425 14.8265 36.082C15.5231 36.5705 15.9384 37.4077 15.9384 38.3208V42.3502C15.3675 42.8648 15.0009 43.6036 15.0009 44.4314C15.0009 45.4148 15.51 46.2792 16.2768 46.7817C16.0579 47.1726 15.9415 47.6125 15.9384 48.0605V48.3023C15.9391 49.016 16.2229 49.7001 16.7276 50.2047C17.2322 50.7093 17.9163 50.9932 18.63 50.9939H18.7509C18.7509 53.5786 20.8537 55.6814 23.4384 55.6814C26.0231 55.6814 28.1259 53.5786 28.1259 50.9939ZM15.9037 34.5473C14.1014 33.2876 12.6455 31.5943 11.6703 29.6235C10.6951 27.6527 10.232 25.468 10.3237 23.2711C10.5918 16.5314 16.079 11.0077 22.8149 10.6964C24.591 10.6038 26.3672 10.877 28.0334 11.499C29.6996 12.121 31.2203 13.0786 32.5012 14.3123C33.7903 15.5339 34.8158 17.0064 35.5144 18.6392C36.213 20.2719 36.57 22.0305 36.5634 23.8064C36.5634 28.0655 34.4793 32.077 30.989 34.5361C29.7834 35.3855 29.0634 36.7983 29.0634 38.3189V41.6189H24.3759V36.278L25.815 34.1189H27.1884C29.7731 34.1189 31.8759 32.0161 31.8759 29.4314V27.5564C31.8759 27.3078 31.7771 27.0693 31.6013 26.8935C31.4255 26.7177 31.187 26.6189 30.9384 26.6189H29.0634C26.4787 26.6189 24.3759 28.7217 24.3759 31.3064V32.8973L23.4384 34.3036L22.5009 32.8973V31.3064C22.5009 28.7217 20.3981 26.6189 17.8134 26.6189H15.9384C15.6897 26.6189 15.4513 26.7177 15.2755 26.8935C15.0997 27.0693 15.0009 27.3078 15.0009 27.5564V29.4314C15.0009 32.0161 17.1037 34.1189 19.6884 34.1189H21.0618L22.5009 36.278V41.6189H17.8134V38.3208C17.8134 36.7964 17.099 35.3864 15.9037 34.5473ZM26.2509 32.2439V31.3064C26.2509 29.7558 27.5128 28.4939 29.0634 28.4939H30.0009V29.4314C30.0009 30.982 28.739 32.2439 27.1884 32.2439H26.2509ZM20.6259 31.3064V32.2439H19.6884C18.1378 32.2439 16.8759 30.982 16.8759 29.4314V28.4939H17.8134C19.364 28.4939 20.6259 29.7558 20.6259 31.3064ZM16.8759 44.4314C16.8759 43.9139 17.2968 43.4939 17.8134 43.4939H29.0634C29.3048 43.5047 29.5327 43.6082 29.6997 43.7828C29.8667 43.9575 29.9599 44.1898 29.9599 44.4314C29.9599 44.673 29.8667 44.9053 29.6997 45.08C29.5327 45.2546 29.3048 45.3581 29.0634 45.3689H17.8134C17.2968 45.3689 16.8759 44.9489 16.8759 44.4314ZM18.63 49.1189C18.4135 49.1187 18.2059 49.0325 18.0528 48.8795C17.8997 48.7264 17.8136 48.5188 17.8134 48.3023V48.0605C17.8134 47.6105 18.18 47.2439 18.63 47.2439H28.2478C28.6968 47.2439 29.0634 47.6105 29.0634 48.0605V48.3023C29.0634 48.7523 28.6968 49.1189 28.2468 49.1189H18.63ZM20.6259 50.9939H26.2509C26.2509 52.5445 24.989 53.8064 23.4384 53.8064C21.8878 53.8064 20.6259 52.5445 20.6259 50.9939ZM34.7024 10.5211L38.0165 7.20703L39.3421 8.53266L36.0281 11.8467L34.7024 10.5211ZM34.6725 40.6814L34.6884 42.5564C35.369 42.5564 38.8453 41.6695 41.6418 40.9261C44.5575 40.1508 46.7437 39.023 50.0521 37.3148L53.1609 35.392L54.5334 37.4508C54.6305 37.5972 54.7668 37.7134 54.9268 37.786C55.0867 37.8587 55.2639 37.8848 55.438 37.8616C55.6122 37.8383 55.7763 37.7665 55.9115 37.6544C56.0468 37.5423 56.1479 37.3944 56.2031 37.2277L58.0781 31.6027C58.1252 31.4617 58.1382 31.3116 58.1158 31.1646C58.0935 31.0177 58.0365 30.8782 57.9496 30.7577C57.8626 30.6371 57.7483 30.539 57.6159 30.4714C57.4836 30.4038 57.337 30.3687 57.1884 30.3689H51.5634C51.3938 30.369 51.2274 30.4151 51.082 30.5022C50.9365 30.5894 50.8174 30.7144 50.7374 30.8639C50.6573 31.0134 50.6193 31.1818 50.6274 31.3512C50.6355 31.5206 50.6894 31.6846 50.7834 31.8258L52.1231 33.8358L49.3921 35.5448L49.1925 35.648C45.8793 37.358 43.8796 38.3902 41.1609 39.112C37.3987 40.1142 35.0493 40.6598 34.6725 40.6814ZM55.8881 32.2439L55.0303 34.8164L53.3156 32.2439H55.8881Z" fill="white"/>
</svg>
