<svg width="60" height="61" viewBox="0 0 60 61" fill="none" xmlns="http://www.w3.org/2000/svg">
<path d="M39.375 36.2033V25.8898C39.9459 25.3752 40.3125 24.6364 40.3125 23.8086V20.9961C40.3125 19.962 39.4716 19.1211 38.4375 19.1211H21.5625C20.5284 19.1211 19.6875 19.962 19.6875 20.9961V23.8086C19.6875 24.6364 20.0541 25.3742 20.625 25.8898V36.2033C18.2213 38.6493 16.8746 41.9417 16.875 45.3711C16.875 52.6086 22.7625 58.4961 30 58.4961C37.2375 58.4961 43.125 52.6086 43.125 45.3711C43.125 41.8048 41.6906 38.5705 39.375 36.2033ZM39.7275 39.7461H37.5C37.3547 39.7461 37.2103 39.7798 37.0809 39.8445L34.3763 41.1964L33.8063 38.9164L34.4775 37.5739L36.5156 36.2155C37.8246 37.1511 38.9195 38.3547 39.7275 39.7461ZM36.5625 20.9961H38.4375V23.8086C38.4267 24.05 38.3232 24.2779 38.1486 24.4449C37.9739 24.6119 37.7416 24.7051 37.5 24.7051C37.2584 24.7051 37.0261 24.6119 36.8514 24.4449C36.6768 24.2779 36.5733 24.05 36.5625 23.8086V20.9961ZM32.8125 20.9961H34.6875V23.8086C34.6767 24.05 34.5732 24.2779 34.3986 24.4449C34.2239 24.6119 33.9916 24.7051 33.75 24.7051C33.5084 24.7051 33.2761 24.6119 33.1014 24.4449C32.9268 24.2779 32.8233 24.05 32.8125 23.8086V20.9961ZM29.0625 20.9961H30.9375V23.8086C30.9267 24.05 30.8232 24.2779 30.6486 24.4449C30.4739 24.6119 30.2416 24.7051 30 24.7051C29.7584 24.7051 29.5261 24.6119 29.3514 24.4449C29.1768 24.2779 29.0733 24.05 29.0625 23.8086V20.9961ZM25.3125 20.9961H27.1875V23.8086C27.1767 24.05 27.0732 24.2779 26.8986 24.4449C26.7239 24.6119 26.4916 24.7051 26.25 24.7051C26.0084 24.7051 25.7761 24.6119 25.6014 24.4449C25.4268 24.2779 25.3233 24.05 25.3125 23.8086V20.9961ZM26.25 26.6211C26.9441 26.6187 27.6125 26.3581 28.125 25.8898C28.6238 26.3398 29.2772 26.6211 30 26.6211C30.7228 26.6211 31.3762 26.3389 31.875 25.8898C32.3738 26.3398 33.0272 26.6211 33.75 26.6211C34.4728 26.6211 35.1263 26.3389 35.625 25.8898C36.1237 26.3398 36.7772 26.6211 37.5 26.6211V34.6152C36.6267 34.0061 35.6822 33.5061 34.6875 33.1264V29.4336C34.6875 29.185 34.5887 28.9465 34.4129 28.7707C34.2371 28.5949 33.9986 28.4961 33.75 28.4961H26.25C26.0014 28.4961 25.7629 28.5949 25.5871 28.7707C25.4113 28.9465 25.3125 29.185 25.3125 29.4336V33.1264C24.3181 33.5069 23.3737 34.0068 22.5 34.6152V26.6211C23.1941 26.6187 23.8625 26.3581 24.375 25.8898C24.8875 26.3581 25.5559 26.6187 26.25 26.6211ZM32.8125 30.3711V32.5573C31.889 32.3525 30.946 32.2482 30 32.2461C29.054 32.2482 28.111 32.3525 27.1875 32.5573V30.3711H32.8125ZM21.5625 20.9961H23.4375V23.8086C23.4267 24.05 23.3232 24.2779 23.1486 24.4449C22.9739 24.6119 22.7416 24.7051 22.5 24.7051C22.2584 24.7051 22.0261 24.6119 21.8514 24.4449C21.6768 24.2779 21.5733 24.05 21.5625 23.8086V20.9961ZM23.715 36.0448L24.4228 38.1683C24.5166 38.4486 24.7359 38.668 25.0153 38.7608L27.1875 39.4845V41.6211C27.1875 41.698 27.1969 41.7739 27.2156 41.848L27.9422 44.7561L26.3888 45.2745L23.9578 43.6536C23.8036 43.5512 23.6226 43.4964 23.4375 43.4961H21.5625C21.4857 43.4961 21.4092 43.5055 21.3347 43.5242L18.8184 44.1533C18.9965 42.5271 19.5268 40.9593 20.3724 39.559C21.218 38.1587 22.3587 36.9595 23.715 36.0448ZM30 56.6211C29.085 56.6211 28.2 56.4992 27.3478 56.292L28.0556 54.1686L28.8234 52.632L32.2941 50.8967C32.5162 50.7852 32.685 50.5902 32.7638 50.3548L33.5287 48.0589L36.5625 47.4523V49.1211C36.5625 49.2664 36.5962 49.4108 36.6609 49.5402L38.3391 52.8955C36.2784 55.1764 33.3084 56.6211 30 56.6211ZM38.4375 48.8998V46.3086C38.4378 46.1698 38.4071 46.0328 38.3479 45.9073C38.2886 45.7818 38.2022 45.6711 38.0949 45.5832C37.9875 45.4952 37.862 45.4323 37.7273 45.3988C37.5927 45.3654 37.4522 45.3623 37.3162 45.3898L32.6287 46.3273C32.4667 46.3596 32.3162 46.4342 32.1923 46.5436C32.0685 46.6529 31.9758 46.7931 31.9237 46.9498L31.1091 49.3939L27.7069 51.0945C27.5256 51.1853 27.3786 51.3323 27.2878 51.5136L26.3503 53.3886C26.3306 53.4283 26.3136 53.4693 26.2997 53.5114L25.5675 55.707C23.6611 54.885 22.019 53.5521 20.8225 51.8555C19.6261 50.1589 18.9218 48.1647 18.7875 46.093L21.6778 45.3711H23.1534L25.7297 47.0886C25.8485 47.1677 25.9839 47.2186 26.1254 47.2375C26.2669 47.2563 26.4108 47.2426 26.5462 47.1973L29.3587 46.2598C29.5826 46.1852 29.77 46.0288 29.8837 45.8221C29.9973 45.6153 30.0288 45.3732 29.9719 45.1442L29.0625 41.5058V38.8086C29.0626 38.6118 29.0007 38.4201 28.8856 38.2605C28.7705 38.1009 28.608 37.9817 28.4212 37.9198L26.0531 37.1295L25.3838 35.1223C26.8336 34.4636 28.4075 34.1223 30 34.1211C31.6828 34.1211 33.2737 34.5027 34.7091 35.1673L33.2306 36.1536C33.0948 36.2442 32.985 36.3686 32.9119 36.5145L31.9744 38.3895C31.875 38.5897 31.8498 38.8185 31.9031 39.0355L32.8406 42.7855C32.8744 42.9218 32.9384 43.0488 33.0279 43.1571C33.1174 43.2653 33.2302 43.352 33.3577 43.4108C33.4853 43.4696 33.6244 43.4989 33.7649 43.4967C33.9053 43.4944 34.0435 43.4606 34.1691 43.3977L37.7212 41.6211H40.5938C41.0109 42.7958 41.25 44.0548 41.25 45.3711C41.25 47.5123 40.6378 49.5092 39.5953 51.2145L38.4375 48.8998ZM26.7797 16.5158C27.7838 17.0005 28.8675 17.2461 30 17.2461C31.1325 17.2461 32.2162 17.0005 33.2128 16.5195L33.2184 16.5167L33.2194 16.5158L33.2213 16.5148C34.5068 15.9135 35.593 14.9563 36.3513 13.7567C37.1096 12.5571 37.5083 11.1653 37.5 9.74609C37.5 5.61078 34.1353 2.24609 30 2.24609C25.8647 2.24609 22.5 5.61078 22.5 9.74609C22.5 12.6739 24.1425 15.2698 26.7797 16.5158ZM31.8525 15.0252C31.6219 15.2989 30.7134 15.328 30.39 15.3495C29.6329 15.4035 28.8727 15.304 28.155 15.057L28.125 15.0448V13.4961C28.125 12.4508 28.9472 11.6277 30 11.6211C30.4997 11.6211 30.9703 11.8161 31.3247 12.1714C31.6791 12.5267 31.875 12.9973 31.875 13.4961C31.875 13.8402 32.0466 14.713 31.875 14.9933C31.8684 15.0045 31.8608 15.0151 31.8525 15.0252ZM29.0644 8.75047C29.0717 8.62756 29.1031 8.5073 29.157 8.3966C29.2109 8.2859 29.2862 8.18694 29.3784 8.1054C29.4707 8.02386 29.5781 7.96135 29.6946 7.92147C29.8111 7.88158 29.9343 7.8651 30.0572 7.87297C30.242 7.88491 30.4192 7.95124 30.5665 8.06361C30.7137 8.17598 30.8245 8.32937 30.8848 8.50451C30.9451 8.67964 30.9523 8.8687 30.9055 9.04791C30.8586 9.22712 30.7599 9.38849 30.6216 9.51172C30.4337 9.67385 30.1907 9.75745 29.9428 9.74516C29.6946 9.72924 29.4628 9.61563 29.2982 9.42921C29.1336 9.24279 29.0495 8.99873 29.0644 8.75047ZM30 4.12109C33.1022 4.12109 35.625 6.64391 35.625 9.74609C35.625 11.3914 34.9331 12.8961 33.75 13.9423V13.4961C33.7509 13.0036 33.6542 12.5158 33.4655 12.0609C33.2767 11.6059 32.9997 11.193 32.6503 10.8458C32.5238 10.7192 32.3812 10.6152 32.2416 10.5092C32.5484 10.1033 32.7395 9.62189 32.7945 9.11608C32.8495 8.61026 32.7665 8.09899 32.5541 7.63662C32.3418 7.17424 32.0081 6.77805 31.5886 6.49018C31.1691 6.2023 30.6794 6.0335 30.1716 6.00172C29.8029 5.97869 29.4333 6.0287 29.0841 6.14888C28.7348 6.26906 28.4127 6.45704 28.1362 6.70203C27.6029 7.16957 27.2682 7.82307 27.2004 8.52907C27.1326 9.23507 27.3369 9.94031 27.7716 10.5008C26.8537 11.187 26.25 12.2708 26.25 13.4961V13.9442C25.6565 13.4184 25.1822 12.7718 24.8588 12.0478C24.5355 11.3238 24.3705 10.539 24.375 9.74609C24.375 6.64391 26.8978 4.12109 30 4.12109ZM50.625 21.9336C46.4897 21.9336 43.125 25.2983 43.125 29.4336C43.125 32.3614 44.7675 34.9573 47.4047 36.2033C48.4087 36.688 49.4925 36.9336 50.625 36.9336C51.7575 36.9336 52.8412 36.688 53.8378 36.207L53.8434 36.2042L53.8444 36.2033L53.8463 36.2023C55.1318 35.601 56.218 34.6438 56.9763 33.4442C57.7346 32.2446 58.1333 30.8528 58.125 29.4336C58.125 25.2983 54.7603 21.9336 50.625 21.9336ZM52.4991 34.7314C51.3347 35.1814 49.9528 35.1598 48.78 34.7445L48.75 34.7323V33.1836C48.75 32.1383 49.5722 31.3152 50.625 31.3086C51.1247 31.3086 51.5953 31.5036 51.9497 31.8589C52.3041 32.2142 52.5 32.6848 52.5 33.1836C52.5 33.6992 52.4916 34.2158 52.4991 34.7314ZM49.6894 28.438C49.6967 28.3151 49.7281 28.1948 49.782 28.0841C49.8359 27.9734 49.9112 27.8744 50.0034 27.7929C50.0957 27.7114 50.2031 27.6489 50.3196 27.609C50.4361 27.5691 50.5593 27.5526 50.6822 27.5605C50.867 27.5724 51.0442 27.6387 51.1915 27.7511C51.3387 27.8635 51.4495 28.0169 51.5098 28.192C51.5701 28.3671 51.5773 28.5562 51.5305 28.7354C51.4836 28.9146 51.3849 29.076 51.2466 29.1992C51.0591 29.3652 50.8125 29.4439 50.5678 29.4327C50.3196 29.4167 50.0878 29.3031 49.9232 29.1167C49.7586 28.9303 49.6745 28.6862 49.6894 28.438ZM54.375 33.6298V33.1836C54.3759 32.6911 54.2792 32.2033 54.0905 31.7484C53.9017 31.2934 53.6247 30.8805 53.2753 30.5333C53.1488 30.4067 53.0062 30.3027 52.8666 30.1967C53.1734 29.7908 53.3645 29.3094 53.4195 28.8036C53.4745 28.2978 53.3915 27.7865 53.1791 27.3241C52.9668 26.8617 52.6331 26.4656 52.2136 26.1777C51.7941 25.8898 51.3044 25.721 50.7966 25.6892C50.4279 25.6659 50.0582 25.7158 49.7089 25.836C49.3596 25.9562 49.0375 26.1443 48.7612 26.3895C48.2279 26.8571 47.8932 27.5106 47.8254 28.2166C47.7576 28.9226 47.9619 29.6278 48.3966 30.1883C47.4788 30.8745 46.875 31.9583 46.875 33.1836V33.6317C46.2815 33.1059 45.8072 32.4593 45.4838 31.7353C45.1605 31.0113 44.9955 30.2265 45 29.4336C45 26.3314 47.5228 23.8086 50.625 23.8086C53.7272 23.8086 56.25 26.3314 56.25 29.4336C56.25 31.0789 55.5581 32.5836 54.375 33.6298ZM12.5878 36.207L12.5934 36.2042L12.5944 36.2033L12.5962 36.2023C13.8818 35.601 14.968 34.6438 15.7263 33.4442C16.4846 32.2446 16.8833 30.8528 16.875 29.4336C16.875 25.2983 13.5103 21.9336 9.375 21.9336C5.23969 21.9336 1.875 25.2983 1.875 29.4336C1.875 32.3614 3.5175 34.9573 6.15469 36.2033C7.15875 36.688 8.2425 36.9336 9.375 36.9336C10.5075 36.9336 11.5913 36.688 12.5878 36.207ZM7.13344 30.1967C6.99281 30.3027 6.85125 30.4067 6.72469 30.5333C6.37534 30.8805 6.09829 31.2934 5.90953 31.7484C5.72078 32.2033 5.62407 32.6911 5.625 33.1836V33.6317C5.0316 33.1058 4.55736 32.4592 4.23401 31.7352C3.91065 31.0112 3.74564 30.2265 3.75 29.4336C3.75 26.3314 6.27281 23.8086 9.375 23.8086C12.4772 23.8086 15 26.3314 15 29.4336C15 31.0789 14.3081 32.5836 13.125 33.6298V33.1836C13.125 31.9592 12.5222 30.8764 11.6025 30.1902C12.0148 29.6587 12.2206 28.996 12.1819 28.3245C12.1606 27.9556 12.0663 27.5946 11.9044 27.2624C11.7425 26.9303 11.5162 26.6336 11.2387 26.3895C10.7153 25.9303 10.0402 25.6815 9.34388 25.6911C8.6476 25.7007 7.97961 25.9681 7.46902 26.4416C6.95844 26.9151 6.64153 27.5611 6.57955 28.2547C6.51756 28.9482 6.71491 29.6402 7.13344 30.1967ZM10.3106 28.438C10.3213 28.6228 10.2771 28.8067 10.1835 28.9665C10.09 29.1263 9.95135 29.2549 9.78496 29.3361C9.61857 29.4174 9.43189 29.4476 9.24836 29.4231C9.06484 29.3986 8.89265 29.3204 8.75344 29.1983C8.61515 29.0751 8.51637 28.9137 8.46954 28.7345C8.4227 28.5553 8.42989 28.3662 8.49021 28.1911C8.55052 28.0159 8.66127 27.8625 8.80852 27.7502C8.95578 27.6378 9.13297 27.5715 9.31781 27.5595L9.37594 27.5586C9.60469 27.5586 9.82312 27.6411 9.99562 27.7939C10.1841 27.9598 10.2956 28.1886 10.3106 28.438ZM8.54438 34.9977C8.19898 34.9457 7.85932 34.8609 7.53 34.7445C7.51969 34.7417 7.51031 34.7361 7.5 34.7323V33.1836C7.5 32.6848 7.695 32.2142 8.05031 31.8589C8.40562 31.5036 8.87531 31.3086 9.37875 31.3086C9.62519 31.3072 9.86944 31.3548 10.0973 31.4486C10.3252 31.5424 10.5322 31.6805 10.7063 31.8549C10.8804 32.0294 11.0181 32.2366 11.1114 32.4647C11.2048 32.6928 11.2519 32.9372 11.25 33.1836C11.25 33.6992 11.2416 34.2158 11.2519 34.7305C10.41 35.0567 9.45281 35.1355 8.54438 34.9977ZM48.6778 20.5283L50.3006 19.5889C47.8726 15.3729 44.1895 12.0196 39.765 9.99641L38.9831 11.7008C43.0439 13.5788 46.4286 16.6607 48.6778 20.5283ZM9.69844 19.5889L11.3212 20.5283C13.5704 16.661 16.9547 13.5791 21.015 11.7008L20.2331 9.99641C15.809 12.0199 12.1264 15.3732 9.69844 19.5889ZM9.66469 38.4964L7.89656 39.1208C9.21393 42.8312 11.4413 46.1516 14.3747 48.778L15.6253 47.3811C12.9264 44.9648 10.877 41.91 9.66469 38.4964ZM44.3747 47.3811L45.6253 48.778C48.5591 46.152 50.7865 42.8314 52.1034 39.1208L50.3353 38.4964C49.1235 41.9102 47.074 44.9652 44.3747 47.3811Z" fill="white"/>
</svg>
