<svg width="40" height="40" viewBox="0 0 40 40" fill="none" xmlns="http://www.w3.org/2000/svg">
<g clip-path="url(#clip0_3051_326)">
<path d="M3.33333 38.0001H19.678C22.1833 39.5511 25.1322 40.2271 28.0629 39.9224C30.9936 39.6177 33.7404 38.3494 35.873 36.3163C38.0056 34.2832 39.4036 31.6 39.8478 28.6873C40.2921 25.7745 39.7576 22.7966 38.328 20.2201L39.6247 18.9248C39.7683 18.781 39.8754 18.605 39.9372 18.4114C39.9991 18.2179 40.0138 18.0123 39.9801 17.8119C39.9465 17.6115 39.8654 17.422 39.7438 17.2593C39.6221 17.0965 39.4633 16.9652 39.2807 16.8761L39.4067 16.7495C39.6865 16.4703 39.8774 16.1145 39.9552 15.7269C40.0329 15.3394 39.9941 14.9374 39.8436 14.5719C39.6931 14.2064 39.4376 13.8937 39.1095 13.6733C38.7814 13.4529 38.3953 13.3346 38 13.3335C37.7373 13.3328 37.477 13.3848 37.2347 13.4862C36.9923 13.5876 36.7726 13.7365 36.5887 13.9241L36.4593 14.0535C36.3703 13.8707 36.2388 13.7118 36.0759 13.5901C35.9131 13.4683 35.7235 13.3872 35.5229 13.3536C35.3224 13.3199 35.1167 13.3347 34.923 13.3966C34.7293 13.4585 34.5532 13.5658 34.4093 13.7095L33.1133 15.0055C31.5356 14.1296 29.7956 13.5852 28 13.4055V6.66681C27.9989 5.78308 27.6474 4.93585 27.0225 4.31096C26.3976 3.68607 25.5504 3.33454 24.6667 3.33348H19.8147C19.6986 3.13145 19.5314 2.96351 19.3299 2.8465C19.1284 2.72948 18.8997 2.66752 18.6667 2.66681H17.7727C17.4975 1.88595 16.9869 1.20971 16.3112 0.731349C15.6354 0.25299 14.8279 -0.00390625 14 -0.00390625C13.1721 -0.00390625 12.3646 0.25299 11.6888 0.731349C11.0131 1.20971 10.5025 1.88595 10.2273 2.66681H9.33333C9.10033 2.66752 8.8716 2.72948 8.67011 2.8465C8.46861 2.96351 8.30143 3.13145 8.18533 3.33348H3.33333C2.4496 3.33454 1.60237 3.68607 0.97748 4.31096C0.352588 4.93585 0.00105857 5.78308 0 6.66681L0 34.6668C0.00105857 35.5505 0.352588 36.3978 0.97748 37.0227C1.60237 37.6476 2.4496 37.9991 3.33333 38.0001ZM26.6667 38.6668C24.8494 38.6672 23.0557 38.2547 21.421 37.4607C19.7864 36.6666 18.3534 35.5116 17.2303 34.0829C16.1072 32.6542 15.3233 30.9891 14.9376 29.2131C14.552 27.4372 14.5748 25.5969 15.0042 23.831C15.4337 22.0652 16.2586 20.42 17.4168 19.0195C18.5749 17.619 20.036 16.4998 21.6898 15.7465C23.3436 14.9931 25.1469 14.6252 26.9637 14.6705C28.7804 14.7159 30.5632 15.1732 32.1773 16.0081C32.0623 16.2016 32.001 16.4224 32 16.6475V18.5108L31.2133 19.2975C29.8499 18.4462 28.2741 17.9965 26.6667 18.0001C24.9526 18.0001 23.277 18.5084 21.8517 19.4607C20.4265 20.413 19.3157 21.7666 18.6597 23.3502C18.0038 24.9339 17.8321 26.6764 18.1665 28.3576C18.5009 30.0388 19.3264 31.583 20.5384 32.7951C21.7505 34.0071 23.2947 34.8325 24.9759 35.167C26.6571 35.5014 28.3996 35.3297 29.9833 34.6738C31.5669 34.0178 32.9204 32.907 33.8727 31.4818C34.825 30.0565 35.3333 28.3809 35.3333 26.6668C35.337 25.0594 34.8873 23.4836 34.036 22.1201L34.8227 21.3335H36.6893C36.9144 21.3325 37.1352 21.2712 37.3287 21.1561C38.2744 22.9855 38.7334 25.0275 38.6615 27.0856C38.5896 29.1437 37.9893 31.1487 36.9183 32.9076C35.8473 34.6666 34.3417 36.1203 32.5463 37.1289C30.7508 38.1376 28.726 38.6672 26.6667 38.6668ZM34 26.6668C34 28.1172 33.5699 29.535 32.7641 30.741C31.9583 31.947 30.813 32.8869 29.473 33.4419C28.133 33.997 26.6585 34.1422 25.236 33.8592C23.8135 33.5763 22.5068 32.8779 21.4812 31.8523C20.4556 30.8267 19.7572 29.52 19.4742 28.0975C19.1913 26.6749 19.3365 25.2005 19.8916 23.8605C20.4466 22.5205 21.3865 21.3752 22.5925 20.5694C23.7984 19.7636 25.2163 19.3335 26.6667 19.3335C27.9187 19.3315 29.1498 19.6547 30.2393 20.2715L27.692 22.8175C27.3584 22.7223 27.0136 22.6716 26.6667 22.6668C25.8755 22.6668 25.1022 22.9014 24.4444 23.3409C23.7866 23.7805 23.2739 24.4052 22.9711 25.1361C22.6684 25.867 22.5892 26.6713 22.7435 27.4472C22.8979 28.2231 23.2788 28.9358 23.8382 29.4952C24.3976 30.0547 25.1104 30.4356 25.8863 30.59C26.6622 30.7443 27.4665 30.6651 28.1974 30.3623C28.9283 30.0596 29.553 29.5469 29.9925 28.8891C30.4321 28.2313 30.6667 27.4579 30.6667 26.6668C30.662 26.3196 30.6111 25.9746 30.5153 25.6408L33.062 23.0941C33.6787 24.1837 34.0019 25.4148 34 26.6668ZM25.9227 27.4121C26.1073 27.5986 26.3271 27.7466 26.5693 27.8476C26.8115 27.9486 27.0713 28.0006 27.3337 28.0006C27.5961 28.0006 27.8559 27.9486 28.0981 27.8476C28.3402 27.7466 28.56 27.5986 28.7447 27.4121L29.316 26.8415C29.2837 27.3524 29.1047 27.8431 28.8004 28.2547C28.4962 28.6664 28.0797 28.9816 27.6008 29.1625C27.122 29.3434 26.6011 29.3823 26.1006 29.2745C25.6002 29.1668 25.1415 28.917 24.7795 28.5551C24.4175 28.1931 24.1676 27.7345 24.0597 27.2341C23.9519 26.7337 23.9906 26.2128 24.1714 25.7339C24.3522 25.255 24.6673 24.8384 25.0789 24.534C25.4905 24.2297 25.9811 24.0506 26.492 24.0181L25.9247 24.5861C25.737 24.7706 25.588 24.9906 25.4863 25.2332C25.3846 25.4759 25.3322 25.7364 25.3322 25.9995C25.3322 26.2626 25.3846 26.5231 25.4863 26.7657C25.588 27.0084 25.737 27.2284 25.9247 27.4128L25.9227 27.4121ZM27.8 26.4668C27.6751 26.5912 27.506 26.661 27.3297 26.661C27.1534 26.661 26.9843 26.5912 26.8593 26.4668C26.7966 26.4064 26.7467 26.3339 26.7126 26.2537C26.6785 26.1735 26.6609 26.0873 26.6609 26.0001C26.6609 25.913 26.6785 25.8268 26.7126 25.7466C26.7467 25.6664 26.7966 25.5939 26.8593 25.5335L32.034 20.3588C32.0896 20.5858 32.2064 20.7932 32.3716 20.9585C32.5369 21.1238 32.7443 21.2406 32.9713 21.2961L27.8 26.4668ZM38 14.6708C38.1305 14.6726 38.2576 14.7127 38.3655 14.7861C38.4734 14.8595 38.5574 14.9629 38.6071 15.0836C38.6568 15.2042 38.67 15.3368 38.645 15.4649C38.62 15.593 38.558 15.711 38.4667 15.8041L37.6907 16.5801L36.9147 16.4668L36.774 15.6248L37.5333 14.8668C37.5941 14.8047 37.6667 14.7553 37.7469 14.7217C37.827 14.688 37.9131 14.6707 38 14.6708ZM35.2667 14.6935L35.6 16.6835C35.644 16.946 35.7687 17.1883 35.957 17.3765C36.1452 17.5647 36.3875 17.6895 36.65 17.7335L38.604 18.0595L36.686 20.0001H33.3333L33.3173 16.6868L35.2667 14.6935ZM26.6667 6.66681V13.3335C26.2167 13.3335 25.772 13.3575 25.3333 13.4001V7.33348C25.3333 6.97986 25.1929 6.64072 24.9428 6.39067C24.6928 6.14062 24.3536 6.00015 24 6.00015H20V4.66681H24.6667C25.1971 4.66681 25.7058 4.87753 26.0809 5.2526C26.456 5.62767 26.6667 6.13638 26.6667 6.66681ZM9.33333 4.00015H10.7333C10.8871 4.00033 11.0363 3.94733 11.1555 3.85013C11.2747 3.75293 11.3566 3.61751 11.3873 3.46681C11.5104 2.86471 11.8376 2.32358 12.3137 1.93496C12.7898 1.54634 13.3855 1.33408 14 1.33408C14.6146 1.33408 15.2102 1.54634 15.6863 1.93496C16.1624 2.32358 16.4896 2.86471 16.6127 3.46681C16.6434 3.61751 16.7253 3.75293 16.8445 3.85013C16.9637 3.94733 17.1129 4.00033 17.2667 4.00015H18.6667V6.66681H9.33333V4.00015ZM18.6667 8.00015C18.8997 7.99944 19.1284 7.93748 19.3299 7.82047C19.5314 7.70345 19.6986 7.53551 19.8147 7.33348H24V13.6001C20.8128 14.26 17.9767 16.0619 16.0253 18.6668H13.3333C13.1565 18.6668 12.987 18.7371 12.8619 18.8621C12.7369 18.9871 12.6667 19.1567 12.6667 19.3335C12.6667 19.5103 12.7369 19.6799 12.8619 19.8049C12.987 19.9299 13.1565 20.0001 13.3333 20.0001H15.1373C14.8847 20.4313 14.6568 20.8765 14.4547 21.3335H13.3333C13.1565 21.3335 12.987 21.4037 12.8619 21.5287C12.7369 21.6538 12.6667 21.8233 12.6667 22.0001C12.6667 22.177 12.7369 22.3465 12.8619 22.4716C12.987 22.5966 13.1565 22.6668 13.3333 22.6668H13.948C13.613 23.7486 13.4178 24.8688 13.3673 26.0001H13.3333C13.1565 26.0001 12.987 26.0704 12.8619 26.1954C12.7369 26.3204 12.6667 26.49 12.6667 26.6668C12.6667 26.8436 12.7369 27.0132 12.8619 27.1382C12.987 27.2632 13.1565 27.3335 13.3333 27.3335H13.3673C13.3893 27.7799 13.4338 28.2249 13.5007 28.6668H13.3333C13.1565 28.6668 12.987 28.7371 12.8619 28.8621C12.7369 28.9871 12.6667 29.1567 12.6667 29.3335C12.6667 29.5103 12.7369 29.6799 12.8619 29.8049C12.987 29.9299 13.1565 30.0001 13.3333 30.0001H13.772C14.1367 31.4223 14.735 32.7741 15.5427 34.0001H4V7.33348H8.18533C8.30143 7.53551 8.46861 7.70345 8.67011 7.82047C8.8716 7.93748 9.10033 7.99944 9.33333 8.00015H18.6667ZM1.33333 6.66681C1.33333 6.13638 1.54405 5.62767 1.91912 5.2526C2.29419 4.87753 2.8029 4.66681 3.33333 4.66681H8V6.00015H4C3.64638 6.00015 3.30724 6.14062 3.05719 6.39067C2.80714 6.64072 2.66667 6.97986 2.66667 7.33348V34.0001C2.66667 34.3538 2.80714 34.6929 3.05719 34.943C3.30724 35.193 3.64638 35.3335 4 35.3335H16.5547C16.9637 35.8082 17.4054 36.2538 17.8767 36.6668H3.33333C2.8029 36.6668 2.29419 36.4561 1.91912 36.081C1.54405 35.706 1.33333 35.1972 1.33333 34.6668V6.66681Z" fill="url(#paint0_linear_3051_326)"/>
<path d="M13.3332 12.6669H21.9999C22.1767 12.6669 22.3462 12.5967 22.4713 12.4717C22.5963 12.3467 22.6665 12.1771 22.6665 12.0003C22.6665 11.8235 22.5963 11.6539 22.4713 11.5289C22.3462 11.4038 22.1767 11.3336 21.9999 11.3336H13.3332C13.1564 11.3336 12.9868 11.4038 12.8618 11.5289C12.7368 11.6539 12.6665 11.8235 12.6665 12.0003C12.6665 12.1771 12.7368 12.3467 12.8618 12.4717C12.9868 12.5967 13.1564 12.6669 13.3332 12.6669ZM13.3332 15.3336H17.3332C17.51 15.3336 17.6796 15.2634 17.8046 15.1383C17.9296 15.0133 17.9999 14.8438 17.9999 14.6669C17.9999 14.4901 17.9296 14.3206 17.8046 14.1955C17.6796 14.0705 17.51 14.0003 17.3332 14.0003H13.3332C13.1564 14.0003 12.9868 14.0705 12.8618 14.1955C12.7368 14.3206 12.6665 14.4901 12.6665 14.6669C12.6665 14.8438 12.7368 15.0133 12.8618 15.1383C12.9868 15.2634 13.1564 15.3336 13.3332 15.3336ZM6.19519 14.1956C6.07021 14.3206 6 14.4902 6 14.6669C6 14.8437 6.07021 15.0133 6.19519 15.1383L7.52852 16.4716C7.65352 16.5966 7.82306 16.6669 7.99986 16.6669C8.03559 16.667 8.07127 16.6641 8.10652 16.6583C8.21089 16.6414 8.30976 16.6 8.39496 16.5374C8.48015 16.4748 8.54925 16.3928 8.59652 16.2983L11.2632 10.9649C11.3023 10.8866 11.3256 10.8013 11.3318 10.7139C11.338 10.6266 11.3269 10.5388 11.2991 10.4558C11.2714 10.3727 11.2276 10.2959 11.1702 10.2297C11.1128 10.1636 11.0429 10.1094 10.9645 10.0703C10.8862 10.0311 10.8009 10.0078 10.7135 10.0017C10.6261 9.99549 10.5384 10.0066 10.4553 10.0343C10.3723 10.0621 10.2955 10.1059 10.2293 10.1633C10.1632 10.2207 10.109 10.2906 10.0699 10.3689L7.81719 14.8749L7.13786 14.1956C7.01284 14.0706 6.8433 14.0004 6.66652 14.0004C6.48975 14.0004 6.32021 14.0706 6.19519 14.1956ZM10.9645 17.4036C10.8862 17.3644 10.8009 17.3411 10.7135 17.3349C10.6261 17.3287 10.5384 17.3398 10.4553 17.3675C10.3722 17.3953 10.2954 17.4391 10.2293 17.4966C10.1631 17.554 10.109 17.6239 10.0699 17.7023L7.81719 22.2083L7.13786 21.5289C7.01212 21.4075 6.84372 21.3403 6.66892 21.3418C6.49413 21.3433 6.32692 21.4135 6.20331 21.5371C6.07971 21.6607 6.00959 21.8279 6.00808 22.0027C6.00656 22.1775 6.07375 22.3459 6.19519 22.4716L7.52852 23.8049C7.65352 23.93 7.82306 24.0002 7.99986 24.0003C8.03559 24.0004 8.07127 23.9975 8.10652 23.9916C8.21089 23.9748 8.30976 23.9333 8.39496 23.8707C8.48015 23.8081 8.54925 23.7262 8.59652 23.6316L11.2632 18.2983C11.3024 18.2199 11.3257 18.1346 11.3319 18.0473C11.3381 17.9599 11.327 17.8721 11.2993 17.7891C11.2715 17.706 11.2277 17.6292 11.1702 17.563C11.1128 17.4969 11.0429 17.4427 10.9645 17.4036ZM10.9645 24.7336C10.8862 24.6944 10.8009 24.6711 10.7135 24.6649C10.6261 24.6587 10.5384 24.6698 10.4553 24.6975C10.3722 24.7253 10.2954 24.7691 10.2293 24.8266C10.1631 24.884 10.109 24.9539 10.0699 25.0323L7.81719 29.5383L7.13786 28.8589C7.01212 28.7375 6.84372 28.6703 6.66892 28.6718C6.49413 28.6733 6.32692 28.7435 6.20331 28.8671C6.07971 28.9907 6.00959 29.1579 6.00808 29.3327C6.00656 29.5075 6.07375 29.6759 6.19519 29.8016L7.52852 31.1349C7.59014 31.1975 7.6635 31.2472 7.74438 31.2813C7.82526 31.3154 7.91208 31.3332 7.99986 31.3336C8.03559 31.3337 8.07127 31.3308 8.10652 31.3249C8.21089 31.3081 8.30976 31.2667 8.39496 31.2041C8.48015 31.1415 8.54925 31.0595 8.59652 30.9649L11.2632 25.6316C11.3029 25.5531 11.3266 25.4675 11.3331 25.3798C11.3396 25.292 11.3286 25.2039 11.3008 25.1204C11.2731 25.0369 11.2291 24.9598 11.1713 24.8934C11.1136 24.827 11.0433 24.7727 10.9645 24.7336Z" fill="url(#paint1_linear_3051_326)"/>
</g>
<defs>
<linearGradient id="paint0_linear_3051_326" x1="0" y1="19.995" x2="40.0001" y2="19.995" gradientUnits="userSpaceOnUse">
<stop stop-color="#004D6E"/>
<stop offset="1" stop-color="#00ACCC"/>
</linearGradient>
<linearGradient id="paint1_linear_3051_326" x1="6" y1="20.6668" x2="22.6665" y2="20.6668" gradientUnits="userSpaceOnUse">
<stop stop-color="#004D6E"/>
<stop offset="1" stop-color="#00ACCC"/>
</linearGradient>
<clipPath id="clip0_3051_326">
<rect width="40" height="40" fill="white"/>
</clipPath>
</defs>
</svg>
