<svg width="40" height="40" viewBox="0 0 40 40" fill="none" xmlns="http://www.w3.org/2000/svg">
<path d="M38 2.66667H34.6667V2C34.6667 1.46957 34.456 0.960859 34.0809 0.585786C33.7058 0.210714 33.1971 0 32.6667 0L7.33334 0C6.80291 0 6.2942 0.210714 5.91913 0.585786C5.54405 0.960859 5.33334 1.46957 5.33334 2V2.66667H2.00001C1.46957 2.66667 0.960865 2.87738 0.585793 3.25245C0.21072 3.62753 6.09269e-06 4.13623 6.09269e-06 4.66667V9.21333C-0.00275848 11.8122 0.935388 14.3241 2.64104 16.2849C4.34668 18.2457 6.70451 19.5228 9.27867 19.88C9.37067 20.0233 9.45267 20.178 9.54534 20.318C11.1195 22.8015 13.4079 24.7511 16.11 25.9107C15.6814 26.9661 15.031 27.917 14.2029 28.6992C13.3747 29.4813 12.3882 30.0764 11.31 30.444C10.9255 30.5864 10.5938 30.8432 10.3596 31.1798C10.1254 31.5164 9.99994 31.9166 10 32.3267V32.852C9.79798 32.9681 9.63003 33.1353 9.51302 33.3368C9.39601 33.5383 9.33404 33.767 9.33334 34V38.6667C9.33334 39.0203 9.47382 39.3594 9.72386 39.6095C9.97391 39.8595 10.3131 40 10.6667 40H29.3333C29.687 40 30.0261 39.8595 30.2761 39.6095C30.5262 39.3594 30.6667 39.0203 30.6667 38.6667V34C30.666 33.767 30.604 33.5383 30.487 33.3368C30.37 33.1353 30.202 32.9681 30 32.852V32.3267C29.9992 31.9172 29.8732 31.5177 29.6389 31.1818C29.4047 30.8459 29.0733 30.5896 28.6893 30.4473C27.6091 30.0796 26.6209 29.4829 25.7925 28.6981C24.9641 27.9133 24.3149 26.9588 23.8893 25.9C26.7323 24.6494 29.1169 22.5471 30.714 19.8833C33.2901 19.5277 35.6501 18.2508 37.3573 16.2892C39.0645 14.3275 40.0033 11.8138 40 9.21333V4.66667C40 4.13623 39.7893 3.62753 39.4142 3.25245C39.0391 2.87738 38.5304 2.66667 38 2.66667ZM34.6353 6.66667H36V9.21333C35.9929 10.2883 35.7328 11.3466 35.2408 12.3024C34.7489 13.2583 34.0388 14.0849 33.168 14.7153C34.0343 12.1151 34.5283 9.40534 34.6353 6.66667ZM6.83001 14.714C5.95969 14.0836 5.25001 13.2571 4.75836 12.3015C4.26672 11.3459 4.00693 10.288 4.00001 9.21333V6.66667H5.37734C5.48135 9.40401 5.97037 12.1131 6.83001 14.714ZM1.33334 9.21333V4.66667C1.33334 4.48986 1.40358 4.32029 1.5286 4.19526C1.65363 4.07024 1.8232 4 2.00001 4H5.33334V5.33333H4.00001C3.64638 5.33333 3.30725 5.47381 3.0572 5.72386C2.80715 5.97391 2.66667 6.31304 2.66667 6.66667V9.21333C2.66294 10.8001 3.12618 12.3529 3.99867 13.6782C4.87117 15.0035 6.11435 16.0429 7.57334 16.6667C7.82267 17.2444 8.09134 17.8047 8.37934 18.3473C6.35926 17.82 4.57138 16.6369 3.29618 14.9838C2.02098 13.3308 1.3306 11.3011 1.33334 9.21333ZM10.6667 38.6667V34H29.3333V38.6667H10.6667ZM28.2307 31.6993C28.3593 31.746 28.4703 31.8313 28.5484 31.9437C28.6265 32.056 28.6678 32.1898 28.6667 32.3267V32.6667H11.3333V32.3267C11.3321 32.19 11.3733 32.0563 11.4513 31.944C11.5292 31.8318 11.6402 31.7465 11.7687 31.7C13.0381 31.2652 14.1976 30.5593 15.1667 29.6313C16.1359 28.7033 16.8913 27.5754 17.3807 26.326C18.2358 26.55 19.116 26.6645 20 26.6667C20.8854 26.6644 21.7667 26.5474 22.622 26.3187C23.109 27.5697 23.8632 28.6993 24.8319 29.6286C25.8006 30.558 26.9606 31.2647 28.2307 31.6993ZM20 25.3333C16.4873 25.3333 13.168 23.288 10.6527 19.5727C8.08201 15.7787 6.66667 10.722 6.66667 5.33333V2C6.66667 1.82319 6.73691 1.65362 6.86194 1.5286C6.98696 1.40357 7.15653 1.33333 7.33334 1.33333H32.6667C32.8435 1.33333 33.0131 1.40357 33.1381 1.5286C33.2631 1.65362 33.3333 1.82319 33.3333 2V5.33333C33.3333 16.3613 27.352 25.3333 20 25.3333ZM38.6667 9.21333C38.6686 11.3025 37.9765 13.3331 36.6991 14.9863C35.4218 16.6394 33.6314 17.8215 31.6093 18.3467C31.896 17.8076 32.1647 17.248 32.4153 16.668C33.8768 16.046 35.1226 15.0072 35.9972 13.6814C36.8718 12.3557 37.3366 10.8016 37.3333 9.21333V6.66667C37.3333 6.31304 37.1929 5.97391 36.9428 5.72386C36.6928 5.47381 36.3536 5.33333 36 5.33333H34.6667V4H38C38.1768 4 38.3464 4.07024 38.4714 4.19526C38.5964 4.32029 38.6667 4.48986 38.6667 4.66667V9.21333Z" fill="url(#paint0_linear_3051_322)"/>
<path d="M24 7.9987H22.6667V7.33203C22.6667 6.8016 22.456 6.29289 22.0809 5.91782C21.7058 5.54274 21.1971 5.33203 20.6667 5.33203H19.3333C18.8029 5.33203 18.2942 5.54274 17.9191 5.91782C17.544 6.29289 17.3333 6.8016 17.3333 7.33203V7.9987H16C15.4696 7.9987 14.9609 8.20941 14.5858 8.58448C14.2107 8.95956 14 9.46827 14 9.9987V15.332C14 15.8625 14.2107 16.3712 14.5858 16.7462C14.9609 17.1213 15.4696 17.332 16 17.332H24C24.5304 17.332 25.0391 17.1213 25.4142 16.7462C25.7893 16.3712 26 15.8625 26 15.332V9.9987C26 9.46827 25.7893 8.95956 25.4142 8.58448C25.0391 8.20941 24.5304 7.9987 24 7.9987ZM18.6667 7.33203C18.6667 7.15522 18.7369 6.98565 18.8619 6.86063C18.987 6.7356 19.1565 6.66536 19.3333 6.66536H20.6667C20.8435 6.66536 21.013 6.7356 21.1381 6.86063C21.2631 6.98565 21.3333 7.15522 21.3333 7.33203V7.9987H18.6667V7.33203ZM24 15.9987H16C15.8232 15.9987 15.6536 15.9285 15.5286 15.8034C15.4036 15.6784 15.3333 15.5088 15.3333 15.332V13.2094C15.5468 13.2883 15.7724 13.3298 16 13.332H19.3333V13.9987C19.3333 14.1755 19.4036 14.3451 19.5286 14.4701C19.6536 14.5951 19.8232 14.6654 20 14.6654C20.1768 14.6654 20.3464 14.5951 20.4714 14.4701C20.5964 14.3451 20.6667 14.1755 20.6667 13.9987V13.332H24C24.2276 13.3298 24.4532 13.2883 24.6667 13.2094V15.332C24.6667 15.5088 24.5964 15.6784 24.4714 15.8034C24.3464 15.9285 24.1768 15.9987 24 15.9987ZM24 11.9987H16C15.8232 11.9987 15.6536 11.9285 15.5286 11.8034C15.4036 11.6784 15.3333 11.5088 15.3333 11.332V9.9987C15.3333 9.82189 15.4036 9.65232 15.5286 9.52729C15.6536 9.40227 15.8232 9.33203 16 9.33203H24C24.1768 9.33203 24.3464 9.40227 24.4714 9.52729C24.5964 9.65232 24.6667 9.82189 24.6667 9.9987V11.332C24.6667 11.5088 24.5964 11.6784 24.4714 11.8034C24.3464 11.9285 24.1768 11.9987 24 11.9987Z" fill="url(#paint1_linear_3051_322)"/>
<path d="M20 2C18.0222 2 16.0888 2.58649 14.4443 3.6853C12.7998 4.78412 11.5181 6.3459 10.7612 8.17317C10.0043 10.0004 9.8063 12.0111 10.1922 13.9509C10.578 15.8907 11.5304 17.6725 12.9289 19.0711C14.3275 20.4696 16.1093 21.422 18.0491 21.8079C19.9889 22.1937 21.9996 21.9957 23.8268 21.2388C25.6541 20.4819 27.2159 19.2002 28.3147 17.5557C29.4135 15.9112 30 13.9778 30 12C29.997 9.34876 28.9425 6.80696 27.0678 4.93225C25.193 3.05753 22.6512 2.003 20 2ZM20 20.6667C18.2859 20.6667 16.6103 20.1584 15.1851 19.2061C13.7598 18.2538 12.649 16.9002 11.993 15.3166C11.3371 13.733 11.1655 11.9904 11.4999 10.3092C11.8343 8.62805 12.6597 7.0838 13.8717 5.87174C15.0838 4.65969 16.6281 3.83427 18.3092 3.49986C19.9904 3.16546 21.733 3.33708 23.3166 3.99304C24.9002 4.649 26.2538 5.75983 27.2061 7.18506C28.1584 8.61028 28.6667 10.2859 28.6667 12C28.664 14.2977 27.7501 16.5006 26.1253 18.1253C24.5006 19.7501 22.2977 20.664 20 20.6667Z" fill="url(#paint2_linear_3051_322)"/>
<defs>
<linearGradient id="paint0_linear_3051_322" x1="0" y1="20" x2="40" y2="20" gradientUnits="userSpaceOnUse">
<stop stop-color="#004D6E"/>
<stop offset="1" stop-color="#00ACCC"/>
</linearGradient>
<linearGradient id="paint1_linear_3051_322" x1="14" y1="11.332" x2="26" y2="11.332" gradientUnits="userSpaceOnUse">
<stop stop-color="#004D6E"/>
<stop offset="1" stop-color="#00ACCC"/>
</linearGradient>
<linearGradient id="paint2_linear_3051_322" x1="10" y1="12" x2="30" y2="12" gradientUnits="userSpaceOnUse">
<stop stop-color="#004D6E"/>
<stop offset="1" stop-color="#00ACCC"/>
</linearGradient>
</defs>
</svg>
