<svg width="40" height="40" viewBox="0 0 40 40" fill="none" xmlns="http://www.w3.org/2000/svg">
<path d="M37.3341 18.0008H27.4094C28.2916 15.0458 28.1732 11.8822 27.0727 9.00147C25.9721 6.12072 23.9509 3.68408 21.3232 2.07008C18.6954 0.456084 15.6082 -0.244905 12.5411 0.076012C9.47405 0.396929 6.59881 1.72179 4.36207 3.84476C1.69391 6.37724 0.12972 9.85812 0.00771074 13.5347C-0.114299 17.2114 1.21568 20.7883 3.71008 23.4921C5.11774 24.9348 6.02854 26.7889 6.31008 28.7848C5.8831 28.9151 5.50288 29.166 5.21511 29.5074C4.92734 29.8487 4.74428 30.2658 4.68795 30.7087C4.63162 31.1515 4.7044 31.6012 4.89755 32.0037C5.09071 32.4062 5.39601 32.7443 5.77674 32.9774C5.53706 33.3076 5.38881 33.6951 5.34698 34.101C5.30515 34.5068 5.37123 34.9164 5.53853 35.2885C5.70583 35.6606 5.96843 35.9819 6.29975 36.2199C6.63108 36.458 7.01939 36.6043 7.42541 36.6441C7.92341 38.5694 10.6287 40.0008 14.0007 40.0008C17.3727 40.0008 20.0847 38.5654 20.5787 36.6361C20.6454 36.6281 20.7121 36.6234 20.7854 36.6094C20.9658 36.6477 21.1497 36.6672 21.3341 36.6674H22.6674V38.3861C22.6668 38.6661 22.7391 38.9414 22.8772 39.1849C23.0153 39.4284 23.2145 39.6318 23.4551 39.7749C23.6956 39.9181 23.9694 39.9961 24.2493 40.0014C24.5292 40.0066 24.8056 39.9388 25.0514 39.8048L30.8367 36.6674H37.3341C38.0413 36.6674 38.7196 36.3865 39.2197 35.8864C39.7198 35.3863 40.0007 34.708 40.0007 34.0008V20.6674C40.0007 19.9602 39.7198 19.2819 39.2197 18.7818C38.7196 18.2817 38.0413 18.0008 37.3341 18.0008ZM1.33408 14.0008C1.32673 11.4659 2.08213 8.98752 3.50207 6.88771C4.92202 4.78791 6.94082 3.16384 9.29605 2.22664C11.6513 1.28944 14.234 1.08246 16.7084 1.6326C19.1828 2.18274 21.4345 3.46457 23.1707 5.31143C24.7594 6.96453 25.8641 9.02171 26.3647 11.2591C26.8654 13.4964 26.7427 15.8283 26.0101 18.0008H21.3341C20.6268 18.0008 19.9486 18.2817 19.4485 18.7818C18.9484 19.2819 18.6674 19.9602 18.6674 20.6674V28.6674H7.62941C7.34237 26.3736 6.30963 24.2376 4.69008 22.5881C2.52818 20.2515 1.32941 17.1841 1.33408 14.0008ZM6.29274 30.2921C6.4812 30.1056 6.7356 30.0009 7.00074 30.0008H18.6674V32.0008H7.00074C6.80256 32.0013 6.60871 31.9428 6.44379 31.833C6.27886 31.7231 6.15031 31.5667 6.07445 31.3836C5.99859 31.2005 5.97884 30.999 6.0177 30.8047C6.05657 30.6103 6.1523 30.4319 6.29274 30.2921ZM6.66741 34.3341C6.66688 34.2026 6.69238 34.0724 6.74245 33.9508C6.79252 33.8292 6.86616 33.7188 6.95912 33.6258C7.05209 33.5328 7.16254 33.4592 7.2841 33.4091C7.40566 33.3591 7.53594 33.3336 7.66741 33.3341H18.6674V34.0008C18.6702 34.4703 18.7981 34.9305 19.0381 35.3341H7.66741C7.40219 35.3341 7.14784 35.2287 6.9603 35.0412C6.77277 34.8537 6.66741 34.5993 6.66741 34.3341ZM14.0007 38.6674C11.4074 38.6674 9.46741 37.7108 8.86741 36.6674H19.1341C18.5341 37.7108 16.5941 38.6674 14.0007 38.6674ZM38.6674 34.0008C38.6674 34.3544 38.5269 34.6935 38.2769 34.9436C38.0268 35.1936 37.6877 35.3341 37.3341 35.3341H30.6674C30.5564 35.3342 30.4471 35.362 30.3494 35.4148L24.4161 38.6328C24.3732 38.6557 24.3252 38.6673 24.2766 38.6662C24.228 38.6652 24.1805 38.6516 24.1387 38.6267C24.0969 38.6019 24.0623 38.5667 24.0381 38.5246C24.0139 38.4824 24.0011 38.4347 24.0007 38.3861V36.0008C24.0007 35.824 23.9305 35.6544 23.8055 35.5294C23.6805 35.4043 23.5109 35.3341 23.3341 35.3341H21.3341C20.9805 35.3341 20.6413 35.1936 20.3913 34.9436C20.1412 34.6935 20.0007 34.3544 20.0007 34.0008V20.6674C20.0007 20.3138 20.1412 19.9747 20.3913 19.7246C20.6413 19.4746 20.9805 19.3341 21.3341 19.3341H37.3341C37.6877 19.3341 38.0268 19.4746 38.2769 19.7246C38.5269 19.9747 38.6674 20.3138 38.6674 20.6674V34.0008Z" fill="url(#paint0_linear_3051_313)"/>
<path d="M36.6641 26.6662H21.9974C21.8206 26.6662 21.651 26.7364 21.526 26.8614C21.401 26.9865 21.3307 27.156 21.3307 27.3328C21.3307 27.5096 21.401 27.6792 21.526 27.8042C21.651 27.9293 21.8206 27.9995 21.9974 27.9995H36.6641C36.8409 27.9995 37.0104 27.9293 37.1355 27.8042C37.2605 27.6792 37.3307 27.5096 37.3307 27.3328C37.3307 27.156 37.2605 26.9865 37.1355 26.8614C37.0104 26.7364 36.8409 26.6662 36.6641 26.6662ZM21.9974 25.3328H31.3307C31.5075 25.3328 31.6771 25.2626 31.8021 25.1376C31.9272 25.0125 31.9974 24.843 31.9974 24.6662C31.9974 24.4894 31.9272 24.3198 31.8021 24.1948C31.6771 24.0697 31.5075 23.9995 31.3307 23.9995H21.9974C21.8206 23.9995 21.651 24.0697 21.526 24.1948C21.401 24.3198 21.3307 24.4894 21.3307 24.6662C21.3307 24.843 21.401 25.0125 21.526 25.1376C21.651 25.2626 21.8206 25.3328 21.9974 25.3328ZM36.6641 23.9995H33.9974C33.8206 23.9995 33.651 24.0697 33.526 24.1948C33.401 24.3198 33.3307 24.4894 33.3307 24.6662C33.3307 24.843 33.401 25.0125 33.526 25.1376C33.651 25.2626 33.8206 25.3328 33.9974 25.3328H36.6641C36.8409 25.3328 37.0104 25.2626 37.1355 25.1376C37.2605 25.0125 37.3307 24.843 37.3307 24.6662C37.3307 24.4894 37.2605 24.3198 37.1355 24.1948C37.0104 24.0697 36.8409 23.9995 36.6641 23.9995ZM29.9974 31.9995H21.9974C21.8206 31.9995 21.651 32.0697 21.526 32.1948C21.401 32.3198 21.3307 32.4894 21.3307 32.6662C21.3307 32.843 21.401 33.0125 21.526 33.1376C21.651 33.2626 21.8206 33.3328 21.9974 33.3328H29.9974C30.1742 33.3328 30.3438 33.2626 30.4688 33.1376C30.5938 33.0125 30.6641 32.843 30.6641 32.6662C30.6641 32.4894 30.5938 32.3198 30.4688 32.1948C30.3438 32.0697 30.1742 31.9995 29.9974 31.9995ZM21.9974 30.6662H23.3307C23.5075 30.6662 23.6771 30.5959 23.8021 30.4709C23.9272 30.3459 23.9974 30.1763 23.9974 29.9995C23.9974 29.8227 23.9272 29.6531 23.8021 29.5281C23.6771 29.4031 23.5075 29.3328 23.3307 29.3328H21.9974C21.8206 29.3328 21.651 29.4031 21.526 29.5281C21.401 29.6531 21.3307 29.8227 21.3307 29.9995C21.3307 30.1763 21.401 30.3459 21.526 30.4709C21.651 30.5959 21.8206 30.6662 21.9974 30.6662ZM36.6641 29.3328H25.9974C25.8206 29.3328 25.651 29.4031 25.526 29.5281C25.401 29.6531 25.3307 29.8227 25.3307 29.9995C25.3307 30.1763 25.401 30.3459 25.526 30.4709C25.651 30.5959 25.8206 30.6662 25.9974 30.6662H36.6641C36.8409 30.6662 37.0104 30.5959 37.1355 30.4709C37.2605 30.3459 37.3307 30.1763 37.3307 29.9995C37.3307 29.8227 37.2605 29.6531 37.1355 29.5281C37.0104 29.4031 36.8409 29.3328 36.6641 29.3328ZM36.6641 21.3328H21.9974C21.8206 21.3328 21.651 21.4031 21.526 21.5281C21.401 21.6531 21.3307 21.8227 21.3307 21.9995C21.3307 22.1763 21.401 22.3459 21.526 22.4709C21.651 22.5959 21.8206 22.6662 21.9974 22.6662H36.6641C36.8409 22.6662 37.0104 22.5959 37.1355 22.4709C37.2605 22.3459 37.3307 22.1763 37.3307 21.9995C37.3307 21.8227 37.2605 21.6531 37.1355 21.5281C37.0104 21.4031 36.8409 21.3328 36.6641 21.3328ZM3.39206 12.6662C3.21561 12.6552 3.04203 12.7148 2.90951 12.8318C2.77699 12.9488 2.69637 13.1137 2.6854 13.2902C2.67117 13.5257 2.66406 13.7622 2.66406 13.9995C2.66406 14.1763 2.7343 14.3459 2.85932 14.4709C2.98435 14.5959 3.15392 14.6662 3.33073 14.6662C3.50754 14.6662 3.67711 14.5959 3.80213 14.4709C3.92716 14.3459 3.9974 14.1763 3.9974 13.9995C3.9974 13.7902 4.00362 13.5819 4.01606 13.3748C4.02176 13.2873 4.01012 13.1995 3.98182 13.1165C3.95352 13.0334 3.90912 12.9568 3.85115 12.891C3.79318 12.8252 3.72279 12.7714 3.64401 12.7328C3.56523 12.6942 3.47961 12.6716 3.39206 12.6662ZM13.3714 4.01817C13.5482 4.00738 13.7135 3.9268 13.8309 3.79415C13.9483 3.6615 14.0082 3.48765 13.9974 3.31083C13.9866 3.13402 13.906 2.96874 13.7734 2.85134C13.6407 2.73394 13.4669 2.67405 13.2901 2.68483C10.6329 2.83773 8.11762 3.93447 6.1974 5.7775C4.83438 7.06778 3.81315 8.67637 3.2254 10.4588C3.19812 10.5421 3.18752 10.6299 3.1942 10.7173C3.20088 10.8046 3.22472 10.8898 3.26435 10.9679C3.30397 11.0461 3.35861 11.1156 3.42514 11.1726C3.49166 11.2296 3.56878 11.273 3.65206 11.3002C3.71885 11.3217 3.78857 11.3327 3.85873 11.3328C3.99923 11.3328 4.13612 11.2883 4.24986 11.2058C4.3636 11.1234 4.44837 11.007 4.49206 10.8735C5.12005 8.97584 6.30097 7.30922 7.88316 6.08768C9.46535 4.86614 11.3766 4.14545 13.3714 4.01817Z" fill="url(#paint1_linear_3051_313)"/>
<defs>
<linearGradient id="paint0_linear_3051_313" x1="0" y1="20.0008" x2="40.0007" y2="20.0008" gradientUnits="userSpaceOnUse">
<stop stop-color="#004D6E"/>
<stop offset="1" stop-color="#00ACCC"/>
</linearGradient>
<linearGradient id="paint1_linear_3051_313" x1="2.66406" y1="18.0082" x2="37.3307" y2="18.0082" gradientUnits="userSpaceOnUse">
<stop stop-color="#004D6E"/>
<stop offset="1" stop-color="#00ACCC"/>
</linearGradient>
</defs>
</svg>
