<svg width="40" height="40" viewBox="0 0 40 40" fill="none" xmlns="http://www.w3.org/2000/svg">
<path d="M38.6667 36H4V1.33333C4 0.979711 3.85952 0.640573 3.60948 0.390524C3.35943 0.140476 3.02029 0 2.66667 0L1.33333 0C0.979711 0 0.640573 0.140476 0.390524 0.390524C0.140476 0.640573 0 0.979711 0 1.33333L0 38.6667C0 39.0203 0.140476 39.3594 0.390524 39.6095C0.640573 39.8595 0.979711 40 1.33333 40H38.6667C39.0203 40 39.3594 39.8595 39.6095 39.6095C39.8595 39.3594 40 39.0203 40 38.6667V37.3333C40 36.9797 39.8595 36.6406 39.6095 36.3905C39.3594 36.1405 39.0203 36 38.6667 36ZM38.6667 38.6667H1.33333V1.33333H2.66667V36.6667C2.66667 36.8435 2.7369 37.0131 2.86193 37.1381C2.98695 37.2631 3.15652 37.3333 3.33333 37.3333H38.6667V38.6667Z" fill="url(#paint0_linear_3051_317)"/>
<path d="M5.33594 32.6667C5.33594 33.1971 5.54665 33.7058 5.92172 34.0809C6.2968 34.456 6.8055 34.6667 7.33594 34.6667H10.0026C10.533 34.6667 11.0417 34.456 11.4168 34.0809C11.7919 33.7058 12.0026 33.1971 12.0026 32.6667V28C12.0026 27.4696 11.7919 26.9609 11.4168 26.5858C11.0417 26.2107 10.533 26 10.0026 26H7.33594C6.8055 26 6.2968 26.2107 5.92172 26.5858C5.54665 26.9609 5.33594 27.4696 5.33594 28V32.6667ZM6.66927 28C6.66927 27.8232 6.73951 27.6536 6.86453 27.5286C6.98956 27.4036 7.15913 27.3333 7.33594 27.3333H10.0026C10.1794 27.3333 10.349 27.4036 10.474 27.5286C10.599 27.6536 10.6693 27.8232 10.6693 28V32.6667C10.6693 32.8435 10.599 33.0131 10.474 33.1381C10.349 33.2631 10.1794 33.3333 10.0026 33.3333H7.33594C7.15913 33.3333 6.98956 33.2631 6.86453 33.1381C6.73951 33.0131 6.66927 32.8435 6.66927 32.6667V28ZM18.0026 22H15.3359C14.8055 22 14.2968 22.2107 13.9217 22.5858C13.5467 22.9609 13.3359 23.4696 13.3359 24V32.6667C13.3359 33.1971 13.5467 33.7058 13.9217 34.0809C14.2968 34.456 14.8055 34.6667 15.3359 34.6667H18.0026C18.533 34.6667 19.0417 34.456 19.4168 34.0809C19.7919 33.7058 20.0026 33.1971 20.0026 32.6667V24C20.0026 23.4696 19.7919 22.9609 19.4168 22.5858C19.0417 22.2107 18.533 22 18.0026 22ZM18.6693 32.6667C18.6693 32.8435 18.599 33.0131 18.474 33.1381C18.349 33.2631 18.1794 33.3333 18.0026 33.3333H15.3359C15.1591 33.3333 14.9896 33.2631 14.8645 33.1381C14.7395 33.0131 14.6693 32.8435 14.6693 32.6667V24C14.6693 23.8232 14.7395 23.6536 14.8645 23.5286C14.9896 23.4036 15.1591 23.3333 15.3359 23.3333H18.0026C18.1794 23.3333 18.349 23.4036 18.474 23.5286C18.599 23.6536 18.6693 23.8232 18.6693 24V32.6667ZM21.3359 26V32.6667C21.3359 33.1971 21.5467 33.7058 21.9217 34.0809C22.2968 34.456 22.8055 34.6667 23.3359 34.6667H26.0026C26.533 34.6667 27.0417 34.456 27.4168 34.0809C27.7919 33.7058 28.0026 33.1971 28.0026 32.6667V26C28.0026 25.4696 27.7919 24.9609 27.4168 24.5858C27.0417 24.2107 26.533 24 26.0026 24H23.3359C22.8055 24 22.2968 24.2107 21.9217 24.5858C21.5467 24.9609 21.3359 25.4696 21.3359 26ZM26.6693 26V32.6667C26.6693 32.8435 26.599 33.0131 26.474 33.1381C26.349 33.2631 26.1794 33.3333 26.0026 33.3333H23.3359C23.1591 33.3333 22.9896 33.2631 22.8645 33.1381C22.7395 33.0131 22.6693 32.8435 22.6693 32.6667V26C22.6693 25.8232 22.7395 25.6536 22.8645 25.5286C22.9896 25.4036 23.1591 25.3333 23.3359 25.3333H26.0026C26.1794 25.3333 26.349 25.4036 26.474 25.5286C26.599 25.6536 26.6693 25.8232 26.6693 26ZM34.0026 34.6667C34.533 34.6667 35.0417 34.456 35.4168 34.0809C35.7919 33.7058 36.0026 33.1971 36.0026 32.6667V18.6667C36.0026 18.1362 35.7919 17.6275 35.4168 17.2525C35.0417 16.8774 34.533 16.6667 34.0026 16.6667H31.3359C30.8055 16.6667 30.2968 16.8774 29.9217 17.2525C29.5467 17.6275 29.3359 18.1362 29.3359 18.6667V32.6667C29.3359 33.1971 29.5467 33.7058 29.9217 34.0809C30.2968 34.456 30.8055 34.6667 31.3359 34.6667H34.0026ZM30.6693 32.6667V18.6667C30.6693 18.4899 30.7395 18.3203 30.8645 18.1953C30.9896 18.0702 31.1591 18 31.3359 18H34.0026C34.1794 18 34.349 18.0702 34.474 18.1953C34.599 18.3203 34.6693 18.4899 34.6693 18.6667V32.6667C34.6693 32.8435 34.599 33.0131 34.474 33.1381C34.349 33.2631 34.1794 33.3333 34.0026 33.3333H31.3359C31.1591 33.3333 30.9896 33.2631 30.8645 33.1381C30.7395 33.0131 30.6693 32.8435 30.6693 32.6667ZM32.6693 0C31.2189 0 29.8011 0.430093 28.5951 1.23589C27.3891 2.04169 26.4492 3.187 25.8942 4.52699C25.3391 5.86698 25.1939 7.34147 25.4768 8.764C25.7598 10.1865 26.4582 11.4932 27.4838 12.5188C28.5094 13.5444 29.8161 14.2428 31.2386 14.5258C32.6611 14.8087 34.1356 14.6635 35.4756 14.1084C36.8156 13.5534 37.9609 12.6135 38.7667 11.4075C39.5725 10.2016 40.0026 8.78373 40.0026 7.33333C40.0003 5.38912 39.227 3.52519 37.8522 2.15042C36.4774 0.775647 34.6135 0.00229365 32.6693 0ZM32.6693 13.3333C31.4826 13.3333 30.3225 12.9814 29.3358 12.3222C28.3492 11.6629 27.5801 10.7258 27.126 9.62943C26.6719 8.53308 26.553 7.32668 26.7846 6.16279C27.0161 4.99891 27.5875 3.92981 28.4266 3.09069C29.2657 2.25158 30.3348 1.68013 31.4987 1.44862C32.6626 1.21711 33.869 1.33593 34.9654 1.79006C36.0617 2.24418 36.9988 3.01322 37.6581 3.99991C38.3174 4.98661 38.6693 6.14665 38.6693 7.33333C38.6675 8.92409 38.0348 10.4492 36.91 11.574C35.7851 12.6989 34.26 13.3316 32.6693 13.3333ZM5.45127 20C5.3456 20.3016 5.31358 20.6241 5.35789 20.9406C5.4022 21.257 5.52156 21.5583 5.706 21.8193C5.89044 22.0803 6.13461 22.2933 6.41815 22.4408C6.70169 22.5882 7.01637 22.6656 7.33594 22.6667C7.63468 22.6678 7.92957 22.5993 8.19727 22.4667L19.9213 16.858C20.1552 17.3426 20.5716 17.7149 21.0793 17.8933C21.5778 18.0615 22.1224 18.0274 22.5961 17.7985C23.0698 17.5695 23.4347 17.1638 23.6126 16.6687L24.5593 14.002V13.9947C24.7301 13.4941 24.6976 12.9465 24.4688 12.4696C24.24 11.9927 23.8333 11.6247 23.3359 11.4447L20.6693 10.5047C20.2965 10.374 19.8933 10.3566 19.5107 10.4548C19.128 10.553 18.783 10.7623 18.5191 11.0563C18.2553 11.3503 18.0844 11.7158 18.0281 12.1069C17.9718 12.4979 18.0325 12.8968 18.2026 13.2533L6.47927 18.8667C6.24093 18.9774 6.02718 19.1347 5.85062 19.3293C5.67406 19.524 5.53827 19.752 5.45127 20ZM6.7086 20.4447C6.73709 20.3622 6.78203 20.2865 6.84071 20.2219C6.89939 20.1574 6.97057 20.1055 7.04994 20.0693L19.5439 14.0893C19.6505 14.0385 19.7416 13.9602 19.808 13.8626C19.8744 13.765 19.9136 13.6515 19.9218 13.5337C19.9299 13.4159 19.9066 13.2981 19.8543 13.1922C19.802 13.0864 19.7225 12.9964 19.6239 12.9313C19.5038 12.8501 19.4139 12.7315 19.3683 12.594C19.3226 12.4564 19.3236 12.3076 19.3713 12.1707C19.4181 12.0402 19.504 11.9273 19.6174 11.8475C19.7307 11.7677 19.866 11.7248 20.0046 11.7247C20.0807 11.7245 20.1563 11.7376 20.2279 11.7633L22.8946 12.7027C22.9778 12.7324 23.0542 12.7781 23.1197 12.8374C23.1851 12.8967 23.2382 12.9683 23.276 13.0481C23.3138 13.1279 23.3354 13.2143 23.3398 13.3025C23.3441 13.3907 23.331 13.4789 23.3013 13.562L22.3559 16.2287C22.2894 16.3889 22.166 16.5189 22.0096 16.594C21.8532 16.669 21.6746 16.6837 21.5079 16.6353C21.3687 16.5859 21.2496 16.492 21.1691 16.3682C21.0886 16.2443 21.0512 16.0973 21.0626 15.95C21.0719 15.8332 21.0502 15.716 20.9998 15.6103C20.9494 15.5045 20.8719 15.4139 20.7753 15.3476C20.6787 15.2813 20.5664 15.2416 20.4496 15.2325C20.3327 15.2235 20.2156 15.2454 20.1099 15.296L7.6106 21.2707C7.45173 21.3419 7.27126 21.3482 7.10781 21.2882C6.94435 21.2281 6.81088 21.1065 6.73594 20.9493C6.69779 20.8712 6.67571 20.7862 6.67101 20.6994C6.66632 20.6126 6.6791 20.5264 6.7086 20.4447Z" fill="url(#paint1_linear_3051_317)"/>
<path d="M32.6632 6.66797C32.5462 6.66785 32.4313 6.63695 32.33 6.57837C32.2287 6.51978 32.1447 6.43558 32.0862 6.33421C32.0278 6.23285 31.9971 6.11789 31.9972 6.0009C31.9972 5.8839 32.0281 5.76898 32.0866 5.66769C32.1452 5.56639 32.2294 5.48229 32.3307 5.42383C32.4321 5.36537 32.547 5.33461 32.664 5.33464C32.781 5.33466 32.8959 5.36548 32.9972 5.42399C33.0985 5.4825 33.1827 5.56665 33.2412 5.66797C33.3324 5.81537 33.4774 5.92146 33.6455 5.96375C33.8136 6.00603 33.9915 5.98119 34.1416 5.89449C34.2917 5.80778 34.4021 5.66603 34.4494 5.49929C34.4968 5.33255 34.4773 5.15393 34.3952 5.0013C34.1538 4.59546 33.7763 4.28837 33.3298 4.13464V3.33464C33.3298 3.15782 33.2596 2.98826 33.1346 2.86323C33.0096 2.73821 32.84 2.66797 32.6632 2.66797C32.4864 2.66797 32.3168 2.73821 32.1918 2.86323C32.0668 2.98826 31.9965 3.15782 31.9965 3.33464V4.12397C31.5521 4.28052 31.1774 4.58931 30.9388 4.99566C30.7002 5.40201 30.6131 5.87968 30.6929 6.34409C30.7728 6.80849 31.0144 7.22965 31.375 7.53297C31.7356 7.83629 32.192 8.00219 32.6632 8.0013C32.7802 8.00142 32.8951 8.03232 32.9964 8.0909C33.0976 8.14949 33.1817 8.23369 33.2401 8.33506C33.2986 8.43642 33.3293 8.55138 33.3292 8.66837C33.3291 8.78537 33.2983 8.90029 33.2397 9.00158C33.1812 9.10288 33.097 9.18698 32.9957 9.24544C32.8943 9.3039 32.7794 9.33466 32.6624 9.33463C32.5454 9.33461 32.4304 9.30379 32.3291 9.24528C32.2278 9.18677 32.1437 9.10262 32.0852 9.0013C31.994 8.8539 31.849 8.74781 31.6809 8.70552C31.5128 8.66324 31.3348 8.68808 31.1848 8.77478C31.0347 8.86149 30.9243 9.00324 30.8769 9.16998C30.8296 9.33672 30.849 9.51534 30.9312 9.66797C31.1729 10.0741 31.5509 10.3812 31.9978 10.5346V11.3346C31.9978 11.5114 32.0681 11.681 32.1931 11.806C32.3181 11.9311 32.4877 12.0013 32.6645 12.0013C32.8413 12.0013 33.0109 11.9311 33.1359 11.806C33.2609 11.681 33.3312 11.5114 33.3312 11.3346V10.5453C33.7757 10.3887 34.1505 10.0798 34.3891 9.67333C34.6277 9.26684 34.7147 8.78901 34.6347 8.32452C34.5546 7.86003 34.3128 7.43886 33.9519 7.13565C33.5911 6.83244 33.1345 6.66676 32.6632 6.66797Z" fill="url(#paint2_linear_3051_317)"/>
<defs>
<linearGradient id="paint0_linear_3051_317" x1="0" y1="20" x2="40" y2="20" gradientUnits="userSpaceOnUse">
<stop stop-color="#004D6E"/>
<stop offset="1" stop-color="#00ACCC"/>
</linearGradient>
<linearGradient id="paint1_linear_3051_317" x1="5.33594" y1="17.3333" x2="40.0026" y2="17.3333" gradientUnits="userSpaceOnUse">
<stop stop-color="#004D6E"/>
<stop offset="1" stop-color="#00ACCC"/>
</linearGradient>
<linearGradient id="paint2_linear_3051_317" x1="30.6641" y1="7.33464" x2="34.6636" y2="7.33464" gradientUnits="userSpaceOnUse">
<stop stop-color="#004D6E"/>
<stop offset="1" stop-color="#00ACCC"/>
</linearGradient>
</defs>
</svg>
