<svg width="40" height="41" viewBox="0 0 40 41" fill="none" xmlns="http://www.w3.org/2000/svg">
<path d="M15 32.8711V38.4961C15 38.6619 15.0658 38.8208 15.1831 38.938C15.3003 39.0552 15.4592 39.1211 15.625 39.1211H24.375C24.5408 39.1211 24.6997 39.0552 24.8169 38.938C24.9342 38.8208 25 38.6619 25 38.4961V32.8711C25.0018 32.2142 24.8733 31.5635 24.6219 30.9566C24.3706 30.3497 24.0014 29.7987 23.5356 29.3355C23.1476 28.9492 22.699 28.6292 22.2075 28.388C23.0281 27.7886 23.6056 26.8748 23.7238 25.803C23.7425 25.6611 23.75 25.5192 23.75 25.3711C23.75 25.2486 23.7431 25.1323 23.7319 25.0273C23.5556 23.1173 21.9169 21.6211 20 21.6211C18.0831 21.6211 16.4444 23.1173 16.2694 25.0161C16.2565 25.134 16.2501 25.2525 16.25 25.3711C16.25 25.5192 16.2575 25.6611 16.2744 25.788C16.3938 26.8698 16.9731 27.7886 17.7963 28.3892C16.1431 29.2061 15 30.9055 15 32.8711ZM20 22.8711C20.8025 22.8711 21.5312 23.2655 21.9919 23.8767C21.3487 23.6268 20.665 23.4977 19.975 23.4961C19.3 23.4961 18.6469 23.6167 18.0331 23.8436C18.2657 23.5429 18.5636 23.299 18.9044 23.1305C19.2452 22.962 19.6199 22.8733 20 22.8711ZM17.515 25.6373C17.5106 25.6023 17.5112 25.5655 17.5088 25.5305C18.2304 25.0211 19.0917 24.7472 19.975 24.7461C20.8937 24.7461 21.7525 25.0361 22.4881 25.563C22.4856 25.593 22.4869 25.6198 22.4825 25.6517C22.3438 26.9167 21.2763 27.8711 20 27.8711C18.7237 27.8711 17.6562 26.9167 17.515 25.6373ZM20.5875 33.4236L20 34.5986L19.4125 33.4236L20 31.073L20.5875 33.4236ZM19.1763 29.2155L18.1438 33.3448C18.1073 33.4896 18.1239 33.6426 18.1906 33.7761L19.4406 36.2761C19.4928 36.3797 19.5728 36.4667 19.6716 36.5275C19.7704 36.5884 19.8842 36.6205 20.0002 36.6204C20.1162 36.6204 20.2299 36.5881 20.3287 36.5272C20.4274 36.4663 20.5073 36.3791 20.5594 36.2755L21.8094 33.7755C21.8761 33.642 21.8927 33.4889 21.8563 33.3442L20.8237 29.2142C21.5164 29.368 22.1506 29.7165 22.6519 30.2186C23.0011 30.5662 23.278 30.9796 23.4665 31.4349C23.655 31.8902 23.7513 32.3783 23.75 32.8711V37.8711H16.25V32.8711C16.25 31.0867 17.5037 29.5917 19.1763 29.2155ZM37.2856 26.8355C36.8976 26.4492 36.449 26.1292 35.9575 25.888C36.7781 25.2886 37.3556 24.3748 37.4738 23.303C37.4925 23.1611 37.5 23.0192 37.5 22.8711C37.5 22.7486 37.4931 22.6323 37.4819 22.5273C37.3056 20.6173 35.6669 19.1211 33.75 19.1211C31.8331 19.1211 30.1944 20.6173 30.0194 22.5161C30.0065 22.634 30 22.7525 30 22.8711C30 23.0192 30.0075 23.1611 30.0244 23.288C30.1438 24.3698 30.7231 25.2886 31.5462 25.8892C29.8931 26.7061 28.75 28.4055 28.75 30.3711V35.9961C28.75 36.1619 28.8158 36.3208 28.9331 36.438C29.0503 36.5552 29.2092 36.6211 29.375 36.6211H38.125C38.2908 36.6211 38.4497 36.5552 38.5669 36.438C38.6842 36.3208 38.75 36.1619 38.75 35.9961V30.3711C38.7518 29.7142 38.6233 29.0635 38.3719 28.4566C38.1206 27.8497 37.7514 27.2987 37.2856 26.8355ZM33.75 20.3711C34.5525 20.3711 35.2812 20.7655 35.7419 21.3767C35.0987 21.1268 34.415 20.9977 33.725 20.9961C33.05 20.9961 32.3969 21.1167 31.7831 21.3436C32.0157 21.0429 32.3136 20.799 32.6544 20.6305C32.9952 20.462 33.3699 20.3733 33.75 20.3711ZM31.265 23.1373C31.2606 23.1023 31.2612 23.0655 31.2588 23.0305C31.9804 22.5211 32.8417 22.2472 33.725 22.2461C34.6437 22.2461 35.5025 22.5361 36.2381 23.063C36.2356 23.093 36.2369 23.1198 36.2325 23.1517C36.0938 24.4167 35.0262 25.3711 33.75 25.3711C32.4737 25.3711 31.4062 24.4167 31.265 23.1373ZM34.3375 30.9236L33.75 32.0986L33.1625 30.9236L33.75 28.573L34.3375 30.9236ZM37.5 35.3711H30V30.3711C30 28.5867 31.2537 27.0917 32.9263 26.7155L31.8937 30.8448C31.8573 30.9896 31.8739 31.1426 31.9406 31.2761L33.1906 33.7761C33.2428 33.8797 33.3228 33.9667 33.4216 34.0275C33.5204 34.0884 33.6342 34.1205 33.7502 34.1204C33.8662 34.1204 33.9799 34.0881 34.0787 34.0272C34.1774 33.9663 34.2573 33.8791 34.3094 33.7755L35.5594 31.2755C35.6261 31.142 35.6427 30.9889 35.6063 30.8442L34.5737 26.7142C35.2664 26.868 35.9006 27.2165 36.4019 27.7186C36.7511 28.0662 37.028 28.4796 37.2165 28.9349C37.405 29.3902 37.5013 29.8783 37.5 30.3711V35.3711ZM1.875 36.6211H10.625C10.7908 36.6211 10.9497 36.5552 11.0669 36.438C11.1842 36.3208 11.25 36.1619 11.25 35.9961V30.3711C11.2518 29.7142 11.1233 29.0635 10.8719 28.4566C10.6206 27.8497 10.2514 27.2987 9.78562 26.8355C9.39762 26.4492 8.94898 26.1292 8.4575 25.888C9.27812 25.2886 9.85563 24.3748 9.97375 23.303C9.9925 23.1611 10 23.0192 10 22.8711C10 22.7486 9.99312 22.6323 9.98187 22.5273C9.80562 20.6173 8.16687 19.1211 6.25 19.1211C4.33313 19.1211 2.69438 20.6173 2.51938 22.5161C2.50652 22.634 2.50005 22.7525 2.5 22.8711C2.5 23.0192 2.5075 23.1611 2.52437 23.288C2.64375 24.3698 3.22312 25.2886 4.04625 25.8892C2.39313 26.7061 1.25 28.4055 1.25 30.3711V35.9961C1.25 36.1619 1.31585 36.3208 1.43306 36.438C1.55027 36.5552 1.70924 36.6211 1.875 36.6211ZM6.25 20.3711C7.0525 20.3711 7.78125 20.7655 8.24188 21.3767C7.59874 21.1268 6.91499 20.9977 6.225 20.9961C5.55 20.9961 4.89688 21.1167 4.28313 21.3436C4.51569 21.0429 4.81365 20.799 5.15442 20.6305C5.4952 20.462 5.86985 20.3733 6.25 20.3711ZM3.765 23.1373C3.76063 23.1023 3.76125 23.0655 3.75875 23.0305C4.48036 22.5211 5.34173 22.2472 6.225 22.2461C7.14375 22.2461 8.0025 22.5361 8.73812 23.063C8.73562 23.093 8.73688 23.1198 8.7325 23.1517C8.59375 24.4167 7.52625 25.3711 6.25 25.3711C4.97375 25.3711 3.90625 24.4167 3.765 23.1373ZM6.8375 30.9236L6.25 32.0986L5.6625 30.9236L6.25 28.573L6.8375 30.9236ZM2.5 30.3711C2.5 28.5867 3.75375 27.0917 5.42625 26.7155L4.39375 30.8442C4.35728 30.9889 4.37391 31.142 4.44062 31.2755L5.69062 33.7755C5.74263 33.8793 5.82249 33.9666 5.92128 34.0276C6.02007 34.0886 6.13389 34.1209 6.25 34.1209C6.36611 34.1209 6.47993 34.0886 6.57872 34.0276C6.67751 33.9666 6.75737 33.8793 6.80938 33.7755L8.05938 31.2755C8.12609 31.142 8.14272 30.9889 8.10625 30.8442L7.07375 26.7142C7.76636 26.868 8.40062 27.2165 8.90188 27.7186C9.25113 28.0662 9.528 28.4796 9.71649 28.9349C9.90498 29.3902 10.0013 29.8783 10 30.3711V35.3711H2.5V30.3711ZM28.75 13.4961C28.9158 13.4961 29.0747 13.4302 29.1919 13.313C29.3092 13.1958 29.375 13.0369 29.375 12.8711V9.12109C29.375 8.95533 29.3092 8.79636 29.1919 8.67915C29.0747 8.56194 28.9158 8.49609 28.75 8.49609H27.0669C26.9788 8.24609 26.8781 8.00172 26.7663 7.76609L27.955 6.57672C28.0131 6.51873 28.0592 6.44985 28.0906 6.37403C28.1221 6.29821 28.1383 6.21693 28.1383 6.13484C28.1383 6.05276 28.1221 5.97148 28.0906 5.89566C28.0592 5.81984 28.0131 5.75096 27.955 5.69297L25.3037 3.04109C25.1843 2.92831 25.0262 2.86549 24.8619 2.86549C24.6976 2.86549 24.5395 2.92831 24.42 3.04109L23.2306 4.23047C22.9937 4.11797 22.75 4.01734 22.5 3.92922V2.24609C22.5 2.08033 22.4342 1.92136 22.3169 1.80415C22.1997 1.68694 22.0408 1.62109 21.875 1.62109H18.125C17.9592 1.62109 17.8003 1.68694 17.6831 1.80415C17.5658 1.92136 17.5 2.08033 17.5 2.24609V3.92922C17.25 4.01734 17.0063 4.11797 16.77 4.22984L15.5806 3.04047C15.4611 2.92769 15.3031 2.86486 15.1388 2.86486C14.9744 2.86486 14.8164 2.92769 14.6969 3.04047L12.0456 5.69234C11.9875 5.75034 11.9414 5.81921 11.91 5.89504C11.8786 5.97086 11.8624 6.05213 11.8624 6.13422C11.8624 6.2163 11.8786 6.29758 11.91 6.3734C11.9414 6.44922 11.9875 6.5181 12.0456 6.57609L13.2344 7.76547C13.1219 8.00172 13.0212 8.24547 12.9338 8.49547H11.25C11.0842 8.49547 10.9253 8.56132 10.8081 8.67853C10.6908 8.79574 10.625 8.95471 10.625 9.12047V12.8705C10.625 13.0362 10.6908 13.1952 10.8081 13.3124C10.9253 13.4296 11.0842 13.4955 11.25 13.4955H12.9331C13.0213 13.7455 13.1219 13.9898 13.2337 14.2255L12.045 15.4148C11.9869 15.4728 11.9408 15.5417 11.9094 15.6175C11.8779 15.6934 11.8617 15.7746 11.8617 15.8567C11.8617 15.9388 11.8779 16.0201 11.9094 16.0959C11.9408 16.1717 11.9869 16.2406 12.045 16.2986L14.6962 18.9505C14.8157 19.0632 14.9738 19.1261 15.1381 19.1261C15.3024 19.1261 15.4605 19.0632 15.58 18.9505L16.7694 17.7611C17.0056 17.8736 17.2494 17.9742 17.4994 18.0617V19.7461C17.4994 19.9119 17.5652 20.0708 17.6824 20.188C17.7996 20.3052 17.9586 20.3711 18.1244 20.3711H21.8744C22.0401 20.3711 22.1991 20.3052 22.3163 20.188C22.4335 20.0708 22.4994 19.9119 22.4994 19.7461V18.063C22.7494 17.9748 22.9931 17.8742 23.2294 17.7623L24.4188 18.9517C24.5382 19.0645 24.6963 19.1273 24.8606 19.1273C25.0249 19.1273 25.183 19.0645 25.3025 18.9517L27.9538 16.2998C28.0118 16.2419 28.0579 16.173 28.0894 16.0972C28.1208 16.0213 28.137 15.9401 28.137 15.858C28.137 15.7759 28.1208 15.6946 28.0894 15.6188C28.0579 15.543 28.0118 15.4741 27.9538 15.4161L26.765 14.2267C26.8775 13.9905 26.9781 13.7467 27.0656 13.4967L28.75 13.4961ZM25.5594 14.7873L26.6294 15.8573L24.8619 17.6255L23.7919 16.5555C23.6955 16.4595 23.5705 16.3975 23.4358 16.3787C23.3011 16.36 23.1639 16.3856 23.045 16.4517C22.6214 16.6874 22.1717 16.8729 21.705 17.0042C21.574 17.0412 21.4587 17.12 21.3766 17.2285C21.2945 17.337 21.25 17.4694 21.25 17.6055V19.1211H18.75V17.6055C18.75 17.4694 18.7055 17.337 18.6234 17.2285C18.5413 17.12 18.426 17.0412 18.295 17.0042C17.8283 16.8729 17.3786 16.6874 16.955 16.4517C16.8361 16.3855 16.699 16.3599 16.5642 16.3786C16.4294 16.3973 16.3045 16.4594 16.2081 16.5555L15.1381 17.6255L13.3706 15.8573L14.4406 14.7873C14.6381 14.5898 14.6806 14.2842 14.5444 14.0405C14.3085 13.6169 14.1228 13.1671 13.9913 12.7005C13.9543 12.5696 13.8757 12.4544 13.7673 12.3724C13.6588 12.2904 13.5266 12.246 13.3906 12.2461H11.875V9.74609H13.3906C13.5266 9.74609 13.6589 9.70172 13.7674 9.61972C13.8759 9.53772 13.9547 9.42256 13.9919 9.29172C14.1234 8.82504 14.3091 8.37533 14.545 7.95172C14.6114 7.83291 14.6372 7.69568 14.6184 7.56087C14.5997 7.42607 14.5375 7.30106 14.4413 7.20484L13.3712 6.13484L15.1388 4.36672L16.2087 5.43672C16.305 5.53297 16.43 5.59519 16.5648 5.61391C16.6996 5.63264 16.8368 5.60685 16.9556 5.54047C17.3793 5.30475 17.829 5.11933 18.2956 4.98797C18.4265 4.95084 18.5416 4.87204 18.6236 4.76353C18.7056 4.65502 18.75 4.52273 18.75 4.38672V2.87109H21.25V4.38672C21.25 4.52281 21.2945 4.65517 21.3766 4.76368C21.4587 4.8722 21.574 4.95095 21.705 4.98797C22.1717 5.11933 22.6214 5.30475 23.045 5.54047C23.1638 5.60706 23.301 5.63296 23.4359 5.61423C23.5707 5.5955 23.6958 5.53315 23.7919 5.43672L24.8619 4.36672L26.6294 6.13484L25.5594 7.20484C25.4632 7.30112 25.4011 7.42612 25.3823 7.56089C25.3636 7.69567 25.3893 7.83288 25.4556 7.95172C25.6881 8.36734 25.8744 8.81797 26.0087 9.29172C26.0844 9.56047 26.33 9.74609 26.6094 9.74609H28.125V12.2461H26.6094C26.4734 12.2461 26.3411 12.2905 26.2326 12.3725C26.1241 12.4545 26.0453 12.5696 26.0081 12.7005C25.8765 13.1671 25.6909 13.6169 25.455 14.0405C25.3194 14.2848 25.3612 14.5898 25.5594 14.7873Z" fill="white"/>
<path d="M20 5.99609C17.2431 5.99609 15 8.23922 15 10.9961C15 13.753 17.2431 15.9961 20 15.9961C22.7569 15.9961 25 13.753 25 10.9961C25 8.23922 22.7569 5.99609 20 5.99609ZM20 14.7461C17.9319 14.7461 16.25 13.0642 16.25 10.9961C16.25 8.92797 17.9319 7.24609 20 7.24609C22.0681 7.24609 23.75 8.92797 23.75 10.9961C23.75 13.0642 22.0681 14.7461 20 14.7461ZM5.625 10.9961V17.8711H6.875V11.6211H9.375V10.3711H6.25C6.08424 10.3711 5.92527 10.4369 5.80806 10.5542C5.69085 10.6714 5.625 10.8303 5.625 10.9961ZM34.375 17.8711V10.9961C34.375 10.8303 34.3092 10.6714 34.1919 10.5542C34.0747 10.4369 33.9158 10.3711 33.75 10.3711H30.625V11.6211H33.125V17.8711H34.375Z" fill="white"/>
</svg>
