<svg width="38" height="39" viewBox="0 0 38 39" fill="none" xmlns="http://www.w3.org/2000/svg">
<path d="M4.17147 31.7223C4.2581 31.8466 4.35946 31.96 4.47335 32.0598L6.94898 34.2261C7.13023 34.3848 7.3396 34.5492 7.5596 34.7211C8.3221 35.3167 9.18585 35.9917 9.13335 36.7223C9.10335 37.1392 9.05835 37.5548 9.01335 37.9698L9.00397 38.0548L10.2465 38.1892L10.2558 38.1048C10.3027 37.6742 10.349 37.2436 10.3796 36.8117C10.4802 35.4173 9.28772 34.4848 8.33022 33.7361C8.1296 33.5798 7.93772 33.4298 7.7721 33.2855L5.29772 31.1205C5.25961 31.0869 5.22562 31.0489 5.19647 31.0073L1.60085 25.8705C1.55814 25.8101 1.52805 25.7417 1.51237 25.6695C1.49669 25.5972 1.49575 25.5225 1.5096 25.4498C1.5229 25.377 1.5508 25.3076 1.59161 25.2459C1.63243 25.1841 1.68532 25.1313 1.7471 25.0905C1.86029 25.0155 1.99691 24.9844 2.1314 25.0029C2.26589 25.0214 2.38901 25.0883 2.47772 25.1911L5.3371 28.5273C5.5421 28.7673 5.80647 28.9523 6.12397 29.0711L7.80585 29.6323L7.81585 29.6517L7.83522 29.6417L10.6577 30.5836L10.7908 30.8136C10.8459 30.9085 10.875 31.0163 10.8752 31.1261V31.8711H12.1252V31.1255C12.1252 30.7967 12.0377 30.4723 11.874 30.1873L10.5527 27.9048C10.5106 27.8217 10.4907 27.7292 10.4949 27.6361C10.499 27.543 10.5271 27.4526 10.5765 27.3736C10.624 27.297 10.6897 27.2333 10.7677 27.1882C10.8458 27.1432 10.9338 27.1181 11.0239 27.1153C11.114 27.1125 11.2034 27.1321 11.2841 27.1723C11.3648 27.2124 11.4344 27.2719 11.4865 27.3455L13.7515 30.5467C14.8308 32.0655 14.7471 33.9067 14.6577 35.8567C14.6227 36.613 14.5877 37.3948 14.6258 38.1536L15.8746 38.0898C15.8383 37.3911 15.8715 36.673 15.9065 35.913C16.0008 33.838 16.099 31.6917 14.7808 29.8373L12.5058 26.6223C12.3397 26.3882 12.12 26.1973 11.8651 26.0654C11.6101 25.9335 11.3273 25.8645 11.0402 25.8642C10.734 25.8631 10.4327 25.9408 10.1653 26.0899C9.89789 26.239 9.67336 26.4544 9.51335 26.7155C9.18335 27.2486 9.15397 27.9017 9.45148 28.4961L9.71397 28.9498L8.69273 28.6092L7.0896 25.403L6.6621 23.6936C6.57696 23.3515 6.37975 23.0477 6.10189 22.8307C5.82404 22.6136 5.48154 22.4958 5.12897 22.4961C4.89925 22.4958 4.67223 22.5457 4.46375 22.6422C4.25528 22.7386 4.07036 22.8794 3.92189 23.0548C3.77342 23.2301 3.66499 23.4356 3.60414 23.6572C3.5433 23.8787 3.53151 24.1108 3.5696 24.3373L3.6121 24.593L3.42647 24.3767C3.13894 24.0422 2.73906 23.8244 2.3021 23.7642C1.86514 23.704 1.42125 23.8056 1.05397 24.0498C0.646475 24.3217 0.371475 24.7367 0.281475 25.2186C0.191475 25.7005 0.29585 26.1861 0.5771 26.5873L4.17147 31.7223ZM4.87585 23.863C4.91552 23.8169 4.96706 23.7825 5.02488 23.7636C5.0827 23.7447 5.14459 23.742 5.20384 23.7558C5.26308 23.7696 5.31743 23.7993 5.36097 23.8418C5.40452 23.8842 5.4356 23.9378 5.45085 23.9967L5.8946 25.7723C5.90585 25.8167 5.92147 25.8598 5.94147 25.9005L7.01585 28.0498L6.54147 27.8917C6.44306 27.8547 6.35557 27.7934 6.2871 27.7136L5.18522 26.428L4.80272 24.1317C4.7945 24.0843 4.79678 24.0357 4.80942 23.9892C4.82206 23.9428 4.84473 23.8997 4.87585 23.863ZM36.9465 24.0492C36.5792 23.8049 36.1353 23.7033 35.6983 23.7635C35.2614 23.8238 34.8615 24.0416 34.574 24.3761L34.3883 24.5923L34.4308 24.3361C34.4947 23.9346 34.4015 23.5239 34.1705 23.1894C33.9395 22.8548 33.5886 22.6221 33.1905 22.5395C32.7925 22.4569 32.3779 22.5308 32.0329 22.7458C31.6878 22.9608 31.4389 23.3005 31.3377 23.6942L30.9102 25.403L29.3071 28.6092L28.2846 28.9505L28.5665 28.463C28.7043 28.1895 28.7694 27.8851 28.7555 27.5791C28.7416 27.2732 28.6492 26.976 28.4871 26.7161C28.3271 26.4551 28.1026 26.2396 27.8351 26.0905C27.5677 25.9414 27.2664 25.8637 26.9602 25.8648C26.3783 25.8648 25.8308 26.1486 25.494 26.623C24.7385 27.689 23.9839 28.7557 23.2302 29.823C21.9021 31.6923 21.9996 33.838 22.0946 35.913C22.1296 36.673 22.1621 37.3911 22.1265 38.0898L23.3752 38.1536C23.414 37.3948 23.3783 36.613 23.3433 35.8567C23.254 33.9067 23.1708 32.0655 24.2509 30.5448L26.514 27.3455C26.5646 27.2742 26.6315 27.2161 26.7091 27.176C26.7868 27.1359 26.8728 27.1149 26.9602 27.1148C27.2346 27.1148 27.3765 27.2961 27.4246 27.3736C27.4721 27.4517 27.5708 27.6592 27.4658 27.8711L26.1265 30.1873C25.9621 30.4727 25.8755 30.7962 25.8752 31.1255V31.8711H27.1252V31.1255C27.1252 31.0161 27.1546 30.9073 27.2096 30.813L27.3421 30.583L30.1646 29.6411L30.1846 29.6511L30.1946 29.6311L31.8977 29.0623C32.1937 28.9513 32.4569 28.7673 32.6627 28.5273L35.5227 25.1911C35.5911 25.112 35.6803 25.0537 35.7802 25.0229C35.8801 24.9922 35.9866 24.9901 36.0876 25.017C36.1886 25.044 36.28 25.0988 36.3513 25.1752C36.4226 25.2516 36.471 25.3466 36.4908 25.4492C36.5049 25.522 36.504 25.5968 36.4883 25.6692C36.4726 25.7416 36.4425 25.81 36.3996 25.8705L32.8033 31.0086C32.7746 31.0492 32.7413 31.0863 32.704 31.1192L30.2283 33.2855C30.0627 33.4298 29.8715 33.5792 29.6702 33.7361C28.7127 34.4848 27.5202 35.4167 27.6208 36.8111C27.6515 37.243 27.6977 37.6736 27.7446 38.1042L27.754 38.1886L28.9965 38.0542L28.9871 37.9692C28.9421 37.5536 28.8965 37.138 28.8671 36.7211C28.8146 35.9911 29.6783 35.3155 30.4408 34.7198C30.6608 34.548 30.8702 34.3836 31.0515 34.2248L33.5283 32.058C33.6433 31.9573 33.7446 31.8442 33.8283 31.723L37.424 26.5867C37.7046 26.1855 37.8096 25.6992 37.7196 25.218C37.6296 24.7367 37.354 24.3211 36.9465 24.0492ZM32.8152 26.428L31.7127 27.7136C31.65 27.7881 31.5702 27.8464 31.4802 27.8836L30.9846 28.0492L32.059 25.9005C32.0793 25.8596 32.095 25.8167 32.1059 25.7723L32.5496 23.9973C32.5647 23.9384 32.5956 23.8847 32.639 23.8421C32.6825 23.7996 32.7368 23.7697 32.796 23.7559C32.8552 23.742 32.9171 23.7447 32.975 23.7636C33.0328 23.7824 33.0843 23.8168 33.124 23.863C33.1609 23.9067 33.2196 23.9998 33.1977 24.1317L32.8152 26.428ZM26.4558 10.2286L27.7058 7.10359C27.7439 7.00872 27.758 6.90596 27.7471 6.80433C27.7362 6.70271 27.7005 6.60531 27.6432 6.52067C27.5859 6.43604 27.5087 6.36675 27.4184 6.31888C27.3281 6.27101 27.2274 6.24602 27.1252 6.24609H24.0002C23.8898 6.24638 23.7814 6.27589 23.686 6.33165C23.5907 6.3874 23.5118 6.46741 23.4574 6.56353C23.403 6.65965 23.375 6.76847 23.3762 6.87891C23.3775 6.98936 23.408 7.0975 23.4646 7.19234L24.0427 8.15609C20.3671 10.423 15.034 11.8711 10.2502 11.8711V13.1211C15.3227 13.1211 20.7821 11.638 24.6858 9.22922L25.339 10.318C25.3991 10.4176 25.4858 10.4984 25.5893 10.5515C25.6928 10.6046 25.8091 10.6278 25.925 10.6185C26.041 10.6093 26.1521 10.5679 26.2458 10.499C26.3396 10.4301 26.4123 10.3365 26.4558 10.2286ZM25.7627 8.59422L25.1046 7.49609H26.2027L25.7627 8.59422ZM30.8096 11.898L32.0521 11.7648C32.0054 11.3311 31.9359 10.9001 31.844 10.4736L30.6221 10.7373C30.7052 11.1205 30.7677 11.5111 30.8096 11.898ZM32.1252 13.1211V13.0723L30.8752 13.1211C30.8752 13.5111 30.8546 13.9067 30.814 14.2973L32.0577 14.4255C32.1026 13.9921 32.1252 13.5568 32.1252 13.1211ZM29.3502 7.45984L30.4296 6.82922C30.2108 6.45422 29.9696 6.08672 29.7127 5.73547L28.7046 6.47547C28.9352 6.79172 29.1527 7.12234 29.3502 7.45984ZM17.254 2.12109L16.9902 0.899219C16.5633 0.991094 16.139 1.10609 15.7277 1.24047L16.1171 2.42797C16.4906 2.30646 16.8701 2.20403 17.254 2.12109ZM22.1846 0.883594C21.7576 0.794682 21.3261 0.72834 20.8921 0.684844L20.7677 1.92859C21.1558 1.96734 21.5471 2.02797 21.9308 2.10734L22.1846 0.883594ZM28.8846 4.72359C28.5908 4.40047 28.2784 4.09047 27.9571 3.80234L27.1234 4.73422C27.414 4.99359 27.6946 5.27234 27.9596 5.56422L28.8846 4.72359ZM26.9383 2.98234C26.5846 2.72702 26.2179 2.49025 25.8396 2.27297L25.2171 3.35672C25.5577 3.55273 25.8881 3.76592 26.2071 3.99547L26.9383 2.98234ZM24.6727 1.68234C24.2734 1.50605 23.8652 1.35084 23.4496 1.21734L23.0677 2.40734C23.4396 2.52609 23.8096 2.66734 24.1677 2.82547L24.6727 1.68234ZM19.5902 1.87109L19.5865 0.621094C19.1508 0.622344 18.7121 0.646719 18.2815 0.692344L18.4146 1.93484C18.8027 1.89422 19.1977 1.87234 19.5902 1.87109ZM13.3883 23.9561L14.0133 22.8736C13.6731 22.6774 13.3432 22.4635 13.0252 22.233L12.2915 23.2448C12.6433 23.4998 13.0121 23.7392 13.3883 23.9561ZM20.9427 25.553L20.8121 24.3098C20.4258 24.3498 20.0302 24.3711 19.6371 24.3711L19.6383 25.6211C20.0752 25.6211 20.514 25.5973 20.9427 25.553ZM16.1608 23.8273C15.7873 23.7069 15.4206 23.5665 15.0621 23.4067L14.5546 24.5492C14.9521 24.7255 15.3633 24.883 15.7765 25.0167L16.1608 23.8273ZM31.8546 15.7173L30.6315 15.4598C30.5501 15.8436 30.4489 16.2228 30.3284 16.5961L31.5171 16.9817C31.6521 16.5673 31.7659 16.1417 31.8546 15.7173ZM22.2346 25.348C22.6613 25.2572 23.0829 25.1441 23.4977 25.0092L23.1108 23.8211C22.739 23.9423 22.3571 24.0448 21.9746 24.1261L22.2346 25.348ZM25.8834 23.9436L25.2571 22.8623C24.9196 23.058 24.5671 23.2386 24.209 23.398L24.719 24.5392C25.1173 24.3612 25.5059 24.1624 25.8834 23.9436ZM9.35335 17.7155C9.19306 17.3567 9.05121 16.99 8.92835 16.6167L7.74085 17.0067C7.8771 17.4211 8.03585 17.8311 8.2121 18.2261L9.35335 17.7155ZM17.0402 25.3536C17.4646 25.443 17.899 25.5105 18.3321 25.5548L18.4602 24.3117C18.0698 24.2715 17.6818 24.211 17.2977 24.1305L17.0402 25.3536ZM29.7409 20.4655L28.7302 19.7298C28.5008 20.0448 28.2508 20.353 27.9883 20.6455L28.9183 21.4805C29.2096 21.1567 29.4858 20.8155 29.7409 20.4655ZM27.994 22.4067L27.1577 21.478C26.8665 21.7405 26.5583 21.9898 26.2427 22.2205L26.979 23.2305C27.329 22.9748 27.6708 22.6973 27.994 22.4067ZM31.0483 18.2036L29.9058 17.6955C29.7477 18.0517 29.5677 18.4048 29.3721 18.7436L30.4534 19.3698C30.6721 18.9923 30.8715 18.6005 31.0483 18.2036ZM12.1096 21.4923C11.8177 21.2298 11.5396 20.9524 11.2765 20.6611L10.349 21.4992C10.6416 21.8225 10.9505 22.1306 11.2746 22.4223L12.1096 21.4923ZM7.1946 14.4511C7.24022 14.8855 7.3096 15.3205 7.40022 15.743L8.6221 15.4811C8.54045 15.0975 8.4787 14.7099 8.4371 14.3198L7.1946 14.4511ZM10.5333 19.748C10.3021 19.4311 10.0876 19.1023 9.89085 18.763L8.8096 19.3892C9.02522 19.7617 9.26523 20.1305 9.5246 20.4848L10.5333 19.748ZM30.3152 9.60234L31.5015 9.21047C31.3648 8.79618 31.2065 8.38936 31.0271 7.99172L29.8883 8.50547C30.0477 8.85922 30.1908 9.22797 30.3152 9.60234ZM9.86773 7.51859L8.78397 6.89609C8.56635 7.27408 8.36898 7.66338 8.19272 8.06234L9.33522 8.56922C9.49272 8.21234 9.67148 7.85922 9.86773 7.51859ZM8.43335 11.9673L7.1896 11.8423C7.14655 12.2672 7.12507 12.694 7.12522 13.1211V13.1455L8.37523 13.1211C8.37523 12.7367 8.3946 12.3486 8.43335 11.9673ZM15.0202 2.85359L14.509 1.71297C14.1146 1.88984 13.7227 2.09109 13.3458 2.31109L13.9746 3.39172C14.3134 3.19397 14.6624 3.01435 15.0202 2.85359ZM8.9146 9.66797L7.7246 9.28484C7.5921 9.69672 7.47897 10.1223 7.39022 10.5498L8.61335 10.8055C8.69397 10.4211 8.79522 10.038 8.9146 9.66797ZM12.9896 4.03547L12.2508 3.02734C11.9008 3.28359 11.5596 3.56172 11.2377 3.85234L12.0765 4.77922C12.3665 4.51734 12.674 4.26672 12.9896 4.03547ZM11.2465 5.61359L10.3152 4.77984C10.0247 5.10455 9.75098 5.44395 9.49522 5.79672L10.5071 6.53047C10.7358 6.21484 10.9846 5.90609 11.2465 5.61359ZM15.8752 19.3711V16.2461C15.8752 16.0803 15.8094 15.9214 15.6922 15.8042C15.575 15.6869 15.416 15.6211 15.2502 15.6211H12.7502C12.5845 15.6211 12.4255 15.6869 12.3083 15.8042C12.1911 15.9214 12.1252 16.0803 12.1252 16.2461V19.3711C12.1252 19.5369 12.1911 19.6958 12.3083 19.813C12.4255 19.9302 12.5845 19.9961 12.7502 19.9961H15.2502C15.416 19.9961 15.575 19.9302 15.6922 19.813C15.8094 19.6958 15.8752 19.5369 15.8752 19.3711ZM14.6252 18.7461H13.3752V16.8711H14.6252V18.7461ZM20.8752 19.3711V14.9961C20.8752 14.8303 20.8094 14.6714 20.6922 14.5542C20.575 14.4369 20.416 14.3711 20.2502 14.3711H17.7502C17.5845 14.3711 17.4255 14.4369 17.3083 14.5542C17.1911 14.6714 17.1252 14.8303 17.1252 14.9961V19.3711C17.1252 19.5369 17.1911 19.6958 17.3083 19.813C17.4255 19.9302 17.5845 19.9961 17.7502 19.9961H20.2502C20.416 19.9961 20.575 19.9302 20.6922 19.813C20.8094 19.6958 20.8752 19.5369 20.8752 19.3711ZM19.6252 18.7461H18.3752V15.6211H19.6252V18.7461ZM25.8752 19.3711V12.4961C25.8752 12.3303 25.8094 12.1714 25.6922 12.0542C25.575 11.9369 25.416 11.8711 25.2502 11.8711H22.7502C22.5845 11.8711 22.4255 11.9369 22.3083 12.0542C22.1911 12.1714 22.1252 12.3303 22.1252 12.4961V19.3711C22.1252 19.5369 22.1911 19.6958 22.3083 19.813C22.4255 19.9302 22.5845 19.9961 22.7502 19.9961H25.2502C25.416 19.9961 25.575 19.9302 25.6922 19.813C25.8094 19.6958 25.8752 19.5369 25.8752 19.3711ZM24.6252 18.7461H23.3752V13.1211H24.6252V18.7461Z" fill="white"/>
</svg>
