<svg width="40" height="40" viewBox="0 0 40 40" fill="none" xmlns="http://www.w3.org/2000/svg">
<path d="M19.8931 14.0281C19.8087 13.9014 19.6808 13.8099 19.5336 13.7707C19.3864 13.7316 19.23 13.7476 19.0938 13.8156L15.3438 15.6906L15.9031 16.8087L19.1594 15.1806L20.1037 16.5969C20.1913 16.7287 20.3257 16.8223 20.4798 16.8586C20.6338 16.8949 20.7959 16.8713 20.9331 16.7925L24.4044 14.8088L25.0869 15.9463C25.1467 16.0463 25.2332 16.1276 25.3367 16.181C25.4403 16.2345 25.5567 16.2579 25.6729 16.2486C25.789 16.2394 25.9003 16.1979 25.9941 16.1288C26.0879 16.0597 26.1605 15.9657 26.2038 15.8575L27.4538 12.7325C27.4918 12.6376 27.5059 12.5349 27.495 12.4332C27.4841 12.3316 27.4484 12.2342 27.3911 12.1496C27.3338 12.0649 27.2566 11.9957 27.1663 11.9478C27.076 11.8999 26.9753 11.8749 26.8731 11.875H23.7481C23.6377 11.8753 23.5293 11.9048 23.4339 11.9606C23.3386 12.0163 23.2597 12.0963 23.2053 12.1924C23.1509 12.2886 23.1229 12.3974 23.1241 12.5078C23.1254 12.6183 23.1559 12.7264 23.2125 12.8213L23.7619 13.7363L20.82 15.4169L19.8931 14.0281ZM25.95 13.125L25.5106 14.2231L24.8525 13.125H25.95Z" fill="url(#paint0_linear_2946_1881)"/>
<path d="M38.125 15H35.905C35.8166 14.6007 35.7113 14.2053 35.5894 13.815L37.51 12.7063C37.5813 12.6654 37.6437 12.6108 37.6938 12.5457C37.7439 12.4807 37.7807 12.4063 37.8019 12.327C37.8232 12.2476 37.8286 12.1648 37.8177 12.0834C37.8069 12.002 37.78 11.9235 37.7388 11.8525L35.2388 7.5225C35.1559 7.37895 35.0194 7.27421 34.8592 7.23131C34.6991 7.18841 34.5285 7.21087 34.385 7.29375L32.4606 8.405C32.1843 8.10424 31.8953 7.81544 31.5944 7.53937L32.7056 5.61438C32.7885 5.47083 32.811 5.30023 32.7681 5.14013C32.7252 4.98002 32.6204 4.84351 32.4769 4.76063L28.1469 2.26063C28.0758 2.21942 27.9974 2.19265 27.916 2.18185C27.8346 2.17105 27.7518 2.17643 27.6725 2.19769C27.5932 2.21894 27.5188 2.25565 27.4537 2.3057C27.3886 2.35576 27.334 2.41818 27.2931 2.48937L26.1844 4.41C25.7943 4.28816 25.3991 4.18307 25 4.095V1.875C25 1.70924 24.9342 1.55027 24.8169 1.43306C24.6997 1.31585 24.5408 1.25 24.375 1.25H19.375C19.2092 1.25 19.0503 1.31585 18.9331 1.43306C18.8158 1.55027 18.75 1.70924 18.75 1.875V4.095C18.3488 4.18375 17.9531 4.28938 17.565 4.41062L16.4563 2.48937C16.373 2.3462 16.2367 2.24157 16.0769 2.19813C15.9976 2.17663 15.9149 2.17109 15.8334 2.18182C15.752 2.19255 15.6735 2.21934 15.6025 2.26063L11.2725 4.76063C11.2014 4.8016 11.139 4.85621 11.089 4.92132C11.039 4.98643 11.0023 5.06076 10.9811 5.14006C10.9598 5.21936 10.9544 5.30207 10.9652 5.38346C10.9759 5.46485 11.0026 5.54332 11.0437 5.61438L12.155 7.53937C11.8544 7.81562 11.565 8.105 11.2888 8.405L9.36438 7.29375C9.29332 7.25263 9.21485 7.22593 9.13346 7.21517C9.05207 7.20442 8.96936 7.20982 8.89006 7.23106C8.81076 7.25231 8.73643 7.28899 8.67132 7.339C8.60621 7.389 8.5516 7.45136 8.51062 7.5225L6.01062 11.8525C5.92775 11.996 5.90529 12.1666 5.94819 12.3267C5.99109 12.4869 6.09583 12.6234 6.23937 12.7063L8.16 13.815C8.03875 14.2025 7.93312 14.5988 7.84437 15H5.625C5.45924 15 5.30027 15.0658 5.18306 15.1831C5.06585 15.3003 5 15.4592 5 15.625V20H6.25V16.25H8.35563C8.50171 16.2499 8.64316 16.1987 8.75539 16.1052C8.86762 16.0117 8.94356 15.8818 8.97 15.7381C9.09625 15.0531 9.27563 14.38 9.50375 13.7381C9.55271 13.6004 9.55189 13.45 9.50142 13.3128C9.45095 13.1757 9.35403 13.0606 9.2275 12.9875L7.40625 11.9356L9.28125 8.68875L11.1063 9.7425C11.2328 9.81557 11.3809 9.84201 11.5248 9.81724C11.6688 9.79246 11.7996 9.71803 11.8944 9.60688C12.3433 9.08143 12.8327 8.59201 13.3581 8.14313C13.5862 7.9475 13.6431 7.61688 13.4931 7.35563L12.4394 5.53062L15.6862 3.65562L16.7381 5.47687C16.8112 5.60341 16.9263 5.70033 17.0635 5.7508C17.2006 5.80127 17.3511 5.80209 17.4888 5.75313C18.14 5.52256 18.8086 5.34429 19.4881 5.22C19.6318 5.19381 19.7617 5.11803 19.8553 5.00587C19.9488 4.89372 20 4.75229 20 4.60625V2.5H23.75V4.60625C23.7501 4.75234 23.8013 4.89378 23.8948 5.00602C23.9883 5.11825 24.1182 5.19418 24.2619 5.22062C24.9469 5.34625 25.6194 5.52563 26.2613 5.75375C26.3989 5.80271 26.5494 5.80189 26.6865 5.75142C26.8237 5.70095 26.9388 5.60403 27.0119 5.4775L28.0638 3.65625L31.3106 5.53125L30.2569 7.35625C30.1069 7.61688 30.1637 7.94812 30.3919 8.14375C30.9173 8.59263 31.4067 9.08205 31.8556 9.6075C31.9504 9.71865 32.0812 9.79309 32.2252 9.81786C32.3691 9.84264 32.5172 9.81619 32.6437 9.74312L34.4688 8.68937L36.3438 11.9362L34.5225 12.9881C34.3959 13.0611 34.2989 13.1762 34.2484 13.3134C34.1979 13.4506 34.1972 13.6011 34.2463 13.7388C34.4737 14.3806 34.6531 15.0537 34.78 15.7387C34.8337 16.0344 35.0925 16.25 35.3944 16.25H37.5V20H35.3944C35.2483 20.0001 35.1068 20.0513 34.9946 20.1448C34.8824 20.2383 34.8064 20.3682 34.78 20.5119C34.6553 21.1916 34.4768 21.8604 34.2463 22.5119C34.1973 22.6496 34.1981 22.8 34.2486 22.9372C34.299 23.0743 34.396 23.1894 34.5225 23.2625L36.3438 24.3144L34.4688 27.5612L32.6437 26.5075C32.5172 26.4344 32.3691 26.408 32.2252 26.4328C32.0812 26.4575 31.9504 26.532 31.8556 26.6431C31.4067 27.1686 30.9173 27.658 30.3919 28.1069C30.2812 28.2019 30.2071 28.3325 30.1825 28.4763C30.1578 28.6201 30.1841 28.7679 30.2569 28.8944L31.3106 30.7194L28.0638 32.5944L27.0119 30.7731C26.939 30.6464 26.8239 30.5493 26.6867 30.4988C26.5495 30.4484 26.3989 30.4477 26.2613 30.4969C25.61 30.7274 24.9414 30.9057 24.2619 31.03C24.1182 31.0562 23.9883 31.132 23.8947 31.2441C23.8012 31.3563 23.75 31.4977 23.75 31.6438V33.75H21.25V35H24.375C24.5408 35 24.6997 34.9342 24.8169 34.8169C24.9342 34.6997 25 34.5408 25 34.375V32.155C25.3993 32.0666 25.7947 31.9613 26.185 31.8394L27.2937 33.76C27.377 33.9032 27.5135 34.0076 27.6735 34.0504C27.8334 34.0933 28.0038 34.0711 28.1475 33.9888L32.4775 31.4888C32.5486 31.4478 32.611 31.3932 32.661 31.3281C32.711 31.2629 32.7477 31.1886 32.7689 31.1093C32.7902 31.03 32.7956 30.9473 32.7848 30.8659C32.7741 30.7845 32.7474 30.7061 32.7063 30.635L31.595 28.71C31.8956 28.4338 32.185 28.1444 32.4613 27.8444L34.3856 28.9556C34.6837 29.1275 35.0669 29.0256 35.2394 28.7269L37.7394 24.3969C37.8223 24.2533 37.8447 24.0827 37.8018 23.9226C37.7589 23.7625 37.6542 23.626 37.5106 23.5431L35.59 22.4344C35.7113 22.0469 35.8169 21.6506 35.9056 21.2494H38.125C38.2908 21.2494 38.4497 21.1835 38.5669 21.0663C38.6842 20.9491 38.75 20.7901 38.75 20.6244V15.6244C38.7498 15.4587 38.6839 15.2999 38.5667 15.1828C38.4495 15.0658 38.2907 15 38.125 15Z" fill="url(#paint1_linear_2946_1881)"/>
<path d="M32.5006 18.125C32.5006 12.2663 27.7344 7.5 21.8756 7.5C16.7756 7.5 12.3856 11.1312 11.4375 16.1337L12.6656 16.3663C13.5025 11.9531 17.3756 8.75 21.8756 8.75C27.045 8.75 31.2506 12.9556 31.2506 18.125C31.2506 22.625 28.0475 26.4981 23.6337 27.3356L23.8669 28.5637C28.8694 27.6144 32.5006 23.2244 32.5006 18.125Z" fill="url(#paint2_linear_2946_1881)"/>
<path d="M4.37513 26.875C4.37513 27.8981 4.54638 28.8938 4.8595 29.8375L2.75888 31.9381C2.64171 32.0553 2.57588 32.2143 2.57588 32.38C2.57588 32.5457 2.64171 32.7047 2.75888 32.8219L3.20075 33.2638L1.43325 35.0312C1.37516 35.0892 1.32907 35.1581 1.29763 35.2339C1.26619 35.3098 1.25 35.391 1.25 35.4731C1.25 35.5552 1.26619 35.6365 1.29763 35.7123C1.32907 35.7881 1.37516 35.857 1.43325 35.915L4.0845 38.5669C4.14241 38.6251 4.21126 38.6713 4.28709 38.7029C4.36293 38.7344 4.44425 38.7506 4.52638 38.7506C4.60851 38.7506 4.68983 38.7344 4.76566 38.7029C4.84149 38.6713 4.91034 38.6251 4.96825 38.5669L6.73638 36.7994L7.17825 37.2412C7.23616 37.2995 7.30501 37.3457 7.38084 37.3772C7.45668 37.4088 7.538 37.425 7.62013 37.425C7.70226 37.425 7.78358 37.4088 7.85941 37.3772C7.93524 37.3457 8.00409 37.2995 8.062 37.2412L9.89013 35.4131C11.1024 35.9642 12.4185 36.2496 13.7501 36.25C16.2545 36.25 18.6083 35.2744 20.3789 33.5037C22.1495 31.7331 23.1251 29.3794 23.1251 26.875C23.1251 24.3706 22.1495 22.0169 20.3789 20.2463C18.6083 18.4756 16.2545 17.5 13.7501 17.5C11.2458 17.5 8.892 18.4756 7.12138 20.2463C5.35075 22.0169 4.37513 24.3706 4.37513 26.875ZM4.52638 37.2412L2.75888 35.4731L4.0845 34.1469L5.85263 35.915L4.52638 37.2412ZM7.62013 35.9156L4.0845 32.38L5.37825 31.0862C5.8266 31.9798 6.41485 32.7959 7.12075 33.5037C7.61208 33.9918 8.15555 34.4244 8.74138 34.7937L7.62013 35.9156ZM13.7501 18.75C15.9208 18.75 17.9608 19.5956 19.4951 21.13C21.0295 22.6644 21.8751 24.705 21.8751 26.875C21.8751 29.045 21.0295 31.0856 19.4951 32.62C17.9608 34.1544 15.9208 35 13.7501 35C11.5795 35 9.5395 34.1544 8.00513 32.62C6.47075 31.0856 5.62513 29.045 5.62513 26.875C5.62513 24.705 6.47075 22.6644 8.00513 21.13C9.5395 19.5956 11.5795 18.75 13.7501 18.75Z" fill="url(#paint3_linear_2946_1881)"/>
<path d="M13.75 33.75C17.5406 33.75 20.625 30.6656 20.625 26.875C20.625 23.0844 17.5406 20 13.75 20C9.95937 20 6.875 23.0844 6.875 26.875C6.875 30.6656 9.95937 33.75 13.75 33.75ZM13.75 21.25C16.8519 21.25 19.375 23.7738 19.375 26.875C19.375 29.9762 16.8519 32.5 13.75 32.5C10.6481 32.5 8.125 29.9762 8.125 26.875C8.125 23.7738 10.6481 21.25 13.75 21.25Z" fill="url(#paint4_linear_2946_1881)"/>
<path d="M13.75 23.75C14.0981 23.75 14.4344 23.82 14.75 23.9581L15.25 22.8125C14.7771 22.6053 14.2663 22.4989 13.75 22.5C13.1675 22.4978 12.5926 22.6323 12.0716 22.8928C11.5506 23.1532 11.0979 23.5322 10.75 23.9994L11.75 24.75C11.9818 24.4383 12.2835 24.1855 12.6309 24.0118C12.9783 23.8381 13.3616 23.7484 13.75 23.75ZM26.25 16.875H27.5V22.5H26.25V16.875ZM23.75 18.125H25V22.5H23.75V18.125Z" fill="url(#paint5_linear_2946_1881)"/>
<defs>
<linearGradient id="paint0_linear_2946_1881" x1="15.3438" y1="14.3751" x2="27.4986" y2="14.3751" gradientUnits="userSpaceOnUse">
<stop stop-color="#004D6E"/>
<stop offset="1" stop-color="#00ACCC"/>
</linearGradient>
<linearGradient id="paint1_linear_2946_1881" x1="5" y1="18.125" x2="38.75" y2="18.125" gradientUnits="userSpaceOnUse">
<stop stop-color="#004D6E"/>
<stop offset="1" stop-color="#00ACCC"/>
</linearGradient>
<linearGradient id="paint2_linear_2946_1881" x1="11.4375" y1="18.0319" x2="32.5006" y2="18.0319" gradientUnits="userSpaceOnUse">
<stop stop-color="#004D6E"/>
<stop offset="1" stop-color="#00ACCC"/>
</linearGradient>
<linearGradient id="paint3_linear_2946_1881" x1="1.25" y1="28.1253" x2="23.1251" y2="28.1253" gradientUnits="userSpaceOnUse">
<stop stop-color="#004D6E"/>
<stop offset="1" stop-color="#00ACCC"/>
</linearGradient>
<linearGradient id="paint4_linear_2946_1881" x1="6.875" y1="26.875" x2="20.625" y2="26.875" gradientUnits="userSpaceOnUse">
<stop stop-color="#004D6E"/>
<stop offset="1" stop-color="#00ACCC"/>
</linearGradient>
<linearGradient id="paint5_linear_2946_1881" x1="10.75" y1="20.8125" x2="27.5" y2="20.8125" gradientUnits="userSpaceOnUse">
<stop stop-color="#004D6E"/>
<stop offset="1" stop-color="#00ACCC"/>
</linearGradient>
</defs>
</svg>
