<svg width="40" height="40" viewBox="0 0 40 40" fill="none" xmlns="http://www.w3.org/2000/svg">
<path d="M32.5 38.75C32.6658 38.75 32.8247 38.6842 32.9419 38.5669C33.0592 38.4497 33.125 38.2908 33.125 38.125V30.625C33.125 30.4592 33.0592 30.3003 32.9419 30.1831C32.8247 30.0658 32.6658 30 32.5 30H29.375C29.2092 30 29.0503 30.0658 28.9331 30.1831C28.8158 30.3003 28.75 30.4592 28.75 30.625V38.125C28.75 38.2908 28.8158 38.4497 28.9331 38.5669C29.0503 38.6842 29.2092 38.75 29.375 38.75H32.5ZM30 31.25H31.875V37.5H30V31.25ZM27.5 38.125V33.125C27.5 32.9592 27.4342 32.8003 27.3169 32.6831C27.1997 32.5658 27.0408 32.5 26.875 32.5H23.75C23.5842 32.5 23.4253 32.5658 23.3081 32.6831C23.1908 32.8003 23.125 32.9592 23.125 33.125V38.125C23.125 38.2908 23.1908 38.4497 23.3081 38.5669C23.4253 38.6842 23.5842 38.75 23.75 38.75H26.875C27.0408 38.75 27.1997 38.6842 27.3169 38.5669C27.4342 38.4497 27.5 38.2908 27.5 38.125ZM26.25 37.5H24.375V33.75H26.25V37.5ZM38.125 26.875H35C34.8342 26.875 34.6753 26.9408 34.5581 27.0581C34.4408 27.1753 34.375 27.3342 34.375 27.5V38.125C34.375 38.2908 34.4408 38.4497 34.5581 38.5669C34.6753 38.6842 34.8342 38.75 35 38.75H38.125C38.2908 38.75 38.4497 38.6842 38.5669 38.5669C38.6842 38.4497 38.75 38.2908 38.75 38.125V27.5C38.75 27.3342 38.6842 27.1753 38.5669 27.0581C38.4497 26.9408 38.2908 26.875 38.125 26.875ZM37.5 37.5H35.625V28.125H37.5V37.5ZM15.625 13.75C15.2806 13.75 15 13.47 15 13.125H13.75C13.75 13.9388 14.2744 14.6263 15 14.885V15.625H16.25V14.885C16.6145 14.7565 16.9303 14.5184 17.1542 14.2033C17.378 13.8881 17.4988 13.5115 17.5 13.125C17.5 12.0913 16.6587 11.25 15.625 11.25C15.4641 11.2428 15.3121 11.1738 15.2008 11.0574C15.0895 10.941 15.0273 10.7861 15.0273 10.625C15.0273 10.4639 15.0895 10.309 15.2008 10.1926C15.3121 10.0762 15.4641 10.0072 15.625 10C15.9694 10 16.25 10.28 16.25 10.625H17.5C17.4988 10.2385 17.378 9.86185 17.1542 9.54674C16.9303 9.23163 16.6145 8.99349 16.25 8.865V8.125H15V8.865C14.6355 8.99349 14.3197 9.23163 14.0958 9.54674C13.872 9.86185 13.7512 10.2385 13.75 10.625C13.75 11.6587 14.5913 12.5 15.625 12.5C15.7859 12.5072 15.9379 12.5762 16.0492 12.6926C16.1605 12.809 16.2227 12.9639 16.2227 13.125C16.2227 13.2861 16.1605 13.441 16.0492 13.5574C15.9379 13.6738 15.7859 13.7428 15.625 13.75ZM15 1.25H16.25V4.375H15V1.25ZM26.875 13.75H30V15H26.875V13.75ZM1.25 13.75H4.375V15H1.25V13.75ZM4.85312 5.4425L5.73688 4.55875L7.94625 6.76813L7.0625 7.65188L4.85312 5.4425Z" fill="url(#paint0_linear_2946_1877)"/>
<path d="M18.7506 33.7498H18.8312C19.307 33.7493 19.7631 33.5601 20.0995 33.2237C20.4359 32.8873 20.6251 32.4312 20.6256 31.9555V31.7942C20.6256 31.4842 20.5393 31.1967 20.4 30.9417C20.6609 30.7719 20.8753 30.5396 21.0238 30.2661C21.1723 29.9925 21.2503 29.6862 21.2506 29.3748C21.2506 28.823 21.0062 28.3311 20.6256 27.9873V25.2998C20.6256 24.6923 20.9075 24.1317 21.3793 23.7998C22.6897 22.8765 23.7593 21.6521 24.4982 20.2295C25.2371 18.807 25.6237 17.2278 25.6256 15.6248C25.6256 12.8661 24.5268 10.2973 22.5306 8.39172C20.5356 6.48672 17.91 5.50984 15.1525 5.63609C10.0187 5.87359 5.83809 10.0823 5.63372 15.218C5.5637 16.8917 5.91641 18.556 6.65931 20.0574C7.4022 21.5588 8.51134 22.8489 9.88434 23.8086C10.3487 24.1342 10.6256 24.6923 10.6256 25.3011V27.9873C10.245 28.3305 10.0006 28.823 10.0006 29.3748C10.0006 30.0305 10.34 30.6067 10.8512 30.9417C10.7053 31.2023 10.6276 31.4956 10.6256 31.7942V31.9555C10.6261 32.4312 10.8153 32.8873 11.1517 33.2237C11.4881 33.5601 11.9442 33.7493 12.42 33.7498H12.5006C12.5006 35.473 13.9025 36.8748 15.6256 36.8748C17.3487 36.8748 18.7506 35.473 18.7506 33.7498ZM10.6025 22.7855C9.40096 21.9457 8.43034 20.8167 7.78019 19.5029C7.13004 18.189 6.8213 16.7326 6.88247 15.268C7.06122 10.7748 10.7193 7.09234 15.21 6.88484C16.394 6.82313 17.5781 7.00524 18.6889 7.41991C19.7997 7.83457 20.8135 8.47295 21.6675 9.29547C22.5269 10.1098 23.2105 11.0915 23.6763 12.18C24.142 13.2685 24.38 14.4409 24.3756 15.6248C24.3756 18.4642 22.9862 21.1386 20.6593 22.778C19.8556 23.3442 19.3756 24.2861 19.3756 25.2998V27.4998H16.2506V23.9392L17.21 22.4998H18.1256C19.8487 22.4998 21.2506 21.098 21.2506 19.3748V18.1248C21.2506 17.9591 21.1847 17.8001 21.0675 17.6829C20.9503 17.5657 20.7914 17.4998 20.6256 17.4998H19.3756C17.6525 17.4998 16.2506 18.9017 16.2506 20.6248V21.6855L15.6256 22.623L15.0006 21.6855V20.6248C15.0006 18.9017 13.5987 17.4998 11.8756 17.4998H10.6256C10.4598 17.4998 10.3009 17.5657 10.1837 17.6829C10.0664 17.8001 10.0006 17.9591 10.0006 18.1248V19.3748C10.0006 21.098 11.4025 22.4998 13.1256 22.4998H14.0412L15.0006 23.9392V27.4998H11.8756V25.3011C11.8756 24.2848 11.3993 23.3448 10.6025 22.7855ZM17.5006 21.2498V20.6248C17.5006 19.5911 18.3418 18.7498 19.3756 18.7498H20.0006V19.3748C20.0006 20.4086 19.1593 21.2498 18.1256 21.2498H17.5006ZM13.7506 20.6248V21.2498H13.1256C12.0918 21.2498 11.2506 20.4086 11.2506 19.3748V18.7498H11.8756C12.9093 18.7498 13.7506 19.5911 13.7506 20.6248ZM11.2506 29.3748C11.2506 29.0298 11.5312 28.7498 11.8756 28.7498H19.3756C19.5365 28.757 19.6885 28.826 19.7998 28.9425C19.9111 29.0589 19.9733 29.2138 19.9733 29.3748C19.9733 29.5359 19.9111 29.6908 19.7998 29.8072C19.6885 29.9237 19.5365 29.9926 19.3756 29.9998H11.8756C11.5312 29.9998 11.2506 29.7198 11.2506 29.3748ZM12.42 32.4998C12.2756 32.4997 12.1373 32.4423 12.0352 32.3402C11.9332 32.2382 11.8758 32.0998 11.8756 31.9555V31.7942C11.8756 31.4942 12.12 31.2498 12.42 31.2498H18.8318C19.1312 31.2498 19.3756 31.4942 19.3756 31.7942V31.9555C19.3756 32.2555 19.1312 32.4998 18.8312 32.4998H12.42ZM13.7506 33.7498H17.5006C17.5006 34.7836 16.6593 35.6248 15.6256 35.6248C14.5918 35.6248 13.7506 34.7836 13.7506 33.7498ZM23.135 6.76797L25.3443 4.55859L26.2281 5.44234L24.0187 7.65172L23.135 6.76797ZM23.115 26.8748L23.1256 28.1248C23.5793 28.1248 25.8968 27.5336 27.7612 27.038C29.705 26.5211 31.1625 25.7692 33.3681 24.6305L35.4406 23.3486L36.3556 24.7211C36.4203 24.8187 36.5112 24.8962 36.6178 24.9446C36.7245 24.993 36.8426 25.0105 36.9587 24.995C37.0748 24.9794 37.1842 24.9316 37.2744 24.8569C37.3646 24.7821 37.4319 24.6835 37.4687 24.5723L38.7187 20.8223C38.7502 20.7284 38.7588 20.6283 38.7439 20.5303C38.729 20.4324 38.691 20.3394 38.633 20.259C38.5751 20.1787 38.4988 20.1132 38.4106 20.0682C38.3224 20.0231 38.2247 19.9997 38.1256 19.9998H34.3756C34.2625 19.9999 34.1516 20.0306 34.0546 20.0887C33.9577 20.1468 33.8783 20.2302 33.8249 20.3298C33.7716 20.4295 33.7462 20.5418 33.7516 20.6547C33.757 20.7676 33.793 20.877 33.8556 20.9711L34.7487 22.3111L32.9281 23.4505L32.795 23.5192C30.5862 24.6592 29.2531 25.3473 27.4406 25.8286C24.9325 26.4967 23.3662 26.8605 23.115 26.8748ZM37.2587 21.2498L36.6868 22.9648L35.5437 21.2498H37.2587Z" fill="url(#paint1_linear_2946_1877)"/>
<defs>
<linearGradient id="paint0_linear_2946_1877" x1="1.25" y1="20" x2="38.75" y2="20" gradientUnits="userSpaceOnUse">
<stop stop-color="#004D6E"/>
<stop offset="1" stop-color="#00ACCC"/>
</linearGradient>
<linearGradient id="paint1_linear_2946_1877" x1="5.625" y1="20.7167" x2="38.751" y2="20.7167" gradientUnits="userSpaceOnUse">
<stop stop-color="#004D6E"/>
<stop offset="1" stop-color="#00ACCC"/>
</linearGradient>
</defs>
</svg>
