<svg width="18" height="24" viewBox="0 0 18 24" fill="none" xmlns="http://www.w3.org/2000/svg">
<path d="M3 0C1.3125 0 0 1.35938 0 3V21C0 22.6875 1.3125 24 3 24H15C16.6406 24 18 22.6875 18 21V7.5H12C11.1562 7.5 10.5 6.84375 10.5 6V0H3ZM12 0V6H18L12 0ZM3 10.5H4.125C5.53125 10.5 6.75 11.7188 6.75 13.125C6.75 14.5781 5.53125 15.75 4.125 15.75H3.75V17.25C3.75 17.6719 3.375 18 3 18C2.57812 18 2.25 17.6719 2.25 17.25V15V11.25C2.25 10.875 2.57812 10.5 3 10.5ZM4.125 14.25C4.73438 14.25 5.25 13.7812 5.25 13.125C5.25 12.5156 4.73438 12 4.125 12H3.75V14.25H4.125ZM7.5 11.25C7.5 10.875 7.82812 10.5 8.25 10.5H9.375C10.5938 10.5 11.625 11.5312 11.625 12.75V15.75C11.625 17.0156 10.5938 18 9.375 18H8.25C7.82812 18 7.5 17.6719 7.5 17.25V11.25ZM9 16.5H9.375C9.75 16.5 10.125 16.1719 10.125 15.75V12.75C10.125 12.375 9.75 12 9.375 12H9V16.5ZM13.5 10.5H15.75C16.125 10.5 16.5 10.875 16.5 11.25C16.5 11.6719 16.125 12 15.75 12H14.25V13.5H15.75C16.125 13.5 16.5 13.875 16.5 14.25C16.5 14.6719 16.125 15 15.75 15H14.25V17.25C14.25 17.6719 13.875 18 13.5 18C13.0781 18 12.75 17.6719 12.75 17.25V14.25V11.25C12.75 10.875 13.0781 10.5 13.5 10.5Z" fill="url(#paint0_linear_2946_2611)"/>
<defs>
<linearGradient id="paint0_linear_2946_2611" x1="0" y1="12" x2="18" y2="12" gradientUnits="userSpaceOnUse">
<stop stop-color="#004D6E"/>
<stop offset="1" stop-color="#00ACCC"/>
</linearGradient>
</defs>
</svg>
