<svg width="60" height="60" viewBox="0 0 60 60" fill="none" xmlns="http://www.w3.org/2000/svg">
<path d="M39.375 35.8322V25.5187C39.9459 25.0041 40.3125 24.2653 40.3125 23.4375V20.625C40.3125 19.5909 39.4716 18.75 38.4375 18.75H21.5625C20.5284 18.75 19.6875 19.5909 19.6875 20.625V23.4375C19.6875 24.2653 20.0541 25.0031 20.625 25.5187V35.8322C18.2213 38.2783 16.8746 41.5706 16.875 45C16.875 52.2375 22.7625 58.125 30 58.125C37.2375 58.125 43.125 52.2375 43.125 45C43.125 41.4338 41.6906 38.1994 39.375 35.8322ZM39.7275 39.375H37.5C37.3547 39.375 37.2103 39.4087 37.0809 39.4734L34.3763 40.8253L33.8063 38.5453L34.4775 37.2028L36.5156 35.8444C37.8246 36.78 38.9195 37.9836 39.7275 39.375ZM36.5625 20.625H38.4375V23.4375C38.4267 23.6789 38.3232 23.9068 38.1486 24.0738C37.9739 24.2408 37.7416 24.334 37.5 24.334C37.2584 24.334 37.0261 24.2408 36.8514 24.0738C36.6768 23.9068 36.5733 23.6789 36.5625 23.4375V20.625ZM32.8125 20.625H34.6875V23.4375C34.6767 23.6789 34.5732 23.9068 34.3986 24.0738C34.2239 24.2408 33.9916 24.334 33.75 24.334C33.5084 24.334 33.2761 24.2408 33.1014 24.0738C32.9268 23.9068 32.8233 23.6789 32.8125 23.4375V20.625ZM29.0625 20.625H30.9375V23.4375C30.9267 23.6789 30.8232 23.9068 30.6486 24.0738C30.4739 24.2408 30.2416 24.334 30 24.334C29.7584 24.334 29.5261 24.2408 29.3514 24.0738C29.1768 23.9068 29.0733 23.6789 29.0625 23.4375V20.625ZM25.3125 20.625H27.1875V23.4375C27.1767 23.6789 27.0732 23.9068 26.8986 24.0738C26.7239 24.2408 26.4916 24.334 26.25 24.334C26.0084 24.334 25.7761 24.2408 25.6014 24.0738C25.4268 23.9068 25.3233 23.6789 25.3125 23.4375V20.625ZM26.25 26.25C26.9441 26.2476 27.6125 25.987 28.125 25.5187C28.6238 25.9688 29.2772 26.25 30 26.25C30.7228 26.25 31.3762 25.9678 31.875 25.5187C32.3738 25.9688 33.0272 26.25 33.75 26.25C34.4728 26.25 35.1263 25.9678 35.625 25.5187C36.1237 25.9688 36.7772 26.25 37.5 26.25V34.2441C36.6267 33.635 35.6822 33.135 34.6875 32.7553V29.0625C34.6875 28.8139 34.5887 28.5754 34.4129 28.3996C34.2371 28.2238 33.9986 28.125 33.75 28.125H26.25C26.0014 28.125 25.7629 28.2238 25.5871 28.3996C25.4113 28.5754 25.3125 28.8139 25.3125 29.0625V32.7553C24.3181 33.1358 23.3737 33.6357 22.5 34.2441V26.25C23.1941 26.2476 23.8625 25.987 24.375 25.5187C24.8875 25.987 25.5559 26.2476 26.25 26.25ZM32.8125 30V32.1863C31.889 31.9814 30.946 31.8771 30 31.875C29.054 31.8771 28.111 31.9814 27.1875 32.1863V30H32.8125ZM21.5625 20.625H23.4375V23.4375C23.4267 23.6789 23.3232 23.9068 23.1486 24.0738C22.9739 24.2408 22.7416 24.334 22.5 24.334C22.2584 24.334 22.0261 24.2408 21.8514 24.0738C21.6768 23.9068 21.5733 23.6789 21.5625 23.4375V20.625ZM23.715 35.6737L24.4228 37.7972C24.5166 38.0775 24.7359 38.2969 25.0153 38.3897L27.1875 39.1134V41.25C27.1875 41.3269 27.1969 41.4028 27.2156 41.4769L27.9422 44.385L26.3888 44.9034L23.9578 43.2825C23.8036 43.1801 23.6226 43.1253 23.4375 43.125H21.5625C21.4857 43.125 21.4092 43.1344 21.3347 43.1531L18.8184 43.7822C18.9965 42.156 19.5268 40.5882 20.3724 39.1879C21.218 37.7876 22.3587 36.5884 23.715 35.6737ZM30 56.25C29.085 56.25 28.2 56.1281 27.3478 55.9209L28.0556 53.7975L28.8234 52.2609L32.2941 50.5256C32.5162 50.4141 32.685 50.2191 32.7638 49.9838L33.5287 47.6878L36.5625 47.0813V48.75C36.5625 48.8953 36.5962 49.0397 36.6609 49.1691L38.3391 52.5244C36.2784 54.8053 33.3084 56.25 30 56.25ZM38.4375 48.5288V45.9375C38.4378 45.7987 38.4071 45.6617 38.3479 45.5362C38.2886 45.4107 38.2022 45.3 38.0949 45.2121C37.9875 45.1241 37.862 45.0612 37.7273 45.0277C37.5927 44.9943 37.4522 44.9912 37.3162 45.0187L32.6287 45.9562C32.4667 45.9885 32.3162 46.0631 32.1923 46.1725C32.0685 46.2818 31.9758 46.422 31.9237 46.5787L31.1091 49.0228L27.7069 50.7234C27.5256 50.8142 27.3786 50.9613 27.2878 51.1425L26.3503 53.0175C26.3306 53.0572 26.3136 53.0982 26.2997 53.1403L25.5675 55.3359C23.6611 54.5139 22.019 53.181 20.8225 51.4844C19.6261 49.7878 18.9218 47.7936 18.7875 45.7219L21.6778 45H23.1534L25.7297 46.7175C25.8485 46.7966 25.9839 46.8475 26.1254 46.8664C26.2669 46.8852 26.4108 46.8715 26.5462 46.8263L29.3587 45.8888C29.5826 45.8141 29.77 45.6578 29.8837 45.451C29.9973 45.2442 30.0288 45.0021 29.9719 44.7731L29.0625 41.1347V38.4375C29.0626 38.2407 29.0007 38.049 28.8856 37.8894C28.7705 37.7299 28.608 37.6107 28.4212 37.5487L26.0531 36.7584L25.3838 34.7513C26.8336 34.0925 28.4075 33.7512 30 33.75C31.6828 33.75 33.2737 34.1316 34.7091 34.7962L33.2306 35.7825C33.0948 35.8731 32.985 35.9975 32.9119 36.1434L31.9744 38.0184C31.875 38.2186 31.8498 38.4474 31.9031 38.6644L32.8406 42.4144C32.8744 42.5507 32.9384 42.6777 33.0279 42.786C33.1174 42.8942 33.2302 42.9809 33.3577 43.0397C33.4853 43.0985 33.6244 43.1279 33.7649 43.1256C33.9053 43.1233 34.0435 43.0895 34.1691 43.0266L37.7212 41.25H40.5938C41.0109 42.4247 41.25 43.6838 41.25 45C41.25 47.1413 40.6378 49.1381 39.5953 50.8434L38.4375 48.5288ZM26.7797 16.1447C27.7838 16.6294 28.8675 16.875 30 16.875C31.1325 16.875 32.2162 16.6294 33.2128 16.1484L33.2184 16.1456L33.2194 16.1447L33.2213 16.1437C34.5068 15.5424 35.593 14.5852 36.3513 13.3856C37.1096 12.186 37.5083 10.7942 37.5 9.375C37.5 5.23969 34.1353 1.875 30 1.875C25.8647 1.875 22.5 5.23969 22.5 9.375C22.5 12.3028 24.1425 14.8988 26.7797 16.1447ZM31.8525 14.6541C31.6219 14.9278 30.7134 14.9569 30.39 14.9784C29.6329 15.0324 28.8727 14.9329 28.155 14.6859L28.125 14.6737V13.125C28.125 12.0797 28.9472 11.2566 30 11.25C30.4997 11.25 30.9703 11.445 31.3247 11.8003C31.6791 12.1556 31.875 12.6263 31.875 13.125C31.875 13.4691 32.0466 14.3419 31.875 14.6222C31.8684 14.6334 31.8608 14.6441 31.8525 14.6541ZM29.0644 8.37937C29.0717 8.25647 29.1031 8.13621 29.157 8.02551C29.2109 7.91481 29.2862 7.81585 29.3784 7.73431C29.4707 7.65277 29.5781 7.59026 29.6946 7.55037C29.8111 7.51048 29.9343 7.494 30.0572 7.50187C30.242 7.51382 30.4192 7.58015 30.5665 7.69251C30.7137 7.80488 30.8245 7.95828 30.8848 8.13341C30.9451 8.30855 30.9523 8.49761 30.9055 8.67682C30.8586 8.85603 30.7599 9.01739 30.6216 9.14062C30.4337 9.30276 30.1907 9.38635 29.9428 9.37406C29.6946 9.35814 29.4628 9.24454 29.2982 9.05812C29.1336 8.87169 29.0495 8.62764 29.0644 8.37937ZM30 3.75C33.1022 3.75 35.625 6.27281 35.625 9.375C35.625 11.0203 34.9331 12.525 33.75 13.5712V13.125C33.7509 12.6325 33.6542 12.1447 33.4655 11.6898C33.2767 11.2348 32.9997 10.8219 32.6503 10.4747C32.5238 10.3481 32.3812 10.2441 32.2416 10.1381C32.5484 9.73224 32.7395 9.2508 32.7945 8.74498C32.8495 8.23917 32.7665 7.7279 32.5541 7.26552C32.3418 6.80315 32.0081 6.40696 31.5886 6.11908C31.1691 5.83121 30.6794 5.66241 30.1716 5.63063C29.8029 5.6076 29.4333 5.65761 29.0841 5.77779C28.7348 5.89797 28.4127 6.08595 28.1362 6.33094C27.6029 6.79848 27.2682 7.45198 27.2004 8.15798C27.1326 8.86398 27.3369 9.56922 27.7716 10.1297C26.8537 10.8159 26.25 11.8997 26.25 13.125V13.5731C25.6565 13.0473 25.1822 12.4007 24.8588 11.6767C24.5355 10.9527 24.3705 10.1679 24.375 9.375C24.375 6.27281 26.8978 3.75 30 3.75ZM50.625 21.5625C46.4897 21.5625 43.125 24.9272 43.125 29.0625C43.125 31.9903 44.7675 34.5863 47.4047 35.8322C48.4087 36.3169 49.4925 36.5625 50.625 36.5625C51.7575 36.5625 52.8412 36.3169 53.8378 35.8359L53.8434 35.8331L53.8444 35.8322L53.8463 35.8313C55.1318 35.2299 56.218 34.2727 56.9763 33.0731C57.7346 31.8735 58.1333 30.4817 58.125 29.0625C58.125 24.9272 54.7603 21.5625 50.625 21.5625ZM52.4991 34.3603C51.3347 34.8103 49.9528 34.7887 48.78 34.3734L48.75 34.3613V32.8125C48.75 31.7672 49.5722 30.9441 50.625 30.9375C51.1247 30.9375 51.5953 31.1325 51.9497 31.4878C52.3041 31.8431 52.5 32.3137 52.5 32.8125C52.5 33.3281 52.4916 33.8447 52.4991 34.3603ZM49.6894 28.0669C49.6967 27.944 49.7281 27.8237 49.782 27.713C49.8359 27.6023 49.9112 27.5033 50.0034 27.4218C50.0957 27.3403 50.2031 27.2778 50.3196 27.2379C50.4361 27.198 50.5593 27.1815 50.6822 27.1894C50.867 27.2013 51.0442 27.2676 51.1915 27.38C51.3387 27.4924 51.4495 27.6458 51.5098 27.8209C51.5701 27.996 51.5773 28.1851 51.5305 28.3643C51.4836 28.5435 51.3849 28.7049 51.2466 28.8281C51.0591 28.9941 50.8125 29.0728 50.5678 29.0616C50.3196 29.0456 50.0878 28.932 49.9232 28.7456C49.7586 28.5592 49.6745 28.3151 49.6894 28.0669ZM54.375 33.2588V32.8125C54.3759 32.32 54.2792 31.8322 54.0905 31.3773C53.9017 30.9223 53.6247 30.5094 53.2753 30.1622C53.1488 30.0356 53.0062 29.9316 52.8666 29.8256C53.1734 29.4197 53.3645 28.9383 53.4195 28.4325C53.4745 27.9267 53.3915 27.4154 53.1791 26.953C52.9668 26.4906 52.6331 26.0945 52.2136 25.8066C51.7941 25.5187 51.3044 25.3499 50.7966 25.3181C50.4279 25.2948 50.0582 25.3447 49.7089 25.4649C49.3596 25.5851 49.0375 25.7732 48.7612 26.0184C48.2279 26.486 47.8932 27.1395 47.8254 27.8455C47.7576 28.5515 47.9619 29.2567 48.3966 29.8172C47.4788 30.5034 46.875 31.5872 46.875 32.8125V33.2606C46.2815 32.7348 45.8072 32.0882 45.4838 31.3642C45.1605 30.6402 44.9955 29.8554 45 29.0625C45 25.9603 47.5228 23.4375 50.625 23.4375C53.7272 23.4375 56.25 25.9603 56.25 29.0625C56.25 30.7078 55.5581 32.2125 54.375 33.2588ZM12.5878 35.8359L12.5934 35.8331L12.5944 35.8322L12.5962 35.8313C13.8818 35.2299 14.968 34.2727 15.7263 33.0731C16.4846 31.8735 16.8833 30.4817 16.875 29.0625C16.875 24.9272 13.5103 21.5625 9.375 21.5625C5.23969 21.5625 1.875 24.9272 1.875 29.0625C1.875 31.9903 3.5175 34.5863 6.15469 35.8322C7.15875 36.3169 8.2425 36.5625 9.375 36.5625C10.5075 36.5625 11.5913 36.3169 12.5878 35.8359ZM7.13344 29.8256C6.99281 29.9316 6.85125 30.0356 6.72469 30.1622C6.37534 30.5094 6.09829 30.9223 5.90953 31.3773C5.72078 31.8322 5.62407 32.32 5.625 32.8125V33.2606C5.0316 32.7347 4.55736 32.0881 4.23401 31.3641C3.91065 30.6401 3.74564 29.8554 3.75 29.0625C3.75 25.9603 6.27281 23.4375 9.375 23.4375C12.4772 23.4375 15 25.9603 15 29.0625C15 30.7078 14.3081 32.2125 13.125 33.2588V32.8125C13.125 31.5881 12.5222 30.5053 11.6025 29.8191C12.0148 29.2876 12.2206 28.6249 12.1819 27.9534C12.1606 27.5845 12.0663 27.2235 11.9044 26.8914C11.7425 26.5592 11.5162 26.2625 11.2387 26.0184C10.7153 25.5592 10.0402 25.3104 9.34388 25.32C8.6476 25.3296 7.97961 25.597 7.46902 26.0705C6.95844 26.544 6.64153 27.19 6.57955 27.8836C6.51756 28.5772 6.71491 29.2691 7.13344 29.8256ZM10.3106 28.0669C10.3213 28.2517 10.2771 28.4356 10.1835 28.5954C10.09 28.7552 9.95135 28.8838 9.78496 28.9651C9.61857 29.0463 9.43189 29.0765 9.24836 29.052C9.06484 29.0275 8.89265 28.9493 8.75344 28.8272C8.61515 28.704 8.51637 28.5426 8.46954 28.3634C8.4227 28.1842 8.42989 27.9951 8.49021 27.82C8.55052 27.6448 8.66127 27.4914 8.80852 27.3791C8.95578 27.2667 9.13297 27.2004 9.31781 27.1884L9.37594 27.1875C9.60469 27.1875 9.82312 27.27 9.99562 27.4228C10.1841 27.5887 10.2956 27.8175 10.3106 28.0669ZM8.54438 34.6266C8.19898 34.5746 7.85932 34.4898 7.53 34.3734C7.51969 34.3706 7.51031 34.365 7.5 34.3613V32.8125C7.5 32.3137 7.695 31.8431 8.05031 31.4878C8.40562 31.1325 8.87531 30.9375 9.37875 30.9375C9.62519 30.9361 9.86944 30.9837 10.0973 31.0775C10.3252 31.1713 10.5322 31.3094 10.7063 31.4838C10.8804 31.6583 11.0181 31.8656 11.1114 32.0936C11.2048 32.3217 11.2519 32.5661 11.25 32.8125C11.25 33.3281 11.2416 33.8447 11.2519 34.3594C10.41 34.6856 9.45281 34.7644 8.54438 34.6266ZM48.6778 20.1572L50.3006 19.2178C47.8726 15.0018 44.1895 11.6485 39.765 9.62531L38.9831 11.3297C43.0439 13.2077 46.4286 16.2896 48.6778 20.1572ZM9.69844 19.2178L11.3212 20.1572C13.5704 16.2899 16.9547 13.208 21.015 11.3297L20.2331 9.62531C15.809 11.6488 12.1264 15.0021 9.69844 19.2178ZM9.66469 38.1253L7.89656 38.7497C9.21393 42.4601 11.4413 45.7805 14.3747 48.4069L15.6253 47.01C12.9264 44.5938 10.877 41.5389 9.66469 38.1253ZM44.3747 47.01L45.6253 48.4069C48.5591 45.7809 50.7865 42.4603 52.1034 38.7497L50.3353 38.1253C49.1235 41.5391 47.074 44.5941 44.3747 47.01Z" fill="url(#paint0_linear_2916_15)"/>
<defs>
<linearGradient id="paint0_linear_2916_15" x1="1.875" y1="30" x2="58.1251" y2="30" gradientUnits="userSpaceOnUse">
<stop stop-color="#004D6E"/>
<stop offset="1" stop-color="#00ACCC"/>
</linearGradient>
</defs>
</svg>
