<svg width="60" height="60" viewBox="0 0 60 60" fill="none" xmlns="http://www.w3.org/2000/svg">
<path d="M29.8397 21.0422C29.713 20.8521 29.5212 20.7148 29.3004 20.6561C29.0796 20.5974 28.845 20.6213 28.6406 20.7234L23.0156 23.5359L23.8547 25.2131L28.7391 22.7709L30.1556 24.8953C30.287 25.0931 30.4886 25.2334 30.7197 25.2879C30.9507 25.3424 31.1938 25.307 31.3997 25.1887L36.6066 22.2131L37.6303 23.9194C37.72 24.0694 37.8498 24.1914 38.0051 24.2715C38.1604 24.3517 38.3351 24.3868 38.5093 24.373C38.6835 24.3591 38.8504 24.2969 38.9911 24.1932C39.1319 24.0895 39.2408 23.9486 39.3056 23.7862L41.1806 19.0987C41.2377 18.9564 41.2589 18.8023 41.2425 18.6499C41.2262 18.4974 41.1727 18.3513 41.0867 18.2244C41.0007 18.0974 40.8849 17.9935 40.7495 17.9217C40.614 17.8499 40.463 17.8124 40.3097 17.8125H35.6222C35.4565 17.8129 35.2939 17.8572 35.1509 17.9408C35.0078 18.0245 34.8895 18.1445 34.8079 18.2887C34.7263 18.4328 34.6843 18.5961 34.6862 18.7617C34.6881 18.9274 34.7338 19.0896 34.8188 19.2319L35.6428 20.6044L31.23 23.1253L29.8397 21.0422ZM38.925 19.6875L38.2659 21.3347L37.2787 19.6875H38.925Z" fill="url(#paint0_linear_2916_18)"/>
<path d="M57.1875 22.5H53.8575C53.725 21.9011 53.567 21.308 53.3841 20.7225L56.265 19.0594C56.3719 18.9981 56.4656 18.9163 56.5408 18.8186C56.6159 18.721 56.671 18.6094 56.7029 18.4904C56.7348 18.3714 56.7428 18.2473 56.7266 18.1251C56.7103 18.003 56.6701 17.8853 56.6081 17.7788L52.8581 11.2838C52.7338 11.0684 52.529 10.9113 52.2889 10.847C52.0487 10.7826 51.7928 10.8163 51.5775 10.9406L48.6909 12.6075C48.2765 12.1564 47.843 11.7232 47.3916 11.3091L49.0584 8.42156C49.1828 8.20624 49.2164 7.95035 49.1521 7.71019C49.0877 7.47003 48.9306 7.26526 48.7153 7.14094L42.2203 3.39094C42.1138 3.32913 41.996 3.28898 41.8739 3.27278C41.7518 3.25658 41.6277 3.26465 41.5087 3.29653C41.3898 3.32841 41.2782 3.38347 41.1806 3.45855C41.0829 3.53364 41.0011 3.62726 40.9397 3.73406L39.2766 6.615C38.6914 6.43225 38.0987 6.2746 37.5 6.1425V2.8125C37.5 2.56386 37.4012 2.3254 37.2254 2.14959C37.0496 1.97377 36.8111 1.875 36.5625 1.875H29.0625C28.8139 1.875 28.5754 1.97377 28.3996 2.14959C28.2238 2.3254 28.125 2.56386 28.125 2.8125V6.1425C27.5231 6.27563 26.9297 6.43406 26.3475 6.61594L24.6844 3.73406C24.5595 3.5193 24.3551 3.36235 24.1153 3.29719C23.9964 3.26495 23.8723 3.25664 23.7501 3.27273C23.628 3.28883 23.5103 3.329 23.4038 3.39094L16.9087 7.14094C16.802 7.20241 16.7085 7.28432 16.6335 7.38198C16.5585 7.47964 16.5035 7.59114 16.4716 7.71009C16.4397 7.82904 16.4316 7.9531 16.4478 8.07519C16.4639 8.19727 16.5039 8.31498 16.5656 8.42156L18.2325 11.3091C17.7816 11.7234 17.3475 12.1575 16.9331 12.6075L14.0466 10.9406C13.94 10.8789 13.8223 10.8389 13.7002 10.8228C13.5781 10.8066 13.454 10.8147 13.3351 10.8466C13.2161 10.8785 13.1046 10.9335 13.007 11.0085C12.9093 11.0835 12.8274 11.177 12.7659 11.2838L9.01594 17.7788C8.89162 17.9941 8.85793 18.25 8.92228 18.4901C8.98663 18.7303 9.14374 18.9351 9.35906 19.0594L12.24 20.7225C12.0581 21.3038 11.8997 21.8981 11.7666 22.5H8.4375C8.18886 22.5 7.9504 22.5988 7.77459 22.7746C7.59877 22.9504 7.5 23.1889 7.5 23.4375V30H9.375V24.375H12.5334C12.7526 24.3749 12.9647 24.298 13.1331 24.1578C13.3014 24.0175 13.4153 23.8227 13.455 23.6072C13.6444 22.5797 13.9134 21.57 14.2556 20.6072C14.3291 20.4007 14.3278 20.175 14.2521 19.9693C14.1764 19.7636 14.031 19.5909 13.8412 19.4813L11.1094 17.9034L13.9219 13.0331L16.6594 14.6138C16.8491 14.7234 17.0713 14.763 17.2873 14.7259C17.5032 14.6887 17.6994 14.577 17.8416 14.4103C18.5149 13.6221 19.249 12.888 20.0372 12.2147C20.3794 11.9213 20.4647 11.4253 20.2397 11.0334L18.6591 8.29594L23.5294 5.48344L25.1072 8.21531C25.2168 8.40511 25.3895 8.55049 25.5952 8.62619C25.8009 8.7019 26.0266 8.70313 26.2331 8.62969C27.21 8.28384 28.2128 8.01643 29.2322 7.83C29.4477 7.79071 29.6426 7.67704 29.7829 7.50881C29.9232 7.34057 30 7.12844 30 6.90937V3.75H35.625V6.90937C35.6251 7.1285 35.702 7.34067 35.8422 7.50902C35.9825 7.67738 36.1773 7.79128 36.3928 7.83094C37.4203 8.01937 38.4291 8.28844 39.3919 8.63063C39.5984 8.70407 39.8241 8.70283 40.0298 8.62713C40.2355 8.55143 40.4082 8.40605 40.5178 8.21625L42.0956 5.48438L46.9659 8.29688L45.3853 11.0344C45.1603 11.4253 45.2456 11.9222 45.5878 12.2156C46.376 12.889 47.1101 13.6231 47.7834 14.4113C47.9256 14.578 48.1218 14.6896 48.3377 14.7268C48.5537 14.764 48.7759 14.7243 48.9656 14.6147L51.7031 13.0341L54.5156 17.9044L51.7837 19.4822C51.5938 19.5917 51.4483 19.7643 51.3726 19.9701C51.2969 20.1758 51.2957 20.4016 51.3694 20.6081C51.7106 21.5709 51.9797 22.5806 52.17 23.6081C52.2506 24.0516 52.6388 24.375 53.0916 24.375H56.25V30H53.0916C52.8724 30.0001 52.6603 30.077 52.4919 30.2172C52.3236 30.3575 52.2097 30.5523 52.17 30.7678C51.9829 31.7874 51.7152 32.7906 51.3694 33.7678C51.2959 33.9743 51.2972 34.2 51.3729 34.4057C51.4486 34.6114 51.594 34.7841 51.7837 34.8938L54.5156 36.4716L51.7031 41.3419L48.9656 39.7612C48.7759 39.6516 48.5537 39.612 48.3377 39.6491C48.1218 39.6863 47.9256 39.798 47.7834 39.9647C47.1101 40.7529 46.376 41.487 45.5878 42.1603C45.4218 42.3028 45.3107 42.4988 45.2737 42.7145C45.2367 42.9301 45.2762 43.1519 45.3853 43.3416L46.9659 46.0791L42.0956 48.8916L40.5178 46.1597C40.4084 45.9696 40.2358 45.824 40.03 45.7483C39.8242 45.6725 39.5984 45.6715 39.3919 45.7453C38.415 46.0912 37.4122 46.3586 36.3928 46.545C36.1773 46.5843 35.9824 46.698 35.8421 46.8662C35.7018 47.0344 35.625 47.2466 35.625 47.4656V50.625H31.875V52.5H36.5625C36.8111 52.5 37.0496 52.4012 37.2254 52.2254C37.4012 52.0496 37.5 51.8111 37.5 51.5625V48.2325C38.0989 48.1 38.692 47.942 39.2775 47.7591L40.9406 50.64C41.0655 50.8547 41.2702 51.0114 41.5102 51.0757C41.7501 51.1399 42.0058 51.1067 42.2212 50.9831L48.7163 47.2331C48.823 47.1717 48.9165 47.0897 48.9915 46.9921C49.0665 46.8944 49.1215 46.7829 49.1534 46.664C49.1853 46.545 49.1934 46.421 49.1772 46.2989C49.1611 46.1768 49.1211 46.0591 49.0594 45.9525L47.3925 43.065C47.8434 42.6506 48.2775 42.2166 48.6919 41.7666L51.5784 43.4334C52.0256 43.6912 52.6003 43.5384 52.8591 43.0903L56.6091 36.5953C56.7334 36.38 56.7671 36.1241 56.7027 35.8839C56.6384 35.6438 56.4813 35.439 56.2659 35.3147L53.385 33.6516C53.5669 33.0703 53.7253 32.4759 53.8584 31.8741H57.1875C57.4361 31.8741 57.6746 31.7753 57.8504 31.5995C58.0262 31.4237 58.125 31.1852 58.125 30.9366V23.4366C58.1248 23.1881 58.0259 22.9499 57.8501 22.7743C57.6743 22.5986 57.436 22.5 57.1875 22.5Z" fill="url(#paint1_linear_2916_18)"/>
<path d="M48.7509 27.1875C48.7509 18.3994 41.6016 11.25 32.8134 11.25C25.1634 11.25 18.5784 16.6969 17.1562 24.2006L18.9984 24.5494C20.2538 17.9297 26.0634 13.125 32.8134 13.125C40.5675 13.125 46.8759 19.4334 46.8759 27.1875C46.8759 33.9375 42.0712 39.7472 35.4506 41.0034L35.8003 42.8456C43.3041 41.4216 48.7509 34.8366 48.7509 27.1875Z" fill="url(#paint2_linear_2916_18)"/>
<path d="M6.56269 40.3125C6.56269 41.8472 6.81956 43.3406 7.28925 44.7563L4.13831 47.9072C3.96256 48.083 3.86383 48.3214 3.86383 48.57C3.86383 48.8186 3.96256 49.057 4.13831 49.2328L4.80113 49.8956L2.14988 52.5469C2.06274 52.6339 1.99361 52.7372 1.94644 52.8509C1.89928 52.9646 1.875 53.0866 1.875 53.2097C1.875 53.3328 1.89928 53.4547 1.94644 53.5685C1.99361 53.6822 2.06274 53.7855 2.14988 53.8725L6.12675 57.8503C6.21361 57.9377 6.31689 58.007 6.43064 58.0543C6.54439 58.1016 6.66637 58.126 6.78956 58.126C6.91276 58.126 7.03474 58.1016 7.14849 58.0543C7.26224 58.007 7.36551 57.9377 7.45238 57.8503L10.1046 55.1991L10.7674 55.8619C10.8542 55.9492 10.9575 56.0186 11.0713 56.0659C11.185 56.1132 11.307 56.1375 11.4302 56.1375C11.5534 56.1375 11.6754 56.1132 11.7891 56.0659C11.9029 56.0186 12.0061 55.9492 12.093 55.8619L14.8352 53.1197C16.6536 53.9463 18.6277 54.3743 20.6252 54.375C24.3818 54.375 27.9124 52.9116 30.5683 50.2556C33.2243 47.5997 34.6877 44.0691 34.6877 40.3125C34.6877 36.5559 33.2243 33.0253 30.5683 30.3694C27.9124 27.7134 24.3818 26.25 20.6252 26.25C16.8686 26.25 13.338 27.7134 10.6821 30.3694C8.02613 33.0253 6.56269 36.5559 6.56269 40.3125ZM6.78956 55.8619L4.13831 53.2097L6.12675 51.2203L8.77894 53.8725L6.78956 55.8619ZM11.4302 53.8734L6.12675 48.57L8.06738 46.6294C8.7399 47.9696 9.62228 49.1938 10.6811 50.2556C11.4181 50.9877 12.2333 51.6366 13.1121 52.1906L11.4302 53.8734ZM20.6252 28.125C23.8811 28.125 26.9411 29.3934 29.2427 31.695C31.5443 33.9966 32.8127 37.0575 32.8127 40.3125C32.8127 43.5675 31.5443 46.6284 29.2427 48.93C26.9411 51.2316 23.8811 52.5 20.6252 52.5C17.3693 52.5 14.3093 51.2316 12.0077 48.93C9.70613 46.6284 8.43769 43.5675 8.43769 40.3125C8.43769 37.0575 9.70613 33.9966 12.0077 31.695C14.3093 29.3934 17.3693 28.125 20.6252 28.125Z" fill="url(#paint3_linear_2916_18)"/>
<path d="M20.625 50.625C26.3109 50.625 30.9375 45.9984 30.9375 40.3125C30.9375 34.6266 26.3109 30 20.625 30C14.9391 30 10.3125 34.6266 10.3125 40.3125C10.3125 45.9984 14.9391 50.625 20.625 50.625ZM20.625 31.875C25.2778 31.875 29.0625 35.6606 29.0625 40.3125C29.0625 44.9644 25.2778 48.75 20.625 48.75C15.9722 48.75 12.1875 44.9644 12.1875 40.3125C12.1875 35.6606 15.9722 31.875 20.625 31.875Z" fill="url(#paint4_linear_2916_18)"/>
<path d="M20.625 35.625C21.1472 35.625 21.6516 35.73 22.125 35.9372L22.875 34.2187C22.1657 33.9079 21.3994 33.7483 20.625 33.75C19.7513 33.7467 18.889 33.9485 18.1074 34.3391C17.3259 34.7297 16.6469 35.2983 16.125 35.9991L17.625 37.125C17.9727 36.6575 18.4253 36.2782 18.9463 36.0177C19.4674 35.7572 20.0424 35.6226 20.625 35.625ZM39.375 25.3125H41.25V33.75H39.375V25.3125ZM35.625 27.1875H37.5V33.75H35.625V27.1875Z" fill="url(#paint5_linear_2916_18)"/>
<defs>
<linearGradient id="paint0_linear_2916_18" x1="23.0156" y1="21.5627" x2="41.2479" y2="21.5627" gradientUnits="userSpaceOnUse">
<stop stop-color="#004D6E"/>
<stop offset="1" stop-color="#00ACCC"/>
</linearGradient>
<linearGradient id="paint1_linear_2916_18" x1="7.5" y1="27.1875" x2="58.125" y2="27.1875" gradientUnits="userSpaceOnUse">
<stop stop-color="#004D6E"/>
<stop offset="1" stop-color="#00ACCC"/>
</linearGradient>
<linearGradient id="paint2_linear_2916_18" x1="17.1562" y1="27.0478" x2="48.7509" y2="27.0478" gradientUnits="userSpaceOnUse">
<stop stop-color="#004D6E"/>
<stop offset="1" stop-color="#00ACCC"/>
</linearGradient>
<linearGradient id="paint3_linear_2916_18" x1="1.875" y1="42.188" x2="34.6877" y2="42.188" gradientUnits="userSpaceOnUse">
<stop stop-color="#004D6E"/>
<stop offset="1" stop-color="#00ACCC"/>
</linearGradient>
<linearGradient id="paint4_linear_2916_18" x1="10.3125" y1="40.3125" x2="30.9375" y2="40.3125" gradientUnits="userSpaceOnUse">
<stop stop-color="#004D6E"/>
<stop offset="1" stop-color="#00ACCC"/>
</linearGradient>
<linearGradient id="paint5_linear_2916_18" x1="16.125" y1="31.2187" x2="41.25" y2="31.2187" gradientUnits="userSpaceOnUse">
<stop stop-color="#004D6E"/>
<stop offset="1" stop-color="#00ACCC"/>
</linearGradient>
</defs>
</svg>
