<svg width="60" height="60" viewBox="0 0 60 60" fill="none" xmlns="http://www.w3.org/2000/svg">
<path d="M48.75 58.125C48.9986 58.125 49.2371 58.0262 49.4129 57.8504C49.5887 57.6746 49.6875 57.4361 49.6875 57.1875V45.9375C49.6875 45.6889 49.5887 45.4504 49.4129 45.2746C49.2371 45.0988 48.9986 45 48.75 45H44.0625C43.8139 45 43.5754 45.0988 43.3996 45.2746C43.2238 45.4504 43.125 45.6889 43.125 45.9375V57.1875C43.125 57.4361 43.2238 57.6746 43.3996 57.8504C43.5754 58.0262 43.8139 58.125 44.0625 58.125H48.75ZM45 46.875H47.8125V56.25H45V46.875ZM41.25 57.1875V49.6875C41.25 49.4389 41.1512 49.2004 40.9754 49.0246C40.7996 48.8488 40.5611 48.75 40.3125 48.75H35.625C35.3764 48.75 35.1379 48.8488 34.9621 49.0246C34.7863 49.2004 34.6875 49.4389 34.6875 49.6875V57.1875C34.6875 57.4361 34.7863 57.6746 34.9621 57.8504C35.1379 58.0262 35.3764 58.125 35.625 58.125H40.3125C40.5611 58.125 40.7996 58.0262 40.9754 57.8504C41.1512 57.6746 41.25 57.4361 41.25 57.1875ZM39.375 56.25H36.5625V50.625H39.375V56.25ZM57.1875 40.3125H52.5C52.2514 40.3125 52.0129 40.4113 51.8371 40.5871C51.6613 40.7629 51.5625 41.0014 51.5625 41.25V57.1875C51.5625 57.4361 51.6613 57.6746 51.8371 57.8504C52.0129 58.0262 52.2514 58.125 52.5 58.125H57.1875C57.4361 58.125 57.6746 58.0262 57.8504 57.8504C58.0262 57.6746 58.125 57.4361 58.125 57.1875V41.25C58.125 41.0014 58.0262 40.7629 57.8504 40.5871C57.6746 40.4113 57.4361 40.3125 57.1875 40.3125ZM56.25 56.25H53.4375V42.1875H56.25V56.25ZM23.4375 20.625C22.9209 20.625 22.5 20.205 22.5 19.6875H20.625C20.625 20.9081 21.4116 21.9394 22.5 22.3275V23.4375H24.375V22.3275C24.9218 22.1348 25.3955 21.7776 25.7312 21.3049C26.0669 20.8322 26.2481 20.2673 26.25 19.6875C26.25 18.1369 24.9881 16.875 23.4375 16.875C23.1961 16.8642 22.9682 16.7607 22.8012 16.5861C22.6342 16.4114 22.541 16.1791 22.541 15.9375C22.541 15.6959 22.6342 15.4636 22.8012 15.2889C22.9682 15.1143 23.1961 15.0108 23.4375 15C23.9541 15 24.375 15.42 24.375 15.9375H26.25C26.2481 15.3577 26.0669 14.7928 25.7312 14.3201C25.3955 13.8474 24.9218 13.4902 24.375 13.2975V12.1875H22.5V13.2975C21.9532 13.4902 21.4795 13.8474 21.1438 14.3201C20.8081 14.7928 20.6269 15.3577 20.625 15.9375C20.625 17.4881 21.8869 18.75 23.4375 18.75C23.6789 18.7608 23.9068 18.8643 24.0738 19.0389C24.2408 19.2136 24.334 19.4459 24.334 19.6875C24.334 19.9291 24.2408 20.1614 24.0738 20.3361C23.9068 20.5107 23.6789 20.6142 23.4375 20.625ZM22.5 1.875H24.375V6.5625H22.5V1.875ZM40.3125 20.625H45V22.5H40.3125V20.625ZM1.875 20.625H6.5625V22.5H1.875V20.625ZM7.27969 8.16375L8.60531 6.83813L11.9194 10.1522L10.5938 11.4778L7.27969 8.16375Z" fill="url(#paint0_linear_2916_11)"/>
<path d="M28.1259 50.6248H28.2468C28.9604 50.624 29.6446 50.3402 30.1492 49.8356C30.6538 49.331 30.9376 48.6468 30.9384 47.9332V47.6913C30.9384 47.2263 30.809 46.7951 30.6 46.4126C30.9913 46.1578 31.3129 45.8095 31.5357 45.3991C31.7585 44.9887 31.8754 44.5292 31.8759 44.0623C31.8759 43.2345 31.5093 42.4966 30.9384 41.981V37.9498C30.9384 37.0385 31.3612 36.1976 32.069 35.6998C34.0346 34.3147 35.6389 32.4781 36.7473 30.3443C37.8556 28.2105 38.4356 25.8418 38.4384 23.4373C38.4384 19.2991 36.7903 15.446 33.7959 12.5876C30.8034 9.73008 26.865 8.26477 22.7287 8.45414C15.0281 8.81039 8.75714 15.1235 8.45058 22.827C8.34554 25.3375 8.87462 27.834 9.98896 30.0861C11.1033 32.3382 12.767 34.2734 14.8265 35.7129C15.5231 36.2013 15.9384 37.0385 15.9384 37.9516V41.981C15.3675 42.4957 15.0009 43.2345 15.0009 44.0623C15.0009 45.0457 15.51 45.9101 16.2768 46.4126C16.0579 46.8034 15.9415 47.2433 15.9384 47.6913V47.9332C15.9391 48.6468 16.2229 49.331 16.7276 49.8356C17.2322 50.3402 17.9163 50.624 18.63 50.6248H18.7509C18.7509 53.2094 20.8537 55.3123 23.4384 55.3123C26.0231 55.3123 28.1259 53.2094 28.1259 50.6248ZM15.9037 34.1782C14.1014 32.9185 12.6455 31.2251 11.6703 29.2543C10.6951 27.2836 10.232 25.0989 10.3237 22.902C10.5918 16.1623 16.079 10.6385 22.8149 10.3273C24.591 10.2347 26.3672 10.5079 28.0334 11.1299C29.6996 11.7519 31.2203 12.7094 32.5012 13.9432C33.7903 15.1647 34.8158 16.6372 35.5144 18.27C36.213 19.9028 36.57 21.6613 36.5634 23.4373C36.5634 27.6963 34.4793 31.7079 30.989 34.167C29.7834 35.0163 29.0634 36.4291 29.0634 37.9498V41.2498H24.3759V35.9088L25.815 33.7498H27.1884C29.7731 33.7498 31.8759 31.647 31.8759 29.0623V27.1873C31.8759 26.9386 31.7771 26.7002 31.6013 26.5244C31.4255 26.3485 31.187 26.2498 30.9384 26.2498H29.0634C26.4787 26.2498 24.3759 28.3526 24.3759 30.9373V32.5282L23.4384 33.9345L22.5009 32.5282V30.9373C22.5009 28.3526 20.3981 26.2498 17.8134 26.2498H15.9384C15.6897 26.2498 15.4513 26.3485 15.2755 26.5244C15.0997 26.7002 15.0009 26.9386 15.0009 27.1873V29.0623C15.0009 31.647 17.1037 33.7498 19.6884 33.7498H21.0618L22.5009 35.9088V41.2498H17.8134V37.9516C17.8134 36.4273 17.099 35.0173 15.9037 34.1782ZM26.2509 31.8748V30.9373C26.2509 29.3866 27.5128 28.1248 29.0634 28.1248H30.0009V29.0623C30.0009 30.6129 28.739 31.8748 27.1884 31.8748H26.2509ZM20.6259 30.9373V31.8748H19.6884C18.1378 31.8748 16.8759 30.6129 16.8759 29.0623V28.1248H17.8134C19.364 28.1248 20.6259 29.3866 20.6259 30.9373ZM16.8759 44.0623C16.8759 43.5448 17.2968 43.1248 17.8134 43.1248H29.0634C29.3048 43.1356 29.5327 43.2391 29.6997 43.4137C29.8667 43.5883 29.9599 43.8206 29.9599 44.0623C29.9599 44.3039 29.8667 44.5362 29.6997 44.7108C29.5327 44.8855 29.3048 44.989 29.0634 44.9998H17.8134C17.2968 44.9998 16.8759 44.5798 16.8759 44.0623ZM18.63 48.7498C18.4135 48.7495 18.2059 48.6634 18.0528 48.5103C17.8997 48.3572 17.8136 48.1497 17.8134 47.9332V47.6913C17.8134 47.2413 18.18 46.8748 18.63 46.8748H28.2478C28.6968 46.8748 29.0634 47.2413 29.0634 47.6913V47.9332C29.0634 48.3832 28.6968 48.7498 28.2468 48.7498H18.63ZM20.6259 50.6248H26.2509C26.2509 52.1754 24.989 53.4373 23.4384 53.4373C21.8878 53.4373 20.6259 52.1754 20.6259 50.6248ZM34.7024 10.152L38.0165 6.83789L39.3421 8.16352L36.0281 11.4776L34.7024 10.152ZM34.6725 40.3123L34.6884 42.1873C35.369 42.1873 38.8453 41.3004 41.6418 40.557C44.5575 39.7816 46.7437 38.6538 50.0521 36.9457L53.1609 35.0229L54.5334 37.0816C54.6305 37.2281 54.7668 37.3442 54.9268 37.4169C55.0867 37.4895 55.2639 37.5157 55.438 37.4924C55.6122 37.4692 55.7763 37.3974 55.9115 37.2853C56.0468 37.1732 56.1479 37.0253 56.2031 36.8585L58.0781 31.2335C58.1252 31.0926 58.1382 30.9424 58.1158 30.7955C58.0935 30.6486 58.0365 30.5091 57.9496 30.3885C57.8626 30.268 57.7483 30.1699 57.6159 30.1023C57.4836 30.0347 57.337 29.9995 57.1884 29.9998H51.5634C51.3938 29.9999 51.2274 30.0459 51.082 30.1331C50.9365 30.2203 50.8174 30.3453 50.7374 30.4948C50.6573 30.6443 50.6193 30.8127 50.6274 30.9821C50.6355 31.1514 50.6894 31.3155 50.7834 31.4566L52.1231 33.4666L49.3921 35.1757L49.1925 35.2788C45.8793 36.9888 43.8796 38.021 41.1609 38.7429C37.3987 39.7451 35.0493 40.2907 34.6725 40.3123ZM55.8881 31.8748L55.0303 34.4473L53.3156 31.8748H55.8881Z" fill="url(#paint1_linear_2916_11)"/>
<defs>
<linearGradient id="paint0_linear_2916_11" x1="1.875" y1="30" x2="58.125" y2="30" gradientUnits="userSpaceOnUse">
<stop stop-color="#004D6E"/>
<stop offset="1" stop-color="#00ACCC"/>
</linearGradient>
<linearGradient id="paint1_linear_2916_11" x1="8.4375" y1="31.0751" x2="58.1265" y2="31.0751" gradientUnits="userSpaceOnUse">
<stop stop-color="#004D6E"/>
<stop offset="1" stop-color="#00ACCC"/>
</linearGradient>
</defs>
</svg>
