<svg width="153" height="16" viewBox="0 0 153 16" fill="none" xmlns="http://www.w3.org/2000/svg">
<path d="M152.354 8.35357C152.549 8.1583 152.549 7.84172 152.354 7.64646L149.172 4.46448C148.976 4.26922 148.66 4.26922 148.464 4.46448C148.269 4.65974 148.269 4.97632 148.464 5.17159L151.293 8.00001L148.464 10.8284C148.269 11.0237 148.269 11.3403 148.464 11.5355C148.66 11.7308 148.976 11.7308 149.172 11.5355L152.354 8.35357ZM3.8 8.5C4.07614 8.5 4.3 8.27614 4.3 8C4.3 7.72386 4.07614 7.5 3.8 7.5L3.8 8.5ZM11.4 7.5C11.1239 7.5 10.9 7.72386 10.9 8C10.9 8.27614 11.1239 8.5 11.4 8.5L11.4 7.5ZM19 8.5C19.2761 8.5 19.5 8.27614 19.5 8C19.5 7.72386 19.2761 7.5 19 7.5L19 8.5ZM26.6 7.5C26.3239 7.5 26.1 7.72386 26.1 8C26.1 8.27614 26.3239 8.5 26.6 8.5L26.6 7.5ZM34.2 8.5C34.4761 8.5 34.7 8.27615 34.7 8C34.7 7.72386 34.4761 7.5 34.2 7.5L34.2 8.5ZM41.8 7.5C41.5239 7.5 41.3 7.72386 41.3 8C41.3 8.27615 41.5239 8.5 41.8 8.5L41.8 7.5ZM49.4 8.5C49.6761 8.5 49.9 8.27615 49.9 8C49.9 7.72386 49.6761 7.5 49.4 7.5L49.4 8.5ZM57 7.5C56.7239 7.5 56.5 7.72386 56.5 8C56.5 8.27615 56.7239 8.5 57 8.5L57 7.5ZM64.6 8.50001C64.8761 8.50001 65.1 8.27615 65.1 8.00001C65.1 7.72386 64.8761 7.50001 64.6 7.50001L64.6 8.50001ZM72.2 7.50001C71.9239 7.50001 71.7 7.72386 71.7 8.00001C71.7 8.27615 71.9239 8.50001 72.2 8.50001L72.2 7.50001ZM79.8 8.50001C80.0761 8.50001 80.3 8.27615 80.3 8.00001C80.3 7.72386 80.0761 7.50001 79.8 7.50001L79.8 8.50001ZM87.4 7.50001C87.1239 7.50001 86.9 7.72387 86.9 8.00001C86.9 8.27615 87.1239 8.50001 87.4 8.50001L87.4 7.50001ZM95 8.50001C95.2761 8.50001 95.5 8.27615 95.5 8.00001C95.5 7.72387 95.2761 7.50001 95 7.50001L95 8.50001ZM102.6 7.50001C102.324 7.50001 102.1 7.72387 102.1 8.00001C102.1 8.27615 102.324 8.50001 102.6 8.50001L102.6 7.50001ZM110.2 8.50001C110.476 8.50001 110.7 8.27615 110.7 8.00001C110.7 7.72387 110.476 7.50001 110.2 7.50001L110.2 8.50001ZM117.8 7.50001C117.524 7.50001 117.3 7.72387 117.3 8.00001C117.3 8.27615 117.524 8.50001 117.8 8.50001L117.8 7.50001ZM125.4 8.50001C125.676 8.50001 125.9 8.27615 125.9 8.00001C125.9 7.72387 125.676 7.50001 125.4 7.50001L125.4 8.50001ZM133 7.50001C132.724 7.50001 132.5 7.72387 132.5 8.00001C132.5 8.27615 132.724 8.50001 133 8.50001L133 7.50001ZM140.6 8.50001C140.876 8.50001 141.1 8.27615 141.1 8.00001C141.1 7.72387 140.876 7.50001 140.6 7.50001L140.6 8.50001ZM148.2 7.50001C147.924 7.50001 147.7 7.72387 147.7 8.00001C147.7 8.27616 147.924 8.50001 148.2 8.50001L148.2 7.50001ZM-4.37114e-08 8.5L3.8 8.5L3.8 7.5L4.37114e-08 7.5L-4.37114e-08 8.5ZM11.4 8.5L19 8.5L19 7.5L11.4 7.5L11.4 8.5ZM26.6 8.5L34.2 8.5L34.2 7.5L26.6 7.5L26.6 8.5ZM41.8 8.5L49.4 8.5L49.4 7.5L41.8 7.5L41.8 8.5ZM57 8.5L64.6 8.50001L64.6 7.50001L57 7.5L57 8.5ZM72.2 8.50001L79.8 8.50001L79.8 7.50001L72.2 7.50001L72.2 8.50001ZM87.4 8.50001L95 8.50001L95 7.50001L87.4 7.50001L87.4 8.50001ZM102.6 8.50001L110.2 8.50001L110.2 7.50001L102.6 7.50001L102.6 8.50001ZM117.8 8.50001L125.4 8.50001L125.4 7.50001L117.8 7.50001L117.8 8.50001ZM133 8.50001L140.6 8.50001L140.6 7.50001L133 7.50001L133 8.50001ZM148.2 8.50001L152 8.50001L152 7.50001L148.2 7.50001L148.2 8.50001ZM152.707 8.70712C153.098 8.3166 153.098 7.68343 152.707 7.29291L146.343 0.928945C145.953 0.538421 145.319 0.538421 144.929 0.928945C144.538 1.31947 144.538 1.95263 144.929 2.34316L150.586 8.00001L144.929 13.6569C144.538 14.0474 144.538 14.6806 144.929 15.0711C145.319 15.4616 145.953 15.4616 146.343 15.0711L152.707 8.70712ZM3.8 9C4.35228 9 4.8 8.55229 4.8 8C4.8 7.44772 4.35228 7 3.8 7L3.8 9ZM11.4 7C10.8477 7 10.4 7.44772 10.4 8C10.4 8.55229 10.8477 9 11.4 9L11.4 7ZM19 9C19.5523 9 20 8.55229 20 8C20 7.44772 19.5523 7 19 7L19 9ZM26.6 7C26.0477 7 25.6 7.44772 25.6 8C25.6 8.55229 26.0477 9 26.6 9L26.6 7ZM34.2 9C34.7523 9 35.2 8.55229 35.2 8C35.2 7.44772 34.7523 7 34.2 7L34.2 9ZM41.8 7C41.2477 7 40.8 7.44772 40.8 8C40.8 8.55229 41.2477 9 41.8 9L41.8 7ZM49.4 9C49.9523 9 50.4 8.55229 50.4 8C50.4 7.44772 49.9523 7 49.4 7L49.4 9ZM57 7C56.4477 7 56 7.44772 56 8C56 8.55229 56.4477 9 57 9L57 7ZM64.6 9.00001C65.1523 9.00001 65.6 8.55229 65.6 8.00001C65.6 7.44772 65.1523 7.00001 64.6 7.00001L64.6 9.00001ZM72.2 7.00001C71.6477 7.00001 71.2 7.44772 71.2 8.00001C71.2 8.55229 71.6477 9.00001 72.2 9.00001L72.2 7.00001ZM79.8 9.00001C80.3523 9.00001 80.8 8.55229 80.8 8.00001C80.8 7.44772 80.3523 7.00001 79.8 7.00001L79.8 9.00001ZM87.4 7.00001C86.8477 7.00001 86.4 7.44772 86.4 8.00001C86.4 8.55229 86.8477 9.00001 87.4 9.00001L87.4 7.00001ZM95 9.00001C95.5523 9.00001 96 8.55229 96 8.00001C96 7.44772 95.5523 7.00001 95 7.00001L95 9.00001ZM102.6 7.00001C102.048 7.00001 101.6 7.44772 101.6 8.00001C101.6 8.55229 102.048 9.00001 102.6 9.00001L102.6 7.00001ZM110.2 9.00001C110.752 9.00001 111.2 8.55229 111.2 8.00001C111.2 7.44772 110.752 7.00001 110.2 7.00001L110.2 9.00001ZM117.8 7.00001C117.248 7.00001 116.8 7.44773 116.8 8.00001C116.8 8.55229 117.248 9.00001 117.8 9.00001L117.8 7.00001ZM125.4 9.00001C125.952 9.00001 126.4 8.5523 126.4 8.00001C126.4 7.44773 125.952 7.00001 125.4 7.00001L125.4 9.00001ZM133 7.00001C132.448 7.00001 132 7.44773 132 8.00001C132 8.5523 132.448 9.00001 133 9.00001L133 7.00001ZM140.6 9.00001C141.152 9.00001 141.6 8.5523 141.6 8.00001C141.6 7.44773 141.152 7.00001 140.6 7.00001L140.6 9.00001ZM148.2 7.00001C147.648 7.00001 147.2 7.44773 147.2 8.00001C147.2 8.5523 147.648 9.00001 148.2 9.00001L148.2 7.00001ZM-8.74228e-08 9L3.8 9L3.8 7L8.74228e-08 7L-8.74228e-08 9ZM11.4 9L19 9L19 7L11.4 7L11.4 9ZM26.6 9L34.2 9L34.2 7L26.6 7L26.6 9ZM41.8 9L49.4 9L49.4 7L41.8 7L41.8 9ZM57 9L64.6 9.00001L64.6 7.00001L57 7L57 9ZM72.2 9.00001L79.8 9.00001L79.8 7.00001L72.2 7.00001L72.2 9.00001ZM87.4 9.00001L95 9.00001L95 7.00001L87.4 7.00001L87.4 9.00001ZM102.6 9.00001L110.2 9.00001L110.2 7.00001L102.6 7.00001L102.6 9.00001ZM117.8 9.00001L125.4 9.00001L125.4 7.00001L117.8 7.00001L117.8 9.00001ZM133 9.00001L140.6 9.00001L140.6 7.00001L133 7.00001L133 9.00001ZM148.2 9.00001L152 9.00001L152 7.00001L148.2 7.00001L148.2 9.00001Z" fill="#E3E3E3"/>
</svg>
