<svg width="41" height="42" viewBox="0 0 41 42" fill="none" xmlns="http://www.w3.org/2000/svg">
<path d="M38.3363 19.0013H38.3197C38.188 15.1606 36.8757 11.4538 34.5616 8.38573C32.2475 5.31764 29.044 3.03735 25.3874 1.85536C21.7307 0.673373 17.7986 0.64713 14.1265 1.78021C10.4544 2.91329 7.22077 5.15062 4.86592 8.18754C2.51108 11.2245 1.14947 14.9134 0.966515 18.752C0.783561 22.5906 1.78815 26.3922 3.84349 29.6394C5.89883 32.8865 8.90502 35.4212 12.4527 36.8984C16.0004 38.3756 19.9172 38.7234 23.6697 37.8946V39.3866C23.6691 39.6666 23.7414 39.9418 23.8795 40.1854C24.0176 40.4289 24.2167 40.6323 24.4573 40.7754C24.6979 40.9186 24.9716 40.9966 25.2515 41.0019C25.5315 41.0071 25.8079 40.9393 26.0537 40.8053L31.839 37.6679H38.3363C39.0436 37.6679 39.7219 37.387 40.222 36.8869C40.7221 36.3868 41.003 35.7085 41.003 35.0013V21.6679C41.003 20.9607 40.7221 20.2824 40.222 19.7823C39.7219 19.2822 39.0436 19.0013 38.3363 19.0013ZM36.9863 19.0013H34.7097C35.2301 17.4573 35.7172 15.9128 36.171 14.3679C36.6533 15.8678 36.9277 17.4268 36.9863 19.0013ZM35.3763 12.3486C34.7477 14.5844 34.0585 16.8028 33.3097 19.0013H22.3363C21.9603 19.0023 21.5887 19.0834 21.2464 19.2391C20.9041 19.3949 20.5989 19.6217 20.351 19.9046C19.879 19.211 19.6403 18.385 19.6697 17.5466C19.7351 16.4846 20.2075 15.4888 20.9885 14.7664C21.7696 14.0439 22.7992 13.6505 23.863 13.6679H27.5963C28.1055 13.6754 28.5993 13.493 28.9813 13.1563C29.3634 12.8196 29.6064 12.3527 29.663 11.8466C29.6833 11.5708 29.647 11.2938 29.5564 11.0326C29.4658 10.7714 29.3228 10.5314 29.1362 10.3274C28.9495 10.1234 28.7232 9.95966 28.471 9.84626C28.2188 9.73286 27.9461 9.67218 27.6697 9.66793H23.1697C22.9033 9.66742 22.6417 9.59641 22.4116 9.46211C22.1816 9.3278 21.9911 9.13499 21.8597 8.90326C21.736 8.69253 21.6721 8.45204 21.6749 8.2077C21.6777 7.96336 21.7471 7.72441 21.8757 7.51659L21.885 7.49926C21.9837 7.32993 23.6543 4.54459 24.5557 3.04059C26.9146 3.73934 29.0987 4.93018 30.9638 6.5346C32.829 8.13901 34.3329 10.1206 35.3763 12.3486ZM7.85501 7.00126H10.3697C10.6191 7.0049 10.8623 7.08025 11.0701 7.21832C11.2779 7.35639 11.4416 7.55135 11.5417 7.77993C11.6519 8.00432 11.6937 8.25615 11.6619 8.50411C11.6301 8.75206 11.5262 8.98522 11.363 9.17459L7.04767 14.2099C6.53787 14.8109 6.2575 15.5731 6.25634 16.3613C6.25563 16.8844 6.0475 17.3859 5.67758 17.7558C5.30766 18.1258 4.80615 18.3339 4.28301 18.3346H2.39301C2.72562 14.0049 4.67553 9.95894 7.85501 7.00126ZM4.29567 27.6586L5.59234 24.7346C5.71751 24.4661 5.90611 24.2321 6.14189 24.0528C6.37766 23.8735 6.65352 23.7542 6.94567 23.7053C7.23688 23.6455 7.53826 23.6575 7.82377 23.7403C8.10928 23.8232 8.37032 23.9743 8.58434 24.1806C8.97656 24.6049 9.46393 24.9301 10.0063 25.1293L13.1737 26.1833C13.706 26.3593 14.1693 26.6987 14.4977 27.1531C14.8261 27.6075 15.0029 28.1539 15.003 28.7146V31.1213C15.0032 31.3808 14.9396 31.6364 14.8179 31.8656C14.6962 32.0948 14.5201 32.2907 14.305 32.4359C13.902 32.699 13.5711 33.0588 13.3426 33.4823C13.114 33.9059 12.995 34.3799 12.9963 34.8613C12.9963 34.8613 12.9963 35.2126 12.9963 35.6613C9.2527 34.0883 6.1755 31.2579 4.29567 27.6586ZM14.3363 36.1573C14.333 35.4946 14.333 34.8619 14.333 34.8613C14.3321 34.6012 14.3964 34.3451 14.5199 34.1162C14.6435 33.8874 14.8224 33.6932 15.0403 33.5513C15.4409 33.2854 15.769 32.9241 15.9953 32.5C16.2215 32.0758 16.3387 31.602 16.3363 31.1213V28.7146C16.3369 27.8732 16.0722 27.0531 15.5798 26.3709C15.0874 25.6887 14.3924 25.1791 13.5937 24.9146L10.425 23.8613C10.0824 23.7238 9.77553 23.5102 9.52767 23.2366C9.16068 22.877 8.71165 22.6122 8.2194 22.4651C7.72715 22.3179 7.20647 22.2928 6.70234 22.3919C6.19719 22.4803 5.72117 22.6904 5.31543 23.004C4.9097 23.3176 4.58646 23.7253 4.37367 24.1919L3.55501 26.0393C2.74912 24.0118 2.33557 21.8497 2.33634 19.6679H4.28301C5.15966 19.6669 6.00011 19.3181 6.62 18.6983C7.23989 18.0784 7.58861 17.2379 7.58967 16.3613C7.59024 15.8899 7.75796 15.434 8.06301 15.0746L12.3763 10.0413C12.6985 9.65463 12.9046 9.18473 12.971 8.68587C13.0374 8.18701 12.9612 7.67956 12.7513 7.22216C12.5414 6.76476 12.2064 6.37609 11.785 6.10106C11.3635 5.82602 10.8729 5.67586 10.3697 5.66793H9.46967C11.4246 4.23907 13.6577 3.23647 16.0245 2.72499C18.3913 2.2135 20.8392 2.2045 23.2097 2.69859C21.5583 5.45259 20.9657 6.44459 20.7563 6.84526L20.7343 6.83193C20.4852 7.24226 20.3509 7.71197 20.3454 8.19197C20.3399 8.67198 20.4634 9.14465 20.703 9.56059C20.9507 9.99682 21.3093 10.3598 21.7425 10.6128C22.1757 10.8658 22.668 10.9998 23.1697 11.0013H27.6697C27.7607 11.0036 27.8502 11.0248 27.9325 11.0635C28.0149 11.1021 28.0884 11.1574 28.1483 11.2259C28.2124 11.2928 28.2619 11.3722 28.2936 11.4592C28.3252 11.5462 28.3384 11.6389 28.3323 11.7313C28.3041 11.9037 28.2142 12.06 28.0792 12.171C27.9443 12.282 27.7736 12.3401 27.599 12.3346H23.8657C22.4547 12.3181 21.0919 12.8471 20.0616 13.8113C19.0313 14.7755 18.4132 16.1003 18.3363 17.5093C18.2982 18.8815 18.7916 20.2155 19.7137 21.2326C19.6871 21.3763 19.6724 21.5219 19.6697 21.6679V35.0013C19.6706 35.3737 19.7501 35.7418 19.9029 36.0814C20.0556 36.4211 20.2783 36.7248 20.5563 36.9726C20.261 36.9873 19.9657 37.0013 19.6697 37.0013C17.8586 37.0012 16.0589 36.7164 14.3363 36.1573ZM39.6697 35.0013C39.6697 35.3549 39.5292 35.694 39.2792 35.9441C39.0291 36.1941 38.69 36.3346 38.3363 36.3346H31.6697C31.5586 36.3347 31.4494 36.3625 31.3517 36.4153L25.4183 39.6333C25.3755 39.6568 25.3273 39.6686 25.2784 39.6674C25.2296 39.6662 25.182 39.6521 25.1403 39.6266C25.0981 39.6025 25.0631 39.5676 25.0389 39.5253C25.0147 39.4831 25.0024 39.4352 25.003 39.3866V37.0013C25.003 36.8244 24.9328 36.6549 24.8077 36.5299C24.6827 36.4048 24.5132 36.3346 24.3363 36.3346H22.3363C21.9827 36.3346 21.6436 36.1941 21.3935 35.9441C21.1435 35.694 21.003 35.3549 21.003 35.0013V21.6679C21.003 21.3143 21.1435 20.9752 21.3935 20.7251C21.6436 20.4751 21.9827 20.3346 22.3363 20.3346H38.3363C38.69 20.3346 39.0291 20.4751 39.2792 20.7251C39.5292 20.9752 39.6697 21.3143 39.6697 21.6679V35.0013Z" fill="url(#paint0_linear_3075_18)"/>
<path d="M37.6693 27.6693H23.0026C22.8258 27.6693 22.6562 27.7395 22.5312 27.8645C22.4062 27.9896 22.3359 28.1591 22.3359 28.3359C22.3359 28.5127 22.4062 28.6823 22.5312 28.8073C22.6562 28.9324 22.8258 29.0026 23.0026 29.0026H37.6693C37.8461 29.0026 38.0157 28.9324 38.1407 28.8073C38.2657 28.6823 38.3359 28.5127 38.3359 28.3359C38.3359 28.1591 38.2657 27.9896 38.1407 27.8645C38.0157 27.7395 37.8461 27.6693 37.6693 27.6693ZM23.0026 26.3359H32.3359C32.5127 26.3359 32.6823 26.2657 32.8073 26.1407C32.9324 26.0157 33.0026 25.8461 33.0026 25.6693C33.0026 25.4925 32.9324 25.3229 32.8073 25.1979C32.6823 25.0728 32.5127 25.0026 32.3359 25.0026H23.0026C22.8258 25.0026 22.6562 25.0728 22.5312 25.1979C22.4062 25.3229 22.3359 25.4925 22.3359 25.6693C22.3359 25.8461 22.4062 26.0157 22.5312 26.1407C22.6562 26.2657 22.8258 26.3359 23.0026 26.3359ZM37.6693 25.0026H35.0026C34.8258 25.0026 34.6562 25.0728 34.5312 25.1979C34.4062 25.3229 34.3359 25.4925 34.3359 25.6693C34.3359 25.8461 34.4062 26.0157 34.5312 26.1407C34.6562 26.2657 34.8258 26.3359 35.0026 26.3359H37.6693C37.8461 26.3359 38.0157 26.2657 38.1407 26.1407C38.2657 26.0157 38.3359 25.8461 38.3359 25.6693C38.3359 25.4925 38.2657 25.3229 38.1407 25.1979C38.0157 25.0728 37.8461 25.0026 37.6693 25.0026ZM31.0026 33.0026H23.0026C22.8258 33.0026 22.6562 33.0728 22.5312 33.1979C22.4062 33.3229 22.3359 33.4925 22.3359 33.6693C22.3359 33.8461 22.4062 34.0157 22.5312 34.1407C22.6562 34.2657 22.8258 34.3359 23.0026 34.3359H31.0026C31.1794 34.3359 31.349 34.2657 31.474 34.1407C31.599 34.0157 31.6693 33.8461 31.6693 33.6693C31.6693 33.4925 31.599 33.3229 31.474 33.1979C31.349 33.0728 31.1794 33.0026 31.0026 33.0026ZM23.0026 31.6693H24.3359C24.5127 31.6693 24.6823 31.599 24.8073 31.474C24.9324 31.349 25.0026 31.1794 25.0026 31.0026C25.0026 30.8258 24.9324 30.6562 24.8073 30.5312C24.6823 30.4062 24.5127 30.3359 24.3359 30.3359H23.0026C22.8258 30.3359 22.6562 30.4062 22.5312 30.5312C22.4062 30.6562 22.3359 30.8258 22.3359 31.0026C22.3359 31.1794 22.4062 31.349 22.5312 31.474C22.6562 31.599 22.8258 31.6693 23.0026 31.6693ZM37.6693 30.3359H27.0026C26.8258 30.3359 26.6562 30.4062 26.5312 30.5312C26.4062 30.6562 26.3359 30.8258 26.3359 31.0026C26.3359 31.1794 26.4062 31.349 26.5312 31.474C26.6562 31.599 26.8258 31.6693 27.0026 31.6693H37.6693C37.8461 31.6693 38.0157 31.599 38.1407 31.474C38.2657 31.349 38.3359 31.1794 38.3359 31.0026C38.3359 30.8258 38.2657 30.6562 38.1407 30.5312C38.0157 30.4062 37.8461 30.3359 37.6693 30.3359ZM37.6693 22.3359H23.0026C22.8258 22.3359 22.6562 22.4062 22.5312 22.5312C22.4062 22.6562 22.3359 22.8258 22.3359 23.0026C22.3359 23.1794 22.4062 23.349 22.5312 23.474C22.6562 23.599 22.8258 23.6693 23.0026 23.6693H37.6693C37.8461 23.6693 38.0157 23.599 38.1407 23.474C38.2657 23.349 38.3359 23.1794 38.3359 23.0026C38.3359 22.8258 38.2657 22.6562 38.1407 22.5312C38.0157 22.4062 37.8461 22.3359 37.6693 22.3359Z" fill="url(#paint1_linear_3075_18)"/>
<defs>
<linearGradient id="paint0_linear_3075_18" x1="0.945312" y1="20.9757" x2="41.003" y2="20.9757" gradientUnits="userSpaceOnUse">
<stop stop-color="#004D6E"/>
<stop offset="1" stop-color="#00ACCC"/>
</linearGradient>
<linearGradient id="paint1_linear_3075_18" x1="22.3359" y1="28.3359" x2="38.3359" y2="28.3359" gradientUnits="userSpaceOnUse">
<stop stop-color="#004D6E"/>
<stop offset="1" stop-color="#00ACCC"/>
</linearGradient>
</defs>
</svg>
