<svg width="40" height="41" viewBox="0 0 40 41" fill="none" xmlns="http://www.w3.org/2000/svg">
<path d="M3.33333 39.0001H19.678C22.1833 40.5511 25.1322 41.2271 28.0629 40.9224C30.9936 40.6177 33.7404 39.3494 35.873 37.3163C38.0056 35.2832 39.4036 32.6 39.8478 29.6873C40.2921 26.7745 39.7576 23.7966 38.328 21.2201L39.6247 19.9248C39.7682 19.781 39.8754 19.605 39.9372 19.4114C39.9991 19.2179 40.0138 19.0123 39.9801 18.8119C39.9465 18.6115 39.8654 18.422 39.7438 18.2593C39.6221 18.0965 39.4633 17.9652 39.2807 17.8761L39.4067 17.7495C39.6865 17.4703 39.8774 17.1145 39.9552 16.7269C40.0329 16.3394 39.9941 15.9374 39.8436 15.5719C39.6931 15.2064 39.4376 14.8937 39.1095 14.6733C38.7814 14.4529 38.3953 14.3346 38 14.3335C37.7373 14.3328 37.477 14.3848 37.2346 14.4862C36.9923 14.5876 36.7726 14.7365 36.5887 14.9241L36.4593 15.0535C36.3703 14.8707 36.2388 14.7118 36.0759 14.5901C35.9131 14.4683 35.7235 14.3872 35.5229 14.3536C35.3224 14.3199 35.1167 14.3347 34.923 14.3966C34.7293 14.4585 34.5532 14.5658 34.4093 14.7095L33.1133 16.0055C31.5356 15.1296 29.7956 14.5852 28 14.4055V7.66681C27.9989 6.78308 27.6474 5.93585 27.0225 5.31096C26.3976 4.68607 25.5504 4.33454 24.6667 4.33348H19.8147C19.6986 4.13145 19.5314 3.96351 19.3299 3.8465C19.1284 3.72948 18.8997 3.66752 18.6667 3.66681H17.7727C17.4975 2.88595 16.9869 2.20971 16.3112 1.73135C15.6354 1.25299 14.8279 0.996094 14 0.996094C13.1721 0.996094 12.3646 1.25299 11.6888 1.73135C11.0131 2.20971 10.5025 2.88595 10.2273 3.66681H9.33333C9.10033 3.66752 8.8716 3.72948 8.6701 3.8465C8.46861 3.96351 8.30143 4.13145 8.18533 4.33348H3.33333C2.4496 4.33454 1.60237 4.68607 0.97748 5.31096C0.352588 5.93585 0.00105857 6.78308 0 7.66681L0 35.6668C0.00105857 36.5505 0.352588 37.3978 0.97748 38.0227C1.60237 38.6476 2.4496 38.9991 3.33333 39.0001ZM26.6667 39.6668C24.8494 39.6672 23.0557 39.2547 21.421 38.4607C19.7864 37.6666 18.3534 36.5116 17.2303 35.0829C16.1072 33.6542 15.3233 31.9891 14.9376 30.2131C14.552 28.4372 14.5748 26.5969 15.0042 24.831C15.4337 23.0652 16.2586 21.42 17.4168 20.0195C18.5749 18.619 20.036 17.4998 21.6898 16.7465C23.3436 15.9931 25.1469 15.6252 26.9637 15.6705C28.7804 15.7159 30.5632 16.1732 32.1773 17.0081C32.0623 17.2016 32.001 17.4224 32 17.6475V19.5108L31.2133 20.2975C29.8499 19.4462 28.2741 18.9965 26.6667 19.0001C24.9526 19.0001 23.277 19.5084 21.8517 20.4607C20.4265 21.413 19.3157 22.7666 18.6597 24.3502C18.0038 25.9339 17.8321 27.6764 18.1665 29.3576C18.5009 31.0388 19.3264 32.583 20.5384 33.7951C21.7505 35.0071 23.2947 35.8326 24.9759 36.167C26.6571 36.5014 28.3996 36.3297 29.9833 35.6738C31.5669 35.0178 32.9204 33.907 33.8727 32.4818C34.825 31.0565 35.3333 29.3809 35.3333 27.6668C35.337 26.0594 34.8873 24.4836 34.036 23.1201L34.8227 22.3335H36.6893C36.9144 22.3325 37.1352 22.2712 37.3287 22.1561C38.2744 23.9855 38.7334 26.0275 38.6615 28.0856C38.5896 30.1437 37.9893 32.1487 36.9183 33.9076C35.8473 35.6665 34.3417 37.1203 32.5462 38.1289C30.7508 39.1376 28.726 39.6672 26.6667 39.6668ZM34 27.6668C34 29.1172 33.5699 30.535 32.7641 31.741C31.9583 32.947 30.813 33.8869 29.473 34.4419C28.133 34.997 26.6585 35.1422 25.236 34.8592C23.8135 34.5763 22.5068 33.8778 21.4812 32.8523C20.4556 31.8267 19.7572 30.52 19.4742 29.0975C19.1913 27.6749 19.3365 26.2005 19.8916 24.8605C20.4466 23.5205 21.3865 22.3752 22.5925 21.5694C23.7984 20.7636 25.2163 20.3335 26.6667 20.3335C27.9187 20.3315 29.1498 20.6547 30.2393 21.2715L27.692 23.8175C27.3584 23.7223 27.0136 23.6716 26.6667 23.6668C25.8755 23.6668 25.1022 23.9014 24.4444 24.3409C23.7866 24.7805 23.2739 25.4052 22.9711 26.1361C22.6684 26.867 22.5892 27.6713 22.7435 28.4472C22.8979 29.2231 23.2788 29.9358 23.8382 30.4952C24.3976 31.0547 25.1104 31.4356 25.8863 31.59C26.6622 31.7443 27.4665 31.6651 28.1974 31.3623C28.9283 31.0596 29.553 30.5469 29.9925 29.8891C30.4321 29.2313 30.6667 28.4579 30.6667 27.6668C30.662 27.3196 30.6111 26.9746 30.5153 26.6408L33.062 24.0941C33.6787 25.1837 34.0019 26.4148 34 27.6668ZM25.9227 28.4121C26.1073 28.5986 26.3271 28.7466 26.5693 28.8476C26.8115 28.9486 27.0713 29.0006 27.3337 29.0006C27.5961 29.0006 27.8559 28.9486 28.0981 28.8476C28.3402 28.7466 28.56 28.5986 28.7447 28.4121L29.316 27.8415C29.2837 28.3524 29.1047 28.8431 28.8004 29.2547C28.4962 29.6664 28.0797 29.9816 27.6008 30.1625C27.122 30.3434 26.6011 30.3823 26.1006 30.2745C25.6002 30.1668 25.1415 29.917 24.7795 29.5551C24.4175 29.1931 24.1676 28.7345 24.0597 28.2341C23.9519 27.7337 23.9906 27.2128 24.1714 26.7339C24.3522 26.255 24.6673 25.8384 25.0789 25.534C25.4905 25.2297 25.9811 25.0506 26.492 25.0181L25.9247 25.5861C25.737 25.7706 25.588 25.9906 25.4863 26.2332C25.3846 26.4759 25.3322 26.7364 25.3322 26.9995C25.3322 27.2626 25.3846 27.5231 25.4863 27.7657C25.588 28.0084 25.737 28.2284 25.9247 28.4128L25.9227 28.4121ZM27.8 27.4668C27.6751 27.5912 27.506 27.661 27.3297 27.661C27.1534 27.661 26.9843 27.5912 26.8593 27.4668C26.7966 27.4064 26.7467 27.3339 26.7126 27.2537C26.6785 27.1735 26.6609 27.0873 26.6609 27.0001C26.6609 26.913 26.6785 26.8268 26.7126 26.7466C26.7467 26.6664 26.7966 26.5939 26.8593 26.5335L32.034 21.3588C32.0896 21.5858 32.2064 21.7932 32.3716 21.9585C32.5369 22.1238 32.7443 22.2406 32.9713 22.2961L27.8 27.4668ZM38 15.6708C38.1305 15.6726 38.2576 15.7127 38.3655 15.7861C38.4734 15.8595 38.5574 15.9629 38.6071 16.0836C38.6568 16.2042 38.67 16.3368 38.645 16.4649C38.62 16.593 38.558 16.711 38.4667 16.8041L37.6907 17.5801L36.9147 17.4668L36.774 16.6248L37.5333 15.8668C37.5941 15.8047 37.6667 15.7553 37.7469 15.7217C37.827 15.688 37.9131 15.6707 38 15.6708ZM35.2667 15.6935L35.6 17.6835C35.644 17.946 35.7687 18.1883 35.957 18.3765C36.1452 18.5647 36.3875 18.6895 36.65 18.7335L38.604 19.0595L36.686 21.0001H33.3333L33.3173 17.6868L35.2667 15.6935ZM26.6667 7.66681V14.3335C26.2167 14.3335 25.772 14.3575 25.3333 14.4001V8.33348C25.3333 7.97986 25.1929 7.64072 24.9428 7.39067C24.6928 7.14062 24.3536 7.00015 24 7.00015H20V5.66681H24.6667C25.1971 5.66681 25.7058 5.87753 26.0809 6.2526C26.456 6.62767 26.6667 7.13638 26.6667 7.66681ZM9.33333 5.00015H10.7333C10.8871 5.00033 11.0363 4.94733 11.1555 4.85013C11.2747 4.75293 11.3566 4.61751 11.3873 4.46681C11.5104 3.86471 11.8376 3.32358 12.3137 2.93496C12.7898 2.54634 13.3855 2.33408 14 2.33408C14.6146 2.33408 15.2102 2.54634 15.6863 2.93496C16.1624 3.32358 16.4896 3.86471 16.6127 4.46681C16.6434 4.61751 16.7253 4.75293 16.8445 4.85013C16.9637 4.94733 17.1129 5.00033 17.2667 5.00015H18.6667V7.66681H9.33333V5.00015ZM18.6667 9.00015C18.8997 8.99944 19.1284 8.93748 19.3299 8.82047C19.5314 8.70345 19.6986 8.53551 19.8147 8.33348H24V14.6001C20.8128 15.26 17.9767 17.0619 16.0253 19.6668H13.3333C13.1565 19.6668 12.987 19.7371 12.8619 19.8621C12.7369 19.9871 12.6667 20.1567 12.6667 20.3335C12.6667 20.5103 12.7369 20.6799 12.8619 20.8049C12.987 20.9299 13.1565 21.0001 13.3333 21.0001H15.1373C14.8847 21.4313 14.6568 21.8765 14.4547 22.3335H13.3333C13.1565 22.3335 12.987 22.4037 12.8619 22.5287C12.7369 22.6538 12.6667 22.8233 12.6667 23.0001C12.6667 23.177 12.7369 23.3465 12.8619 23.4716C12.987 23.5966 13.1565 23.6668 13.3333 23.6668H13.948C13.613 24.7486 13.4178 25.8688 13.3673 27.0001H13.3333C13.1565 27.0001 12.987 27.0704 12.8619 27.1954C12.7369 27.3204 12.6667 27.49 12.6667 27.6668C12.6667 27.8436 12.7369 28.0132 12.8619 28.1382C12.987 28.2632 13.1565 28.3335 13.3333 28.3335H13.3673C13.3893 28.7799 13.4338 29.2249 13.5007 29.6668H13.3333C13.1565 29.6668 12.987 29.7371 12.8619 29.8621C12.7369 29.9871 12.6667 30.1567 12.6667 30.3335C12.6667 30.5103 12.7369 30.6799 12.8619 30.8049C12.987 30.9299 13.1565 31.0001 13.3333 31.0001H13.772C14.1367 32.4223 14.735 33.7741 15.5427 35.0001H4V8.33348H8.18533C8.30143 8.53551 8.46861 8.70345 8.6701 8.82047C8.8716 8.93748 9.10033 8.99944 9.33333 9.00015H18.6667ZM1.33333 7.66681C1.33333 7.13638 1.54405 6.62767 1.91912 6.2526C2.29419 5.87753 2.8029 5.66681 3.33333 5.66681H8V7.00015H4C3.64638 7.00015 3.30724 7.14062 3.05719 7.39067C2.80714 7.64072 2.66667 7.97986 2.66667 8.33348V35.0001C2.66667 35.3538 2.80714 35.6929 3.05719 35.943C3.30724 36.193 3.64638 36.3335 4 36.3335H16.5547C16.9637 36.8082 17.4054 37.2538 17.8767 37.6668H3.33333C2.8029 37.6668 2.29419 37.4561 1.91912 37.081C1.54405 36.706 1.33333 36.1972 1.33333 35.6668V7.66681Z" fill="url(#paint0_linear_3075_62)"/>
<path d="M13.3332 13.6669H21.9999C22.1767 13.6669 22.3462 13.5967 22.4713 13.4717C22.5963 13.3467 22.6665 13.1771 22.6665 13.0003C22.6665 12.8235 22.5963 12.6539 22.4713 12.5289C22.3462 12.4038 22.1767 12.3336 21.9999 12.3336H13.3332C13.1564 12.3336 12.9868 12.4038 12.8618 12.5289C12.7368 12.6539 12.6665 12.8235 12.6665 13.0003C12.6665 13.1771 12.7368 13.3467 12.8618 13.4717C12.9868 13.5967 13.1564 13.6669 13.3332 13.6669ZM13.3332 16.3336H17.3332C17.51 16.3336 17.6796 16.2634 17.8046 16.1383C17.9296 16.0133 17.9999 15.8438 17.9999 15.6669C17.9999 15.4901 17.9296 15.3206 17.8046 15.1955C17.6796 15.0705 17.51 15.0003 17.3332 15.0003H13.3332C13.1564 15.0003 12.9868 15.0705 12.8618 15.1955C12.7368 15.3206 12.6665 15.4901 12.6665 15.6669C12.6665 15.8438 12.7368 16.0133 12.8618 16.1383C12.9868 16.2634 13.1564 16.3336 13.3332 16.3336ZM6.19519 15.1956C6.07021 15.3206 6 15.4902 6 15.6669C6 15.8437 6.07021 16.0133 6.19519 16.1383L7.52852 17.4716C7.65352 17.5966 7.82306 17.6669 7.99986 17.6669C8.03559 17.667 8.07127 17.6641 8.10652 17.6583C8.21089 17.6414 8.30976 17.6 8.39496 17.5374C8.48015 17.4748 8.54925 17.3928 8.59652 17.2983L11.2632 11.9649C11.3023 11.8866 11.3256 11.8013 11.3318 11.7139C11.338 11.6266 11.3269 11.5388 11.2991 11.4558C11.2714 11.3727 11.2276 11.2959 11.1702 11.2297C11.1128 11.1636 11.0429 11.1094 10.9645 11.0703C10.8862 11.0311 10.8009 11.0078 10.7135 11.0017C10.6261 10.9955 10.5384 11.0066 10.4553 11.0343C10.3723 11.0621 10.2955 11.1059 10.2293 11.1633C10.1632 11.2207 10.109 11.2906 10.0699 11.3689L7.81719 15.8749L7.13786 15.1956C7.01284 15.0706 6.8433 15.0004 6.66652 15.0004C6.48975 15.0004 6.32021 15.0706 6.19519 15.1956ZM10.9645 18.4036C10.8862 18.3644 10.8009 18.3411 10.7135 18.3349C10.6261 18.3287 10.5384 18.3398 10.4553 18.3675C10.3722 18.3953 10.2954 18.4391 10.2293 18.4966C10.1631 18.554 10.109 18.6239 10.0699 18.7023L7.81719 23.2083L7.13786 22.5289C7.01212 22.4075 6.84372 22.3403 6.66892 22.3418C6.49413 22.3433 6.32692 22.4135 6.20331 22.5371C6.07971 22.6607 6.00959 22.8279 6.00808 23.0027C6.00656 23.1775 6.07375 23.3459 6.19519 23.4716L7.52852 24.8049C7.65352 24.93 7.82306 25.0002 7.99986 25.0003C8.03559 25.0004 8.07127 24.9975 8.10652 24.9916C8.21089 24.9748 8.30976 24.9333 8.39496 24.8707C8.48015 24.8081 8.54925 24.7262 8.59652 24.6316L11.2632 19.2983C11.3024 19.2199 11.3257 19.1346 11.3319 19.0473C11.3381 18.9599 11.327 18.8721 11.2993 18.7891C11.2715 18.706 11.2277 18.6292 11.1702 18.563C11.1128 18.4969 11.0429 18.4427 10.9645 18.4036ZM10.9645 25.7336C10.8862 25.6944 10.8009 25.6711 10.7135 25.6649C10.6261 25.6587 10.5384 25.6698 10.4553 25.6975C10.3722 25.7253 10.2954 25.7691 10.2293 25.8266C10.1631 25.884 10.109 25.9539 10.0699 26.0323L7.81719 30.5383L7.13786 29.8589C7.01212 29.7375 6.84372 29.6703 6.66892 29.6718C6.49413 29.6733 6.32692 29.7435 6.20331 29.8671C6.07971 29.9907 6.00959 30.1579 6.00808 30.3327C6.00656 30.5075 6.07375 30.6759 6.19519 30.8016L7.52852 32.1349C7.59014 32.1975 7.6635 32.2472 7.74438 32.2813C7.82526 32.3154 7.91208 32.3332 7.99986 32.3336C8.03559 32.3337 8.07127 32.3308 8.10652 32.3249C8.21089 32.3081 8.30976 32.2667 8.39496 32.2041C8.48015 32.1415 8.54925 32.0595 8.59652 31.9649L11.2632 26.6316C11.3029 26.5531 11.3266 26.4675 11.3331 26.3798C11.3396 26.292 11.3286 26.2039 11.3008 26.1204C11.2731 26.0369 11.2291 25.9598 11.1713 25.8934C11.1136 25.827 11.0433 25.7727 10.9645 25.7336Z" fill="url(#paint1_linear_3075_62)"/>
<defs>
<linearGradient id="paint0_linear_3075_62" x1="0" y1="20.995" x2="40.0001" y2="20.995" gradientUnits="userSpaceOnUse">
<stop stop-color="#004D6E"/>
<stop offset="1" stop-color="#00ACCC"/>
</linearGradient>
<linearGradient id="paint1_linear_3075_62" x1="6" y1="21.6668" x2="22.6665" y2="21.6668" gradientUnits="userSpaceOnUse">
<stop stop-color="#004D6E"/>
<stop offset="1" stop-color="#00ACCC"/>
</linearGradient>
</defs>
</svg>
