<svg width="32" height="40" viewBox="0 0 32 40" fill="none" xmlns="http://www.w3.org/2000/svg">
<path d="M11.9974 26.12L9.52006 26.616C7.02535 27.1205 4.78142 28.4711 3.16773 30.4393C1.55405 32.4076 0.669636 34.8728 0.664062 37.418V38C0.664062 38.5304 0.874776 39.0391 1.24985 39.4142C1.62492 39.7893 2.13363 40 2.66406 40H29.3307C29.8612 40 30.3699 39.7893 30.7449 39.4142C31.12 39.0391 31.3307 38.5304 31.3307 38V37.418C31.3247 34.8731 30.4401 32.4084 28.8264 30.4406C27.2128 28.4727 24.9691 27.1224 22.4747 26.618L19.9974 26.12V25.9467C20.4687 25.6507 20.9087 25.3467 21.3027 25.068C21.5101 24.922 21.7061 24.784 21.8914 24.6587C22.5265 24.2255 23.0674 23.6683 23.4815 23.0206C23.8957 22.373 24.1746 21.6482 24.3014 20.89L24.3461 20.6233C24.4499 20.6507 24.5567 20.6652 24.6641 20.6667H27.3307C27.8612 20.6667 28.3699 20.456 28.7449 20.0809C29.12 19.7058 29.3307 19.1971 29.3307 18.6667V14.6667C29.3298 14.387 29.27 14.1106 29.1552 13.8556C29.0403 13.6006 28.8729 13.3727 28.6641 13.1867V12.6667C28.6641 9.30726 27.3295 6.08544 24.9541 3.70998C22.5786 1.33452 19.3568 0 15.9974 0C12.638 0 9.41617 1.33452 7.04071 3.70998C4.66525 6.08544 3.33073 9.30726 3.33073 12.6667V13.1867C3.12184 13.3727 2.9545 13.6006 2.83963 13.8556C2.72476 14.1106 2.66494 14.387 2.66406 14.6667V18.6667C2.66406 19.1971 2.87478 19.7058 3.24985 20.0809C3.62492 20.456 4.13363 20.6667 4.66406 20.6667H5.52073C6.00006 21.8333 7.53206 24.7493 10.9607 25.2527C11.3001 25.4907 11.6447 25.726 11.9974 25.948V26.12ZM12.6641 22H14.3307C14.5959 22 14.8503 22.1054 15.0378 22.2929C15.2254 22.4804 15.3307 22.7348 15.3307 23C15.3307 23.2652 15.2254 23.5196 15.0378 23.7071C14.8503 23.8946 14.5959 24 14.3307 24H12.6641V22ZM21.0547 27.6913L18.5881 30.9873C18.5704 31.0059 18.5469 31.018 18.5214 31.0215C18.496 31.025 18.4701 31.0198 18.4481 31.0067L17.0094 29.928L19.5474 27.3907L21.0547 27.6913ZM19.7481 38.6667H19.2107C19.2505 38.4655 19.2462 38.258 19.1981 38.0587L18.0161 33.3253L18.2407 32.3187C18.5031 32.3887 18.7808 32.3749 19.0349 32.2793C19.289 32.1836 19.5069 32.0109 19.6581 31.7853L22.4941 27.992C22.7781 28.0573 23.0565 28.1351 23.3294 28.2253C23.3641 30.7907 22.9914 35.9793 19.7481 38.6667ZM8.66406 28.226C8.9374 28.1371 9.21584 28.0593 9.4994 27.9927L12.3354 31.786C12.497 32.0009 12.7161 32.1657 12.9673 32.2616C13.2185 32.3575 13.4917 32.3805 13.7554 32.328L13.9781 33.3233L12.7974 38.0507C12.7486 38.2526 12.7436 38.4626 12.7827 38.6667H12.2447C9.0034 35.9793 8.63073 30.7907 8.66406 28.226ZM12.4434 27.3907L14.9814 29.928L13.5434 31.006C13.5213 31.0191 13.4953 31.0244 13.4698 31.021C13.4443 31.0177 13.4207 31.0058 13.4027 30.9873L10.9361 27.6913L12.4434 27.3907ZM16.7974 32.6667H15.1974L14.9607 31.6093L15.9974 30.8333L17.0327 31.6093L16.7974 32.6667ZM14.1307 38.522C14.1125 38.504 14.0994 38.4815 14.0929 38.4568C14.0863 38.432 14.0865 38.406 14.0934 38.3813L15.1847 34H16.8101L17.9061 38.3893C17.9115 38.4131 17.9106 38.4379 17.9036 38.4613C17.8966 38.4846 17.8837 38.5058 17.8661 38.5227L17.7214 38.6667H14.2734L14.1307 38.522ZM15.9974 29.0553L13.8394 26.8967C14.5251 27.1757 15.2571 27.3239 15.9974 27.3333C16.7392 27.3223 17.4726 27.1736 18.1601 26.8947L15.9974 29.0553ZM1.9974 38V37.418C2.00181 35.6249 2.50239 33.8681 3.44371 32.3419C4.38504 30.8158 5.73036 29.58 7.33073 28.7713C7.3494 31.6573 7.8714 35.812 10.3401 38.6667H2.66406C2.48725 38.6667 2.31768 38.5964 2.19266 38.4714C2.06763 38.3464 1.9974 38.1768 1.9974 38ZM29.9974 37.418V38C29.9974 38.1768 29.9272 38.3464 29.8021 38.4714C29.6771 38.5964 29.5075 38.6667 29.3307 38.6667H21.6534C24.1201 35.812 24.6441 31.6573 24.6627 28.7713C26.2633 29.5798 27.6089 30.8156 28.5505 32.3417C29.4921 33.8678 29.9929 35.6248 29.9974 37.418ZM21.1447 23.5513C20.9401 23.6904 20.7369 23.8318 20.5354 23.9753C19.2561 24.8787 17.6641 26 15.9974 26C15.1575 25.9673 14.3368 25.7391 13.6007 25.3333H14.3307C14.9496 25.3333 15.5431 25.0875 15.9806 24.6499C16.4182 24.2123 16.6641 23.6188 16.6641 23C16.6641 22.3812 16.4182 21.7877 15.9806 21.3501C15.5431 20.9125 14.9496 20.6667 14.3307 20.6667H12.6641C12.4368 20.667 12.2133 20.7254 12.015 20.8364C11.8166 20.9473 11.6499 21.1072 11.5307 21.3007C9.34206 20.9973 8.7434 18.5853 8.66406 18.1927V14.6667C8.62514 14.2418 8.73383 13.8165 8.97184 13.4624C9.20984 13.1083 9.56261 12.8471 9.97073 12.7227C12.0215 12.4618 13.9975 11.7849 15.7774 10.7333C15.8426 10.6897 15.9193 10.6664 15.9977 10.6664C16.0762 10.6664 16.1529 10.6897 16.2181 10.7333C17.9977 11.7844 19.9731 12.4611 22.0234 12.722C22.4318 12.8463 22.7848 13.1076 23.0229 13.4618C23.2611 13.8161 23.3698 14.2416 23.3307 14.6667V18.6113L22.9861 20.67C22.8895 21.25 22.6766 21.8046 22.3601 22.3002C22.0437 22.7958 21.6303 23.2223 21.1447 23.554V23.5513ZM7.33073 12.6667C7.33073 10.3681 8.24382 8.16372 9.86914 6.53841C11.4945 4.91309 13.6989 4 15.9974 4C18.2959 4 20.5003 4.91309 22.1257 6.53841C23.751 8.16372 24.6641 10.3681 24.6641 12.6667C24.4846 12.6665 24.307 12.7028 24.1421 12.7733C23.9427 12.4149 23.6655 12.1058 23.331 11.8686C22.9964 11.6314 22.6129 11.4722 22.2087 11.4027C20.3437 11.1673 18.5462 10.5549 16.9254 9.60267C16.6473 9.42565 16.3244 9.33163 15.9947 9.33163C15.665 9.33163 15.3422 9.42565 15.0641 9.60267C13.4432 10.5552 11.6453 11.1677 9.78006 11.4027C9.37645 11.4726 8.99362 11.632 8.65966 11.8692C8.32569 12.1064 8.04906 12.4153 7.85006 12.7733C7.68592 12.7031 7.50926 12.6668 7.33073 12.6667ZM27.9974 18.6667C27.9974 18.8435 27.9272 19.013 27.8021 19.1381C27.6771 19.2631 27.5075 19.3333 27.3307 19.3333H24.6641V14H27.3307C27.5075 14 27.6771 14.0702 27.8021 14.1953C27.9272 14.3203 27.9974 14.4899 27.9974 14.6667V18.6667ZM7.9814 4.652C9.56633 3.06623 11.586 1.98618 13.7849 1.54848C15.9838 1.11079 18.2631 1.33512 20.3344 2.1931C22.4058 3.05108 24.1761 4.50415 25.4215 6.36848C26.6669 8.23282 27.3313 10.4246 27.3307 12.6667H25.9974C25.9974 10.0145 24.9438 7.47096 23.0685 5.5956C21.1931 3.72024 18.6496 2.66667 15.9974 2.66667C13.3452 2.66667 10.8017 3.72024 8.92633 5.5956C7.05096 7.47096 5.9974 10.0145 5.9974 12.6667H4.66406C4.66098 11.178 4.95251 9.70337 5.52185 8.32785C6.0912 6.95232 6.9271 5.70304 7.9814 4.652ZM3.9974 18.6667V14.6667C3.9974 14.4899 4.06763 14.3203 4.19266 14.1953C4.31768 14.0702 4.48725 14 4.66406 14H7.33073V19.3333H4.66406C4.48725 19.3333 4.31768 19.2631 4.19266 19.1381C4.06763 19.013 3.9974 18.8435 3.9974 18.6667ZM6.9714 20.6667H7.33073C7.6199 20.6662 7.90094 20.5709 8.13073 20.3953C8.46146 20.9838 8.92119 21.4897 9.4754 21.8752C10.0296 22.2606 10.6639 22.5154 11.3307 22.6207V23.9627C10.3828 23.8322 9.4842 23.4607 8.72093 22.8836C7.95766 22.3065 7.35527 21.5432 6.9714 20.6667Z" fill="url(#paint0_linear_3075_65)"/>
<defs>
<linearGradient id="paint0_linear_3075_65" x1="0.664062" y1="20" x2="31.3307" y2="20" gradientUnits="userSpaceOnUse">
<stop stop-color="#004D6E"/>
<stop offset="1" stop-color="#00ACCC"/>
</linearGradient>
</defs>
</svg>
