<svg width="38" height="38" viewBox="0 0 38 38" fill="none" xmlns="http://www.w3.org/2000/svg">
<path d="M4.17147 31.3512C4.2581 31.4755 4.35946 31.5889 4.47335 31.6887L6.94898 33.855C7.13023 34.0138 7.3396 34.1781 7.5596 34.35C8.3221 34.9456 9.18585 35.6206 9.13335 36.3512C9.10335 36.7681 9.05835 37.1838 9.01335 37.5988L9.00397 37.6838L10.2465 37.8181L10.2558 37.7337C10.3027 37.3031 10.349 36.8725 10.3796 36.4406C10.4802 35.0462 9.28772 34.1138 8.33022 33.365C8.1296 33.2088 7.93772 33.0588 7.7721 32.9144L5.29772 30.7494C5.25961 30.7158 5.22562 30.6778 5.19647 30.6362L1.60085 25.4994C1.55814 25.439 1.52805 25.3706 1.51237 25.2984C1.49669 25.2261 1.49575 25.1514 1.5096 25.0788C1.5229 25.0059 1.5508 24.9365 1.59161 24.8748C1.63243 24.813 1.68532 24.7602 1.7471 24.7194C1.86029 24.6444 1.99691 24.6133 2.1314 24.6318C2.26589 24.6503 2.38901 24.7172 2.47772 24.82L5.3371 28.1562C5.5421 28.3963 5.80647 28.5813 6.12397 28.7L7.80585 29.2612L7.81585 29.2806L7.83522 29.2706L10.6577 30.2125L10.7908 30.4425C10.8459 30.5374 10.875 30.6452 10.8752 30.755V31.5H12.1252V30.7544C12.1252 30.4256 12.0377 30.1012 11.874 29.8162L10.5527 27.5337C10.5106 27.4506 10.4907 27.3581 10.4949 27.265C10.499 27.1719 10.5271 27.0815 10.5765 27.0025C10.624 26.9259 10.6897 26.8622 10.7677 26.8171C10.8458 26.7721 10.9338 26.747 11.0239 26.7442C11.114 26.7415 11.2034 26.761 11.2841 26.8012C11.3648 26.8413 11.4344 26.9008 11.4865 26.9744L13.7515 30.1756C14.8308 31.6944 14.7471 33.5356 14.6577 35.4856C14.6227 36.2419 14.5877 37.0238 14.6258 37.7825L15.8746 37.7188C15.8383 37.02 15.8715 36.3019 15.9065 35.5419C16.0008 33.4669 16.099 31.3206 14.7808 29.4662L12.5058 26.2513C12.3397 26.0171 12.12 25.8262 11.8651 25.6943C11.6101 25.5624 11.3273 25.4934 11.0402 25.4931C10.734 25.492 10.4327 25.5697 10.1653 25.7188C9.89789 25.8679 9.67336 26.0833 9.51335 26.3444C9.18335 26.8775 9.15397 27.5306 9.45148 28.125L9.71397 28.5788L8.69273 28.2381L7.0896 25.0319L6.6621 23.3225C6.57696 22.9804 6.37975 22.6766 6.10189 22.4596C5.82404 22.2425 5.48154 22.1248 5.12897 22.125C4.89925 22.1247 4.67223 22.1746 4.46375 22.2711C4.25528 22.3675 4.07036 22.5084 3.92189 22.6837C3.77342 22.859 3.66499 23.0645 3.60414 23.2861C3.5433 23.5076 3.53151 23.7397 3.5696 23.9662L3.6121 24.2219L3.42647 24.0056C3.13894 23.6711 2.73906 23.4533 2.3021 23.3931C1.86514 23.3329 1.42125 23.4345 1.05397 23.6787C0.646475 23.9506 0.371475 24.3656 0.281475 24.8475C0.191475 25.3294 0.29585 25.815 0.5771 26.2163L4.17147 31.3512ZM4.87585 23.4919C4.91552 23.4458 4.96706 23.4114 5.02488 23.3925C5.0827 23.3736 5.14459 23.3709 5.20384 23.3847C5.26308 23.3985 5.31743 23.4282 5.36097 23.4707C5.40452 23.5132 5.4356 23.5667 5.45085 23.6256L5.8946 25.4013C5.90585 25.4456 5.92147 25.4887 5.94147 25.5294L7.01585 27.6788L6.54147 27.5206C6.44306 27.4836 6.35557 27.4223 6.2871 27.3425L5.18522 26.0569L4.80272 23.7606C4.7945 23.7132 4.79678 23.6646 4.80942 23.6181C4.82206 23.5717 4.84473 23.5286 4.87585 23.4919ZM36.9465 23.6781C36.5792 23.4339 36.1353 23.3323 35.6983 23.3925C35.2614 23.4527 34.8615 23.6705 34.574 24.005L34.3883 24.2213L34.4308 23.965C34.4947 23.5635 34.4015 23.1528 34.1705 22.8183C33.9395 22.4837 33.5886 22.251 33.1905 22.1684C32.7925 22.0858 32.3779 22.1597 32.0329 22.3747C31.6878 22.5897 31.4389 22.9294 31.3377 23.3231L30.9102 25.0319L29.3071 28.2381L28.2846 28.5794L28.5665 28.0919C28.7043 27.8184 28.7694 27.514 28.7555 27.208C28.7416 26.9021 28.6492 26.6049 28.4871 26.345C28.3271 26.084 28.1026 25.8685 27.8351 25.7194C27.5677 25.5703 27.2664 25.4926 26.9602 25.4937C26.3783 25.4937 25.8308 25.7775 25.494 26.2519C24.7385 27.3179 23.9839 28.3846 23.2302 29.4519C21.9021 31.3212 21.9996 33.4669 22.0946 35.5419C22.1296 36.3019 22.1621 37.02 22.1265 37.7188L23.3752 37.7825C23.414 37.0238 23.3783 36.2419 23.3433 35.4856C23.254 33.5356 23.1708 31.6944 24.2509 30.1737L26.514 26.9744C26.5646 26.9031 26.6315 26.8451 26.7091 26.8049C26.7868 26.7648 26.8728 26.7438 26.9602 26.7437C27.2346 26.7437 27.3765 26.925 27.4246 27.0025C27.4721 27.0806 27.5708 27.2881 27.4658 27.5L26.1265 29.8162C25.9621 30.1016 25.8755 30.4251 25.8752 30.7544V31.5H27.1252V30.7544C27.1252 30.645 27.1546 30.5362 27.2096 30.4419L27.3421 30.2119L30.1646 29.27L30.1846 29.28L30.1946 29.26L31.8977 28.6912C32.1937 28.5802 32.4569 28.3962 32.6627 28.1562L35.5227 24.82C35.5911 24.7409 35.6803 24.6826 35.7802 24.6518C35.8801 24.6211 35.9866 24.619 36.0876 24.646C36.1886 24.6729 36.28 24.7277 36.3513 24.8041C36.4226 24.8806 36.471 24.9755 36.4908 25.0781C36.5049 25.1509 36.504 25.2257 36.4883 25.2981C36.4726 25.3705 36.4425 25.439 36.3996 25.4994L32.8033 30.6375C32.7746 30.6781 32.7413 30.7152 32.704 30.7481L30.2283 32.9144C30.0627 33.0588 29.8715 33.2081 29.6702 33.365C28.7127 34.1138 27.5202 35.0456 27.6208 36.44C27.6515 36.8719 27.6977 37.3025 27.7446 37.7331L27.754 37.8175L28.9965 37.6831L28.9871 37.5981C28.9421 37.1825 28.8965 36.7669 28.8671 36.35C28.8146 35.62 29.6783 34.9444 30.4408 34.3487C30.6608 34.1769 30.8702 34.0125 31.0515 33.8537L33.5283 31.6869C33.6433 31.5863 33.7446 31.4731 33.8283 31.3519L37.424 26.2156C37.7046 25.8144 37.8096 25.3281 37.7196 24.8469C37.6296 24.3656 37.354 23.95 36.9465 23.6781ZM32.8152 26.0569L31.7127 27.3425C31.65 27.417 31.5702 27.4753 31.4802 27.5125L30.9846 27.6781L32.059 25.5294C32.0793 25.4885 32.095 25.4456 32.1059 25.4013L32.5496 23.6263C32.5647 23.5673 32.5956 23.5136 32.639 23.4711C32.6825 23.4285 32.7368 23.3986 32.796 23.3848C32.8552 23.3709 32.9171 23.3736 32.975 23.3925C33.0328 23.4113 33.0843 23.4457 33.124 23.4919C33.1609 23.5356 33.2196 23.6287 33.1977 23.7606L32.8152 26.0569ZM26.4558 9.8575L27.7058 6.7325C27.7439 6.63762 27.758 6.53487 27.7471 6.43324C27.7362 6.33161 27.7005 6.23421 27.6432 6.14958C27.5859 6.06494 27.5087 5.99565 27.4184 5.94778C27.3281 5.89991 27.2274 5.87492 27.1252 5.875H24.0002C23.8898 5.87528 23.7814 5.9048 23.686 5.96055C23.5907 6.01631 23.5118 6.09631 23.4574 6.19244C23.403 6.28856 23.375 6.39737 23.3762 6.50782C23.3775 6.61826 23.408 6.7264 23.4646 6.82125L24.0427 7.785C20.3671 10.0519 15.034 11.5 10.2502 11.5V12.75C15.3227 12.75 20.7821 11.2669 24.6858 8.85812L25.339 9.94687C25.3991 10.0465 25.4858 10.1273 25.5893 10.1804C25.6928 10.2335 25.8091 10.2567 25.925 10.2474C26.041 10.2382 26.1521 10.1968 26.2458 10.1279C26.3396 10.059 26.4123 9.96539 26.4558 9.8575ZM25.7627 8.22312L25.1046 7.125H26.2027L25.7627 8.22312ZM30.8096 11.5269L32.0521 11.3938C32.0054 10.96 31.9359 10.529 31.844 10.1025L30.6221 10.3663C30.7052 10.7494 30.7677 11.14 30.8096 11.5269ZM32.1252 12.75V12.7013L30.8752 12.75C30.8752 13.14 30.8546 13.5356 30.814 13.9263L32.0577 14.0544C32.1026 13.621 32.1252 13.1857 32.1252 12.75ZM29.3502 7.08875L30.4296 6.45812C30.2108 6.08312 29.9696 5.71562 29.7127 5.36437L28.7046 6.10437C28.9352 6.42062 29.1527 6.75125 29.3502 7.08875ZM17.254 1.75L16.9902 0.528125C16.5633 0.62 16.139 0.735 15.7277 0.869375L16.1171 2.05687C16.4906 1.93536 16.8701 1.83294 17.254 1.75ZM22.1846 0.5125C21.7576 0.423588 21.3261 0.357246 20.8921 0.31375L20.7677 1.5575C21.1558 1.59625 21.5471 1.65687 21.9308 1.73625L22.1846 0.5125ZM28.8846 4.3525C28.5908 4.02938 28.2784 3.71938 27.9571 3.43125L27.1234 4.36313C27.414 4.6225 27.6946 4.90125 27.9596 5.19313L28.8846 4.3525ZM26.9383 2.61125C26.5846 2.35593 26.2179 2.11915 25.8396 1.90188L25.2171 2.98562C25.5577 3.18163 25.8881 3.39483 26.2071 3.62438L26.9383 2.61125ZM24.6727 1.31125C24.2734 1.13496 23.8652 0.979747 23.4496 0.84625L23.0677 2.03625C23.4396 2.155 23.8096 2.29625 24.1677 2.45438L24.6727 1.31125ZM19.5902 1.5L19.5865 0.25C19.1508 0.25125 18.7121 0.275625 18.2815 0.32125L18.4146 1.56375C18.8027 1.52313 19.1977 1.50125 19.5902 1.5ZM13.3883 23.585L14.0133 22.5025C13.6731 22.3063 13.3432 22.0924 13.0252 21.8619L12.2915 22.8738C12.6433 23.1288 13.0121 23.3681 13.3883 23.585ZM20.9427 25.1819L20.8121 23.9388C20.4258 23.9788 20.0302 24 19.6371 24L19.6383 25.25C20.0752 25.25 20.514 25.2262 20.9427 25.1819ZM16.1608 23.4563C15.7873 23.3358 15.4206 23.1954 15.0621 23.0356L14.5546 24.1781C14.9521 24.3544 15.3633 24.5119 15.7765 24.6456L16.1608 23.4563ZM31.8546 15.3462L30.6315 15.0888C30.5501 15.4725 30.4489 15.8517 30.3284 16.225L31.5171 16.6106C31.6521 16.1962 31.7659 15.7706 31.8546 15.3462ZM22.2346 24.9769C22.6613 24.8861 23.0829 24.773 23.4977 24.6381L23.1108 23.45C22.739 23.5712 22.3571 23.6738 21.9746 23.755L22.2346 24.9769ZM25.8834 23.5725L25.2571 22.4912C24.9196 22.6869 24.5671 22.8675 24.209 23.0269L24.719 24.1681C25.1173 23.9901 25.5059 23.7913 25.8834 23.5725ZM9.35335 17.3444C9.19306 16.9856 9.05121 16.6189 8.92835 16.2456L7.74085 16.6356C7.8771 17.05 8.03585 17.46 8.2121 17.855L9.35335 17.3444ZM17.0402 24.9825C17.4646 25.0719 17.899 25.1394 18.3321 25.1838L18.4602 23.9406C18.0698 23.9004 17.6818 23.8399 17.2977 23.7594L17.0402 24.9825ZM29.7409 20.0944L28.7302 19.3588C28.5008 19.6737 28.2508 19.9819 27.9883 20.2744L28.9183 21.1094C29.2096 20.7856 29.4858 20.4444 29.7409 20.0944ZM27.994 22.0356L27.1577 21.1069C26.8665 21.3694 26.5583 21.6187 26.2427 21.8494L26.979 22.8594C27.329 22.6038 27.6708 22.3262 27.994 22.0356ZM31.0483 17.8325L29.9058 17.3244C29.7477 17.6806 29.5677 18.0338 29.3721 18.3725L30.4534 18.9987C30.6721 18.6213 30.8715 18.2294 31.0483 17.8325ZM12.1096 21.1213C11.8177 20.8587 11.5396 20.5813 11.2765 20.29L10.349 21.1281C10.6416 21.4514 10.9505 21.7595 11.2746 22.0513L12.1096 21.1213ZM7.1946 14.08C7.24022 14.5144 7.3096 14.9494 7.40022 15.3719L8.6221 15.11C8.54045 14.7264 8.4787 14.3388 8.4371 13.9487L7.1946 14.08ZM10.5333 19.3769C10.3021 19.06 10.0876 18.7312 9.89085 18.3919L8.8096 19.0181C9.02522 19.3906 9.26523 19.7594 9.5246 20.1138L10.5333 19.3769ZM30.3152 9.23125L31.5015 8.83937C31.3648 8.42508 31.2065 8.01827 31.0271 7.62063L29.8883 8.13437C30.0477 8.48812 30.1908 8.85688 30.3152 9.23125ZM9.86773 7.1475L8.78397 6.525C8.56635 6.90299 8.36898 7.29229 8.19272 7.69125L9.33522 8.19812C9.49272 7.84125 9.67148 7.48813 9.86773 7.1475ZM8.43335 11.5962L7.1896 11.4713C7.14655 11.8961 7.12507 12.3229 7.12522 12.75V12.7744L8.37523 12.75C8.37523 12.3656 8.3946 11.9775 8.43335 11.5962ZM15.0202 2.4825L14.509 1.34187C14.1146 1.51875 13.7227 1.72 13.3458 1.94L13.9746 3.02063C14.3134 2.82288 14.6624 2.64325 15.0202 2.4825ZM8.9146 9.29688L7.7246 8.91375C7.5921 9.32563 7.47897 9.75125 7.39022 10.1788L8.61335 10.4344C8.69397 10.05 8.79522 9.66687 8.9146 9.29688ZM12.9896 3.66437L12.2508 2.65625C11.9008 2.9125 11.5596 3.19062 11.2377 3.48125L12.0765 4.40812C12.3665 4.14625 12.674 3.89562 12.9896 3.66437ZM11.2465 5.2425L10.3152 4.40875C10.0247 4.73346 9.75098 5.07286 9.49522 5.42562L10.5071 6.15938C10.7358 5.84375 10.9846 5.535 11.2465 5.2425ZM15.8752 19V15.875C15.8752 15.7092 15.8094 15.5503 15.6922 15.4331C15.575 15.3158 15.416 15.25 15.2502 15.25H12.7502C12.5845 15.25 12.4255 15.3158 12.3083 15.4331C12.1911 15.5503 12.1252 15.7092 12.1252 15.875V19C12.1252 19.1658 12.1911 19.3247 12.3083 19.4419C12.4255 19.5592 12.5845 19.625 12.7502 19.625H15.2502C15.416 19.625 15.575 19.5592 15.6922 19.4419C15.8094 19.3247 15.8752 19.1658 15.8752 19ZM14.6252 18.375H13.3752V16.5H14.6252V18.375ZM20.8752 19V14.625C20.8752 14.4592 20.8094 14.3003 20.6922 14.1831C20.575 14.0658 20.416 14 20.2502 14H17.7502C17.5845 14 17.4255 14.0658 17.3083 14.1831C17.1911 14.3003 17.1252 14.4592 17.1252 14.625V19C17.1252 19.1658 17.1911 19.3247 17.3083 19.4419C17.4255 19.5592 17.5845 19.625 17.7502 19.625H20.2502C20.416 19.625 20.575 19.5592 20.6922 19.4419C20.8094 19.3247 20.8752 19.1658 20.8752 19ZM19.6252 18.375H18.3752V15.25H19.6252V18.375ZM25.8752 19V12.125C25.8752 11.9592 25.8094 11.8003 25.6922 11.6831C25.575 11.5658 25.416 11.5 25.2502 11.5H22.7502C22.5845 11.5 22.4255 11.5658 22.3083 11.6831C22.1911 11.8003 22.1252 11.9592 22.1252 12.125V19C22.1252 19.1658 22.1911 19.3247 22.3083 19.4419C22.4255 19.5592 22.5845 19.625 22.7502 19.625H25.2502C25.416 19.625 25.575 19.5592 25.6922 19.4419C25.8094 19.3247 25.8752 19.1658 25.8752 19ZM24.6252 18.375H23.3752V12.75H24.6252V18.375Z" fill="white"/>
</svg>
