<svg width="40" height="40" viewBox="0 0 40 40" fill="none" xmlns="http://www.w3.org/2000/svg">
<path d="M10 20C10 25.5137 14.4863 30 20 30C25.5138 30 30 25.5137 30 20C30 14.4862 25.5138 10 20 10C14.4863 10 10 14.4862 10 20ZM15.3031 12.6294L16.3156 14.6544C16.3762 14.775 16.4744 14.8737 16.595 14.9337L18.4913 15.8819L17.1462 18.125H15C14.8688 18.125 14.7409 18.1662 14.6344 18.243C14.5279 18.3197 14.4483 18.428 14.4069 18.5525L13.9244 20H11.25C11.25 16.9044 12.8706 14.185 15.3031 12.6294ZM20 26.875V28.75C16.9338 28.75 14.2356 27.1619 12.6731 24.7681L15.5125 23.8219L17.75 25.5C17.9781 25.6706 18.2931 25.6662 18.5156 25.4881L21.2037 23.3375L22.5 24.6337V25.7619L20.4731 26.2687C20.338 26.3026 20.218 26.3807 20.1323 26.4905C20.0466 26.6003 20 26.7357 20 26.875ZM28.75 20C28.75 21.3787 28.4206 22.6794 27.85 23.8412L26.4294 22.4206L27.395 20.9719C27.4433 20.8995 27.476 20.8177 27.4909 20.7319C27.5057 20.6461 27.5024 20.5582 27.4813 20.4737L26.8563 17.9737C26.8354 17.8902 26.7974 17.8118 26.7448 17.7436C26.6922 17.6754 26.626 17.6188 26.5505 17.5773C26.475 17.5359 26.3917 17.5105 26.3059 17.5028C26.2201 17.4951 26.1336 17.5052 26.0519 17.5325L24.6044 18.015L23.1781 16.1137L23.6131 14.375H26.6931C28.0223 15.9478 28.751 17.9408 28.75 20ZM23.125 13.125C22.9857 13.125 22.8503 13.1716 22.7405 13.2573C22.6307 13.343 22.5526 13.463 22.5187 13.5981L21.8937 16.0981C21.8481 16.2806 21.8875 16.4744 22 16.625L23.875 19.125C23.9537 19.2299 24.0634 19.3075 24.1885 19.3466C24.3137 19.3858 24.4481 19.3846 24.5725 19.3431L25.8075 18.9312L26.2013 20.5081L25.105 22.1531C25.0248 22.2734 24.9888 22.4177 25.003 22.5615C25.0173 22.7053 25.0809 22.8397 25.1831 22.9419L27.2006 24.9594C26.5162 25.951 25.6344 26.7906 24.6105 27.4257C23.5865 28.0607 22.4425 28.4775 21.25 28.65V27.3625L23.2769 26.8556C23.4121 26.8221 23.5322 26.7442 23.6179 26.6344C23.7037 26.5247 23.7502 26.3893 23.75 26.25V24.375C23.7501 24.2929 23.7339 24.2116 23.7025 24.1358C23.6711 24.06 23.625 23.9911 23.5669 23.9331L21.6919 22.0581C21.5832 21.9492 21.4381 21.8842 21.2845 21.8757C21.1308 21.8671 20.9795 21.9156 20.8594 22.0119L18.1125 24.2094L16 22.625C15.9191 22.5643 15.8247 22.5241 15.7249 22.5078C15.6251 22.4916 15.5228 22.4999 15.4269 22.5319L12.06 23.6544C11.7081 22.8915 11.4687 22.0816 11.3494 21.25H14.375C14.5062 21.25 14.6341 21.2088 14.7406 21.132C14.8471 21.0553 14.9267 20.947 14.9681 20.8225L15.4506 19.375H17.5C17.6079 19.375 17.7139 19.3471 17.8078 19.294C17.9016 19.2409 17.9801 19.1644 18.0356 19.0719L19.9106 15.9469C19.9552 15.8731 19.984 15.7909 19.9952 15.7054C20.0065 15.62 19.9998 15.5331 19.9757 15.4503C19.9516 15.3676 19.9106 15.2907 19.8553 15.2246C19.8 15.1585 19.7316 15.1046 19.6544 15.0662L17.3406 13.9094L16.4025 12.0325C17.532 11.5176 18.7587 11.2508 20 11.25C22.0356 11.25 23.9069 11.955 25.395 13.125H23.125ZM36.875 18.125C36.4885 18.1262 36.1119 18.247 35.7967 18.4708C35.4816 18.6946 35.2435 19.0105 35.115 19.375H31.25V20.625H35.115C35.2435 20.9895 35.4816 21.3053 35.7967 21.5291C36.1119 21.7529 36.4885 21.8738 36.875 21.875C37.9088 21.875 38.75 21.0337 38.75 20C38.75 18.9662 37.9088 18.125 36.875 18.125ZM36.875 20.625C36.5306 20.625 36.25 20.3444 36.25 20C36.25 19.6556 36.5306 19.375 36.875 19.375C37.2194 19.375 37.5 19.6556 37.5 20C37.5 20.3444 37.2194 20.625 36.875 20.625ZM36.875 30.625C36.875 29.5912 36.0338 28.75 35 28.75C34.6135 28.7512 34.2369 28.872 33.9217 29.0958C33.6066 29.3196 33.3685 29.6355 33.24 30H32.2981L31.205 27.2675C31.1586 27.1516 31.0785 27.0523 30.9751 26.9824C30.8718 26.9124 30.7498 26.875 30.625 26.875H28.75V28.125H30.2019L31.295 30.8575C31.3414 30.9734 31.4215 31.0727 31.5249 31.1426C31.6282 31.2126 31.7502 31.25 31.875 31.25H33.24C33.3685 31.6145 33.6066 31.9303 33.9217 32.1541C34.2369 32.3779 34.6135 32.4988 35 32.5C36.0338 32.5 36.875 31.6587 36.875 30.625ZM34.375 30.625C34.375 30.2806 34.6556 30 35 30C35.3444 30 35.625 30.2806 35.625 30.625C35.625 30.9694 35.3444 31.25 35 31.25C34.6556 31.25 34.375 30.9694 34.375 30.625ZM30 38.125C31.0338 38.125 31.875 37.2837 31.875 36.25C31.875 35.2162 31.0338 34.375 30 34.375C29.6135 34.3762 29.2369 34.497 28.9217 34.7208C28.6066 34.9446 28.3685 35.2605 28.24 35.625H26.7213L25.6006 31.7031C25.5633 31.5726 25.4845 31.4578 25.3761 31.3761C25.2678 31.2943 25.1357 31.2501 25 31.25H21.875V32.5H24.5287L25.6494 36.4219C25.6867 36.5524 25.7655 36.6672 25.8739 36.7489C25.9822 36.8307 26.1143 36.8749 26.25 36.875H28.24C28.3685 37.2395 28.6066 37.5553 28.9217 37.7791C29.2369 38.0029 29.6135 38.1238 30 38.125ZM30 35.625C30.3444 35.625 30.625 35.9056 30.625 36.25C30.625 36.5944 30.3444 36.875 30 36.875C29.6556 36.875 29.375 36.5944 29.375 36.25C29.375 35.9056 29.6556 35.625 30 35.625ZM24.9344 8.40437L26.6362 5H28.2325C28.3788 5.41056 28.6631 5.75756 29.037 5.98169C29.4108 6.20581 29.8508 6.29314 30.2819 6.22875C30.7769 6.15312 31.2131 5.89 31.51 5.48625C31.8069 5.0825 31.9287 4.5875 31.8538 4.09312C31.7779 3.60196 31.5107 3.1608 31.1105 2.86612C30.7103 2.57145 30.2097 2.44723 29.7181 2.52062C29.4745 2.55702 29.2405 2.64138 29.0297 2.76883C28.8189 2.89628 28.6354 3.06429 28.49 3.26312C28.3837 3.41246 28.2997 3.57647 28.2406 3.75H26.25C26.0131 3.75 25.7969 3.88375 25.6906 4.09562L23.9888 7.5H21.875V8.75H24.375C24.6119 8.75 24.8281 8.61625 24.9344 8.40437ZM29.4963 4.00437C29.5542 3.92525 29.6301 3.86096 29.7176 3.81675C29.8052 3.77254 29.9019 3.74967 30 3.75C30.1155 3.75036 30.2286 3.78264 30.3268 3.84326C30.4251 3.90388 30.5047 3.99049 30.5568 4.09351C30.609 4.19654 30.6316 4.31197 30.6222 4.42705C30.6129 4.54213 30.5719 4.65238 30.5037 4.74562C30.4552 4.81186 30.3941 4.86783 30.3238 4.91031C30.2535 4.95279 30.1756 4.98094 30.0944 4.99312C29.9723 5.01103 29.8477 4.99252 29.7361 4.93991C29.6245 4.8873 29.5309 4.80292 29.467 4.69736C29.4031 4.59179 29.3718 4.46972 29.3771 4.34645C29.3823 4.22318 29.4237 4.10418 29.4963 4.00437ZM33.865 10.625C33.9935 10.9895 34.2316 11.3053 34.5467 11.5291C34.8619 11.7529 35.2385 11.8738 35.625 11.875C36.6588 11.875 37.5 11.0337 37.5 10C37.5 8.96625 36.6588 8.125 35.625 8.125C35.2385 8.12624 34.8619 8.24704 34.5467 8.47085C34.2316 8.69465 33.9935 9.01048 33.865 9.375H31.25C31.0413 9.375 30.8462 9.47937 30.73 9.65312L29.6656 11.25H28.125V12.5H30C30.2087 12.5 30.4038 12.3956 30.52 12.2219L31.5844 10.625H33.865ZM35.625 9.375C35.9694 9.375 36.25 9.65562 36.25 10C36.25 10.3444 35.9694 10.625 35.625 10.625C35.2806 10.625 35 10.3444 35 10C35 9.65562 35.2806 9.375 35.625 9.375Z" fill="white"/>
<path d="M1.875 16.875C1.70924 16.875 1.55027 16.9408 1.43306 17.0581C1.31585 17.1753 1.25 17.3342 1.25 17.5V22.5C1.25 22.6658 1.31585 22.8247 1.43306 22.9419C1.55027 23.0592 1.70924 23.125 1.875 23.125H3.415C3.57274 23.9608 3.79379 24.7834 4.07625 25.5856L2.74063 26.3562C2.59708 26.4391 2.49234 26.5756 2.44944 26.7358C2.40654 26.8959 2.429 27.0665 2.51187 27.21L5.01187 31.54C5.09476 31.6835 5.23127 31.7883 5.39138 31.8312C5.55148 31.8741 5.72208 31.8516 5.86562 31.7688L7.20375 30.9963C7.75786 31.64 8.35933 32.2415 9.00312 32.7956L8.23062 34.1338C8.14775 34.2773 8.12529 34.4479 8.16819 34.608C8.21109 34.7681 8.31583 34.9046 8.45937 34.9875L12.7894 37.4875C12.933 37.5699 13.1035 37.592 13.2634 37.5492C13.4234 37.5063 13.5599 37.4019 13.6431 37.2588L14.4137 35.9231C15.22 36.2069 16.0437 36.4281 16.8744 36.5844V38.125C16.8744 38.2908 16.9402 38.4497 17.0574 38.5669C17.1746 38.6842 17.3336 38.75 17.4994 38.75H19.9994C20.1651 38.75 20.3241 38.6842 20.4413 38.5669C20.5585 38.4497 20.6244 38.2908 20.6244 38.125V31.875C20.6244 31.7092 20.5585 31.5503 20.4413 31.4331C20.3241 31.3158 20.1651 31.25 19.9994 31.25C13.7962 31.25 8.74937 26.2031 8.74937 20C8.74937 13.7969 13.7962 8.75 19.9994 8.75C20.1651 8.75 20.3241 8.68415 20.4413 8.56694C20.5585 8.44973 20.6244 8.29076 20.6244 8.125V1.875C20.6244 1.70924 20.5585 1.55027 20.4413 1.43306C20.3241 1.31585 20.1651 1.25 19.9994 1.25H17.4994C17.3336 1.25 17.1746 1.31585 17.0574 1.43306C16.9402 1.55027 16.8744 1.70924 16.8744 1.875V3.415C16.0386 3.57274 15.216 3.79379 14.4137 4.07625L13.6437 2.74063C13.5609 2.59708 13.4244 2.49234 13.2642 2.44944C13.1041 2.40654 12.9335 2.429 12.79 2.51188L8.46 5.01188C8.31645 5.09476 8.21171 5.23127 8.16881 5.39138C8.12591 5.55148 8.14837 5.72208 8.23125 5.86563L9.00375 7.20375C8.35995 7.75786 7.75848 8.35933 7.20437 9.00312L5.86562 8.23125C5.72208 8.14837 5.55148 8.12591 5.39138 8.16881C5.23127 8.21171 5.09476 8.31645 5.01187 8.46L2.51187 12.79C2.429 12.9335 2.40654 13.1041 2.44944 13.2642C2.49234 13.4244 2.59708 13.5609 2.74063 13.6438L4.07625 14.4144C3.79379 15.2166 3.57274 16.0392 3.415 16.875H1.875ZM4.55937 17.5956C4.73167 16.49 5.02294 15.4062 5.42812 14.3631C5.4821 14.224 5.48448 14.0701 5.43485 13.9293C5.38521 13.7885 5.28683 13.6702 5.1575 13.5956L3.9075 12.8737L5.7825 9.62625L7.035 10.3494C7.30187 10.5031 7.64062 10.4394 7.83375 10.2006C8.53641 9.32984 9.32984 8.53641 10.2006 7.83375C10.3165 7.74018 10.3952 7.60829 10.4225 7.46184C10.4498 7.31539 10.4238 7.16402 10.3494 7.035L9.62625 5.7825L12.8737 3.9075L13.5956 5.1575C13.75 5.42438 14.075 5.53813 14.3625 5.42813C15.4056 5.02301 16.4894 4.73174 17.595 4.55938C17.7425 4.53669 17.8771 4.46196 17.9743 4.3487C18.0715 4.23544 18.1249 4.09113 18.125 3.94187V2.5H19.375V7.51562C12.7719 7.84187 7.5 13.3169 7.5 20C7.5 26.6831 12.7719 32.1581 19.375 32.4844V37.5H18.125V36.0581C18.125 35.909 18.0716 35.7647 17.9745 35.6515C17.8774 35.5382 17.743 35.4634 17.5956 35.4406C16.49 35.2683 15.4062 34.9771 14.3631 34.5719C14.0756 34.4613 13.7506 34.575 13.5956 34.8425L12.8737 36.0925L9.62625 34.2175L10.3494 32.965C10.4238 32.836 10.4498 32.6846 10.4225 32.5382C10.3952 32.3917 10.3165 32.2598 10.2006 32.1663C9.32984 31.4636 8.53641 30.6702 7.83375 29.7994C7.74034 29.6832 7.60843 29.6044 7.46192 29.5771C7.3154 29.5498 7.16395 29.5759 7.035 29.6506L5.7825 30.3737L3.9075 27.1263L5.1575 26.4044C5.28668 26.3299 5.38497 26.2116 5.43459 26.071C5.48422 25.9303 5.48193 25.7766 5.42812 25.6375C5.02301 24.5944 4.73174 23.5106 4.55937 22.405C4.53669 22.2575 4.46196 22.1229 4.3487 22.0257C4.23544 21.9285 4.09113 21.8751 3.94187 21.875H2.5V18.125H3.94187C4.09104 18.125 4.23527 18.0716 4.34852 17.9745C4.46176 17.8774 4.53655 17.743 4.55937 17.5956Z" fill="white"/>
</svg>
