<svg width="41" height="41" viewBox="0 0 41 41" fill="none" xmlns="http://www.w3.org/2000/svg">
<path fill-rule="evenodd" clip-rule="evenodd" d="M17.8585 2.36869L18.9225 5.17083C18.9545 5.25503 19.029 5.30916 19.119 5.31354L22.1132 5.45944C22.3168 5.46936 22.4002 5.72587 22.2413 5.85358L19.9047 7.73131C19.8345 7.7877 19.8061 7.87526 19.8297 7.96219L20.6162 10.8545C20.6697 11.0511 20.4515 11.2097 20.2809 11.098L17.7727 9.45641C17.6973 9.40704 17.6053 9.40704 17.5299 9.45641L15.0218 11.098C14.8512 11.2097 14.633 11.0511 14.6865 10.8545L15.4729 7.96212C15.4965 7.87518 15.4682 7.78762 15.3979 7.73123L13.0614 5.8535C12.9025 5.72579 12.9858 5.46928 13.1895 5.45936L16.1837 5.31346C16.2736 5.30908 16.3481 5.25495 16.3801 5.17075L17.4442 2.36861C17.516 2.1792 17.7866 2.1792 17.8585 2.36869ZM32.3352 26.1007C36.0962 26.1007 39.1451 29.1492 39.1451 32.9096C39.1451 36.6701 36.0962 39.7186 32.3352 39.7186C28.5742 39.7186 25.5253 36.6701 25.5253 32.9096C25.5253 29.1492 28.5742 26.1007 32.3352 26.1007ZM31.4407 33.5102L29.9191 31.9888C29.5248 31.5945 28.885 31.5945 28.4906 31.9888C28.0963 32.3831 28.0963 33.0227 28.4906 33.417L30.7287 35.6548C31.123 36.0491 31.7627 36.0491 32.1571 35.6548C33.506 34.306 34.8398 32.942 36.1825 31.587C36.574 31.1919 36.5728 30.5543 36.1781 30.1619C35.7834 29.7694 35.144 29.7705 34.752 30.1663L31.4407 33.5102ZM6.44395 36.0639L24.9164 36.0638C24.5039 35.095 24.2754 34.029 24.2754 32.9096C24.2754 31.2072 24.8039 29.6284 25.7051 28.3273C23.5652 26.4197 20.744 25.2601 17.6514 25.2601C11.6985 25.2601 6.74939 29.5557 5.73431 35.2157C5.65447 35.6603 5.99218 36.0639 6.44395 36.0639ZM17.6514 12.2368C21.0325 12.2368 23.7734 14.9773 23.7734 18.3579C23.7734 21.7384 21.0325 24.4789 17.6514 24.4789C14.2704 24.4789 11.5295 21.7384 11.5295 18.3579C11.5294 14.9773 14.2704 12.2368 17.6514 12.2368ZM28.1725 6.33504C28.1006 6.14555 27.83 6.14555 27.758 6.33504L26.6939 9.13718C26.662 9.22146 26.5875 9.27551 26.4975 9.27988L23.5033 9.42579C23.2996 9.43571 23.2163 9.69222 23.3752 9.81993L25.7117 11.6977C25.782 11.7541 25.8104 11.8416 25.7867 11.9285L25.0003 14.8209C24.9468 15.0177 25.165 15.1761 25.3356 15.0644L27.8437 13.4228C27.9191 13.3735 28.0111 13.3735 28.0865 13.4228L30.5947 15.0644C30.7653 15.1761 30.9835 15.0176 30.93 14.8209L30.1435 11.9286C30.1198 11.8417 30.1482 11.7542 30.2185 11.6977L32.555 9.82C32.7139 9.6923 32.6306 9.43579 32.4269 9.42587L29.4327 9.27996C29.3427 9.27559 29.2683 9.22146 29.2363 9.13726L28.1725 6.33504ZM7.54441 6.33504C7.47247 6.14555 7.20186 6.14555 7.12999 6.33504L6.06593 9.13718C6.03397 9.22146 5.95945 9.27551 5.86945 9.27988L2.87529 9.42579C2.67163 9.43571 2.58828 9.69222 2.74717 9.81993L5.08373 11.6977C5.15396 11.7541 5.18239 11.8416 5.15872 11.9285L4.37229 14.8209C4.31878 15.0177 4.53697 15.1761 4.70758 15.0644L7.21569 13.4228C7.29107 13.3735 7.3831 13.3735 7.45848 13.4228L9.96667 15.0644C10.1373 15.1761 10.3555 15.0176 10.302 14.8209L9.51553 11.9286C9.49186 11.8417 9.52029 11.7542 9.59052 11.6977L11.9271 9.82C12.086 9.6923 12.0026 9.43579 11.799 9.42587L8.8048 9.27996C8.7148 9.27559 8.64035 9.22146 8.60833 9.13726L7.54441 6.33504Z" fill="white"/>
</svg>
