<svg width="41" height="41" viewBox="0 0 41 41" fill="none" xmlns="http://www.w3.org/2000/svg">
<g clip-path="url(#clip0_3051_1042)">
<path d="M38.5182 25.942V23.418H26.8807C26.8807 26.684 24.2327 29.3317 20.9661 29.3317C17.6995 29.3317 15.0515 26.6841 15.0515 23.418H3.41406V25.942L8.46746 26.4771C8.78267 27.769 9.29303 28.9845 9.96556 30.0905L6.76984 34.0426L10.34 37.6122L14.2926 34.417C15.3988 35.0894 16.6145 35.5997 17.9066 35.9149L18.4417 40.9675H23.4905L24.0257 35.9149C25.3178 35.5997 26.5335 35.0894 27.6396 34.417L31.5922 37.6122L35.1624 34.0426L31.9667 30.0905C32.6392 28.9845 33.1496 27.769 33.4648 26.4771L38.5182 25.942Z" fill="white"/>
<path d="M20.9713 0.976562C18.4714 0.976562 16.4375 3.01004 16.4375 5.50943C16.4375 8.00882 18.4714 10.0422 20.9713 10.0422C23.4713 10.0422 25.5052 8.00882 25.5052 5.50943C25.5052 3.01004 23.4713 0.976562 20.9713 0.976562Z" fill="white"/>
<path d="M25.7934 11.293H16.1399C13.9175 11.293 12.1094 13.1008 12.1094 15.3229V21.0728H29.8239V15.3229C29.8239 13.1008 28.0158 11.293 25.7934 11.293Z" fill="white"/>
<path d="M11.3505 3.07031C9.11101 3.07031 7.28906 4.89196 7.28906 7.13094C7.28906 9.35195 9.08211 11.1612 11.2969 11.1902C12.2141 10.1176 13.4796 9.35203 14.9174 9.07123C15.2326 8.4944 15.412 7.83329 15.412 7.13094C15.412 4.89188 13.5901 3.07031 11.3505 3.07031Z" fill="white"/>
<path d="M7.02492 12.3164C5.03391 12.3164 3.41406 13.9358 3.41406 15.9265V21.0774H9.7657V15.3274C9.7657 14.239 10.0405 13.2136 10.5237 12.3164H7.02492Z" fill="white"/>
<path d="M30.5849 3.07031C28.3454 3.07031 26.5234 4.89196 26.5234 7.13094C26.5234 7.83321 26.7028 8.4944 27.018 9.07123C28.4559 9.35203 29.7214 10.1176 30.6386 11.1902C32.8534 11.1613 34.6464 9.35195 34.6464 7.13094C34.6464 4.89188 32.8245 3.07031 30.5849 3.07031Z" fill="white"/>
<path d="M34.9051 12.3164H31.4062C31.8895 13.2136 32.1643 14.239 32.1643 15.3274V21.0773H38.5159V15.9264C38.5159 13.9358 36.8961 12.3164 34.9051 12.3164Z" fill="white"/>
</g>
<defs>
<clipPath id="clip0_3051_1042">
<rect width="39.9972" height="39.9915" fill="white" transform="translate(0.96875 0.976562)"/>
</clipPath>
</defs>
</svg>
