<svg width="41" height="32" viewBox="0 0 41 32" fill="none" xmlns="http://www.w3.org/2000/svg">
<path d="M16.1641 14.8008C16.8102 14.8008 17.3359 15.3266 17.3359 15.9727C17.3359 16.6188 16.8102 17.1445 16.1641 17.1445C15.518 17.1445 14.9922 16.6188 14.9922 15.9727C14.9922 15.3266 15.518 14.8008 16.1641 14.8008Z" fill="white"/>
<path d="M17.3359 10.2304V12.6581C16.9695 12.5276 16.575 12.4565 16.1641 12.4565C14.2258 12.4565 12.6484 14.0335 12.6484 15.9714C12.6484 17.9093 14.2258 19.4863 16.1641 19.4863C16.575 19.4863 16.9695 19.4152 17.3359 19.2848V21.7124C16.9523 21.7905 16.5602 21.8295 16.1641 21.8295C12.9336 21.8295 10.3047 19.2012 10.3047 15.9714C10.3047 12.7416 12.9336 10.1133 16.1641 10.1133C16.5602 10.1133 16.9523 10.1523 17.3359 10.2304Z" fill="white"/>
<path d="M7.96045 15.9733C7.96045 20.4958 11.6399 24.1747 16.163 24.1747C16.5575 24.1747 16.9489 24.1474 17.3348 24.0911V31.2045H13.8194C13.1726 31.2045 12.6476 30.6796 12.6476 30.0329V28.3738C11.6891 28.1012 10.7649 27.7154 9.88453 27.221L8.70571 28.4004C8.24793 28.8581 7.50657 28.8581 7.04879 28.4004L3.73418 25.0863C3.27624 24.6284 3.27804 23.8856 3.73418 23.4296L4.91378 22.2501C4.41851 21.3706 4.03338 20.4466 3.76074 19.4882H2.10148C1.45465 19.4882 0.929688 18.9633 0.929688 18.3166V13.6301C0.929688 12.9833 1.45465 12.4585 2.10148 12.4585H3.76074C4.03338 11.5001 4.41851 10.576 4.91378 9.69576L3.73418 8.5171C3.27804 8.06103 3.27624 7.3183 3.73418 6.86042L7.04879 3.54628C7.50657 3.08857 8.24793 3.08857 8.70571 3.54628L9.88531 4.72572C10.7649 4.23051 11.6891 3.84544 12.6476 3.57284V1.91381C12.6476 1.26708 13.1726 0.742188 13.8194 0.742188H17.3348V7.85553C16.9489 7.79929 16.5575 7.77195 16.163 7.77195C11.6399 7.77195 7.96045 11.4509 7.96045 15.9733Z" fill="white"/>
<path d="M33.8974 1.42798V7.77195H40.2423L33.8974 1.42798ZM23.1951 7.77195H28.0385C28.6853 7.77195 29.2103 8.29684 29.2103 8.94358C29.2103 9.59031 28.6853 10.1152 28.0385 10.1152H23.1951C22.5482 10.1152 22.0233 9.59031 22.0233 8.94358C22.0233 8.29684 22.5482 7.77195 23.1951 7.77195ZM35.0692 24.1747H23.1951C22.5482 24.1747 22.0233 23.6498 22.0233 23.0031C22.0233 22.3564 22.5482 21.8315 23.1951 21.8315H35.0692C35.7161 21.8315 36.241 22.3564 36.241 23.0031C36.241 23.6498 35.7161 24.1747 35.0692 24.1747ZM35.0692 19.4882H23.1951C22.5482 19.4882 22.0233 18.9633 22.0233 18.3166C22.0233 17.6699 22.5482 17.145 23.1951 17.145H35.0692C35.7161 17.145 36.241 17.6699 36.241 18.3166C36.241 18.9633 35.7161 19.4882 35.0692 19.4882ZM35.0692 14.8017H23.1951C22.5482 14.8017 22.0233 14.2768 22.0233 13.6301C22.0233 12.9833 22.5482 12.4585 23.1951 12.4585H35.0692C35.7161 12.4585 36.241 12.9833 36.241 13.6301C36.241 14.2768 35.7161 14.8017 35.0692 14.8017ZM32.7257 10.1152C32.0788 10.1152 31.5539 9.59031 31.5539 8.94358V0.742188H19.6797V31.2045H39.7564C40.4032 31.2045 40.9282 30.6796 40.9282 30.0329V10.1152H32.7257Z" fill="white"/>
</svg>
