<svg width="41" height="41" viewBox="0 0 41 41" fill="none" xmlns="http://www.w3.org/2000/svg">
<g clip-path="url(#clip0_3051_1026)">
<path d="M37.8869 34.9562C37.8869 34.9562 33.4476 27.3275 32.6513 25.9593C33.5573 25.6829 34.5224 25.4389 34.9234 24.7466C35.5918 23.593 34.4021 21.7006 34.7145 20.4642C35.0363 19.1916 36.9358 18.0904 36.9358 16.7969C36.9358 15.5367 34.972 14.0644 34.65 12.7993C34.3354 11.563 35.5215 9.66859 34.851 8.51642C34.1805 7.36414 31.9473 7.45881 31.028 6.57434C30.0821 5.66414 30.0851 3.43718 28.9442 2.82721C27.7987 2.21498 25.9369 3.45231 24.6651 3.15922C23.4077 2.86947 22.2843 0.976562 20.9709 0.976562C19.6381 0.976562 17.5181 3.12377 17.1856 3.20104C15.9144 3.49651 14.0503 2.26221 12.906 2.87704C11.7662 3.48906 11.7732 5.71624 10.829 6.62794C9.91124 7.51404 7.67791 7.42347 7.00949 8.57705C6.34118 9.73041 7.5308 11.6223 7.21853 12.8595C6.9054 14.0997 4.93969 15.3564 4.93969 16.7907C4.93969 18.0844 6.844 19.1821 7.16773 20.454C7.48238 21.6903 6.29632 23.5845 6.96679 24.7371C7.33181 25.3644 8.15999 25.622 8.98708 25.8696C9.08361 25.8984 9.26617 26.0064 9.14251 26.1866C8.57667 27.1631 4.02234 35.0221 4.02234 35.0221C3.66003 35.6472 3.95425 36.183 4.67596 36.2134L8.20863 36.3607C8.93034 36.3911 9.83569 36.9154 10.2209 37.5264L12.106 40.5172C12.4912 41.1282 13.1025 41.1167 13.4647 40.4917C13.4647 40.4917 18.7391 31.3869 18.7412 31.3844C18.8471 31.2607 18.9534 31.2861 19.0043 31.3293C19.5814 31.8206 20.3859 32.3108 21.0574 32.3108C21.7158 32.3108 22.3256 31.8494 22.9287 31.3349C22.9778 31.293 23.0972 31.2073 23.1846 31.3852C23.186 31.388 28.4545 40.443 28.4545 40.443C28.8177 41.0672 29.4291 41.0778 29.8131 40.4661L31.6929 37.4717C32.077 36.8603 32.9814 36.3339 33.7031 36.3025L37.2355 36.1486C37.9568 36.1169 38.2501 35.5803 37.8869 34.9562ZM26.8091 26.7663C22.9032 29.0383 18.2148 28.7948 14.6339 26.5364C9.38669 23.1758 7.66018 16.2241 10.8145 10.7806C14.0049 5.27422 21.018 3.33127 26.5748 6.35722C26.6039 6.37311 26.6328 6.38953 26.6618 6.40575C26.703 6.42855 26.744 6.45168 26.785 6.47502C28.4993 7.46324 29.9858 8.89749 31.0503 10.7269C34.3036 16.3181 32.4011 23.5135 26.8091 26.7663Z" fill="white"/>
<path d="M25.9164 8.1209C25.9002 8.1115 25.8838 8.10275 25.8675 8.09345C22.8992 6.37573 19.1159 6.25015 15.9451 8.09464C11.2398 10.8317 9.63865 16.8859 12.3761 21.5904C13.2114 23.0261 14.3561 24.1721 15.6767 24.9945C15.789 25.0656 15.9026 25.1356 16.0187 25.2028C20.7291 27.9313 26.7809 26.3195 29.5097 21.61C32.2384 16.9003 30.6268 10.8494 25.9164 8.1209ZM27.0948 15.8202L25.4455 17.4275C24.9346 17.9253 24.6153 18.9079 24.7361 19.611L25.1254 21.8806C25.246 22.5836 24.8282 22.8872 24.1967 22.5553L22.158 21.4837C21.5266 21.1518 20.4934 21.1518 19.8619 21.4837L17.8234 22.5553C17.1919 22.8872 16.7739 22.5836 16.8945 21.8806L17.2839 19.611C17.4045 18.9079 17.0852 17.9253 16.5744 17.4275L14.9252 15.8202C14.4142 15.3224 14.574 14.8311 15.2799 14.7284L17.5591 14.3973C18.265 14.2947 19.101 13.6874 19.4167 13.0479L20.436 10.9829C20.7517 10.3433 21.2684 10.3433 21.584 10.9829L22.6034 13.0479C22.9191 13.6874 23.7549 14.2947 24.461 14.3973L26.7401 14.7284C27.446 14.8311 27.6056 15.3224 27.0948 15.8202Z" fill="white"/>
</g>
<defs>
<clipPath id="clip0_3051_1026">
<rect width="39.9972" height="39.9915" fill="white" transform="translate(0.953125 0.976562)"/>
</clipPath>
</defs>
</svg>
