<svg width="61" height="60" viewBox="0 0 61 60" fill="none" xmlns="http://www.w3.org/2000/svg">
<path d="M3.96123 29.1204C3.28015 27.0302 2.62647 25.0203 1.97083 23.0103C1.37195 21.1836 0.773068 19.357 0.174187 17.5303C-0.142867 16.5518 -0.0391387 16.3462 0.933554 16.0272L31.2945 6.11244L49.4292 0.196045C50.5546 -0.169938 50.7327 -0.0877669 51.0869 0.998439C54.0122 9.96208 56.9374 18.9258 59.8627 27.8894C60.1758 28.8464 60.0584 29.0637 59.0798 29.3905C57.5141 29.9072 55.9386 30.4493 54.3514 30.921C53.8034 31.0854 53.6546 31.3398 53.6566 31.8995C53.6736 40.7849 53.6775 49.6703 53.6683 58.5556C53.6683 59.9041 53.5724 60 52.2025 60H1.38956C0.140914 60 0 59.861 0 58.63V30.4258C0 29.2926 0.166356 29.1302 1.32106 29.1283L3.96123 29.1204ZM1.52656 30.6744V58.4225H52.1105V30.6744H1.52656ZM49.7247 1.66977L1.70074 17.3424C2.96701 21.2214 4.19413 24.9948 5.43886 28.7642C5.47229 28.8476 5.52531 28.9217 5.59344 28.9803C5.66157 29.0389 5.74281 29.0803 5.83028 29.1008C7.33336 29.1243 8.84034 29.1165 10.4041 29.1165C10.3101 28.7995 10.2475 28.5666 10.1732 28.3337C9.58601 26.5253 8.99887 24.7169 8.39803 22.9144C8.19254 22.2901 8.27865 21.8712 8.96169 21.5757C10.5959 20.8711 11.2691 19.4698 10.8953 17.6967C10.7936 17.2113 10.8249 16.7866 11.365 16.6359C11.9052 16.4852 12.2046 16.8062 12.3573 17.3287C12.8877 19.141 12.1616 21.2195 10.5724 22.3957C10.3767 22.5386 10.181 22.6717 9.95786 22.8302C10.5763 24.7247 11.2124 26.5899 11.7839 28.4746C11.9444 29.003 12.1988 29.1263 12.7135 29.1244C17.3265 29.1067 21.9414 29.1146 26.5543 29.1126C26.7598 29.1126 26.9633 29.0832 27.2158 29.0656C27.069 28.7329 26.9359 28.4785 26.8361 28.2045C26.6639 27.7387 26.7089 27.312 27.2276 27.1124C27.711 26.9167 28.0104 27.1926 28.2061 27.6134C28.2981 27.8091 28.3764 28.0185 28.484 28.2103C28.8246 28.8229 29.2669 29.1987 30.0497 29.1321C30.997 29.0558 31.956 29.1556 32.9032 29.093C33.2749 29.0637 33.6229 28.8994 33.8818 28.6312C34.7645 27.59 34.9406 26.3824 34.3672 25.1455C33.7937 23.9086 32.778 23.2295 31.408 23.2393C30.7876 23.2393 30.1652 23.4487 29.5468 23.5739C26.1961 24.255 23.1724 21.1373 23.9513 17.8122C24.3017 16.3169 25.2 15.2542 26.5249 14.5222C26.4095 14.1014 26.2138 13.7237 26.2333 13.3577C26.249 13.0857 26.4956 12.6747 26.7246 12.6042C26.9536 12.5338 27.3117 12.7784 27.5759 12.935C27.6738 12.9937 27.711 13.1913 27.7345 13.3264C27.8284 13.8685 28.1004 14.0271 28.6778 14.0349C30.586 14.0603 32.0382 14.9312 32.9522 16.6281C33.4082 17.4755 33.3788 18.0313 32.8641 18.227C32.048 18.5363 31.8855 17.8708 31.635 17.3483C31.2914 16.6666 30.7239 16.1238 30.0276 15.811C29.3313 15.4981 28.5486 15.4342 27.8108 15.6299C27.098 15.8232 26.4687 16.246 26.0205 16.833C25.5722 17.4199 25.3299 18.1383 25.3311 18.8768C25.3448 20.4249 26.4075 21.8008 27.9497 22.0434C28.6718 22.1258 29.4031 22.0666 30.1026 21.8693C33.7291 20.9553 36.9741 24.1708 36.0072 27.7661C35.8898 28.2025 35.6921 28.6174 35.5082 29.1087H52.3395C52.6056 29.1087 52.9677 29.0402 53.1223 29.1811C53.7094 29.7252 54.2594 29.3572 54.8074 29.1811C55.9817 28.8151 57.1442 28.4119 58.3302 28.0166C55.4513 19.2154 52.6115 10.4866 49.7247 1.66977Z" fill="url(#paint0_linear_3050_273)"/>
<path d="M27.6472 53.4721C27.4221 54.116 27.9642 55.1885 26.8467 55.1826C25.6842 55.1826 26.2596 54.071 26.0208 53.4212C25.6666 53.2901 25.2673 53.1766 24.8994 52.9985C23.2573 52.202 22.316 50.8946 22.1124 49.0725C22.0517 48.5304 22.0811 47.9589 22.77 47.8982C23.4589 47.8376 23.5529 48.366 23.6037 48.9355C23.6762 49.7476 24.0454 50.5046 24.6408 51.0616C25.2361 51.6187 26.0159 51.9369 26.8311 51.9553C27.6572 51.9859 28.4648 51.7061 29.095 51.1712C29.7252 50.6362 30.1324 49.8848 30.2365 49.0647C30.3468 48.271 30.1626 47.4644 29.7187 46.7973C29.2748 46.1302 28.6019 45.6488 27.8272 45.444C27.3399 45.3148 26.8134 45.3324 26.3065 45.2718C23.9247 44.9821 22.1222 43.1894 21.9539 40.9465C21.768 38.461 23.1751 36.4686 25.5883 35.7993C25.7292 35.7601 25.8682 35.7151 26.0913 35.6466C26.0913 35.3295 26.0736 34.9949 26.0913 34.668C26.1206 34.1846 26.3731 33.8852 26.8741 33.8989C27.3458 33.9185 27.6159 34.2296 27.5591 34.6817C27.4573 35.4822 27.8116 35.7601 28.5377 36.0361C30.3304 36.7093 31.3129 38.1087 31.5732 40.0071C31.6495 40.557 31.6104 41.1109 30.9449 41.2049C30.2795 41.2988 30.1229 40.7684 30.0681 40.2126C29.9233 38.7819 29.1561 37.7995 27.8135 37.3376C27.2369 37.1174 26.608 37.0726 26.0059 37.2087C25.4039 37.3449 24.8555 37.6559 24.4297 38.1028C23.4237 39.0814 23.138 40.287 23.6096 41.5963C24.0813 42.9056 25.054 43.6786 26.4572 43.7745C27.6198 43.8528 28.749 43.984 29.71 44.7101C31.2581 45.8843 31.9979 47.4363 31.6867 49.37C31.3638 51.3858 30.1523 52.6971 28.1971 53.2842L27.7078 53.431C27.6868 53.4435 27.6666 53.4572 27.6472 53.4721Z" fill="url(#paint1_linear_3050_273)"/>
<path d="M6.15886 44.5418C6.15886 42.3955 6.15886 40.2479 6.15886 38.099C6.15886 37.2006 6.27628 37.0774 7.18831 36.9462C8.89883 36.6996 9.92828 35.6545 10.1494 33.9224C10.216 33.3881 10.3589 32.8989 10.9949 32.9674C11.6682 33.0398 11.7328 33.578 11.6564 34.1416C11.3687 36.2299 10.2297 37.6312 8.21776 38.2614C7.78327 38.3965 7.6404 38.5569 7.64236 39.0012C7.65802 42.7119 7.65802 46.4213 7.64236 50.1294C7.64236 50.5306 7.74413 50.7048 8.16492 50.832C10.2121 51.4564 11.3707 52.8674 11.6564 54.989C11.7504 55.6838 11.4862 56.1456 10.9773 56.1515C10.3334 56.1515 10.2121 55.6974 10.1455 55.1729C9.93416 53.4467 8.90079 52.4154 7.17069 52.1668C6.27629 52.0396 6.1569 51.9085 6.1569 50.9925C6.1556 48.841 6.15625 46.6907 6.15886 44.5418Z" fill="url(#paint2_linear_3050_273)"/>
<path d="M45.8449 50.6779V38.4478C45.4633 38.3088 45.062 38.1992 44.7019 38.027C42.9914 37.2226 42.0481 35.8742 41.8837 33.9836C41.8367 33.461 41.9698 33.005 42.553 32.9639C43.1362 32.9228 43.3241 33.3123 43.373 33.8544C43.5335 35.5884 44.6119 36.7333 46.3537 36.9251C47.1464 37.0112 47.3832 37.3616 47.3793 38.0994C47.3636 42.3933 47.3793 46.6873 47.3695 50.9793C47.3695 51.9128 47.2638 52.0244 46.3635 52.1536C44.5865 52.4099 43.5609 53.4746 43.3691 55.3006C43.3143 55.8193 43.0893 56.1695 42.5647 56.1363C42.0402 56.103 41.87 55.7097 41.8758 55.1969C41.8935 53.3709 43.1891 51.5919 45.0229 50.9264C45.2715 50.8403 45.5298 50.7777 45.8449 50.6779Z" fill="url(#paint3_linear_3050_273)"/>
<path d="M49.9412 22.5981C48.7239 18.8796 47.5203 15.2237 46.3401 11.5599C46.207 11.145 46.0583 10.9982 45.5847 11.0178C44.6023 11.0581 43.6317 10.7917 42.8076 10.2555C41.9834 9.71924 41.3466 8.93983 40.9854 8.02535C40.7897 7.53216 40.7682 7.07615 41.3162 6.85108C41.8642 6.62601 42.1538 6.94306 42.3769 7.43822C43.1109 9.07633 44.5083 9.78677 46.2481 9.39534C46.941 9.23682 47.2502 9.501 47.4459 10.1018C48.7872 14.2275 50.1337 18.3505 51.4854 22.4709C51.7007 23.1305 51.6068 23.5551 50.8885 23.8565C49.3404 24.5063 48.6026 25.9878 48.9686 27.6201C49.0899 28.1603 49.1153 28.6358 48.4851 28.7944C47.7982 28.9568 47.5829 28.4363 47.485 27.9059C47.1249 25.9311 47.7082 24.295 49.2993 23.0443C49.4891 22.8995 49.6946 22.7723 49.9412 22.5981Z" fill="url(#paint4_linear_3050_273)"/>
<defs>
<linearGradient id="paint0_linear_3050_273" x1="0" y1="30" x2="60.0169" y2="30" gradientUnits="userSpaceOnUse">
<stop stop-color="#004D6E"/>
<stop offset="1" stop-color="#00ACCC"/>
</linearGradient>
<linearGradient id="paint1_linear_3050_273" x1="21.9375" y1="44.5406" x2="31.7566" y2="44.5406" gradientUnits="userSpaceOnUse">
<stop stop-color="#004D6E"/>
<stop offset="1" stop-color="#00ACCC"/>
</linearGradient>
<linearGradient id="paint2_linear_3050_273" x1="6.15625" y1="44.5562" x2="11.6816" y2="44.5562" gradientUnits="userSpaceOnUse">
<stop stop-color="#004D6E"/>
<stop offset="1" stop-color="#00ACCC"/>
</linearGradient>
<linearGradient id="paint3_linear_3050_273" x1="41.875" y1="44.5497" x2="47.3793" y2="44.5497" gradientUnits="userSpaceOnUse">
<stop stop-color="#004D6E"/>
<stop offset="1" stop-color="#00ACCC"/>
</linearGradient>
<linearGradient id="paint4_linear_3050_273" x1="40.8594" y1="17.801" x2="51.5872" y2="17.801" gradientUnits="userSpaceOnUse">
<stop stop-color="#004D6E"/>
<stop offset="1" stop-color="#00ACCC"/>
</linearGradient>
</defs>
</svg>
