<svg width="60" height="60" viewBox="0 0 60 60" fill="none" xmlns="http://www.w3.org/2000/svg">
<path d="M2.58072 58.4812V57.206C2.58072 53.5695 2.58072 49.9342 2.58072 46.3003C2.58072 45.3224 2.76263 45.1268 3.71512 45.1268C7.81715 45.1268 11.9172 45.1268 16.0153 45.1268C16.9248 45.1268 17.1223 45.3341 17.1223 46.2573C17.1223 50.0386 17.1223 53.8198 17.1223 57.6011V58.4343H22.6886V57.5737C22.6886 51.7688 22.6886 45.9626 22.6886 40.1551C22.6886 38.9816 22.8627 38.8192 24.0577 38.8192H35.9179C37.107 38.8192 37.287 38.9913 37.287 40.159V58.4265H42.8552V57.5248C42.8552 50.1083 42.8552 42.6918 42.8552 35.2753C42.8552 34.1018 42.9882 33.9629 44.1441 33.9609H56.0747C57.2736 33.9609 57.3968 34.0881 57.3968 35.3183V58.4812H58.6603C59.6089 58.4812 60.0294 58.7179 59.9707 59.2538C59.8768 60.0361 59.2666 60.0029 58.6896 59.9911H1.43853C0.851776 59.9911 0.130063 60.1339 0.00880092 59.2577C-0.0694324 58.7022 0.370638 58.4754 1.46004 58.4754L2.58072 58.4812ZM55.8811 35.51H44.369V58.4362H55.8811V35.51ZM35.7732 40.4093H24.2709V58.4812H25.0532C28.3449 58.4812 31.6366 58.4636 34.9282 58.4968C35.5932 58.4968 35.7908 58.3267 35.7868 57.6461C35.7595 52.1698 35.7712 46.6797 35.7712 41.1956L35.7732 40.4093ZM4.08866 58.4265H15.589V46.6915H4.08866V58.4265Z" fill="url(#paint0_linear_3050_279)"/>
<path d="M42.8897 29.0813C42.5415 28.9542 42.3029 28.8857 42.0897 28.7879C40.7441 28.2149 39.3946 27.6516 38.0646 27.0473C37.9079 26.9631 37.7296 26.9276 37.5526 26.9454C37.3756 26.9632 37.2079 27.0334 37.0711 27.147C36.3826 27.6027 35.6277 27.9567 34.9392 28.4124C34.6761 28.5833 34.4875 28.8475 34.4111 29.1517C34.1921 30.646 34.02 32.1481 33.8674 33.6502C33.797 34.3484 33.4762 34.6378 32.78 34.6281C30.9258 34.615 29.0717 34.615 27.2176 34.6281C26.5369 34.6281 26.1927 34.3621 26.1223 33.6502C25.9776 32.195 25.7566 30.7477 25.6216 29.2925C25.5747 28.7958 25.426 28.5102 24.9469 28.3146C24.2754 28.0254 23.6395 27.6598 23.0517 27.2252C22.5862 26.8732 22.2224 26.8908 21.7315 27.1157C20.425 27.7024 19.0891 28.2481 17.7787 28.8368C17.145 29.1204 16.7324 28.9815 16.392 28.3752C15.4793 26.7597 14.5529 25.156 13.6128 23.5639C13.2647 22.9772 13.3292 22.541 13.9003 22.1283C15.1286 21.2462 16.3216 20.3172 17.548 19.4332C17.6968 19.3378 17.8137 19.2 17.8834 19.0375C17.9531 18.875 17.9725 18.6954 17.9391 18.5218C17.8834 17.7215 17.8834 16.9183 17.9391 16.118C17.9665 15.7093 17.9 15.4531 17.548 15.2027C16.3197 14.3206 15.1305 13.3877 13.9023 12.5056C13.3331 12.0969 13.249 11.6685 13.5991 11.0739C14.5399 9.47994 15.4709 7.87814 16.3764 6.26263C16.7402 5.61524 17.1763 5.5194 17.8296 5.81669C19.1811 6.43082 20.5677 6.99016 21.9153 7.59451C22.0732 7.67698 22.2519 7.711 22.429 7.69221C22.6062 7.67342 22.7738 7.6027 22.9108 7.48894C23.5954 7.02931 24.3562 6.68506 25.0466 6.23326C25.3096 6.05908 25.4964 5.79124 25.5688 5.48421C25.7918 3.96648 25.96 2.44091 26.1262 0.913405C26.1986 0.236687 26.5526 -0.00386482 27.1961 4.68452e-05C29.0502 0.0137377 30.9121 0.0176493 32.7584 4.68452e-05C33.4469 4.68452e-05 33.7833 0.271898 33.8557 0.968174C34.0063 2.44678 34.2195 3.91951 34.3661 5.40007C34.3641 5.59007 34.4202 5.77616 34.5268 5.93344C34.6334 6.09072 34.7854 6.21169 34.9627 6.2802C35.6903 6.62024 36.3877 7.02134 37.0476 7.47915C37.1941 7.60018 37.374 7.67378 37.5633 7.6902C37.7526 7.70662 37.9425 7.66507 38.1077 7.57107C39.465 6.96671 40.8458 6.39755 42.1973 5.79515C42.8329 5.50765 43.2456 5.64652 43.5879 6.24892C44.5006 7.86053 45.427 9.46433 46.3671 11.0603C46.7133 11.647 46.6566 12.0851 46.0835 12.4978C44.8572 13.3818 43.6642 14.3109 42.4379 15.1949C42.2867 15.2886 42.1672 15.4257 42.095 15.5882C42.0228 15.7508 42.0012 15.9313 42.033 16.1063C42.0887 16.9059 42.0887 17.7084 42.033 18.5081C42.0056 18.9168 42.0702 19.1731 42.4242 19.4234C43.6544 20.3036 44.8455 21.2345 46.0718 22.1185C46.6351 22.5253 46.729 22.9556 46.3769 23.5522C45.4225 25.1677 44.5052 26.8047 43.5449 28.4183C43.3943 28.6902 43.1048 28.8642 42.8897 29.0813ZM27.5677 33.1064C29.103 33.1064 30.564 33.124 32.0231 33.081C32.1834 33.081 32.4377 32.7406 32.467 32.5333C32.6626 31.1818 32.8132 29.8245 32.9462 28.4672C33.0108 27.8218 33.2728 27.4443 33.9104 27.1744C34.8119 26.8075 35.6614 26.3242 36.4374 25.7368C37.1004 25.2166 37.6324 25.1873 38.3541 25.5276C39.6919 26.1593 41.0668 26.701 42.4711 27.3132L44.8905 23.1258C43.5488 22.1244 42.2697 21.1543 40.9788 20.2096C40.5583 19.9006 40.441 19.5622 40.4801 19.0361C40.5756 17.9464 40.5801 16.8506 40.4938 15.7601C40.4331 15.1049 40.5877 14.7137 41.102 14.3441C42.3675 13.4385 43.6035 12.49 44.8963 11.5258L42.4711 7.33833C40.9534 7.99158 39.5159 8.59005 38.0959 9.22961C37.5405 9.478 37.118 9.39391 36.6193 9.04577C35.7652 8.44487 34.8594 7.92124 33.9124 7.4811C33.2865 7.19946 33.0127 6.8337 32.9501 6.18436C32.821 4.85049 32.6235 3.52249 32.5062 2.18861C32.4631 1.70161 32.3282 1.50408 31.8118 1.51777C30.5933 1.55102 29.3729 1.54711 28.1525 1.51777C27.6772 1.508 27.5344 1.68205 27.4934 2.14363C27.374 3.47946 27.1785 4.80551 27.0513 6.13938C26.9868 6.8161 26.7188 7.21121 26.0519 7.48894C25.1749 7.84952 24.3469 8.31936 23.5876 8.88734C22.9382 9.38021 22.3906 9.53862 21.6708 9.12007C21.2385 8.89636 20.7923 8.70038 20.335 8.53332L17.5167 7.34421L15.1032 11.5258C16.437 12.5193 17.7025 13.4816 18.9777 14.4067C19.4118 14.7235 19.5644 15.0736 19.5135 15.6467C19.4027 16.7102 19.3975 17.7819 19.4979 18.8464C19.5781 19.5701 19.3767 19.9769 18.8192 20.3739C17.5753 21.2599 16.3647 22.1948 15.1032 23.1356C15.8307 24.3971 16.5466 25.5823 17.2018 26.8008C17.4521 27.2663 17.6946 27.2702 18.121 27.0785C19.4079 26.4918 20.7164 25.9657 22.0053 25.3868C22.4884 25.1697 22.8482 25.2518 23.2824 25.5451C24.1469 26.1319 25.0231 26.7304 25.9776 27.1294C26.7384 27.4482 26.9946 27.9019 27.0631 28.653C27.1941 30.0905 27.3877 31.5378 27.5677 33.0966V33.1064Z" fill="url(#paint1_linear_3050_279)"/>
<path d="M30.0257 23.1509C29.256 23.1563 28.4928 23.0096 27.7799 22.7192C27.067 22.4288 26.4185 22.0004 25.8717 21.4587C25.3248 20.9169 24.8904 20.2725 24.5933 19.5623C24.2963 18.8522 24.1424 18.0904 24.1406 17.3206C24.1453 15.7659 24.765 14.2762 25.8643 13.1768C26.9637 12.0774 28.4534 11.4578 30.0081 11.4531C31.5502 11.4633 33.0268 12.078 34.1203 13.1654C35.2139 14.2527 35.8371 15.7258 35.8561 17.2678C35.8612 18.0374 35.7143 18.8004 35.4238 19.5131C35.1333 20.2257 34.7048 20.874 34.1631 21.4206C33.6214 21.9672 32.977 22.4015 32.267 22.6984C31.557 22.9954 30.7953 23.1491 30.0257 23.1509ZM30.0062 21.6606C31.164 21.6575 32.2732 21.1949 33.0902 20.3746C33.9073 19.5543 34.3653 18.4432 34.3638 17.2854C34.3515 16.1407 33.8898 15.0467 33.0783 14.2392C32.2668 13.4317 31.1705 12.9755 30.0257 12.9689C28.8683 12.9611 27.7551 13.4132 26.931 14.226C26.1069 15.0388 25.6392 16.1456 25.631 17.303C25.6341 18.4608 26.0966 19.57 26.9169 20.3871C27.7373 21.2041 28.8484 21.6622 30.0062 21.6606Z" fill="url(#paint2_linear_3050_279)"/>
<defs>
<linearGradient id="paint0_linear_3050_279" x1="0" y1="46.9803" x2="59.9761" y2="46.9803" gradientUnits="userSpaceOnUse">
<stop stop-color="#004D6E"/>
<stop offset="1" stop-color="#00ACCC"/>
</linearGradient>
<linearGradient id="paint1_linear_3050_279" x1="13.3906" y1="17.3142" x2="46.5839" y2="17.3142" gradientUnits="userSpaceOnUse">
<stop stop-color="#004D6E"/>
<stop offset="1" stop-color="#00ACCC"/>
</linearGradient>
<linearGradient id="paint2_linear_3050_279" x1="24.1406" y1="17.3021" x2="35.8562" y2="17.3021" gradientUnits="userSpaceOnUse">
<stop stop-color="#004D6E"/>
<stop offset="1" stop-color="#00ACCC"/>
</linearGradient>
</defs>
</svg>
