<svg width="150" height="57" viewBox="0 0 150 57" fill="none" xmlns="http://www.w3.org/2000/svg">
<rect x="0.937595" y="1.28971" width="148.47" height="54.4206" rx="8.42706" fill="white" stroke="#090909" stroke-width="0.609185"/>
<path d="M35.1342 29.3158C35.1634 27.0423 36.3796 24.891 38.309 23.7002C37.0918 21.9551 35.0531 20.8486 32.932 20.782C30.6697 20.5436 28.4765 22.141 27.3237 22.141C26.1485 22.141 24.3736 20.8056 22.4622 20.8451C19.9709 20.9259 17.6483 22.3479 16.4362 24.5345C13.8307 29.0632 15.7742 35.7188 18.27 39.3794C19.5188 41.172 20.9782 43.1742 22.8878 43.1032C24.7565 43.0254 25.4544 41.907 27.7101 41.907C29.9448 41.907 30.5996 43.1032 32.5479 43.0581C34.5531 43.0254 35.8165 41.2576 37.0214 39.4481C37.9186 38.1709 38.609 36.7593 39.067 35.2656C36.7106 34.265 35.1369 31.8843 35.1342 29.3158Z" fill="#090909"/>
<path d="M31.454 18.3746C32.5473 17.057 33.086 15.3634 32.9555 13.6536C31.2852 13.8297 29.7423 14.6311 28.6342 15.8982C27.5507 17.1361 26.9868 18.7999 27.0934 20.4444C28.7643 20.4616 30.407 19.6819 31.454 18.3746Z" fill="#090909"/>
<path d="M101.785 26.9676V29.7226H100.065V31.5293H101.785V37.6682C101.785 39.7644 102.729 40.6029 105.106 40.6029C105.523 40.6029 105.921 40.553 106.269 40.4931V38.7063C105.971 38.7363 105.782 38.7562 105.454 38.7562C104.39 38.7562 103.922 38.2572 103.922 37.1192V31.5293H106.269V29.7226H103.922V26.9676H101.785Z" fill="#090909"/>
<path d="M112.323 40.7526C115.485 40.7526 117.424 38.6265 117.424 35.1029C117.424 31.5992 115.475 29.4631 112.323 29.4631C109.161 29.4631 107.212 31.5992 107.212 35.1029C107.212 38.6265 109.151 40.7526 112.323 40.7526ZM112.323 38.8461C110.463 38.8461 109.419 37.4786 109.419 35.1029C109.419 32.7471 110.463 31.3696 112.323 31.3696C114.172 31.3696 115.226 32.7471 115.226 35.1029C115.226 37.4686 114.172 38.8461 112.323 38.8461Z" fill="#090909"/>
<path d="M119.083 40.543H121.22V34.1246C121.22 32.5974 122.364 31.5693 123.984 31.5693C124.362 31.5693 124.999 31.6391 125.178 31.699V29.5829C124.949 29.523 124.541 29.493 124.223 29.493C122.811 29.493 121.608 30.2716 121.3 31.3397H121.141V29.6727H119.083V40.543Z" fill="#090909"/>
<path d="M130.486 31.2898C132.067 31.2898 133.101 32.3978 133.15 34.1047H127.682C127.801 32.4078 128.905 31.2898 130.486 31.2898ZM133.14 37.6083C132.743 38.4568 131.858 38.9259 130.565 38.9259C128.855 38.9259 127.751 37.7181 127.682 35.8116V35.6918H135.328V34.9432C135.328 31.5293 133.508 29.4631 130.496 29.4631C127.443 29.4631 125.504 31.6691 125.504 35.1428C125.504 38.6165 127.403 40.7526 130.506 40.7526C132.981 40.7526 134.711 39.5548 135.199 37.6083H133.14Z" fill="#090909"/>
<path d="M87.7656 36.5288C87.9305 39.198 90.1462 40.9051 93.444 40.9051C96.9686 40.9051 99.174 39.1153 99.174 36.2598C99.174 34.0147 97.9167 32.7732 94.8662 32.0593L93.2276 31.6558C91.2901 31.2006 90.5069 30.5902 90.5069 29.5246C90.5069 28.1796 91.723 27.3002 93.5471 27.3002C95.2784 27.3002 96.4739 28.1589 96.6903 29.5349H98.937C98.803 27.0209 96.5976 25.2517 93.578 25.2517C90.3317 25.2517 88.1675 27.0209 88.1675 29.6798C88.1675 31.8731 89.3939 33.1767 92.0837 33.8078L94.0005 34.2734C95.9689 34.7389 96.8346 35.4218 96.8346 36.5598C96.8346 37.8841 95.4742 38.8463 93.6192 38.8463C91.6302 38.8463 90.2492 37.9462 90.0534 36.5288H87.7656Z" fill="#090909"/>
<path d="M65.6205 29.493C64.1489 29.493 62.8762 30.2317 62.22 31.4695H62.0609V29.6727H60.0026V44.1565H62.1404V38.896H62.3094C62.8762 40.0439 64.0992 40.7227 65.6404 40.7227C68.3747 40.7227 70.1148 38.5566 70.1148 35.1029C70.1148 31.6491 68.3747 29.493 65.6205 29.493ZM65.014 38.7962C63.2242 38.7962 62.1006 37.3787 62.1006 35.1129C62.1006 32.837 63.2242 31.4195 65.0239 31.4195C66.8336 31.4195 67.9174 32.807 67.9174 35.1029C67.9174 37.4087 66.8336 38.7962 65.014 38.7962Z" fill="#090909"/>
<path d="M77.5952 29.493C76.1236 29.493 74.8509 30.2317 74.1946 31.4695H74.0355V29.6727H71.9773V44.1565H74.1151V38.896H74.2841C74.8509 40.0439 76.0739 40.7227 77.6151 40.7227C80.3494 40.7227 82.0894 38.5566 82.0894 35.1029C82.0894 31.6491 80.3494 29.493 77.5952 29.493ZM76.9886 38.7962C75.1989 38.7962 74.0753 37.3787 74.0753 35.1129C74.0753 32.837 75.1989 31.4195 76.9986 31.4195C78.8082 31.4195 79.892 32.807 79.892 35.1029C79.892 37.4087 78.8082 38.7962 76.9886 38.7962Z" fill="#090909"/>
<path d="M56.1671 40.543H58.6199L53.2506 25.6138H50.7669L45.3976 40.543H47.768L49.1386 36.5805H54.8068L56.1671 40.543ZM51.8903 28.3244H52.0654L54.2193 34.6355H49.726L51.8903 28.3244Z" fill="#090909"/>
<path d="M45.3383 15.0837V20.9848H47.4607C49.2123 20.9848 50.2266 19.9011 50.2266 18.0158C50.2266 16.1592 49.2042 15.0837 47.4607 15.0837H45.3383ZM46.2508 15.9179H47.3588C48.5768 15.9179 49.2978 16.6949 49.2978 18.0281C49.2978 19.3817 48.589 20.1505 47.3588 20.1505H46.2508V15.9179Z" fill="#090909"/>
<path d="M53.3331 21.0707C54.6285 21.0707 55.4229 20.1996 55.4229 18.756C55.4229 17.3206 54.6245 16.4455 53.3331 16.4455C52.0377 16.4455 51.2393 17.3206 51.2393 18.756C51.2393 20.1996 52.0337 21.0707 53.3331 21.0707ZM53.3331 20.2896C52.5714 20.2896 52.1437 19.7293 52.1437 18.756C52.1437 17.7909 52.5714 17.2266 53.3331 17.2266C54.0908 17.2266 54.5226 17.7909 54.5226 18.756C54.5226 19.7252 54.0908 20.2896 53.3331 20.2896Z" fill="#090909"/>
<path d="M62.1875 16.5313H61.3117L60.5214 19.9297H60.4521L59.5397 16.5313H58.7005L57.788 19.9297H57.7228L56.9285 16.5313H56.0405L57.2625 20.9848H58.1628L59.0753 17.705H59.1445L60.0611 20.9848H60.9695L62.1875 16.5313Z" fill="#090909"/>
<path d="M63.1961 20.9848H64.0719V18.3798C64.0719 17.6846 64.4834 17.2511 65.1311 17.2511C65.7788 17.2511 66.0884 17.6069 66.0884 18.3225V20.9848H66.9642V18.1017C66.9642 17.0425 66.4183 16.4455 65.4284 16.4455C64.7604 16.4455 64.3204 16.744 64.1045 17.2388H64.0393V16.5313H63.1961V20.9848Z" fill="#090909"/>
<path d="M68.3435 20.9848H69.2193V14.7933H68.3435V20.9848Z" fill="#090909"/>
<path d="M72.5132 21.0707C73.8086 21.0707 74.603 20.1996 74.603 18.756C74.603 17.3206 73.8046 16.4455 72.5132 16.4455C71.2178 16.4455 70.4194 17.3206 70.4194 18.756C70.4194 20.1996 71.2138 21.0707 72.5132 21.0707ZM72.5132 20.2896C71.7515 20.2896 71.3237 19.7293 71.3237 18.756C71.3237 17.7909 71.7515 17.2266 72.5132 17.2266C73.2709 17.2266 73.7027 17.7909 73.7027 18.756C73.7027 19.7252 73.2709 20.2896 72.5132 20.2896Z" fill="#090909"/>
<path d="M77.2125 20.3182C76.7359 20.3182 76.3897 20.0851 76.3897 19.6843C76.3897 19.2917 76.6667 19.0832 77.2777 19.0423L78.3613 18.9728V19.3449C78.3613 19.897 77.8724 20.3182 77.2125 20.3182ZM76.9885 21.0584C77.571 21.0584 78.0558 20.8049 78.3205 20.3591H78.3898V20.9848H79.233V17.9422C79.233 17.0016 78.6057 16.4455 77.4936 16.4455C76.4874 16.4455 75.7705 16.9362 75.6808 17.7009H76.5282C76.6259 17.386 76.964 17.2061 77.4529 17.2061C78.0517 17.2061 78.3613 17.4719 78.3613 17.9422V18.3266L77.1596 18.3962C76.1045 18.4616 75.5098 18.9237 75.5098 19.7252C75.5098 20.539 76.133 21.0584 76.9885 21.0584Z" fill="#090909"/>
<path d="M82.2051 21.0584C82.8161 21.0584 83.3335 20.7681 83.5983 20.2814H83.6675V20.9848H84.5067V14.7933H83.6309V17.2388H83.5657C83.3253 16.7481 82.8121 16.4577 82.2051 16.4577C81.0849 16.4577 80.3638 17.3492 80.3638 18.756C80.3638 20.1669 81.0767 21.0584 82.2051 21.0584ZM82.4536 17.247C83.1868 17.247 83.6472 17.8318 83.6472 18.7601C83.6472 19.6925 83.1909 20.2691 82.4536 20.2691C81.7122 20.2691 81.2682 19.7007 81.2682 18.756C81.2682 17.8195 81.7163 17.247 82.4536 17.247Z" fill="#090909"/>
<path d="M90.1861 21.0707C91.4815 21.0707 92.2758 20.1996 92.2758 18.756C92.2758 17.3206 91.4774 16.4455 90.1861 16.4455C88.8907 16.4455 88.0923 17.3206 88.0923 18.756C88.0923 20.1996 88.8866 21.0707 90.1861 21.0707ZM90.1861 20.2896C89.4243 20.2896 88.9966 19.7293 88.9966 18.756C88.9966 17.7909 89.4243 17.2266 90.1861 17.2266C90.9438 17.2266 91.3756 17.7909 91.3756 18.756C91.3756 19.7252 90.9438 20.2896 90.1861 20.2896Z" fill="#090909"/>
<path d="M93.4352 20.9848H94.311V18.3798C94.311 17.6846 94.7224 17.2511 95.3701 17.2511C96.0178 17.2511 96.3274 17.6069 96.3274 18.3225V20.9848H97.2033V18.1017C97.2033 17.0425 96.6574 16.4455 95.6675 16.4455C94.9994 16.4455 94.5595 16.744 94.3436 17.2388H94.2784V16.5313H93.4352V20.9848Z" fill="#090909"/>
<path d="M101.237 15.4231V16.5518H100.532V17.292H101.237V19.807C101.237 20.6658 101.624 21.0093 102.597 21.0093C102.769 21.0093 102.932 20.9889 103.074 20.9644V20.2323C102.952 20.2446 102.874 20.2528 102.74 20.2528C102.304 20.2528 102.113 20.0483 102.113 19.5821V17.292H103.074V16.5518H102.113V15.4231H101.237Z" fill="#090909"/>
<path d="M104.25 20.9848H105.126V18.3839C105.126 17.7091 105.525 17.2552 106.242 17.2552C106.861 17.2552 107.191 17.6151 107.191 18.3266V20.9848H108.067V18.1099C108.067 17.0507 107.484 16.4496 106.539 16.4496C105.871 16.4496 105.403 16.7481 105.187 17.247H105.117V14.7933H104.25V20.9848Z" fill="#090909"/>
<path d="M111.226 17.1938C111.874 17.1938 112.298 17.6478 112.318 18.3471H110.077C110.126 17.6519 110.578 17.1938 111.226 17.1938ZM112.314 19.7825C112.151 20.1301 111.788 20.3223 111.259 20.3223C110.558 20.3223 110.106 19.8275 110.077 19.0464V18.9973H113.21V18.6906C113.21 17.292 112.465 16.4455 111.23 16.4455C109.98 16.4455 109.185 17.3492 109.185 18.7724C109.185 20.1955 109.963 21.0707 111.234 21.0707C112.249 21.0707 112.957 20.5799 113.157 19.7825H112.314Z" fill="#090909"/>
</svg>
