<svg width="147" height="57" viewBox="0 0 147 57" fill="none" xmlns="http://www.w3.org/2000/svg">
<rect x="0.798618" y="1.28971" width="144.986" height="54.4206" rx="8.42706" fill="white" stroke="#090909" stroke-width="0.609185"/>
<g filter="url(#filter0_ii_4487_4978)">
<path d="M15.5131 15.2207C15.2011 15.5522 15.0167 16.0666 15.0167 16.7328V40.5346C15.0167 41.2019 15.2011 41.7153 15.5131 42.0467L15.5924 42.1242L28.874 28.7908V28.6337V28.4766L15.5924 15.1421L15.5131 15.2207Z" fill="url(#paint0_linear_4487_4978)"/>
<path d="M33.3002 33.2365L28.8737 28.7906V28.6335V28.4764L33.3013 24.0315L33.401 24.0886L38.6465 27.0805C40.1441 27.935 40.1441 29.333 38.6465 30.1886L33.401 33.1805L33.3002 33.2365Z" fill="url(#paint1_linear_4487_4978)"/>
<g filter="url(#filter1_i_4487_4978)">
<path d="M33.4012 33.1794L28.8729 28.6334L15.5131 42.0465C16.0062 42.5717 16.822 42.6362 17.7408 42.1132L33.4012 33.1794Z" fill="url(#paint2_linear_4487_4978)"/>
</g>
<path d="M33.4012 24.0877L17.7408 15.155C16.822 14.6309 16.0062 14.6965 15.5131 15.2217L28.8739 28.6348L33.4012 24.0877Z" fill="url(#paint3_linear_4487_4978)"/>
</g>
<path d="M73.4555 29.9359C71.074 29.9359 69.133 31.7463 69.133 34.2399C69.133 36.7183 71.074 38.5439 73.4555 38.5439C75.8379 38.5439 77.7789 36.7183 77.7789 34.2399C77.7779 31.7463 75.8369 29.9359 73.4555 29.9359ZM73.4555 36.8498C72.1503 36.8498 71.0254 35.7741 71.0254 34.2409C71.0254 32.6915 72.1513 31.632 73.4555 31.632C74.7606 31.632 75.8855 32.6915 75.8855 34.2409C75.8855 35.7731 74.7606 36.8498 73.4555 36.8498ZM64.0249 29.9359C61.6435 29.9359 59.7025 31.7463 59.7025 34.2399C59.7025 36.7183 61.6435 38.5439 64.0249 38.5439C66.4074 38.5439 68.3484 36.7183 68.3484 34.2399C68.3484 31.7463 66.4074 29.9359 64.0249 29.9359ZM64.0249 36.8498C62.7198 36.8498 61.5949 35.7741 61.5949 34.2409C61.5949 32.6915 62.7208 31.632 64.0249 31.632C65.3301 31.632 66.455 32.6915 66.455 34.2409C66.456 35.7731 65.3301 36.8498 64.0249 36.8498ZM52.8084 31.2575V33.0832H57.1804C57.0498 34.1104 56.7075 34.8603 56.1851 35.3814C55.5492 36.017 54.5539 36.7183 52.8084 36.7183C50.1171 36.7183 48.0131 34.5496 48.0131 31.8597C48.0131 29.1698 50.1171 27.0011 52.8084 27.0011C54.2603 27.0011 55.3204 27.5719 56.1031 28.3056L57.392 27.0173C56.2985 25.9739 54.8476 25.1754 52.8084 25.1754C49.1218 25.1754 46.0225 28.175 46.0225 31.8597C46.0225 35.5444 49.1218 38.5439 52.8084 38.5439C54.7979 38.5439 56.2995 37.8912 57.473 36.6687C58.6799 35.4624 59.0555 33.7663 59.0555 32.3971C59.0555 31.974 59.0231 31.5824 58.9573 31.2565L52.8084 31.2575ZM98.6831 32.6754C98.3247 31.714 97.2312 29.9359 94.9966 29.9359C92.7782 29.9359 90.9344 31.6806 90.9344 34.2399C90.9344 36.6525 92.762 38.5439 95.2082 38.5439C97.1816 38.5439 98.3237 37.3376 98.7976 36.6363L97.3294 35.6577C96.8404 36.3752 96.1711 36.8478 95.2082 36.8478C94.2463 36.8478 93.5609 36.4076 93.1204 35.5434L98.8786 33.1631L98.6831 32.6754ZM92.8106 34.1104C92.762 32.4466 94.0995 31.5996 95.0624 31.5996C95.8127 31.5996 96.4485 31.9751 96.6612 32.5124L92.8106 34.1104ZM88.1297 38.2838H90.0211V25.6329H88.1297V38.2838ZM85.0294 30.8983H84.9646C84.5404 30.3923 83.7243 29.9359 82.6976 29.9359C80.544 29.9359 78.5707 31.8273 78.5707 34.2571C78.5707 36.6697 80.544 38.5449 82.6976 38.5449C83.7253 38.5449 84.5404 38.0885 84.9646 37.5673H85.0294V38.1867C85.0294 39.8332 84.1486 40.7136 82.73 40.7136C81.5717 40.7136 80.8539 39.8828 80.5602 39.1815L78.9129 39.8666C79.3857 41.0071 80.6412 42.4097 82.73 42.4097C84.9484 42.4097 86.8246 41.1053 86.8246 37.9256V30.198H85.0305L85.0294 30.8983ZM82.8607 36.8498C81.5555 36.8498 80.463 35.7569 80.463 34.2571C80.463 32.7401 81.5555 31.632 82.8607 31.632C84.1486 31.632 85.1601 32.7401 85.1601 34.2571C85.1601 35.7569 84.1486 36.8498 82.8607 36.8498ZM107.547 25.6329H103.02V38.2838H104.908V33.491H107.546C109.64 33.491 111.699 31.9761 111.699 29.5625C111.699 27.1488 109.641 25.6329 107.547 25.6329ZM107.595 31.7301H104.908V27.3937H107.595C109.008 27.3937 109.81 28.5626 109.81 29.5625C109.81 30.5421 109.008 31.7301 107.595 31.7301ZM119.272 29.9136C117.904 29.9136 116.487 30.5158 115.901 31.8506L117.578 32.5499C117.936 31.8506 118.604 31.6219 119.304 31.6219C120.281 31.6219 121.274 32.2078 121.29 33.2492V33.3797C120.948 33.1844 120.215 32.8919 119.32 32.8919C117.513 32.8919 115.672 33.8847 115.672 35.7397C115.672 37.4328 117.154 38.5227 118.815 38.5227C120.085 38.5227 120.785 37.9529 121.225 37.285H121.289V38.2616H123.114V33.4111C123.115 31.1665 121.436 29.9136 119.272 29.9136ZM119.043 36.8468C118.425 36.8468 117.561 36.5371 117.561 35.7721C117.561 34.7955 118.637 34.421 119.565 34.421C120.394 34.421 120.786 34.6002 121.29 34.8441C121.144 36.017 120.134 36.8468 119.043 36.8468ZM129.758 30.1899L127.592 35.6749H127.528L125.28 30.1899H123.245L126.615 37.8558L124.693 42.1203H126.664L131.859 30.1899H129.758ZM112.742 38.2838H114.63V25.6329H112.742V38.2838Z" fill="#090909"/>
<path d="M52.5725 18.1499C52.5725 18.9825 52.3217 19.6453 51.8189 20.1402C51.2484 20.7284 50.5038 21.0225 49.5893 21.0225C48.7133 21.0225 47.9677 20.7244 47.3557 20.1282C46.7427 19.531 46.4362 18.7918 46.4362 17.9094C46.4362 17.026 46.7427 16.2867 47.3557 15.6905C47.9677 15.0934 48.7133 14.7953 49.5893 14.7953C50.0243 14.7953 50.4401 14.8787 50.8346 15.0447C51.2301 15.2116 51.5468 15.4332 51.7835 15.7104L51.2504 16.2351C50.8488 15.7631 50.2954 15.5276 49.5883 15.5276C48.949 15.5276 48.3966 15.7482 47.9303 16.1894C47.4639 16.6305 47.2313 17.2039 47.2313 17.9084C47.2313 18.6129 47.4639 19.1862 47.9303 19.6274C48.3966 20.0686 48.949 20.2892 49.5883 20.2892C50.2661 20.2892 50.8316 20.0676 51.2838 19.6235C51.5771 19.3343 51.7471 18.9319 51.7926 18.4162H49.5883V17.6997H52.529C52.5594 17.8557 52.5725 18.0058 52.5725 18.1499Z" fill="#090909"/>
<path d="M57.2361 15.6598H54.4724V17.5497H56.965V18.2662H54.4724V20.1561H57.2361V20.8894H53.6925V14.9275H57.2361V15.6598Z" fill="#090909"/>
<path d="M60.5247 20.8894H59.7448V15.6598H58.0493V14.9275H62.2202V15.6598H60.5247V20.8894Z" fill="#090909"/>
<path d="M65.2377 20.8894V14.9275H66.0177V20.8894H65.2377Z" fill="#090909"/>
<path d="M69.4765 20.8894H68.6966V15.6598H67.0011V14.9275H71.172V15.6598H69.4765V20.8894Z" fill="#090909"/>
<path d="M79.0673 20.1193C78.4705 20.7215 77.7289 21.0226 76.8418 21.0226C75.9546 21.0226 75.2131 20.7215 74.6173 20.1193C74.0204 19.5172 73.723 18.7799 73.723 17.9084C73.723 17.037 74.0204 16.2997 74.6173 15.6975C75.2131 15.0954 75.9546 14.7933 76.8418 14.7933C77.7239 14.7933 78.4644 15.0964 79.0633 15.7015C79.6621 16.3067 79.9616 17.042 79.9616 17.9084C79.9616 18.7799 79.6631 19.5172 79.0673 20.1193ZM75.1929 19.6195C75.642 20.0667 76.1913 20.2893 76.8418 20.2893C77.4922 20.2893 78.0425 20.0657 78.4907 19.6195C78.9398 19.1724 79.1654 18.602 79.1654 17.9084C79.1654 17.2149 78.9398 16.6445 78.4907 16.1974C78.0425 15.7502 77.4922 15.5276 76.8418 15.5276C76.1913 15.5276 75.642 15.7512 75.1929 16.1974C74.7447 16.6445 74.5191 17.2149 74.5191 17.9084C74.5191 18.602 74.7447 19.1724 75.1929 19.6195Z" fill="#090909"/>
<path d="M81.0561 20.8894V14.9275H82.005L84.9549 19.5649H84.9882L84.9549 18.4162V14.9275H85.7348V20.8894H84.9205L81.8341 16.0265H81.8007L81.8341 17.1751V20.8894H81.0561Z" fill="#090909"/>
<path d="M52.5725 18.1499C52.5725 18.9825 52.3217 19.6453 51.8189 20.1402C51.2484 20.7284 50.5038 21.0225 49.5893 21.0225C48.7133 21.0225 47.9677 20.7244 47.3557 20.1282C46.7427 19.531 46.4362 18.7918 46.4362 17.9094C46.4362 17.026 46.7427 16.2867 47.3557 15.6905C47.9677 15.0934 48.7133 14.7953 49.5893 14.7953C50.0243 14.7953 50.4401 14.8787 50.8346 15.0447C51.2301 15.2116 51.5468 15.4332 51.7835 15.7104L51.2504 16.2351C50.8488 15.7631 50.2954 15.5276 49.5883 15.5276C48.949 15.5276 48.3966 15.7482 47.9303 16.1894C47.4639 16.6305 47.2313 17.2039 47.2313 17.9084C47.2313 18.6129 47.4639 19.1862 47.9303 19.6274C48.3966 20.0686 48.949 20.2892 49.5883 20.2892C50.2661 20.2892 50.8316 20.0676 51.2838 19.6235C51.5771 19.3343 51.7471 18.9319 51.7926 18.4162H49.5883V17.6997H52.529C52.5594 17.8557 52.5725 18.0058 52.5725 18.1499Z" stroke="white" stroke-width="0.0415285" stroke-miterlimit="10"/>
<path d="M57.2361 15.6598H54.4724V17.5497H56.965V18.2662H54.4724V20.1561H57.2361V20.8894H53.6925V14.9275H57.2361V15.6598Z" stroke="white" stroke-width="0.0415285" stroke-miterlimit="10"/>
<path d="M60.5247 20.8894H59.7448V15.6598H58.0493V14.9275H62.2202V15.6598H60.5247V20.8894Z" stroke="white" stroke-width="0.0415285" stroke-miterlimit="10"/>
<path d="M65.2377 20.8894V14.9275H66.0177V20.8894H65.2377Z" stroke="white" stroke-width="0.0415285" stroke-miterlimit="10"/>
<path d="M69.4765 20.8894H68.6966V15.6598H67.0011V14.9275H71.172V15.6598H69.4765V20.8894Z" stroke="white" stroke-width="0.0415285" stroke-miterlimit="10"/>
<path d="M79.0673 20.1193C78.4705 20.7215 77.7289 21.0226 76.8418 21.0226C75.9546 21.0226 75.2131 20.7215 74.6173 20.1193C74.0204 19.5172 73.723 18.7799 73.723 17.9084C73.723 17.037 74.0204 16.2997 74.6173 15.6975C75.2131 15.0954 75.9546 14.7933 76.8418 14.7933C77.7239 14.7933 78.4644 15.0964 79.0633 15.7015C79.6621 16.3067 79.9616 17.042 79.9616 17.9084C79.9616 18.7799 79.6631 19.5172 79.0673 20.1193ZM75.1929 19.6195C75.642 20.0667 76.1913 20.2893 76.8418 20.2893C77.4922 20.2893 78.0425 20.0657 78.4907 19.6195C78.9398 19.1724 79.1654 18.602 79.1654 17.9084C79.1654 17.2149 78.9398 16.6445 78.4907 16.1974C78.0425 15.7502 77.4922 15.5276 76.8418 15.5276C76.1913 15.5276 75.642 15.7512 75.1929 16.1974C74.7447 16.6445 74.5191 17.2149 74.5191 17.9084C74.5191 18.602 74.7447 19.1724 75.1929 19.6195Z" stroke="white" stroke-width="0.0415285" stroke-miterlimit="10"/>
<path d="M81.0561 20.8894V14.9275H82.005L84.9549 19.5649H84.9882L84.9549 18.4162V14.9275H85.7348V20.8894H84.9205L81.8341 16.0265H81.8007L81.8341 17.1751V20.8894H81.0561Z" stroke="white" stroke-width="0.0415285" stroke-miterlimit="10"/>
<defs>
<filter id="filter0_ii_4487_4978" x="15.0167" y="14.7933" width="24.753" height="27.6812" filterUnits="userSpaceOnUse" color-interpolation-filters="sRGB">
<feFlood flood-opacity="0" result="BackgroundImageFix"/>
<feBlend mode="normal" in="SourceGraphic" in2="BackgroundImageFix" result="shape"/>
<feColorMatrix in="SourceAlpha" type="matrix" values="0 0 0 0 0 0 0 0 0 0 0 0 0 0 0 0 0 0 127 0" result="hardAlpha"/>
<feOffset dy="-0.161434"/>
<feComposite in2="hardAlpha" operator="arithmetic" k2="-1" k3="1"/>
<feColorMatrix type="matrix" values="0 0 0 0 0 0 0 0 0 0 0 0 0 0 0 0 0 0 0.12 0"/>
<feBlend mode="normal" in2="shape" result="effect1_innerShadow_4487_4978"/>
<feColorMatrix in="SourceAlpha" type="matrix" values="0 0 0 0 0 0 0 0 0 0 0 0 0 0 0 0 0 0 127 0" result="hardAlpha"/>
<feOffset dy="0.161434"/>
<feComposite in2="hardAlpha" operator="arithmetic" k2="-1" k3="1"/>
<feColorMatrix type="matrix" values="0 0 0 0 1 0 0 0 0 1 0 0 0 0 1 0 0 0 0.25 0"/>
<feBlend mode="normal" in2="effect1_innerShadow_4487_4978" result="effect2_innerShadow_4487_4978"/>
</filter>
<filter id="filter1_i_4487_4978" x="15.5131" y="28.6334" width="17.8881" height="13.841" filterUnits="userSpaceOnUse" color-interpolation-filters="sRGB">
<feFlood flood-opacity="0" result="BackgroundImageFix"/>
<feBlend mode="normal" in="SourceGraphic" in2="BackgroundImageFix" result="shape"/>
<feColorMatrix in="SourceAlpha" type="matrix" values="0 0 0 0 0 0 0 0 0 0 0 0 0 0 0 0 0 0 127 0" result="hardAlpha"/>
<feOffset dy="-0.161434"/>
<feComposite in2="hardAlpha" operator="arithmetic" k2="-1" k3="1"/>
<feColorMatrix type="matrix" values="0 0 0 0 0 0 0 0 0 0 0 0 0 0 0 0 0 0 0.08 0"/>
<feBlend mode="normal" in2="shape" result="effect1_innerShadow_4487_4978"/>
</filter>
<linearGradient id="paint0_linear_4487_4978" x1="27.6966" y1="16.481" x2="9.63552" y2="34.4718" gradientUnits="userSpaceOnUse">
<stop stop-color="#00A0FF"/>
<stop offset="0.0066" stop-color="#00A1FF"/>
<stop offset="0.2601" stop-color="#00BEFF"/>
<stop offset="0.5122" stop-color="#00D2FF"/>
<stop offset="0.7604" stop-color="#00DFFF"/>
<stop offset="1" stop-color="#00E3FF"/>
</linearGradient>
<linearGradient id="paint1_linear_4487_4978" x1="40.596" y1="28.6335" x2="14.6569" y2="28.6335" gradientUnits="userSpaceOnUse">
<stop stop-color="#FFE000"/>
<stop offset="0.4087" stop-color="#FFBD00"/>
<stop offset="0.7754" stop-color="#FFA500"/>
<stop offset="1" stop-color="#FF9C00"/>
</linearGradient>
<linearGradient id="paint2_linear_4487_4978" x1="30.942" y1="31.1022" x2="6.44888" y2="55.5001" gradientUnits="userSpaceOnUse">
<stop stop-color="#FF3A44"/>
<stop offset="1" stop-color="#C31162"/>
</linearGradient>
<linearGradient id="paint3_linear_4487_4978" x1="12.1483" y1="7.29833" x2="23.0852" y2="18.1927" gradientUnits="userSpaceOnUse">
<stop stop-color="#32A071"/>
<stop offset="0.0685" stop-color="#2DA771"/>
<stop offset="0.4762" stop-color="#15CF74"/>
<stop offset="0.8009" stop-color="#06E775"/>
<stop offset="1" stop-color="#00F076"/>
</linearGradient>
</defs>
</svg>
