<svg width="48" height="37" viewBox="0 0 48 37" fill="none" xmlns="http://www.w3.org/2000/svg">
<path d="M0 6.37109C0 3.08984 2.625 0.371094 6 0.371094H42C45.2812 0.371094 48 3.08984 48 6.37109V30.3711C48 33.7461 45.2812 36.3711 42 36.3711H6C2.625 36.3711 0 33.7461 0 30.3711V6.37109ZM4.5 6.37109V8.52734L20.625 21.7461C22.5938 23.3398 25.3125 23.3398 27.2812 21.7461L43.5 8.52734V6.37109C43.5 5.62109 42.75 4.87109 42 4.87109H6C5.15625 4.87109 4.5 5.62109 4.5 6.37109ZM4.5 14.3398V30.3711C4.5 31.2148 5.15625 31.8711 6 31.8711H42C42.75 31.8711 43.5 31.2148 43.5 30.3711V14.3398L30.1875 25.2148C26.5312 28.2148 21.375 28.2148 17.7188 25.2148L4.5 14.3398Z" fill="white"/>
</svg>
